<svg width="119" height="93" viewBox="0 0 119 93" fill="none" xmlns="http://www.w3.org/2000/svg">
<path opacity="0.6" d="M80.9529 89.3854C80.9529 91.1241 71.5145 92.6143 59.8407 92.6143C48.1669 92.6143 38.7285 91.1241 38.7285 89.3854C38.7285 87.6468 48.1669 86.1565 59.8407 86.1565C71.5145 86.1565 80.9529 87.6468 80.9529 89.3854Z" fill="#005186"/>
<path d="M60.4469 88.7617C62.2322 88.7617 64.0176 88.5385 65.5797 88.0922V14.0017H52.8594V87.4227C54.8679 88.7617 58.6616 88.7617 60.4469 88.7617Z" fill="#FF6E05"/>
<path d="M59.7707 89.4324C56.4232 89.4324 53.9684 88.9861 52.6294 88.0934C52.4063 88.0934 52.4062 87.8702 52.4062 87.6471V14.2261C52.4062 14.003 52.6294 13.7798 53.0757 13.7798H65.7961C66.2424 13.7798 66.4656 14.003 66.4656 14.2261V88.3166C66.4656 88.5398 66.2424 88.7629 66.0193 88.7629C64.4571 89.2092 62.6718 89.4324 60.6633 89.4324H59.7707ZM53.5221 87.424C54.8611 88.0935 56.8695 88.3166 59.7707 88.3166H60.4402C62.2255 88.3166 63.5645 88.0934 64.9034 87.8703V14.8957H53.5221V87.424Z" fill="#1A1718"/>
<path d="M55.298 14.2268H53.0664V87.6477C53.7359 88.0941 54.4054 88.3173 55.298 88.5405V14.2268Z" fill="#FF6E05"/>
<g opacity="0.4">
<path d="M60.2227 14.2243V88.7611H60.4458C62.2311 88.7611 64.0165 88.538 65.5786 88.0916V14.0012H60.2227V14.2243Z" fill="#FF6E05"/>
</g>
<path d="M118.002 0.39386H0.394531V18.4701H118.002V0.39386Z" fill="#FF6E05"/>
<path d="M118.225 18.6952H0.617675C0.394511 18.6952 0.394531 18.472 0.394531 18.472V0.395751C0.394531 0.172587 0.394511 0.172607 0.617675 0.172607H118.225C118.225 0.172607 118.448 0.172587 118.448 0.395751L118.225 18.6952C118.448 18.472 118.225 18.6952 118.225 18.6952ZM0.617675 18.2489H117.779V0.618929H0.617675V18.2489Z" fill="#151715"/>
<g opacity="0.4">
<path d="M118.004 16.0183H0.396484V18.4731H118.004V16.0183Z" fill="#FF6E05"/>
</g>
<path d="M16.9202 9.99003C16.9202 11.1058 16.0276 11.7753 15.1349 11.7753C14.0191 11.7753 13.3496 10.8827 13.3496 9.99003C13.3496 8.87421 14.2423 7.98157 15.1349 7.98157C16.2507 8.20473 16.9202 9.09737 16.9202 9.99003Z" fill="#2E1D05"/>
<path d="M15.1335 12.2218C14.0176 12.2218 13.125 11.3291 13.125 10.2133C13.125 9.09751 14.0176 7.98169 15.1335 7.98169C16.2493 7.98169 17.142 8.87435 17.142 10.2133C17.142 11.3291 16.2493 12.2218 15.1335 12.2218ZM15.1335 8.42801C14.2408 8.42801 13.5713 9.09751 13.5713 10.2133C13.5713 11.106 14.2408 11.7754 15.1335 11.7754C16.0261 11.7754 16.6956 11.106 16.6956 10.2133C16.6956 9.09751 16.0261 8.42801 15.1335 8.42801Z" fill="#151715"/>
<path d="M103.526 9.99003C103.526 11.1058 102.633 11.7753 101.74 11.7753C100.625 11.7753 99.9551 10.8827 99.9551 9.99003C99.9551 8.87421 100.848 7.98157 101.74 7.98157C102.633 8.20473 103.526 9.09737 103.526 9.99003Z" fill="#2E1D05"/>
<path d="M101.727 12.2218C100.611 12.2218 99.7188 11.3291 99.7188 10.2133C99.7188 9.09751 100.611 7.98169 101.727 7.98169C102.843 7.98169 103.736 8.87435 103.736 10.2133C103.736 11.3291 102.843 12.2218 101.727 12.2218ZM101.727 8.42801C100.835 8.42801 100.165 9.09751 100.165 10.2133C100.165 11.106 100.835 11.7754 101.727 11.7754C102.62 11.7754 103.289 11.106 103.289 10.2133C103.289 9.09751 102.397 8.42801 101.727 8.42801Z" fill="#151715"/>
<path d="M118.004 18.2493H0.396484V36.3256H118.004V18.2493Z" fill="#FF6E05"/>
<path d="M118.227 36.7719H0.619628C0.396464 36.7719 0.396484 36.7719 0.396484 36.5487V18.4724C0.396484 18.2493 0.396464 18.2493 0.619628 18.2493H118.227C118.227 18.2493 118.45 18.2493 118.45 18.4724V36.5487L118.227 36.7719ZM0.619628 36.3256H117.781V18.6956H0.619628V36.3256Z" fill="#151715"/>
<g opacity="0.4">
<path d="M118.002 34.5389H0.394531V36.5473H118.002V34.5389Z" fill="#FF6E05"/>
</g>
<path d="M16.9242 27.1742C16.9242 28.29 16.0315 29.1826 15.1388 29.1826C14.023 29.1826 13.3535 28.29 13.3535 27.1742C13.3535 26.0584 14.2462 25.1656 15.1388 25.1656C16.2547 25.1656 16.9242 26.0584 16.9242 27.1742Z" fill="#2E1D05"/>
<path d="M15.1374 29.1818C14.0215 29.1818 13.1289 28.2892 13.1289 26.9502C13.1289 25.8344 14.0215 24.7186 15.1374 24.7186C16.2532 24.7186 17.1459 25.6112 17.1459 26.9502C17.1459 28.2892 16.2532 29.1818 15.1374 29.1818ZM15.1374 25.388C14.2447 25.388 13.5752 26.0576 13.5752 27.1734C13.5752 28.066 14.2447 28.7355 15.1374 28.7355C16.03 28.7355 16.6995 28.066 16.6995 27.1734C16.6995 26.0576 16.03 25.388 15.1374 25.388Z" fill="#151715"/>
<path d="M103.512 27.1742C103.512 28.29 102.619 29.1826 101.727 29.1826C100.611 29.1826 99.9414 28.29 99.9414 27.1742C99.9414 26.0584 100.834 25.1656 101.727 25.1656C102.619 25.1656 103.512 26.0584 103.512 27.1742Z" fill="#2E1D05"/>
<path d="M101.725 29.1818C100.609 29.1818 99.7168 28.2892 99.7168 26.9502C99.7168 25.8344 100.609 24.7186 101.725 24.7186C102.841 24.7186 103.734 25.6112 103.734 26.9502C103.734 28.2892 102.841 29.1818 101.725 29.1818ZM101.725 25.388C100.833 25.388 100.163 26.0576 100.163 27.1734C100.163 28.066 100.833 28.7355 101.725 28.7355C102.618 28.7355 103.287 28.066 103.287 27.1734C103.287 26.0576 102.395 25.388 101.725 25.388Z" fill="#151715"/>
<path d="M118.049 42.1284H0.441406V58.4194H118.049V42.1284Z" fill="#532912"/>
<path d="M118.269 59.0898H0.661165C0.438001 59.0898 0.214844 58.8666 0.214844 58.6434V42.3525C0.214844 42.1293 0.438001 41.9061 0.661165 41.9061H118.269C118.492 41.9061 118.715 42.1293 118.715 42.3525V58.6434C118.492 58.8666 118.269 59.0898 118.269 59.0898ZM0.884343 57.974H117.822V42.7988H0.884343V57.974Z" fill="#1A1718"/>
<path d="M118.041 35.874H0.433594V53.9503H118.041V35.874Z" fill="#FF6E05"/>
<path d="M118.264 54.1766H0.656737C0.433573 54.1766 0.433594 54.1767 0.433594 53.9535V35.8772C0.433594 35.8772 0.433573 35.6541 0.656737 35.6541H118.264C118.264 35.6541 118.487 35.6541 118.487 35.8772L118.264 54.1766C118.487 54.1766 118.264 54.1766 118.264 54.1766ZM0.656737 53.9535H117.818V36.3235H0.656737V53.9535Z" fill="#151715"/>
<g opacity="0.4">
<path d="M118.037 51.9486H0.429688V53.9571H118.037V51.9486Z" fill="#FF6E05"/>
</g>
<path d="M16.9281 44.5823C16.9281 45.6981 16.0354 46.3675 15.1427 46.3675C14.0269 46.3675 13.3574 45.4749 13.3574 44.5823C13.3574 43.4664 14.2501 42.5738 15.1427 42.5738C16.2586 42.797 16.9281 43.6896 16.9281 44.5823Z" fill="#2E1D05"/>
<path d="M15.1413 46.8138C14.0255 46.8138 13.1328 45.9211 13.1328 44.8053C13.1328 43.6895 14.0255 42.5737 15.1413 42.5737C16.2571 42.5737 17.1498 43.4663 17.1498 44.8053C17.1498 45.9211 16.2571 46.8138 15.1413 46.8138ZM15.1413 43.02C14.2486 43.02 13.5791 43.6895 13.5791 44.5821C13.5791 45.4748 14.2486 46.1443 15.1413 46.1443C16.0339 46.1443 16.7034 45.4748 16.7034 44.5821C16.7034 43.6895 16.0339 43.02 15.1413 43.02Z" fill="#151715"/>
<path d="M103.53 44.5823C103.53 45.6981 102.637 46.3675 101.744 46.3675C100.628 46.3675 99.959 45.4749 99.959 44.5823C99.959 43.4664 100.852 42.5738 101.744 42.5738C102.637 42.797 103.53 43.6896 103.53 44.5823Z" fill="#2E1D05"/>
<path d="M101.731 46.8138C100.615 46.8138 99.7227 45.9211 99.7227 44.8053C99.7227 43.6895 100.615 42.5737 101.731 42.5737C102.847 42.5737 103.74 43.4663 103.74 44.8053C103.74 45.9211 102.847 46.8138 101.731 46.8138ZM101.731 43.02C100.838 43.02 100.169 43.6895 100.169 44.5821C100.169 45.4748 100.838 46.1443 101.731 46.1443C102.624 46.1443 103.293 45.4748 103.293 44.5821C103.293 43.6895 102.401 43.02 101.731 43.02Z" fill="#151715"/>
<path d="M30.9543 14.9043L31.6238 20.4834C30.9543 20.4834 30.2848 20.4833 29.6153 20.7065C27.83 20.9297 25.3752 21.1529 22.4741 21.376L23.3667 30.0794C25.8215 29.8563 28.4995 29.6331 31.4006 29.1868L31.6238 33.8732C30.508 33.8732 29.6153 33.8732 28.7227 34.0963C27.3837 34.3195 26.0447 34.3195 24.7057 34.5427L25.5983 45.4777L20.4656 45.7009C20.2424 43.4693 20.0193 41.0145 19.7961 38.3365C19.1266 32.0879 18.4571 24.7235 17.5645 16.4664L30.9543 14.9043Z" fill="black"/>
<path d="M38.5434 12.001C38.3203 17.1338 38.0971 23.6056 38.0971 31.4163C38.0971 34.7638 38.0971 38.3344 38.0971 42.1282L33.6338 41.905V40.3429C33.6338 33.2016 33.4107 23.8287 33.1875 12.2242L38.5434 12.001Z" fill="black"/>
<path d="M40.543 11.3326L46.3452 10.8863C48.8 18.4739 51.478 25.1688 53.9328 31.4174C53.9328 28.7394 53.4865 21.8213 53.0401 10.6631H57.7266C57.7266 12.2253 57.7266 14.0106 57.7266 16.0191C57.7266 22.4909 57.9497 30.7479 58.1729 40.5671L52.1475 40.1208C50.3622 35.4343 47.6842 28.5162 44.3367 19.5897C44.5599 23.6066 44.5599 28.9626 44.5599 35.6575C44.5599 37.2197 44.5599 38.7818 44.5599 40.344H40.7661C40.9893 30.9711 40.7661 21.375 40.543 11.3326Z" fill="black"/>
<path d="M66.001 10.6631C65.5546 15.7959 65.3315 22.2677 65.1083 30.0784C65.1083 33.4259 65.1083 36.9965 64.8852 40.7903L60.4219 40.5671V39.005C60.645 31.8637 60.645 22.4908 60.4219 10.8863L66.001 10.6631Z" fill="black"/>
<path d="M67.1152 32.9798L71.8017 31.8639C71.8017 34.7651 72.248 36.5504 73.3638 37.2199C74.2565 37.6663 74.926 38.1126 75.8186 38.1126C76.0418 38.1126 76.265 38.1126 76.4881 38.1126C77.6039 37.8894 78.2734 37.4431 78.9429 36.7736C79.1661 36.3273 79.3893 35.6578 79.3893 34.9883C79.3893 34.542 79.3892 34.0956 79.1661 33.6493C78.9429 32.3103 78.0503 31.1945 76.265 30.525C74.7028 29.8555 73.1407 29.186 71.8017 28.2934C70.4627 27.6239 69.3469 26.508 68.9006 25.169C68.4542 24.0532 68.2311 22.9374 68.2311 21.5985C68.2311 21.1521 68.2311 20.929 68.2311 20.4826C68.4542 18.6973 69.3469 17.1352 70.909 15.7962C72.4712 14.4572 74.0333 13.7877 76.0418 13.7877H76.4881C78.7198 13.7877 80.2819 14.6804 81.8441 16.0194C83.1831 17.3583 83.8525 20.0363 84.0757 23.6069L79.6124 24.7227C79.3893 21.5984 78.9429 19.8131 78.0503 19.1436C77.3808 18.6973 76.9345 18.4741 76.265 18.4741C75.8186 18.4741 75.5955 18.4741 75.1492 18.6973C74.2565 19.1436 73.587 19.8131 73.1407 20.7057C72.9175 21.1521 72.9175 21.3752 72.9175 21.8216C72.9175 22.4911 73.1406 22.9374 73.587 23.6069C74.2565 24.4996 76.0418 25.6154 78.9429 26.7312C81.8441 27.847 83.6294 29.4092 84.0757 31.1945C84.2989 32.3103 84.522 33.2029 84.522 34.3188C84.522 34.9883 84.522 35.6577 84.2989 36.3272C84.0757 37.8894 83.4062 39.4516 82.5135 40.5674C81.6209 41.6832 80.5051 42.5758 78.7198 43.2453C77.6039 43.6917 76.4881 43.9149 75.5955 43.9149C74.926 43.9149 74.2565 43.9148 73.8102 43.6917C72.0248 43.2454 70.6859 42.3527 69.3469 41.0137C67.7847 39.0052 67.1152 36.5504 67.1152 32.9798Z" fill="black"/>
<path d="M94.332 20.0351L91.4309 32.5323L98.5722 33.6481L101.027 21.8204L105.713 23.1594C104.374 29.1848 102.366 38.7809 99.688 52.1707L95.671 51.0549L97.6795 39.6735L91.4309 38.3346L88.3066 49.4928L83.1738 48.377C84.5128 43.2442 85.8518 37.4419 87.1908 30.9701C88.0834 27.3995 88.7529 23.6057 89.6456 19.5887L94.332 20.0351Z" fill="black"/>
<path opacity="0.55" d="M106.163 22.7143C106.386 22.0448 106.609 21.1521 106.609 20.4827C106.833 19.8132 106.386 19.3668 105.717 19.1437L101.03 17.8047H100.807C100.584 17.8047 100.361 17.8047 100.138 18.0278C99.9145 18.251 99.6913 18.4741 99.6913 18.6973L97.4597 29.6323L93.4427 28.9629L95.2281 20.9289C95.2281 20.7058 95.228 20.2595 95.0049 20.0363C95.0049 19.8131 94.7817 19.8131 94.5586 19.5899L95.0049 17.3583C95.0049 17.1351 95.0049 16.6888 94.7817 16.4657C94.5585 16.2425 94.3354 16.0194 94.1122 16.0194L89.6489 15.1267H89.4258C88.9794 15.1267 88.5331 15.573 88.31 16.0194C87.4173 20.0363 86.5246 23.8301 85.8551 27.4007C85.632 28.5165 85.4088 29.6323 84.9625 30.7481C84.9625 29.6323 84.7393 28.7397 84.5162 27.6239C84.293 26.7312 83.6235 25.8386 82.7309 24.9459L83.4004 24.7228C83.8467 24.4996 84.293 24.0533 84.293 23.6069C84.293 22.7143 84.293 21.8216 84.0699 20.9289C84.293 20.7058 84.293 20.4826 84.293 20.2595C84.0698 16.2425 83.4004 13.3413 81.8382 11.7792C80.2761 10.2171 78.2676 9.32442 75.8128 9.32442H75.3664C73.1348 9.32442 71.1263 9.99394 69.341 11.5561C67.5557 13.1182 66.663 14.9035 66.4399 16.912C66.4399 17.3583 66.4399 17.8047 66.4399 18.251C66.4399 18.6973 66.4399 19.3668 66.6631 19.8131C66.6631 20.0363 66.6631 20.0363 66.6631 20.2595C66.6631 20.7058 66.6631 21.1521 66.6631 21.5985C66.6631 22.9375 66.8862 24.2764 67.3326 25.6154C67.7789 26.5081 68.4483 27.4007 69.1178 28.2934L66.4399 28.9629C66.2167 28.9629 65.9936 29.186 65.9936 29.4092C66.2167 22.268 66.4399 16.0194 66.8862 11.3329C66.8862 11.1097 66.8862 10.8866 66.6631 10.6634C66.6631 9.77076 66.8862 8.87811 66.8862 7.98545C66.8862 7.76229 66.8862 7.31594 66.6631 7.09278C66.4399 6.86961 66.2167 6.64646 65.7704 6.64646L60.4145 6.86963C59.745 6.86963 59.2986 7.31596 59.2986 7.98545V11.1097V11.3329C59.2986 16.2425 59.2986 20.7058 59.2986 24.7228C59.2986 28.0702 59.2986 30.9713 59.2986 33.6493C59.0755 26.2849 58.8523 20.0363 58.8523 14.9036C58.8523 13.5646 58.8523 12.2256 58.8523 11.1097V10.8866C58.8523 9.77074 58.8523 8.65493 58.8523 7.76228C58.8523 7.53911 58.6291 7.0928 58.6291 6.86963C58.406 6.64647 58.1828 6.42328 57.7365 6.42328H53.05C52.8269 6.42328 52.3806 6.64647 52.1574 6.86963C51.9342 7.0928 51.9342 7.31595 51.9342 7.76228L52.1574 10.6634C52.1574 10.8866 51.9342 11.1097 51.9342 11.1097C52.1574 15.1267 52.1574 18.6973 52.3805 21.5985C50.8184 17.3584 49.0331 12.6719 47.4709 7.76228C47.2478 7.31595 46.8014 7.09278 46.3551 7.09278L40.3297 7.5391C39.6602 7.5391 39.2139 7.98543 39.2139 8.65492C39.2139 8.65492 39.2139 8.65494 39.2139 8.43178C38.9907 8.20861 38.7676 8.2086 38.3212 8.2086L32.9653 8.65492C32.2958 8.65492 31.8495 9.10125 31.8495 9.77074V11.7792C31.6263 11.3329 31.18 11.1097 30.7336 11.1097C30.7336 11.1097 30.7337 11.1097 30.5105 11.1097L17.1206 12.6719C16.4512 12.6719 16.0048 13.3413 16.228 14.0108L16.4511 16.4657C16.228 16.6888 16.228 16.912 16.228 17.3583C17.1206 25.6154 18.0133 32.9798 18.4596 39.2284C18.6828 41.9064 18.9059 44.3612 19.1291 46.5928C19.1291 47.2623 19.5754 47.7086 20.2449 47.7086L25.3777 47.4854C25.6009 47.4854 26.0472 47.2623 26.2704 47.0392C26.4935 46.816 26.4935 46.5928 26.4935 46.1465L26.2704 43.4685C26.4935 43.2453 26.4935 43.0222 26.4935 42.5759L25.824 36.1041C26.7167 35.881 27.6093 35.881 28.502 35.881C29.3946 35.881 30.2873 35.6578 31.4031 35.6578C31.6263 35.6578 32.0726 35.4346 32.0726 35.2114C32.0726 37.2199 32.0726 39.2284 32.0726 41.0137V42.5759C32.0726 43.2454 32.519 43.6917 33.1884 43.6917L37.6517 43.9149C37.8749 43.9149 38.3212 43.6917 38.5444 43.6917C38.7675 43.4685 38.9907 43.2454 38.9907 42.799C38.9907 41.6832 38.9907 40.7905 38.9907 39.6747V39.4516C38.9907 36.3273 38.9907 33.4261 38.9907 30.7481C38.9907 25.169 39.2139 20.2594 39.2139 16.2425C39.437 24.7227 39.6602 33.203 39.6602 41.2369C39.6602 41.9064 40.1065 42.3527 40.776 42.3527H44.5698C45.2393 42.3527 45.6856 41.9064 45.6856 41.2369C45.6856 39.6747 45.6856 38.1126 45.6856 36.5504V33.203C45.6856 31.1945 45.6856 29.4092 45.6856 27.6239C47.9173 33.4261 49.7026 38.1126 51.0416 41.4601C51.2647 41.9064 51.4879 42.1295 51.9342 42.1295L57.9596 42.5759C58.1828 42.5759 58.6291 42.3527 58.8523 42.3527C59.0755 42.1295 59.0755 42.1295 59.0755 41.9063C59.2986 42.3527 59.5218 42.5759 59.9681 42.5759L64.4314 42.799C64.6546 42.799 65.1009 42.5759 65.3241 42.5759C65.5472 42.3527 65.7704 42.1296 65.7704 41.6832C65.7704 39.8979 65.7704 38.3357 65.7704 36.5504C65.9935 39.0052 66.8862 40.7905 67.7789 42.1295C69.1179 43.6917 70.9032 44.8075 72.9117 45.2538C73.5811 45.477 74.2506 45.477 74.9201 45.477C76.0359 45.477 77.3749 45.2538 78.4908 44.8075C80.0529 44.3612 81.3919 43.4685 82.2845 42.3527C82.0614 43.2453 81.8382 44.138 81.615 45.0307C81.615 45.2539 81.6151 45.7002 81.8382 45.9233C81.8382 46.1465 82.0614 46.1465 82.2845 46.3696C82.0614 47.0391 81.8382 47.9318 81.8382 48.6013C81.8382 48.8244 81.8382 49.2708 82.0614 49.494C82.2845 49.7171 82.5077 49.9403 82.7309 49.9403L87.8636 51.0561H88.0868C88.5331 51.0561 88.9794 50.8329 89.2026 50.1634L91.8806 40.1211L95.4512 40.7905L94.1122 47.7086C94.1122 48.1549 94.1122 48.6013 94.5586 48.8244L94.1122 51.0561C94.1122 51.7256 94.3354 52.1719 95.0049 52.3951L99.0218 53.5109H99.245C99.4681 53.5109 99.6913 53.5109 99.9145 53.2877C100.138 53.0646 100.361 52.8414 100.361 52.6183C103.039 39.4516 105.047 29.6324 106.386 23.8301C106.833 23.3838 106.609 22.9375 106.163 22.7143ZM32.0726 25.8386C31.8495 25.6154 31.6263 25.6154 31.4031 25.6154C31.4031 25.6154 31.4031 25.6154 31.18 25.6154C28.9483 25.8386 26.4935 26.0617 24.485 26.2849L24.2619 23.1606C26.4935 22.9374 28.502 22.7143 29.841 22.4911C30.7336 22.4911 31.4031 22.2679 31.8495 22.2679C32.0726 22.2679 32.0726 22.2679 32.2958 22.0448C32.2958 23.3837 32.2958 24.7228 32.2958 25.8386C32.2958 26.0617 32.0726 25.8386 32.0726 25.8386ZM74.6969 20.7058C74.9201 20.4826 75.1433 20.4827 75.3664 20.4827C75.5896 20.4827 75.8128 20.2595 76.0359 20.2595C76.4823 20.2595 76.7054 20.4826 77.1518 20.7058C77.1518 20.7058 77.5981 21.1521 78.0444 22.4911C76.0359 21.5985 75.1433 21.1521 74.6969 20.7058ZM75.8128 32.0871C76.7054 32.5335 77.3749 32.9798 77.5981 33.6493C77.3749 33.8725 76.9286 34.0956 76.2591 34.3188C76.0359 34.3188 76.0359 34.3188 75.8128 34.3188C75.1433 34.3188 74.4738 34.0956 74.0275 33.6493C73.8043 33.4261 73.358 32.9798 73.1348 30.7481C73.8043 31.1945 74.6969 31.6408 75.8128 32.0871Z" fill="#723411"/>
<path d="M30.9543 11.5555L31.6238 17.1346C30.9543 17.1346 30.2848 17.1346 29.6153 17.3578C27.83 17.5809 25.3752 17.8041 22.4741 18.0273L23.3667 26.7307C25.8215 26.5075 28.4995 26.2844 31.4006 25.838L31.6238 30.5245C30.508 30.5245 29.6153 30.5244 28.7227 30.7476C27.3837 30.9708 26.0447 30.9708 24.7057 31.1939L25.5983 42.129L20.4656 42.3521C20.2424 40.1205 20.0193 37.6657 19.7961 34.9878C19.1266 28.7392 18.4571 21.3747 17.5645 13.1176L30.9543 11.5555Z" fill="white"/>
<path d="M38.5434 8.65283C38.3203 13.7856 38.0971 20.2574 38.0971 28.0681C38.0971 31.4156 38.0971 34.9862 38.0971 38.78L33.6338 38.5568V36.9947C33.6338 29.8534 33.4107 20.4805 33.1875 8.87601L38.5434 8.65283Z" fill="white"/>
<path d="M40.543 7.98444L46.3452 7.53808C48.8 15.1257 51.478 21.8206 53.9328 28.0692C53.9328 25.3912 53.4865 18.4731 53.0401 7.31494H57.7266C57.7266 8.87709 57.7266 10.6624 57.7266 12.6709C57.7266 19.1427 57.9497 27.3997 58.1729 37.2189L52.1475 36.7726C50.3622 32.0861 47.6842 25.168 44.3367 16.2415C44.5599 20.2584 44.5599 25.6144 44.5599 32.3093C44.5599 33.8714 44.5599 35.4336 44.5599 36.9958H40.7661C40.9893 27.6229 40.7661 17.8037 40.543 7.98444Z" fill="white"/>
<path d="M66.001 7.09271C65.5546 12.2255 65.3315 18.6972 65.1083 26.508C65.1083 29.8554 65.1083 33.4261 64.8852 37.2199L60.4219 36.9967V35.4345C60.645 28.2933 60.645 18.9204 60.4219 7.31589L66.001 7.09271Z" fill="white"/>
<path d="M67.1152 29.6313L71.8017 28.5155C71.8017 31.4166 72.248 33.202 73.3638 33.8715C74.2565 34.3178 74.926 34.7641 75.8186 34.7641C76.0418 34.7641 76.265 34.7641 76.4881 34.7641C77.6039 34.5409 78.2734 34.0946 78.9429 33.4251C79.1661 32.9788 79.3893 32.3093 79.3893 31.6398C79.3893 31.1935 79.3892 30.7472 79.1661 30.3008C78.9429 28.9618 78.0503 27.846 76.265 27.1765C74.7028 26.507 73.1407 25.8376 71.8017 24.9449C70.4627 24.2754 69.3469 23.1595 68.9006 21.8206C68.4542 20.7047 68.2311 19.589 68.2311 18.25C68.2311 17.8037 68.2311 17.5805 68.2311 17.1342C68.4542 15.3489 69.3469 13.7867 70.909 12.4477C72.4712 11.1087 74.0333 10.4392 76.0418 10.4392H76.4881C78.7198 10.4392 80.2819 11.3319 81.8441 12.6709C83.1831 14.0099 83.8525 16.6878 84.0757 20.2584L79.6124 21.3743C79.3893 18.25 78.9429 16.4647 78.0503 15.7952C77.3808 15.3488 76.9345 15.1256 76.265 15.1256C75.8186 15.1256 75.5955 15.1256 75.1492 15.3488C74.2565 15.7951 73.587 16.4646 73.1407 17.3573C72.9175 17.8036 72.9175 18.0268 72.9175 18.4731C72.9175 19.1426 73.1406 19.589 73.587 20.2584C74.2565 21.1511 76.0418 22.2669 78.9429 23.3827C81.8441 24.4985 83.6294 26.0607 84.0757 27.846C84.2989 28.9618 84.522 29.8545 84.522 30.9703C84.522 31.6398 84.522 32.3093 84.2989 32.9788C84.0757 34.5409 83.4062 36.1031 82.5135 37.2189C81.6209 38.3347 80.5051 39.2274 78.7198 39.8968C77.6039 40.3432 76.4881 40.5664 75.5955 40.5664C74.926 40.5664 74.2565 40.5664 73.8102 40.3432C72.0248 39.8969 70.6859 39.0042 69.3469 37.6652C67.7847 35.6567 67.1152 32.9788 67.1152 29.6313Z" fill="white"/>
<path d="M94.332 16.4646L91.4309 28.9618L98.5722 30.0776L101.027 18.25L105.713 19.5889C104.374 25.6143 102.366 35.2104 99.688 48.6002L95.671 47.4844L97.6795 36.1031L91.4309 34.7641L88.3066 45.9223L83.1738 44.8065C84.5128 39.6737 85.8518 33.8714 87.1908 27.3996C88.0834 23.829 88.7529 20.0353 89.6456 16.0183L94.332 16.4646Z" fill="white"/>
</svg>
