<svg width="108" height="84" viewBox="0 0 108 84" fill="none" xmlns="http://www.w3.org/2000/svg">
<path opacity="0.6" d="M76.2469 80.7379C76.2469 82.4766 66.8085 83.9669 55.1347 83.9669C43.4609 83.9669 34.0225 82.4766 34.0225 80.7379C34.0225 78.9993 43.4609 77.509 55.1347 77.509C66.8085 77.509 76.2469 78.9993 76.2469 80.7379Z" fill="#005186"/>
<path opacity="0.6" d="M66.0614 80.7358C66.0614 81.7294 61.0939 82.4745 55.1328 82.4745C49.1717 82.4745 44.2041 81.7294 44.2041 80.7358C44.2041 79.7423 49.1717 78.9972 55.1328 78.9972C61.0939 78.9972 66.0614 79.7423 66.0614 80.7358Z" fill="#564312"/>
<path d="M54.8902 81.4836C56.6288 81.4836 58.1191 81.2352 59.6094 80.9869V13.4278H47.9355V80.2417C49.9226 81.4836 53.3999 81.4836 54.8902 81.4836Z" fill="#FF6E05"/>
<path d="M54.3918 81.9836C51.4112 81.9836 49.1758 81.7352 47.9339 80.7417C47.6855 80.7417 47.6855 80.4933 47.6855 80.2449V13.431C47.6855 13.1826 47.9339 12.9343 48.1823 12.9343H59.8561C60.1045 12.9343 60.3529 13.1826 60.3529 13.431V80.7417C60.3529 80.9901 60.1045 81.2384 59.8561 81.2384C58.3658 81.4868 56.8756 81.7352 54.8885 81.7352L54.3918 81.9836ZM48.6791 80.2449C49.921 80.7417 51.6596 80.9901 54.3918 80.9901H55.1369C56.6272 80.9901 58.1175 80.7417 59.3594 80.4933V13.9278H48.9274V80.2449H48.6791Z" fill="#1A1718"/>
<path d="M50.1823 13.4281H48.1953V80.242C48.6921 80.4904 49.4372 80.7388 50.1823 80.9872V13.4281Z" fill="#FF6E05"/>
<g opacity="0.4">
<path d="M54.875 13.4281V81.4839C54.875 81.4839 54.875 81.4839 55.1234 81.4839C56.862 81.4839 58.3523 81.2355 59.8426 80.9872V13.4281H54.875Z" fill="#923B13"/>
</g>
<path d="M107.3 1.00592H0.249023V17.3989H107.3V1.00592Z" fill="#FF6E05"/>
<path d="M107.548 17.6494H0.24838C0.24838 17.6494 0 17.6494 0 17.401V1.00802C0 1.00802 9.43789e-07 0.759644 0.24838 0.759644H107.3C107.3 0.759644 107.548 0.75964 107.548 1.00802V17.6494C107.796 17.401 107.548 17.6494 107.548 17.6494ZM0.496757 17.1526H107.3V1.00802H0.496757V17.1526Z" fill="#FF6E05"/>
<g opacity="0.4">
<path d="M107.3 15.1697H0.249023V17.4052H107.3V15.1697Z" fill="#923B13"/>
</g>
<path d="M15.3836 9.69757C15.3836 10.6911 14.6384 11.4362 13.6449 11.4362C12.6514 11.4362 11.9062 10.6911 11.9062 9.69757C11.9062 8.70405 12.6514 7.95892 13.6449 7.95892C14.6384 7.95892 15.3836 8.70405 15.3836 9.69757Z" fill="#2E1D05"/>
<path d="M13.6449 11.6911C12.6514 11.6911 11.9062 10.6976 11.9062 9.70407C11.9062 8.71055 12.6514 7.71704 13.6449 7.71704C14.6384 7.71704 15.6319 8.46218 15.6319 9.70407C15.6319 10.6976 14.6384 11.6911 13.6449 11.6911ZM13.6449 8.2138C12.8998 8.2138 12.1546 8.95893 12.1546 9.70407C12.1546 10.4492 12.8998 11.1943 13.6449 11.1943C14.39 11.1943 15.1352 10.4492 15.1352 9.70407C15.1352 8.95893 14.6384 8.2138 13.6449 8.2138Z" fill="#FF6E05"/>
<path d="M94.1228 9.69757C94.1228 10.6911 93.3777 11.4362 92.3842 11.4362C91.3906 11.4362 90.6455 10.6911 90.6455 9.69757C90.6455 8.70405 91.3906 7.95892 92.3842 7.95892C93.3777 7.95892 94.1228 8.70405 94.1228 9.69757Z" fill="#2E1D05"/>
<path d="M92.3835 11.6911C91.39 11.6911 90.3965 10.6976 90.3965 9.70407C90.3965 8.71055 91.1416 7.71704 92.3835 7.71704C93.377 7.71704 94.1222 8.46218 94.1222 9.70407C94.3705 10.6976 93.377 11.6911 92.3835 11.6911ZM92.3835 8.2138C91.6384 8.2138 90.8932 8.95893 90.8932 9.70407C90.8932 10.4492 91.6384 11.1943 92.3835 11.1943C93.1286 11.1943 93.8738 10.4492 93.8738 9.70407C93.8738 8.95893 93.377 8.2138 92.3835 8.2138Z" fill="#FF6E05"/>
<path d="M107.3 17.1518H0.249023V33.5448H107.3V17.1518Z" fill="#FF6E05"/>
<path d="M107.548 34.0411H0.24838C0.24838 34.0411 0 34.0411 0 33.7928L0 17.3998C0 17.3998 9.43789e-07 17.1514 0.24838 17.1514H107.3C107.3 17.1514 107.548 17.1514 107.548 17.3998V34.0411C107.796 33.7928 107.548 34.0411 107.548 34.0411ZM0.496757 33.5444H107.3V17.3998H0.496757V33.5444Z" fill="#FF6E05"/>
<g opacity="0.4">
<path d="M107.3 32.0514H0.249023V33.79H107.3V32.0514Z" fill="#923B13"/>
</g>
<path d="M15.3836 25.1027C15.3836 26.0962 14.6384 26.8413 13.6449 26.8413C12.6514 26.8413 11.9062 26.0962 11.9062 25.1027C11.9062 24.1092 12.6514 23.364 13.6449 23.364C14.6384 23.364 15.3836 24.3575 15.3836 25.1027Z" fill="#2E1D05"/>
<path d="M13.6449 27.0961C12.6514 27.0961 11.9062 26.1026 11.9062 25.109C11.9062 24.1155 12.6514 23.122 13.6449 23.122C14.6384 23.122 15.6319 23.8671 15.6319 25.109C15.6319 26.3509 14.6384 27.0961 13.6449 27.0961ZM13.6449 23.6188C12.8998 23.6188 12.1546 24.3639 12.1546 25.109C12.1546 25.8542 12.8998 26.5993 13.6449 26.5993C14.39 26.5993 15.1352 25.8542 15.1352 25.109C15.1352 24.3639 14.6384 23.6188 13.6449 23.6188Z" fill="#FF6E05"/>
<path d="M94.1228 25.1027C94.1228 26.0962 93.3777 26.8413 92.3842 26.8413C91.3906 26.8413 90.6455 26.0962 90.6455 25.1027C90.6455 24.1092 91.3906 23.364 92.3842 23.364C93.3777 23.364 94.1228 24.3575 94.1228 25.1027Z" fill="#2E1D05"/>
<path d="M92.3835 27.0961C91.39 27.0961 90.3965 26.1026 90.3965 25.109C90.3965 24.1155 91.1416 23.122 92.3835 23.122C93.377 23.122 94.1222 23.8671 94.1222 25.109C94.3705 26.3509 93.377 27.0961 92.3835 27.0961ZM92.3835 23.6188C91.6384 23.6188 90.8932 24.3639 90.8932 25.109C90.8932 25.8542 91.6384 26.5993 92.3835 26.5993C93.1286 26.5993 93.8738 25.8542 93.8738 25.109C93.8738 24.3639 93.377 23.6188 92.3835 23.6188Z" fill="#FF6E05"/>
<path d="M107.302 39.0132H0.250977V53.9159H107.302V39.0132Z" fill="#532912"/>
<path d="M107.548 54.4163H0.24838C9.43789e-07 54.4163 0 54.1679 0 53.9195L0 39.0168C0 38.7684 0.24838 38.52 0.24838 38.52H107.3C107.548 38.52 107.548 38.7684 107.548 39.0168V53.9195C107.796 54.1679 107.796 54.4163 107.548 54.4163ZM0.745137 53.4228H107.3V39.5135H0.745137V53.4228Z" fill="#1A1718"/>
<path d="M107.3 33.3011H0.249023V49.6941H107.3V33.3011Z" fill="#FF6E05"/>
<path d="M107.548 49.9489H0.24838C0.24838 49.9489 0 49.9489 0 49.7005L0 33.3075C0 33.3075 9.43789e-07 33.0591 0.24838 33.0591H107.3C107.3 33.0591 107.548 33.0591 107.548 33.3075V49.9489C107.796 49.9489 107.548 49.9489 107.548 49.9489ZM0.496757 49.7005H107.3V33.5559H0.496757V49.7005Z" fill="#FF6E05"/>
<g opacity="0.4">
<path d="M107.3 47.9578H0.249023V49.6965H107.3V47.9578Z" fill="#923B13"/>
</g>
<path d="M15.3836 41.2492C15.3836 42.2427 14.6384 42.9878 13.6449 42.9878C12.6514 42.9878 11.9062 42.2427 11.9062 41.2492C11.9062 40.2556 12.6514 39.5105 13.6449 39.5105C14.6384 39.5105 15.3836 40.2556 15.3836 41.2492Z" fill="#2E1D05"/>
<path d="M13.6449 43.2376C12.6514 43.2376 11.9062 42.4925 11.9062 41.2506C11.9062 40.2571 12.6514 39.2635 13.6449 39.2635C14.6384 39.2635 15.6319 40.0087 15.6319 41.2506C15.6319 42.2441 14.6384 43.2376 13.6449 43.2376ZM13.6449 39.7603C12.8998 39.7603 12.1546 40.5055 12.1546 41.2506C12.1546 41.9957 12.8998 42.7409 13.6449 42.7409C14.39 42.7409 15.1352 41.9957 15.1352 41.2506C15.1352 40.5055 14.6384 39.7603 13.6449 39.7603Z" fill="#FF6E05"/>
<path d="M94.1228 41.2492C94.1228 42.2427 93.3777 42.9878 92.3842 42.9878C91.3906 42.9878 90.6455 42.2427 90.6455 41.2492C90.6455 40.2556 91.3906 39.5105 92.3842 39.5105C93.3777 39.5105 94.1228 40.2556 94.1228 41.2492Z" fill="#2E1D05"/>
<path d="M92.3835 43.2376C91.39 43.2376 90.3965 42.4925 90.3965 41.2506C90.3965 40.2571 91.1416 39.2635 92.3835 39.2635C93.377 39.2635 94.1222 40.0087 94.1222 41.2506C94.3705 42.2441 93.377 43.2376 92.3835 43.2376ZM92.3835 39.7603C91.6384 39.7603 90.8932 40.5055 90.8932 41.2506C90.8932 41.9957 91.6384 42.7409 92.3835 42.7409C93.1286 42.7409 93.8738 41.9957 93.8738 41.2506C93.8738 40.5055 93.377 39.7603 92.3835 39.7603Z" fill="#FF6E05"/>
<path d="M19.1406 34.5426L23.1146 32.5556C23.6114 35.2877 24.6049 36.778 25.5984 37.2748C26.3436 37.5231 27.0887 37.7715 28.0822 37.5232C28.3306 37.5232 28.579 37.5231 28.579 37.2748C29.5725 37.0264 30.0693 36.2813 30.3176 35.5361C30.566 35.0394 30.566 34.5426 30.3176 33.7975C30.3176 33.3007 30.0693 33.0523 29.8209 32.5556C29.3241 31.3137 28.3306 30.5686 26.592 30.3202C24.8533 30.0718 23.363 29.575 22.1211 29.3267C20.6309 28.8299 19.6373 28.0848 18.8922 27.0912C18.1471 26.0977 17.8987 25.1042 17.6503 24.1107C17.6503 23.8623 17.4019 23.3656 17.4019 23.1172C17.1536 21.6269 17.6503 19.8883 18.8922 18.398C19.8857 16.9077 21.376 15.9142 23.1146 15.6658H23.363C25.3501 15.4174 27.0887 15.6658 28.579 16.6593C30.0693 17.6529 31.3112 19.8883 32.0563 23.1172L28.3306 24.3591C27.5855 21.6269 26.592 20.1366 25.8468 19.6399C25.1017 19.3915 24.6049 19.3915 24.1082 19.3915C23.8598 19.3915 23.363 19.6399 23.1146 19.8883C22.3695 20.385 21.8728 21.1301 21.6244 22.1237C21.6244 22.372 21.6244 22.8688 21.6244 23.1172C21.8728 23.6139 22.1211 24.1107 22.6179 24.6075C23.363 25.3526 25.3501 25.8493 28.0822 26.3461C31.0628 26.8429 32.8014 27.8364 33.7949 29.3267C34.2917 30.3202 34.5401 31.0653 34.7885 32.0588C35.0368 32.5556 35.0368 33.3007 35.0368 33.7975C35.0368 35.2877 34.7885 36.778 34.2917 38.0199C33.7949 39.2618 32.8014 40.2553 31.3112 41.0005C30.3176 41.4972 29.5725 41.994 28.579 42.2423C28.0822 42.4907 27.3371 42.4907 26.8403 42.4907C25.1017 42.4907 23.6114 41.994 22.3695 41.0005C20.8792 39.7586 19.8857 37.7715 19.1406 34.5426Z" fill="black"/>
<path d="M33.0508 14.1737C33.2992 13.1801 33.2992 11.9382 33.2992 10.9447C33.2992 10.6963 33.2992 10.448 33.2992 10.1996C37.5216 10.448 40.9989 10.448 43.9795 10.448C45.4697 10.448 46.7116 10.448 47.9535 10.448C47.9535 12.435 48.2019 13.6769 48.2019 14.422H43.2343C43.2343 16.4091 43.2343 18.3961 43.2343 20.3831C43.2343 26.5926 43.2343 32.3053 43.4827 37.2729H38.5151C39.0119 32.0569 39.0119 26.0958 39.0119 19.3896C39.0119 17.8993 39.0119 16.4091 39.0119 14.9188V14.422L33.0508 14.1737Z" fill="black"/>
<path d="M58.6227 14.918C59.1195 23.1145 60.113 31.311 61.1065 39.2591H56.6357L55.8906 32.5529L51.1714 32.3045L49.6811 38.0173L45.707 37.7689C48.1908 29.324 50.4262 21.3759 52.1649 14.4213L58.6227 14.918ZM56.3873 29.0756L55.8906 17.8986L54.897 18.1469L51.9165 28.5789L56.3873 29.0756Z" fill="black"/>
<path d="M62.3574 38.0168C63.1026 28.3301 63.8477 19.8852 64.0961 12.6822C65.5863 12.6822 67.0766 12.6822 68.3185 12.9306C72.2926 13.179 74.7764 14.1725 76.0183 15.4144C77.5085 16.9046 78.0053 19.14 77.7569 21.6238C77.7569 21.8722 77.7569 22.369 77.7569 22.6173C77.2602 25.5979 76.0183 27.3365 73.5345 28.0817C74.528 31.3106 75.5215 34.7879 76.2666 38.762L72.0442 39.7555C71.2991 35.533 70.5539 32.3041 69.8088 29.5719L67.325 29.8203L66.5799 38.2652L62.3574 38.0168ZM67.0766 26.0947H67.325C69.8088 26.343 71.5474 25.8463 72.2926 24.8528C73.0377 24.1076 73.5345 23.1141 73.5345 21.6238C73.5345 21.3755 73.5345 21.1271 73.5345 20.6303C73.5345 18.8917 73.0377 17.8981 71.7958 17.4014C71.2991 17.153 70.5539 16.9046 69.8088 16.9046C69.0637 16.9046 68.5669 16.9046 67.5734 16.9046L67.0766 26.0947Z" fill="black"/>
<path d="M79.9951 19.3897C80.2435 18.3962 80.4919 17.1543 80.4919 16.1608C80.4919 15.9124 80.4919 15.664 80.4919 15.4156C84.7143 16.1608 88.1916 16.6575 90.9238 17.1543C92.4141 17.4027 93.656 17.4027 94.8979 17.6511C94.6495 19.6381 94.6495 20.88 94.4011 21.6251L89.4335 21.1284C89.1851 23.1154 88.9368 25.1024 88.6884 26.8411C87.9432 33.0505 87.1981 38.5149 86.7013 43.7308L81.7338 42.9857C82.7273 37.7697 83.7208 31.8086 84.7143 25.1024C84.9627 23.6121 85.2111 22.1219 85.2111 20.6316V20.3832L79.9951 19.3897Z" fill="black"/>
<path opacity="0.55" d="M35.768 30.5694C35.5196 29.5759 35.2712 28.5824 34.5261 27.5889C33.781 26.347 32.5391 25.3535 30.8004 24.8567L32.2907 24.1116C32.7875 23.8632 33.0358 23.3665 32.7875 22.8697C32.7875 22.6213 32.5391 22.1246 32.5391 21.8762C32.7875 21.6278 33.0358 21.131 32.7875 20.8827C31.7939 17.157 30.5521 14.9216 28.8134 13.9281C27.5715 13.1829 26.0812 12.6862 24.591 12.6862C24.0942 12.6862 23.5974 12.6862 22.8523 12.9345H22.6039C20.6169 13.4313 18.8782 14.4248 17.6364 16.1635C16.3945 17.9021 15.8977 19.8891 16.1461 21.6278C16.1461 21.6278 16.1461 21.6278 16.1461 21.8762C16.1461 22.3729 16.1461 23.1181 16.1461 23.6148C16.1461 24.1116 16.1461 24.36 16.3945 24.8567C16.6428 26.0986 17.1396 27.3405 17.8847 28.334C18.8782 29.5759 20.1201 30.5694 21.6104 31.0662L18.6299 32.5565C18.1331 32.8048 17.8847 33.3016 18.1331 33.7984C18.1331 34.0467 18.3815 34.5435 18.3815 34.7919C18.1331 35.0403 17.8847 35.2886 18.1331 35.7854C19.1266 39.2627 20.1201 41.4981 21.8588 42.74C23.3491 43.9819 25.0877 44.4786 26.8264 44.4786H27.0747C27.8199 44.4786 28.3166 44.4787 29.0618 44.2303C30.0553 43.9819 31.2972 43.4851 32.2907 42.9884C33.781 41.9949 35.0229 40.753 35.5196 39.5111C36.0164 38.2692 36.2648 36.5305 36.2648 35.0403C36.2648 34.7919 36.2648 34.7919 36.2648 34.5435C36.2648 34.0467 36.2648 33.55 36.2648 33.0532C36.0164 32.0597 36.0164 31.3146 35.768 30.5694ZM27.5715 35.2886C27.3231 35.2886 27.0747 35.2886 27.0747 35.2886C26.578 35.2886 26.3296 35.2886 25.8329 35.0403C25.5845 35.0403 24.8393 34.2951 24.0942 31.563C24.8393 31.8113 25.5845 31.8113 26.578 32.0597C27.8199 32.3081 28.565 32.8048 29.0618 33.7984C29.0618 34.0467 29.3102 34.2951 29.3102 34.2951C29.0618 34.5435 28.8134 34.7919 28.0683 35.0403C27.8199 35.0403 27.8199 35.2886 27.5715 35.2886ZM23.3491 22.6213C23.1007 22.3729 23.1007 22.3729 22.8523 22.1246C23.1007 21.8762 23.3491 21.6278 23.5974 21.3794C23.8458 21.131 24.0942 21.131 24.0942 21.131H24.3426C24.591 21.131 24.8393 21.131 25.0877 21.3794C25.3361 21.3794 25.8329 21.8762 26.578 24.1116C24.591 23.6148 23.5974 23.1181 23.3491 22.6213Z" fill="#723411"/>
<path opacity="0.55" d="M43.9655 19.8875C43.9655 18.6456 43.9655 17.4037 43.9655 16.1618H47.9395C48.4363 16.1618 48.9331 15.665 48.9331 15.1683C48.9331 14.6715 48.9331 14.1748 48.9331 13.4296V13.1813C48.9331 12.4361 48.9331 10.9458 48.6847 8.95881C48.6847 8.46206 48.1879 7.9653 47.6912 7.9653C46.4493 7.9653 45.2074 7.9653 43.7171 7.9653C40.7366 7.9653 37.2593 7.9653 33.0368 7.71692C32.7884 7.71692 32.5401 7.71692 32.2917 7.9653C32.0433 8.21368 32.0433 8.46206 32.0433 8.71044C32.0433 8.95882 32.0433 9.20719 32.0433 9.45557C32.0433 10.4491 32.0433 11.4426 31.7949 12.6845C31.7949 12.9329 31.7949 13.1813 31.7949 13.1813C31.7949 13.678 31.7949 14.1748 31.7949 14.6715C31.7949 14.9199 31.7949 15.1683 32.0433 15.4167C32.2917 15.665 32.5401 15.665 32.7884 15.665L37.5076 15.9134C37.5076 16.9069 37.5076 17.9005 37.5076 18.6456C37.5076 24.8551 37.2593 30.5678 37.0109 35.5354C37.0109 35.7837 37.0109 35.7837 37.0109 36.0321C37.0109 36.5289 37.0109 37.0256 37.0109 37.5224C37.0109 37.7708 37.0109 38.0191 37.2593 38.2675C37.5076 38.5159 37.756 38.5159 38.0044 38.5159H42.972C43.2204 38.5159 43.4687 38.5159 43.7171 38.2675C43.9655 38.0191 43.9655 37.7708 43.9655 37.5224V35.7837V35.5354C43.9655 31.3129 43.9655 25.8486 43.9655 19.8875Z" fill="#723411"/>
<path opacity="0.55" d="M76.743 13.6776C75.2528 12.1873 72.5206 11.1938 68.5465 10.9454C67.3046 10.9454 66.0627 10.697 64.5725 10.697H64.0757C63.5789 10.697 63.0822 11.1938 63.0822 11.6905C62.8338 17.9 62.337 25.3514 61.5919 33.5479C60.8468 27.09 60.1016 20.3838 59.6049 13.6776C59.6049 13.1808 59.1081 12.6841 58.6114 12.6841L52.1535 12.1873C51.6568 12.1873 51.4084 12.4357 51.16 12.9324C49.173 20.1354 47.1859 27.8352 44.7021 36.28C44.7021 36.5284 44.7021 36.7768 44.9505 37.0252C44.9505 37.0252 44.9505 37.0252 45.1989 37.2736L44.9505 38.2671C44.9505 38.5155 44.9505 38.7638 45.1989 39.0122C45.4473 39.2606 45.6957 39.509 45.944 39.509L49.9181 39.7573C50.4149 39.7573 50.6632 39.509 50.9116 39.0122L52.4019 34.0446L55.3824 34.293L55.8792 40.0057C55.8792 40.5025 56.376 40.9992 56.8727 40.9992L61.5919 41.2476C61.8403 41.2476 62.0887 41.2476 62.337 40.9992C62.5854 40.7509 62.5854 40.5025 62.5854 40.2541V40.0057L66.8079 40.5025C67.0563 40.5025 67.3046 40.5025 67.553 40.2541C67.8014 40.0057 67.8014 39.7573 67.8014 39.509L68.2981 32.0576H69.2917C70.0368 34.5414 70.7819 37.5219 71.2787 41.2476C71.2787 41.496 71.5271 41.7444 71.7754 41.9928C72.0238 41.9928 72.0238 42.2411 72.2722 42.2411H72.5206L76.743 41.2476C77.2398 40.9993 77.4882 40.5025 77.4882 40.0057C77.4882 39.509 77.2398 39.2606 77.2398 38.7638C77.4882 38.5155 77.4882 38.2671 77.4882 37.7703C76.9914 34.7898 76.2463 32.0576 75.5011 29.5738C77.2398 28.5803 78.4817 26.5933 78.9784 23.8611C78.9784 23.3643 78.9784 23.116 79.2268 22.8676C79.2268 22.1225 79.2268 21.6257 79.2268 20.8806C78.9784 17.6516 78.4817 15.4162 76.743 13.6776ZM55.1341 26.8416L53.3954 26.5933L54.6373 21.8741L55.1341 26.8416ZM72.5206 21.1289C72.2722 21.8741 72.0238 22.6192 71.5271 23.116C71.0303 23.6127 70.0368 23.8611 68.5465 23.8611H68.2981L68.7949 18.6451C69.0433 18.6451 69.0433 18.6451 69.2917 18.6451C69.54 18.6451 69.7884 18.6451 69.7884 18.6451C70.5335 18.6451 71.0303 18.8935 71.5271 19.1419C71.7754 19.3903 72.2722 19.887 72.5206 21.1289Z" fill="#723411"/>
<path opacity="0.55" d="M96.1284 16.4085C96.1284 15.9118 95.88 15.415 95.1349 15.415C93.893 15.415 92.6511 15.1667 91.1608 14.9183C88.1803 14.4215 84.703 13.9248 80.7289 13.1796C80.7289 13.1796 80.7289 13.1796 80.4805 13.1796C80.2321 13.1796 79.9838 13.1796 79.9838 13.428C79.7354 13.6764 79.7354 13.9248 79.487 14.1731C79.487 14.4215 79.487 14.6699 79.487 14.9183C79.2386 15.9118 79.2386 16.9053 78.9902 17.8988C78.9902 18.1472 78.9902 18.3956 79.2386 18.644C79.2386 18.644 79.2386 18.644 79.2386 18.8923C79.2386 19.3891 78.9902 19.6375 78.9902 19.8859C78.9902 20.1342 78.9902 20.3826 79.2386 20.631C79.487 20.8794 79.7354 21.1278 79.9838 21.1278L84.4546 22.1213C84.4546 22.618 84.2062 23.3632 84.2062 23.8599C83.4611 30.5661 82.4675 36.5272 81.2256 41.4948C81.2256 41.7432 81.2256 41.9916 81.474 42.2399C81.474 42.7367 81.2256 42.9851 81.2256 43.4818C81.2256 43.7302 81.2256 43.9786 81.474 44.227C81.7224 44.4754 81.9708 44.7237 82.2192 44.7237L87.1867 45.4689C87.1867 45.4689 87.1867 45.4689 87.4351 45.4689C87.6835 45.4689 87.9319 45.4689 87.9319 45.2205C88.1803 44.9721 88.1803 44.7237 88.4286 44.4754C88.9254 39.5078 89.6705 33.7951 90.4157 27.5856C90.664 26.0953 90.9124 24.3567 91.1608 22.8664L95.1349 23.3632C95.6316 23.3632 96.1284 23.1148 96.1284 22.3696C96.1284 21.6245 96.3768 20.1342 96.6251 18.1472C96.6251 17.8988 96.6251 17.8988 96.6251 17.6504C95.88 17.4021 95.88 16.9053 96.1284 16.4085Z" fill="#723411"/>
<path d="M19.1406 32.5537L23.1146 30.5667C23.6114 33.2989 24.6049 34.7891 25.5984 35.2859C26.3436 35.5343 27.0887 35.7826 28.0822 35.5343C28.3306 35.5343 28.579 35.5343 28.579 35.2859C29.5725 35.0375 30.0693 34.2924 30.3176 33.5472C30.566 33.0505 30.566 32.5537 30.3176 31.8086C30.3176 31.3118 30.0693 31.0634 29.8209 30.5667C29.3241 29.3248 28.3306 28.5797 26.592 28.3313C24.8533 28.0829 23.363 27.5861 22.1211 27.3378C20.6309 26.841 19.6373 26.0959 18.8922 25.1024C18.1471 24.1088 17.8987 23.1153 17.6503 22.1218C17.6503 21.8734 17.4019 21.3767 17.4019 21.1283C17.1536 19.638 17.6503 17.8994 18.8922 16.4091C19.8857 14.9188 21.376 13.9253 23.1146 13.6769H23.363C25.3501 13.4285 27.0887 13.6769 28.579 14.6704C30.0693 15.664 31.3112 17.8994 32.0563 21.1283L28.3306 22.8669C27.5855 20.1348 26.592 18.6445 25.8468 18.1477C25.3501 17.8994 24.6049 17.8994 24.1082 17.8994C23.8598 17.8994 23.363 18.1477 23.1146 18.3961C22.3695 18.8929 21.8728 19.638 21.6244 20.6315C21.6244 20.8799 21.6244 21.3767 21.6244 21.6251C21.8728 22.1218 22.1211 22.6186 22.6179 23.1153C23.363 23.8605 25.3501 24.3572 28.0822 24.854C31.0628 25.3507 32.8014 26.3443 33.7949 27.8345C34.2917 28.828 34.5401 29.5732 34.7885 30.5667C35.0368 31.0634 35.0368 31.8086 35.0368 32.3053C35.0368 33.7956 34.7885 35.2859 34.2917 36.5278C33.7949 37.7697 32.8014 38.7632 31.3112 39.5083C30.3176 40.0051 29.5725 40.5018 28.579 40.7502C28.0822 40.9986 27.3371 40.9986 26.8403 40.9986C25.1017 40.9986 23.6114 40.5018 22.3695 39.5083C20.8792 37.7697 19.8857 35.7826 19.1406 32.5537Z" fill="white"/>
<path d="M33.0508 12.1848C33.2992 11.1912 33.2992 9.94934 33.2992 8.95583C33.2992 8.70745 33.2992 8.45907 33.2992 8.21069C37.5216 8.45907 40.9989 8.45907 43.9795 8.45907C45.4697 8.45907 46.7116 8.45907 47.9535 8.45907C47.9535 10.4461 48.2019 11.688 48.2019 12.4331H43.2343C43.2343 14.4202 43.2343 16.4072 43.2343 18.3942C43.2343 24.6037 43.2343 30.3164 43.4827 35.284H38.5151C39.0119 30.068 39.0119 24.1069 39.0119 17.4007C39.0119 15.9104 39.0119 14.4202 39.0119 12.9299V12.6815L33.0508 12.1848Z" fill="white"/>
<path d="M58.6227 12.9291C59.1195 21.1256 60.113 29.3221 61.1065 37.2703L56.3873 37.0219L55.8906 30.564L51.1714 30.3157L49.6811 36.0284L45.707 35.78C48.1908 27.3351 50.4262 19.387 52.1649 12.4324L58.6227 12.9291ZM56.3873 27.0867L55.8906 15.9097L54.897 16.1581L51.9165 26.59L56.3873 27.0867Z" fill="white"/>
<path d="M62.3574 36.0279C63.1026 26.3412 63.8477 17.8963 64.0961 10.6933C65.5863 10.6933 67.0766 10.6933 68.3185 10.9417C72.2926 11.1901 74.7764 12.1836 76.0183 13.4255C77.5085 14.9157 78.0053 17.1511 77.7569 19.6349C77.7569 19.8833 77.7569 20.3801 77.7569 20.6285C77.2602 23.609 76.0183 25.3477 73.5345 26.0928C74.528 29.3217 75.5215 32.799 76.2666 36.7731L72.0442 37.7666C71.2991 33.5442 70.5539 30.3152 69.8088 27.5831L67.325 27.8314L66.5799 36.2763L62.3574 36.0279ZM67.0766 24.1058H67.325C69.8088 24.3541 71.5474 23.8574 72.2926 22.8639C73.0377 22.1187 73.5345 21.1252 73.5345 19.6349C73.5345 19.3866 73.5345 19.1382 73.5345 18.6414C73.5345 16.9028 73.0377 15.9093 71.7958 15.4125C71.2991 15.1641 70.5539 14.9157 69.8088 14.9157C69.0637 14.9157 68.5669 14.9157 67.5734 14.9157L67.0766 24.1058Z" fill="white"/>
<path d="M79.9951 17.4008C80.2435 16.4073 80.4919 15.1654 80.4919 14.1719C80.4919 13.9235 80.4919 13.6751 80.4919 13.4268C84.7143 14.1719 88.1916 14.6687 90.9238 15.1654C92.4141 15.4138 93.656 15.4138 94.8979 15.6622C94.6495 17.6492 94.6495 18.8911 94.4011 19.6362L89.4335 19.1395C89.1851 21.1265 88.9368 23.1135 88.6884 24.8522C87.9432 31.0617 87.1981 36.526 86.7013 41.742L81.7338 40.9968C82.7273 35.7809 83.7208 29.8198 84.7143 23.1135C84.9627 21.6233 85.2111 20.133 85.2111 18.6427V18.3943L79.9951 17.4008Z" fill="white"/>
</svg>
