<svg width="89" height="96" viewBox="0 0 89 96" fill="none" xmlns="http://www.w3.org/2000/svg">
<path d="M84.6766 66.9365C84.6134 67.0495 84.4869 67.2756 84.4237 67.3886C76.9629 78.353 12.0289 77.9009 2.98747 68.0668C2.48165 67.5016 2.16552 67.0495 2.03907 66.4843C-1.1855 54.6157 0.584855 18.6705 5.643 10.8711C11.0805 2.50655 76.3939 -1.22359 83.0959 9.40169C88.1541 17.2011 90.4935 56.0851 84.6766 66.9365Z" fill="url(#paint0_linear_2193_3107)"/>
<path d="M2.10294 64.1105C5.20105 75.64 78.3545 76.5443 84.7405 64.5626C90.5573 53.7112 88.1547 14.8272 83.223 7.02782C76.4577 -3.59747 11.2076 0.245708 5.77009 8.49726C0.648711 16.2967 -1.12163 52.2418 2.10294 64.1105Z" fill="url(#paint1_linear_2193_3107)"/>
<path d="M5.07129 60.2679C5.07129 60.2679 14.9347 69.7629 45.3468 69.7629C75.7589 69.7629 80.6274 60.2679 80.6274 60.2679H5.07129Z" fill="white"/>
<path d="M84.4225 60.2668V67.501C76.9618 78.4654 12.0278 78.0133 2.98633 68.1792L3.17602 66.0315L5.0096 60.2668L83.0315 53.8238L84.4225 60.2668Z" fill="#F4F3F1"/>
<path d="M4.3787 58.9096C7.16068 69.3088 75.1295 72.2477 80.9464 61.3964C86.1943 51.5623 84.0445 16.1824 79.5554 9.1742C73.4224 -0.433764 13.0408 6.34834 8.10908 13.9217C3.43029 20.9298 1.47026 48.0582 4.3787 58.9096Z" fill="url(#paint2_radial_2193_3107)"/>
<path d="M4.56871 57.1031C7.3507 67.1632 74.9402 67.8414 80.6939 57.4422C85.9417 47.9473 83.8552 16.4105 79.3661 9.62843C73.2331 0.359561 13.1043 6.91559 8.17265 14.1498C3.62032 20.9319 1.7235 46.7039 4.56871 57.1031Z" fill="url(#paint3_linear_2193_3107)"/>
<path d="M5.45254 56.1986C8.1713 65.9196 74.2434 66.7108 79.9338 56.5377C85.0552 47.2688 83.0319 16.7494 78.6693 10.1933C72.7259 1.26357 13.8617 7.48048 8.99325 14.6017C4.44092 21.1577 2.60733 46.0254 5.45254 56.1986Z" fill="url(#paint4_linear_2193_3107)"/>
<path d="M8.80078 14.6003C8.80078 14.6003 54.8932 -2.12885 78.7929 10.305C78.7929 10.305 80.8794 15.0525 81.8278 22.3997C81.8278 22.3997 73.1025 27.9385 60.8365 28.9558C48.5705 29.9731 35.6722 17.5392 25.303 15.7307C14.9338 13.9221 8.80078 14.6003 8.80078 14.6003Z" fill="url(#paint5_linear_2193_3107)" fill-opacity="0.1"/>
<path d="M78.5454 56.6508C78.5454 56.6508 47.6907 66.3718 8.93262 57.7812C8.93262 57.7812 34.1601 61.7374 45.3513 57.7812C64.3826 51.2251 73.5505 49.3035 78.5454 56.6508Z" fill="url(#paint6_linear_2193_3107)" fill-opacity="0.1"/>
<path d="M7.09961 18.7841C7.09961 18.7841 8.04802 15.28 10.3242 13.3584C12.5371 11.4368 18.923 9.5152 19.3024 10.0804C19.6818 10.5325 16.2043 12.7932 14.3707 14.0366C12.5371 15.167 7.98479 19.6884 7.09961 18.7841Z" fill="black" fill-opacity="0.14"/>
<path d="M6.84214 19.8006C6.39955 19.9136 5.19825 26.3566 5.3247 27.374C5.38793 28.3913 6.77892 25.1132 6.9686 23.3047C7.22151 21.4961 6.84214 19.8006 6.84214 19.8006Z" fill="black" fill-opacity="0.14"/>
<path d="M77.7197 59.4743C77.4036 58.457 80.2488 53.7096 80.9443 53.8226C81.6398 53.8226 81.0075 56.8745 80.5649 57.6658C80.1856 58.231 77.9094 59.9265 77.7197 59.4743Z" fill="white"/>
<g filter="url(#filter0_d_2193_3107)">
<mask id="path-13-outside-1_2193_3107" maskUnits="userSpaceOnUse" x="17.6309" y="16.9376" width="51" height="29" fill="black">
<rect fill="white" x="17.6309" y="16.9376" width="51" height="29"/>
<path d="M26.4756 29.1026C26.0756 29.1026 25.6556 29.0726 25.2156 29.0126C24.7856 28.9626 24.3756 28.8826 23.9856 28.7726C23.5956 28.6626 23.2456 28.5326 22.9356 28.3826C22.6656 28.2526 22.4756 28.0826 22.3656 27.8726C22.2556 27.6526 22.2156 27.4226 22.2456 27.1826C22.2756 26.9426 22.3606 26.7326 22.5006 26.5526C22.6406 26.3626 22.8256 26.2376 23.0556 26.1776C23.2856 26.1076 23.5456 26.1376 23.8356 26.2676C24.2156 26.4476 24.6456 26.5876 25.1256 26.6876C25.6056 26.7876 26.0556 26.8376 26.4756 26.8376C27.1356 26.8376 27.5956 26.7526 27.8556 26.5826C28.1256 26.4026 28.2606 26.1826 28.2606 25.9226C28.2606 25.6926 28.1656 25.5076 27.9756 25.3676C27.7956 25.2276 27.4706 25.1076 27.0006 25.0076L25.2456 24.6326C24.2856 24.4326 23.5706 24.0826 23.1006 23.5826C22.6306 23.0826 22.3956 22.4376 22.3956 21.6476C22.3956 21.1276 22.5006 20.6576 22.7106 20.2376C22.9306 19.8076 23.2356 19.4426 23.6256 19.1426C24.0256 18.8426 24.4956 18.6126 25.0356 18.4526C25.5856 18.2826 26.1956 18.1976 26.8656 18.1976C27.3856 18.1976 27.9106 18.2576 28.4406 18.3776C28.9806 18.4876 29.4456 18.6576 29.8356 18.8876C30.0656 19.0076 30.2306 19.1726 30.3306 19.3826C30.4306 19.5926 30.4706 19.8126 30.4506 20.0426C30.4306 20.2626 30.3506 20.4576 30.2106 20.6276C30.0806 20.7976 29.9006 20.9126 29.6706 20.9726C29.4506 21.0226 29.1856 20.9826 28.8756 20.8526C28.5856 20.7226 28.2556 20.6276 27.8856 20.5676C27.5256 20.4976 27.1756 20.4626 26.8356 20.4626C26.4656 20.4626 26.1506 20.5076 25.8906 20.5976C25.6306 20.6776 25.4306 20.7976 25.2906 20.9576C25.1606 21.1176 25.0956 21.3026 25.0956 21.5126C25.0956 21.7226 25.1806 21.9026 25.3506 22.0526C25.5306 22.1926 25.8556 22.3126 26.3256 22.4126L28.0656 22.7876C29.0356 22.9976 29.7606 23.3426 30.2406 23.8226C30.7206 24.3026 30.9606 24.9276 30.9606 25.6976C30.9606 26.2176 30.8556 26.6876 30.6456 27.1076C30.4356 27.5276 30.1356 27.8876 29.7456 28.1876C29.3556 28.4776 28.8856 28.7026 28.3356 28.8626C27.7856 29.0226 27.1656 29.1026 26.4756 29.1026ZM35.889 29.1026C35.139 29.1026 34.519 28.9876 34.029 28.7576C33.549 28.5276 33.189 28.1826 32.949 27.7226C32.709 27.2526 32.589 26.6676 32.589 25.9676V23.5226H32.079C31.759 23.5226 31.509 23.4376 31.329 23.2676C31.159 23.0976 31.074 22.8526 31.074 22.5326C31.074 22.2126 31.159 21.9726 31.329 21.8126C31.509 21.6426 31.759 21.5576 32.079 21.5576H32.589V20.6276C32.589 20.1876 32.704 19.8526 32.934 19.6226C33.164 19.3926 33.494 19.2776 33.924 19.2776C34.354 19.2776 34.684 19.3926 34.914 19.6226C35.144 19.8526 35.259 20.1876 35.259 20.6276V21.5576H36.489C36.819 21.5576 37.069 21.6426 37.239 21.8126C37.419 21.9726 37.509 22.2126 37.509 22.5326C37.509 22.8526 37.419 23.0976 37.239 23.2676C37.069 23.4376 36.819 23.5226 36.489 23.5226H35.259V25.8776C35.259 26.2476 35.344 26.5226 35.514 26.7026C35.694 26.8726 35.974 26.9576 36.354 26.9576C36.494 26.9576 36.629 26.9426 36.759 26.9126C36.889 26.8826 37.009 26.8676 37.119 26.8676C37.279 26.8576 37.409 26.9076 37.509 27.0176C37.609 27.1176 37.659 27.3526 37.659 27.7226C37.659 28.0226 37.614 28.2776 37.524 28.4876C37.434 28.6876 37.274 28.8326 37.044 28.9226C36.904 28.9726 36.714 29.0126 36.474 29.0426C36.234 29.0826 36.039 29.1026 35.889 29.1026ZM41.1657 29.1026C40.5257 29.1026 40.0007 28.9876 39.5907 28.7576C39.1807 28.5176 38.8707 28.1626 38.6607 27.6926C38.4607 27.2226 38.3607 26.6276 38.3607 25.9076V22.7576C38.3607 22.3176 38.4757 21.9876 38.7057 21.7676C38.9357 21.5376 39.2657 21.4226 39.6957 21.4226C40.1257 21.4226 40.4557 21.5376 40.6857 21.7676C40.9157 21.9876 41.0307 22.3176 41.0307 22.7576V25.9826C41.0307 26.3426 41.1057 26.6126 41.2557 26.7926C41.4057 26.9726 41.6407 27.0626 41.9607 27.0626C42.3207 27.0626 42.6157 26.9326 42.8457 26.6726C43.0757 26.4126 43.1907 26.0676 43.1907 25.6376V22.7576C43.1907 22.3176 43.3057 21.9876 43.5357 21.7676C43.7657 21.5376 44.0957 21.4226 44.5257 21.4226C44.9557 21.4226 45.2857 21.5376 45.5157 21.7676C45.7457 21.9876 45.8607 22.3176 45.8607 22.7576V27.7226C45.8607 28.6226 45.4307 29.0726 44.5707 29.0726C44.1507 29.0726 43.8257 28.9576 43.5957 28.7276C43.3657 28.4976 43.2507 28.1626 43.2507 27.7226V26.8526L43.4907 27.5876C43.2707 28.0776 42.9607 28.4526 42.5607 28.7126C42.1707 28.9726 41.7057 29.1026 41.1657 29.1026ZM50.2945 29.1026C49.6645 29.1026 49.1045 28.9476 48.6145 28.6376C48.1345 28.3276 47.7545 27.8826 47.4745 27.3026C47.2045 26.7226 47.0695 26.0376 47.0695 25.2476C47.0695 24.4376 47.2045 23.7476 47.4745 23.1776C47.7545 22.6076 48.1345 22.1676 48.6145 21.8576C49.1045 21.5476 49.6645 21.3926 50.2945 21.3926C50.8445 21.3926 51.3395 21.5226 51.7795 21.7826C52.2195 22.0426 52.5145 22.3776 52.6645 22.7876H52.4995V19.5776C52.4995 19.1376 52.6145 18.8026 52.8445 18.5726C53.0745 18.3426 53.4045 18.2276 53.8345 18.2276C54.2545 18.2276 54.5795 18.3426 54.8095 18.5726C55.0495 18.8026 55.1695 19.1376 55.1695 19.5776V27.7226C55.1695 28.1626 55.0545 28.4976 54.8245 28.7276C54.6045 28.9576 54.2795 29.0726 53.8495 29.0726C53.4295 29.0726 53.1045 28.9576 52.8745 28.7276C52.6445 28.4976 52.5295 28.1626 52.5295 27.7226V26.8676L52.6945 27.6026C52.5545 28.0526 52.2595 28.4176 51.8095 28.6976C51.3695 28.9676 50.8645 29.1026 50.2945 29.1026ZM51.1495 27.1376C51.4195 27.1376 51.6595 27.0726 51.8695 26.9426C52.0795 26.8026 52.2395 26.5976 52.3495 26.3276C52.4695 26.0476 52.5295 25.6876 52.5295 25.2476C52.5295 24.5776 52.3995 24.0976 52.1395 23.8076C51.8795 23.5076 51.5495 23.3576 51.1495 23.3576C50.8795 23.3576 50.6395 23.4226 50.4295 23.5526C50.2195 23.6826 50.0545 23.8876 49.9345 24.1676C49.8145 24.4376 49.7545 24.7976 49.7545 25.2476C49.7545 25.9076 49.8845 26.3876 50.1445 26.6876C50.4045 26.9876 50.7395 27.1376 51.1495 27.1376ZM58.8612 31.7726C58.5512 31.7726 58.3012 31.6926 58.1112 31.5326C57.9212 31.3726 57.8012 31.1626 57.7512 30.9026C57.7112 30.6426 57.7562 30.3676 57.8862 30.0776L58.8912 27.9026V28.9826L56.3262 23.1176C56.1962 22.8176 56.1512 22.5376 56.1912 22.2776C56.2412 22.0176 56.3762 21.8126 56.5962 21.6626C56.8162 21.5026 57.1162 21.4226 57.4962 21.4226C57.8162 21.4226 58.0712 21.4976 58.2612 21.6476C58.4612 21.7876 58.6412 22.0676 58.8012 22.4876L60.3012 26.3876H59.7912L61.3812 22.4726C61.5412 22.0626 61.7212 21.7876 61.9212 21.6476C62.1312 21.4976 62.4112 21.4226 62.7612 21.4226C63.0612 21.4226 63.3012 21.5026 63.4812 21.6626C63.6612 21.8126 63.7712 22.0176 63.8112 22.2776C63.8512 22.5376 63.8062 22.8176 63.6762 23.1176L60.2712 30.7676C60.0912 31.1676 59.8912 31.4326 59.6712 31.5626C59.4612 31.7026 59.1912 31.7726 58.8612 31.7726ZM20.3957 45.0726C19.9557 45.0726 19.6107 44.9526 19.3607 44.7126C19.1207 44.4626 19.0007 44.1076 19.0007 43.6476V35.7876C19.0007 35.3276 19.1207 34.9776 19.3607 34.7376C19.6107 34.4876 19.9707 34.3626 20.4407 34.3626H25.4357C25.7957 34.3626 26.0657 34.4526 26.2457 34.6326C26.4257 34.8126 26.5157 35.0726 26.5157 35.4126C26.5157 35.7626 26.4257 36.0326 26.2457 36.2226C26.0657 36.4026 25.7957 36.4926 25.4357 36.4926H21.7607V38.6226H25.1057C25.4557 38.6226 25.7207 38.7126 25.9007 38.8926C26.0907 39.0726 26.1857 39.3326 26.1857 39.6726C26.1857 40.0226 26.0907 40.2876 25.9007 40.4676C25.7207 40.6476 25.4557 40.7376 25.1057 40.7376H21.7607V43.6476C21.7607 44.5976 21.3057 45.0726 20.3957 45.0726ZM29.4278 45.0726C29.0078 45.0726 28.6828 44.9476 28.4528 44.6976C28.2228 44.4476 28.1078 44.0876 28.1078 43.6176V38.8776C28.1078 38.4076 28.2228 38.0476 28.4528 37.7976C28.6828 37.5476 29.0078 37.4226 29.4278 37.4226C29.8578 37.4226 30.1878 37.5476 30.4178 37.7976C30.6578 38.0476 30.7778 38.4076 30.7778 38.8776V43.6176C30.7778 44.0876 30.6628 44.4476 30.4328 44.6976C30.2028 44.9476 29.8678 45.0726 29.4278 45.0726ZM29.4278 36.3576C28.9578 36.3576 28.5928 36.2476 28.3328 36.0276C28.0828 35.8076 27.9578 35.4876 27.9578 35.0676C27.9578 34.6576 28.0828 34.3426 28.3328 34.1226C28.5928 33.9026 28.9578 33.7926 29.4278 33.7926C29.9178 33.7926 30.2878 33.9026 30.5378 34.1226C30.7878 34.3426 30.9128 34.6576 30.9128 35.0676C30.9128 35.4876 30.7878 35.8076 30.5378 36.0276C30.2878 36.2476 29.9178 36.3576 29.4278 36.3576ZM36.3466 45.1026C35.4466 45.1026 34.6666 44.9476 34.0066 44.6376C33.3566 44.3176 32.8566 43.8676 32.5066 43.2876C32.1566 42.7076 31.9816 42.0226 31.9816 41.2326C31.9816 40.4726 32.1466 39.8076 32.4766 39.2376C32.8166 38.6576 33.2766 38.2076 33.8566 37.8876C34.4466 37.5576 35.1166 37.3926 35.8666 37.3926C36.4166 37.3926 36.9166 37.4826 37.3666 37.6626C37.8166 37.8326 38.2016 38.0876 38.5216 38.4276C38.8416 38.7576 39.0816 39.1576 39.2416 39.6276C39.4116 40.0976 39.4966 40.6226 39.4966 41.2026C39.4966 41.4026 39.4416 41.5526 39.3316 41.6526C39.2216 41.7426 39.0466 41.7876 38.8066 41.7876H34.2166V40.5276H37.5466L37.3066 40.7226C37.3066 40.3526 37.2566 40.0526 37.1566 39.8226C37.0566 39.5926 36.9066 39.4176 36.7066 39.2976C36.5166 39.1776 36.2766 39.1176 35.9866 39.1176C35.6766 39.1176 35.4066 39.1926 35.1766 39.3426C34.9566 39.4826 34.7866 39.6926 34.6666 39.9726C34.5466 40.2526 34.4866 40.6026 34.4866 41.0226V41.1576C34.4866 41.8676 34.6416 42.3776 34.9516 42.6876C35.2716 42.9876 35.7616 43.1376 36.4216 43.1376C36.6416 43.1376 36.8916 43.1126 37.1716 43.0626C37.4616 43.0026 37.7366 42.9226 37.9966 42.8226C38.2566 42.7226 38.4816 42.7076 38.6716 42.7776C38.8616 42.8376 39.0066 42.9476 39.1066 43.1076C39.2166 43.2576 39.2766 43.4326 39.2866 43.6326C39.2966 43.8226 39.2516 44.0126 39.1516 44.2026C39.0516 44.3826 38.8866 44.5226 38.6566 44.6226C38.3066 44.7826 37.9316 44.9026 37.5316 44.9826C37.1416 45.0626 36.7466 45.1026 36.3466 45.1026ZM43.4519 45.1026C42.4919 45.1026 41.7819 44.8476 41.3219 44.3376C40.8719 43.8176 40.6469 43.0376 40.6469 41.9976V35.5776C40.6469 35.1376 40.7619 34.8026 40.9919 34.5726C41.2219 34.3426 41.5469 34.2276 41.9669 34.2276C42.3969 34.2276 42.7269 34.3426 42.9569 34.5726C43.1969 34.8026 43.3169 35.1376 43.3169 35.5776V41.9076C43.3169 42.2776 43.3869 42.5476 43.5269 42.7176C43.6769 42.8876 43.8669 42.9726 44.0969 42.9726C44.1669 42.9726 44.2369 42.9676 44.3069 42.9576C44.3869 42.9376 44.4719 42.9226 44.5619 42.9126C44.7319 42.9126 44.8569 42.9776 44.9369 43.1076C45.0269 43.2376 45.0719 43.5026 45.0719 43.9026C45.0719 44.2526 45.0019 44.5176 44.8619 44.6976C44.7219 44.8676 44.5069 44.9776 44.2169 45.0276C44.1369 45.0376 44.0219 45.0526 43.8719 45.0726C43.7219 45.0926 43.5819 45.1026 43.4519 45.1026ZM48.6685 45.1026C48.0385 45.1026 47.4785 44.9476 46.9885 44.6376C46.5085 44.3276 46.1285 43.8826 45.8485 43.3026C45.5785 42.7226 45.4435 42.0376 45.4435 41.2476C45.4435 40.4376 45.5785 39.7476 45.8485 39.1776C46.1285 38.6076 46.5085 38.1676 46.9885 37.8576C47.4785 37.5476 48.0385 37.3926 48.6685 37.3926C49.2185 37.3926 49.7135 37.5226 50.1535 37.7826C50.5935 38.0426 50.8885 38.3776 51.0385 38.7876H50.8735V35.5776C50.8735 35.1376 50.9885 34.8026 51.2185 34.5726C51.4485 34.3426 51.7785 34.2276 52.2085 34.2276C52.6285 34.2276 52.9535 34.3426 53.1835 34.5726C53.4235 34.8026 53.5435 35.1376 53.5435 35.5776V43.7226C53.5435 44.1626 53.4285 44.4976 53.1985 44.7276C52.9785 44.9576 52.6535 45.0726 52.2235 45.0726C51.8035 45.0726 51.4785 44.9576 51.2485 44.7276C51.0185 44.4976 50.9035 44.1626 50.9035 43.7226V42.8676L51.0685 43.6026C50.9285 44.0526 50.6335 44.4176 50.1835 44.6976C49.7435 44.9676 49.2385 45.1026 48.6685 45.1026ZM49.5235 43.1376C49.7935 43.1376 50.0335 43.0726 50.2435 42.9426C50.4535 42.8026 50.6135 42.5976 50.7235 42.3276C50.8435 42.0476 50.9035 41.6876 50.9035 41.2476C50.9035 40.5776 50.7735 40.0976 50.5135 39.8076C50.2535 39.5076 49.9235 39.3576 49.5235 39.3576C49.2535 39.3576 49.0135 39.4226 48.8035 39.5526C48.5935 39.6826 48.4285 39.8876 48.3085 40.1676C48.1885 40.4376 48.1285 40.7976 48.1285 41.2476C48.1285 41.9076 48.2585 42.3876 48.5185 42.6876C48.7785 42.9876 49.1135 43.1376 49.5235 43.1376ZM64.6922 45.0726C64.2722 45.0726 63.9422 44.9576 63.7022 44.7276C63.4722 44.4976 63.3572 44.1576 63.3572 43.7076V43.1676H60.3422C59.9022 43.1676 59.5572 43.0676 59.3072 42.8676C59.0672 42.6676 58.9472 42.3626 58.9472 41.9526C58.9472 41.7126 58.9922 41.4826 59.0822 41.2626C59.1722 41.0326 59.3322 40.7576 59.5622 40.4376L63.2222 35.0976C63.4222 34.7976 63.6472 34.5776 63.8972 34.4376C64.1472 34.2976 64.4422 34.2276 64.7822 34.2276C65.1622 34.2276 65.4622 34.3426 65.6822 34.5726C65.9022 34.7926 66.0122 35.1326 66.0122 35.5926V41.0826H66.3722C66.7522 41.0826 67.0372 41.1726 67.2272 41.3526C67.4272 41.5326 67.5272 41.7876 67.5272 42.1176C67.5272 42.4576 67.4272 42.7176 67.2272 42.8976C67.0372 43.0776 66.7522 43.1676 66.3722 43.1676H66.0122V43.7076C66.0122 44.1476 65.8972 44.4876 65.6672 44.7276C65.4472 44.9576 65.1222 45.0726 64.6922 45.0726ZM63.3572 41.0826V37.5426H63.7772L60.9572 41.7276V41.0826H63.3572Z"/>
</mask>
<path d="M26.4756 29.1026C26.0756 29.1026 25.6556 29.0726 25.2156 29.0126C24.7856 28.9626 24.3756 28.8826 23.9856 28.7726C23.5956 28.6626 23.2456 28.5326 22.9356 28.3826C22.6656 28.2526 22.4756 28.0826 22.3656 27.8726C22.2556 27.6526 22.2156 27.4226 22.2456 27.1826C22.2756 26.9426 22.3606 26.7326 22.5006 26.5526C22.6406 26.3626 22.8256 26.2376 23.0556 26.1776C23.2856 26.1076 23.5456 26.1376 23.8356 26.2676C24.2156 26.4476 24.6456 26.5876 25.1256 26.6876C25.6056 26.7876 26.0556 26.8376 26.4756 26.8376C27.1356 26.8376 27.5956 26.7526 27.8556 26.5826C28.1256 26.4026 28.2606 26.1826 28.2606 25.9226C28.2606 25.6926 28.1656 25.5076 27.9756 25.3676C27.7956 25.2276 27.4706 25.1076 27.0006 25.0076L25.2456 24.6326C24.2856 24.4326 23.5706 24.0826 23.1006 23.5826C22.6306 23.0826 22.3956 22.4376 22.3956 21.6476C22.3956 21.1276 22.5006 20.6576 22.7106 20.2376C22.9306 19.8076 23.2356 19.4426 23.6256 19.1426C24.0256 18.8426 24.4956 18.6126 25.0356 18.4526C25.5856 18.2826 26.1956 18.1976 26.8656 18.1976C27.3856 18.1976 27.9106 18.2576 28.4406 18.3776C28.9806 18.4876 29.4456 18.6576 29.8356 18.8876C30.0656 19.0076 30.2306 19.1726 30.3306 19.3826C30.4306 19.5926 30.4706 19.8126 30.4506 20.0426C30.4306 20.2626 30.3506 20.4576 30.2106 20.6276C30.0806 20.7976 29.9006 20.9126 29.6706 20.9726C29.4506 21.0226 29.1856 20.9826 28.8756 20.8526C28.5856 20.7226 28.2556 20.6276 27.8856 20.5676C27.5256 20.4976 27.1756 20.4626 26.8356 20.4626C26.4656 20.4626 26.1506 20.5076 25.8906 20.5976C25.6306 20.6776 25.4306 20.7976 25.2906 20.9576C25.1606 21.1176 25.0956 21.3026 25.0956 21.5126C25.0956 21.7226 25.1806 21.9026 25.3506 22.0526C25.5306 22.1926 25.8556 22.3126 26.3256 22.4126L28.0656 22.7876C29.0356 22.9976 29.7606 23.3426 30.2406 23.8226C30.7206 24.3026 30.9606 24.9276 30.9606 25.6976C30.9606 26.2176 30.8556 26.6876 30.6456 27.1076C30.4356 27.5276 30.1356 27.8876 29.7456 28.1876C29.3556 28.4776 28.8856 28.7026 28.3356 28.8626C27.7856 29.0226 27.1656 29.1026 26.4756 29.1026ZM35.889 29.1026C35.139 29.1026 34.519 28.9876 34.029 28.7576C33.549 28.5276 33.189 28.1826 32.949 27.7226C32.709 27.2526 32.589 26.6676 32.589 25.9676V23.5226H32.079C31.759 23.5226 31.509 23.4376 31.329 23.2676C31.159 23.0976 31.074 22.8526 31.074 22.5326C31.074 22.2126 31.159 21.9726 31.329 21.8126C31.509 21.6426 31.759 21.5576 32.079 21.5576H32.589V20.6276C32.589 20.1876 32.704 19.8526 32.934 19.6226C33.164 19.3926 33.494 19.2776 33.924 19.2776C34.354 19.2776 34.684 19.3926 34.914 19.6226C35.144 19.8526 35.259 20.1876 35.259 20.6276V21.5576H36.489C36.819 21.5576 37.069 21.6426 37.239 21.8126C37.419 21.9726 37.509 22.2126 37.509 22.5326C37.509 22.8526 37.419 23.0976 37.239 23.2676C37.069 23.4376 36.819 23.5226 36.489 23.5226H35.259V25.8776C35.259 26.2476 35.344 26.5226 35.514 26.7026C35.694 26.8726 35.974 26.9576 36.354 26.9576C36.494 26.9576 36.629 26.9426 36.759 26.9126C36.889 26.8826 37.009 26.8676 37.119 26.8676C37.279 26.8576 37.409 26.9076 37.509 27.0176C37.609 27.1176 37.659 27.3526 37.659 27.7226C37.659 28.0226 37.614 28.2776 37.524 28.4876C37.434 28.6876 37.274 28.8326 37.044 28.9226C36.904 28.9726 36.714 29.0126 36.474 29.0426C36.234 29.0826 36.039 29.1026 35.889 29.1026ZM41.1657 29.1026C40.5257 29.1026 40.0007 28.9876 39.5907 28.7576C39.1807 28.5176 38.8707 28.1626 38.6607 27.6926C38.4607 27.2226 38.3607 26.6276 38.3607 25.9076V22.7576C38.3607 22.3176 38.4757 21.9876 38.7057 21.7676C38.9357 21.5376 39.2657 21.4226 39.6957 21.4226C40.1257 21.4226 40.4557 21.5376 40.6857 21.7676C40.9157 21.9876 41.0307 22.3176 41.0307 22.7576V25.9826C41.0307 26.3426 41.1057 26.6126 41.2557 26.7926C41.4057 26.9726 41.6407 27.0626 41.9607 27.0626C42.3207 27.0626 42.6157 26.9326 42.8457 26.6726C43.0757 26.4126 43.1907 26.0676 43.1907 25.6376V22.7576C43.1907 22.3176 43.3057 21.9876 43.5357 21.7676C43.7657 21.5376 44.0957 21.4226 44.5257 21.4226C44.9557 21.4226 45.2857 21.5376 45.5157 21.7676C45.7457 21.9876 45.8607 22.3176 45.8607 22.7576V27.7226C45.8607 28.6226 45.4307 29.0726 44.5707 29.0726C44.1507 29.0726 43.8257 28.9576 43.5957 28.7276C43.3657 28.4976 43.2507 28.1626 43.2507 27.7226V26.8526L43.4907 27.5876C43.2707 28.0776 42.9607 28.4526 42.5607 28.7126C42.1707 28.9726 41.7057 29.1026 41.1657 29.1026ZM50.2945 29.1026C49.6645 29.1026 49.1045 28.9476 48.6145 28.6376C48.1345 28.3276 47.7545 27.8826 47.4745 27.3026C47.2045 26.7226 47.0695 26.0376 47.0695 25.2476C47.0695 24.4376 47.2045 23.7476 47.4745 23.1776C47.7545 22.6076 48.1345 22.1676 48.6145 21.8576C49.1045 21.5476 49.6645 21.3926 50.2945 21.3926C50.8445 21.3926 51.3395 21.5226 51.7795 21.7826C52.2195 22.0426 52.5145 22.3776 52.6645 22.7876H52.4995V19.5776C52.4995 19.1376 52.6145 18.8026 52.8445 18.5726C53.0745 18.3426 53.4045 18.2276 53.8345 18.2276C54.2545 18.2276 54.5795 18.3426 54.8095 18.5726C55.0495 18.8026 55.1695 19.1376 55.1695 19.5776V27.7226C55.1695 28.1626 55.0545 28.4976 54.8245 28.7276C54.6045 28.9576 54.2795 29.0726 53.8495 29.0726C53.4295 29.0726 53.1045 28.9576 52.8745 28.7276C52.6445 28.4976 52.5295 28.1626 52.5295 27.7226V26.8676L52.6945 27.6026C52.5545 28.0526 52.2595 28.4176 51.8095 28.6976C51.3695 28.9676 50.8645 29.1026 50.2945 29.1026ZM51.1495 27.1376C51.4195 27.1376 51.6595 27.0726 51.8695 26.9426C52.0795 26.8026 52.2395 26.5976 52.3495 26.3276C52.4695 26.0476 52.5295 25.6876 52.5295 25.2476C52.5295 24.5776 52.3995 24.0976 52.1395 23.8076C51.8795 23.5076 51.5495 23.3576 51.1495 23.3576C50.8795 23.3576 50.6395 23.4226 50.4295 23.5526C50.2195 23.6826 50.0545 23.8876 49.9345 24.1676C49.8145 24.4376 49.7545 24.7976 49.7545 25.2476C49.7545 25.9076 49.8845 26.3876 50.1445 26.6876C50.4045 26.9876 50.7395 27.1376 51.1495 27.1376ZM58.8612 31.7726C58.5512 31.7726 58.3012 31.6926 58.1112 31.5326C57.9212 31.3726 57.8012 31.1626 57.7512 30.9026C57.7112 30.6426 57.7562 30.3676 57.8862 30.0776L58.8912 27.9026V28.9826L56.3262 23.1176C56.1962 22.8176 56.1512 22.5376 56.1912 22.2776C56.2412 22.0176 56.3762 21.8126 56.5962 21.6626C56.8162 21.5026 57.1162 21.4226 57.4962 21.4226C57.8162 21.4226 58.0712 21.4976 58.2612 21.6476C58.4612 21.7876 58.6412 22.0676 58.8012 22.4876L60.3012 26.3876H59.7912L61.3812 22.4726C61.5412 22.0626 61.7212 21.7876 61.9212 21.6476C62.1312 21.4976 62.4112 21.4226 62.7612 21.4226C63.0612 21.4226 63.3012 21.5026 63.4812 21.6626C63.6612 21.8126 63.7712 22.0176 63.8112 22.2776C63.8512 22.5376 63.8062 22.8176 63.6762 23.1176L60.2712 30.7676C60.0912 31.1676 59.8912 31.4326 59.6712 31.5626C59.4612 31.7026 59.1912 31.7726 58.8612 31.7726ZM20.3957 45.0726C19.9557 45.0726 19.6107 44.9526 19.3607 44.7126C19.1207 44.4626 19.0007 44.1076 19.0007 43.6476V35.7876C19.0007 35.3276 19.1207 34.9776 19.3607 34.7376C19.6107 34.4876 19.9707 34.3626 20.4407 34.3626H25.4357C25.7957 34.3626 26.0657 34.4526 26.2457 34.6326C26.4257 34.8126 26.5157 35.0726 26.5157 35.4126C26.5157 35.7626 26.4257 36.0326 26.2457 36.2226C26.0657 36.4026 25.7957 36.4926 25.4357 36.4926H21.7607V38.6226H25.1057C25.4557 38.6226 25.7207 38.7126 25.9007 38.8926C26.0907 39.0726 26.1857 39.3326 26.1857 39.6726C26.1857 40.0226 26.0907 40.2876 25.9007 40.4676C25.7207 40.6476 25.4557 40.7376 25.1057 40.7376H21.7607V43.6476C21.7607 44.5976 21.3057 45.0726 20.3957 45.0726ZM29.4278 45.0726C29.0078 45.0726 28.6828 44.9476 28.4528 44.6976C28.2228 44.4476 28.1078 44.0876 28.1078 43.6176V38.8776C28.1078 38.4076 28.2228 38.0476 28.4528 37.7976C28.6828 37.5476 29.0078 37.4226 29.4278 37.4226C29.8578 37.4226 30.1878 37.5476 30.4178 37.7976C30.6578 38.0476 30.7778 38.4076 30.7778 38.8776V43.6176C30.7778 44.0876 30.6628 44.4476 30.4328 44.6976C30.2028 44.9476 29.8678 45.0726 29.4278 45.0726ZM29.4278 36.3576C28.9578 36.3576 28.5928 36.2476 28.3328 36.0276C28.0828 35.8076 27.9578 35.4876 27.9578 35.0676C27.9578 34.6576 28.0828 34.3426 28.3328 34.1226C28.5928 33.9026 28.9578 33.7926 29.4278 33.7926C29.9178 33.7926 30.2878 33.9026 30.5378 34.1226C30.7878 34.3426 30.9128 34.6576 30.9128 35.0676C30.9128 35.4876 30.7878 35.8076 30.5378 36.0276C30.2878 36.2476 29.9178 36.3576 29.4278 36.3576ZM36.3466 45.1026C35.4466 45.1026 34.6666 44.9476 34.0066 44.6376C33.3566 44.3176 32.8566 43.8676 32.5066 43.2876C32.1566 42.7076 31.9816 42.0226 31.9816 41.2326C31.9816 40.4726 32.1466 39.8076 32.4766 39.2376C32.8166 38.6576 33.2766 38.2076 33.8566 37.8876C34.4466 37.5576 35.1166 37.3926 35.8666 37.3926C36.4166 37.3926 36.9166 37.4826 37.3666 37.6626C37.8166 37.8326 38.2016 38.0876 38.5216 38.4276C38.8416 38.7576 39.0816 39.1576 39.2416 39.6276C39.4116 40.0976 39.4966 40.6226 39.4966 41.2026C39.4966 41.4026 39.4416 41.5526 39.3316 41.6526C39.2216 41.7426 39.0466 41.7876 38.8066 41.7876H34.2166V40.5276H37.5466L37.3066 40.7226C37.3066 40.3526 37.2566 40.0526 37.1566 39.8226C37.0566 39.5926 36.9066 39.4176 36.7066 39.2976C36.5166 39.1776 36.2766 39.1176 35.9866 39.1176C35.6766 39.1176 35.4066 39.1926 35.1766 39.3426C34.9566 39.4826 34.7866 39.6926 34.6666 39.9726C34.5466 40.2526 34.4866 40.6026 34.4866 41.0226V41.1576C34.4866 41.8676 34.6416 42.3776 34.9516 42.6876C35.2716 42.9876 35.7616 43.1376 36.4216 43.1376C36.6416 43.1376 36.8916 43.1126 37.1716 43.0626C37.4616 43.0026 37.7366 42.9226 37.9966 42.8226C38.2566 42.7226 38.4816 42.7076 38.6716 42.7776C38.8616 42.8376 39.0066 42.9476 39.1066 43.1076C39.2166 43.2576 39.2766 43.4326 39.2866 43.6326C39.2966 43.8226 39.2516 44.0126 39.1516 44.2026C39.0516 44.3826 38.8866 44.5226 38.6566 44.6226C38.3066 44.7826 37.9316 44.9026 37.5316 44.9826C37.1416 45.0626 36.7466 45.1026 36.3466 45.1026ZM43.4519 45.1026C42.4919 45.1026 41.7819 44.8476 41.3219 44.3376C40.8719 43.8176 40.6469 43.0376 40.6469 41.9976V35.5776C40.6469 35.1376 40.7619 34.8026 40.9919 34.5726C41.2219 34.3426 41.5469 34.2276 41.9669 34.2276C42.3969 34.2276 42.7269 34.3426 42.9569 34.5726C43.1969 34.8026 43.3169 35.1376 43.3169 35.5776V41.9076C43.3169 42.2776 43.3869 42.5476 43.5269 42.7176C43.6769 42.8876 43.8669 42.9726 44.0969 42.9726C44.1669 42.9726 44.2369 42.9676 44.3069 42.9576C44.3869 42.9376 44.4719 42.9226 44.5619 42.9126C44.7319 42.9126 44.8569 42.9776 44.9369 43.1076C45.0269 43.2376 45.0719 43.5026 45.0719 43.9026C45.0719 44.2526 45.0019 44.5176 44.8619 44.6976C44.7219 44.8676 44.5069 44.9776 44.2169 45.0276C44.1369 45.0376 44.0219 45.0526 43.8719 45.0726C43.7219 45.0926 43.5819 45.1026 43.4519 45.1026ZM48.6685 45.1026C48.0385 45.1026 47.4785 44.9476 46.9885 44.6376C46.5085 44.3276 46.1285 43.8826 45.8485 43.3026C45.5785 42.7226 45.4435 42.0376 45.4435 41.2476C45.4435 40.4376 45.5785 39.7476 45.8485 39.1776C46.1285 38.6076 46.5085 38.1676 46.9885 37.8576C47.4785 37.5476 48.0385 37.3926 48.6685 37.3926C49.2185 37.3926 49.7135 37.5226 50.1535 37.7826C50.5935 38.0426 50.8885 38.3776 51.0385 38.7876H50.8735V35.5776C50.8735 35.1376 50.9885 34.8026 51.2185 34.5726C51.4485 34.3426 51.7785 34.2276 52.2085 34.2276C52.6285 34.2276 52.9535 34.3426 53.1835 34.5726C53.4235 34.8026 53.5435 35.1376 53.5435 35.5776V43.7226C53.5435 44.1626 53.4285 44.4976 53.1985 44.7276C52.9785 44.9576 52.6535 45.0726 52.2235 45.0726C51.8035 45.0726 51.4785 44.9576 51.2485 44.7276C51.0185 44.4976 50.9035 44.1626 50.9035 43.7226V42.8676L51.0685 43.6026C50.9285 44.0526 50.6335 44.4176 50.1835 44.6976C49.7435 44.9676 49.2385 45.1026 48.6685 45.1026ZM49.5235 43.1376C49.7935 43.1376 50.0335 43.0726 50.2435 42.9426C50.4535 42.8026 50.6135 42.5976 50.7235 42.3276C50.8435 42.0476 50.9035 41.6876 50.9035 41.2476C50.9035 40.5776 50.7735 40.0976 50.5135 39.8076C50.2535 39.5076 49.9235 39.3576 49.5235 39.3576C49.2535 39.3576 49.0135 39.4226 48.8035 39.5526C48.5935 39.6826 48.4285 39.8876 48.3085 40.1676C48.1885 40.4376 48.1285 40.7976 48.1285 41.2476C48.1285 41.9076 48.2585 42.3876 48.5185 42.6876C48.7785 42.9876 49.1135 43.1376 49.5235 43.1376ZM64.6922 45.0726C64.2722 45.0726 63.9422 44.9576 63.7022 44.7276C63.4722 44.4976 63.3572 44.1576 63.3572 43.7076V43.1676H60.3422C59.9022 43.1676 59.5572 43.0676 59.3072 42.8676C59.0672 42.6676 58.9472 42.3626 58.9472 41.9526C58.9472 41.7126 58.9922 41.4826 59.0822 41.2626C59.1722 41.0326 59.3322 40.7576 59.5622 40.4376L63.2222 35.0976C63.4222 34.7976 63.6472 34.5776 63.8972 34.4376C64.1472 34.2976 64.4422 34.2276 64.7822 34.2276C65.1622 34.2276 65.4622 34.3426 65.6822 34.5726C65.9022 34.7926 66.0122 35.1326 66.0122 35.5926V41.0826H66.3722C66.7522 41.0826 67.0372 41.1726 67.2272 41.3526C67.4272 41.5326 67.5272 41.7876 67.5272 42.1176C67.5272 42.4576 67.4272 42.7176 67.2272 42.8976C67.0372 43.0776 66.7522 43.1676 66.3722 43.1676H66.0122V43.7076C66.0122 44.1476 65.8972 44.4876 65.6672 44.7276C65.4472 44.9576 65.1222 45.0726 64.6922 45.0726ZM63.3572 41.0826V37.5426H63.7772L60.9572 41.7276V41.0826H63.3572Z" fill="white"/>
<path d="M25.2156 29.0126L25.2832 28.5171L25.2734 28.516L25.2156 29.0126ZM22.9356 28.3826L23.1534 27.9325L23.1526 27.9321L22.9356 28.3826ZM22.3656 27.8726L21.9184 28.0963L21.9227 28.1046L22.3656 27.8726ZM22.2456 27.1826L22.7418 27.2446L22.2456 27.1826ZM22.5006 26.5526L22.8955 26.8597L22.9032 26.8492L22.5006 26.5526ZM23.0556 26.1776L23.1819 26.6614L23.1916 26.6589L23.2012 26.656L23.0556 26.1776ZM23.8356 26.2676L24.0497 25.8157L24.0402 25.8114L23.8356 26.2676ZM25.1256 26.6876L25.2276 26.1981L25.1256 26.6876ZM27.8556 26.5826L28.1293 27.0011L28.133 26.9986L27.8556 26.5826ZM27.9756 25.3676L27.6686 25.7624L27.679 25.7702L27.9756 25.3676ZM27.0006 25.0076L26.8962 25.4966L26.8966 25.4967L27.0006 25.0076ZM25.2456 24.6326L25.3501 24.1437L25.3476 24.1431L25.2456 24.6326ZM23.1006 23.5826L23.465 23.2402L23.1006 23.5826ZM22.7106 20.2376L22.2655 20.0099L22.2634 20.014L22.7106 20.2376ZM23.6256 19.1426L23.3256 18.7426L23.3208 18.7463L23.6256 19.1426ZM25.0356 18.4526L25.1777 18.9321L25.1833 18.9303L25.0356 18.4526ZM28.4406 18.3776L28.3302 18.8654L28.3408 18.8676L28.4406 18.3776ZM29.8356 18.8876L29.5817 19.3183L29.5928 19.3249L29.6044 19.3309L29.8356 18.8876ZM30.3306 19.3826L29.8792 19.5976L29.8792 19.5976L30.3306 19.3826ZM30.4506 20.0426L30.9486 20.0879L30.9488 20.0859L30.4506 20.0426ZM30.2106 20.6276L29.8247 20.3098L29.8189 20.3167L29.8135 20.3239L30.2106 20.6276ZM29.6706 20.9726L29.7815 21.4602L29.7892 21.4584L29.7969 21.4564L29.6706 20.9726ZM28.8756 20.8526L28.6711 21.309L28.6823 21.3137L28.8756 20.8526ZM27.8856 20.5676L27.7902 21.0584L27.7979 21.0599L27.8056 21.0612L27.8856 20.5676ZM25.8906 20.5976L26.0377 21.0755L26.046 21.073L26.0542 21.0701L25.8906 20.5976ZM25.2906 20.9576L24.9144 20.6284L24.9083 20.6352L24.9026 20.6423L25.2906 20.9576ZM25.3506 22.0526L25.0198 22.4275L25.0315 22.4378L25.0437 22.4473L25.3506 22.0526ZM26.3256 22.4126L26.431 21.9238L26.4297 21.9236L26.3256 22.4126ZM28.0656 22.7876L28.1714 22.2989L28.171 22.2988L28.0656 22.7876ZM30.6456 27.1076L31.0929 27.3312V27.3312L30.6456 27.1076ZM29.7456 28.1876L30.044 28.5889L30.0505 28.5839L29.7456 28.1876ZM28.3356 28.8626L28.4753 29.3427L28.3356 28.8626ZM26.4756 28.6026C26.1006 28.6026 25.7032 28.5745 25.2832 28.5172L25.1481 29.508C25.6081 29.5708 26.0507 29.6026 26.4756 29.6026V28.6026ZM25.2734 28.516C24.868 28.4688 24.4842 28.3937 24.1214 28.2914L23.8499 29.2538C24.2671 29.3715 24.7033 29.4564 25.1579 29.5093L25.2734 28.516ZM24.1214 28.2914C23.7548 28.188 23.4329 28.0678 23.1534 27.9325L22.7179 28.8327C23.0584 28.9975 23.4365 29.1372 23.8499 29.2538L24.1214 28.2914ZM23.1526 27.9321C22.9536 27.8363 22.8568 27.7328 22.8086 27.6406L21.9227 28.1046C22.0945 28.4325 22.3777 28.6689 22.7187 28.8331L23.1526 27.9321ZM22.8129 27.649C22.7462 27.5157 22.7242 27.3849 22.7418 27.2446L21.7495 27.1206C21.707 27.4603 21.7651 27.7895 21.9184 28.0962L22.8129 27.649ZM22.7418 27.2446C22.7613 27.0883 22.814 26.9642 22.8953 26.8596L22.106 26.2457C21.9073 26.501 21.79 26.7969 21.7495 27.1206L22.7418 27.2446ZM22.9032 26.8492C22.9747 26.7521 23.0618 26.6927 23.1819 26.6614L22.9294 25.6938C22.5895 25.7825 22.3066 25.9731 22.0981 26.256L22.9032 26.8492ZM23.2012 26.656C23.2828 26.6311 23.4153 26.6271 23.6311 26.7239L24.0402 25.8114C23.676 25.6481 23.2885 25.5841 22.9101 25.6993L23.2012 26.656ZM23.6216 26.7195C24.0427 26.9189 24.5112 27.0703 25.0237 27.1771L25.2276 26.1981C24.7801 26.1049 24.3886 25.9763 24.0497 25.8158L23.6216 26.7195ZM25.0237 27.1771C25.5318 27.283 26.0163 27.3376 26.4756 27.3376V26.3376C26.095 26.3376 25.6795 26.2923 25.2276 26.1981L25.0237 27.1771ZM26.4756 27.3376C27.1454 27.3376 27.737 27.2576 28.1293 27.0011L27.582 26.1641C27.4543 26.2476 27.1259 26.3376 26.4756 26.3376V27.3376ZM28.133 26.9986C28.503 26.752 28.7606 26.3919 28.7606 25.9226H27.7606C27.7606 25.9733 27.7483 26.0532 27.5783 26.1666L28.133 26.9986ZM28.7606 25.9226C28.7606 25.5289 28.5862 25.1964 28.2722 24.9651L27.679 25.7702C27.7451 25.8188 27.7606 25.8563 27.7606 25.9226H28.7606ZM28.2826 24.9729C28.0068 24.7584 27.5843 24.6206 27.1047 24.5186L26.8966 25.4967C27.357 25.5946 27.5845 25.6968 27.6687 25.7623L28.2826 24.9729ZM27.1051 24.5187L25.3501 24.1437L25.1412 25.1216L26.8962 25.4966L27.1051 24.5187ZM25.3476 24.1431C24.4467 23.9554 23.8404 23.6396 23.465 23.2402L22.7363 23.9251C23.3009 24.5257 24.1246 24.9098 25.1437 25.1221L25.3476 24.1431ZM23.465 23.2402C23.0953 22.8469 22.8956 22.331 22.8956 21.6476H21.8956C21.8956 22.5442 22.166 23.3183 22.7363 23.9251L23.465 23.2402ZM22.8956 21.6476C22.8956 21.1968 22.9862 20.8046 23.1579 20.4612L22.2634 20.014C22.0151 20.5106 21.8956 21.0584 21.8956 21.6476H22.8956ZM23.1558 20.4654C23.3414 20.1025 23.598 19.7947 23.9305 19.5389L23.3208 18.7463C22.8733 19.0906 22.5199 19.5127 22.2655 20.0099L23.1558 20.4654ZM23.9256 19.5426C24.2725 19.2825 24.6875 19.0773 25.1777 18.932L24.8936 17.9732C24.3038 18.148 23.7788 18.4028 23.3256 18.7426L23.9256 19.5426ZM25.1833 18.9303C25.6784 18.7773 26.2377 18.6976 26.8656 18.6976V17.6976C26.1536 17.6976 25.4929 17.7879 24.888 17.9749L25.1833 18.9303ZM26.8656 18.6976C27.3469 18.6976 27.8348 18.7531 28.3302 18.8653L28.5511 17.89C27.9865 17.7621 27.4244 17.6976 26.8656 17.6976V18.6976ZM28.3408 18.8676C28.8379 18.9688 29.2485 19.1218 29.5817 19.3183L30.0896 18.4569C29.6428 18.1934 29.1234 18.0064 28.5405 17.8877L28.3408 18.8676ZM29.6044 19.3309C29.7498 19.4068 29.8312 19.4968 29.8792 19.5976L30.7821 19.1677C30.6301 18.8484 30.3815 18.6084 30.0669 18.4443L29.6044 19.3309ZM29.8792 19.5976C29.9412 19.7278 29.9648 19.8587 29.9525 19.9993L30.9488 20.0859C30.9765 19.7665 30.9201 19.4574 30.7821 19.1677L29.8792 19.5976ZM29.9527 19.9974C29.9418 20.1176 29.9006 20.2176 29.8247 20.3098L30.5966 20.9455C30.8007 20.6977 30.9195 20.4076 30.9486 20.0879L29.9527 19.9974ZM29.8135 20.3239C29.7587 20.3955 29.6792 20.4537 29.5444 20.4888L29.7969 21.4564C30.1221 21.3716 30.4026 21.1997 30.6078 20.9313L29.8135 20.3239ZM29.5598 20.4851C29.4803 20.5031 29.3275 20.4999 29.069 20.3915L28.6823 21.3137C29.0438 21.4653 29.421 21.5421 29.7815 21.4602L29.5598 20.4851ZM29.0802 20.3964C28.7441 20.2457 28.3712 20.1398 27.9657 20.0741L27.8056 21.0612C28.1401 21.1154 28.4272 21.1995 28.6711 21.3089L29.0802 20.3964ZM27.9811 20.0768C27.5921 20.0012 27.2101 19.9626 26.8356 19.9626V20.9626C27.1412 20.9626 27.4592 20.9941 27.7902 21.0584L27.9811 20.0768ZM26.8356 19.9626C26.4279 19.9626 26.0543 20.0119 25.7271 20.1251L26.0542 21.0701C26.247 21.0034 26.5034 20.9626 26.8356 20.9626V19.9626ZM25.7436 20.1197C25.4193 20.2195 25.1304 20.3815 24.9144 20.6284L25.6669 21.2869C25.7309 21.2138 25.842 21.1357 26.0377 21.0755L25.7436 20.1197ZM24.9026 20.6423C24.6987 20.8932 24.5956 21.1901 24.5956 21.5126H25.5956C25.5956 21.4151 25.6226 21.342 25.6787 21.2729L24.9026 20.6423ZM24.5956 21.5126C24.5956 21.8785 24.7519 22.1911 25.0198 22.4275L25.6815 21.6777C25.6094 21.6141 25.5956 21.5668 25.5956 21.5126H24.5956ZM25.0437 22.4473C25.3195 22.6618 25.742 22.7996 26.2216 22.9017L26.4297 21.9236C25.9693 21.8256 25.7418 21.7234 25.6576 21.6579L25.0437 22.4473ZM26.2203 22.9014L27.9603 23.2764L28.171 22.2988L26.431 21.9238L26.2203 22.9014ZM27.9599 23.2763C28.877 23.4748 29.4995 23.7886 29.8871 24.1762L30.5942 23.4691C30.0218 22.8966 29.1943 22.5204 28.1714 22.2989L27.9599 23.2763ZM29.8871 24.1762C30.2604 24.5495 30.4606 25.0408 30.4606 25.6976H31.4606C31.4606 24.8144 31.1808 24.0557 30.5942 23.4691L29.8871 24.1762ZM30.4606 25.6976C30.4606 26.1484 30.3701 26.5406 30.1984 26.884L31.0929 27.3312C31.3412 26.8346 31.4606 26.2868 31.4606 25.6976H30.4606ZM30.1984 26.884C30.0238 27.2332 29.7738 27.5351 29.4408 27.7913L30.0505 28.5839C30.4975 28.2401 30.8474 27.8221 31.0929 27.3312L30.1984 26.884ZM29.4473 27.7864C29.1128 28.0351 28.6988 28.2362 28.196 28.3825L28.4753 29.3427C29.0725 29.169 29.5985 28.9201 30.044 28.5889L29.4473 27.7864ZM28.196 28.3825C27.6995 28.527 27.1277 28.6026 26.4756 28.6026V29.6026C27.2036 29.6026 27.8718 29.5183 28.4753 29.3427L28.196 28.3825ZM34.029 28.7576L33.8129 29.2085L33.8165 29.2102L34.029 28.7576ZM32.949 27.7226L32.5036 27.95L32.5057 27.9539L32.949 27.7226ZM32.589 23.5226H33.089V23.0226H32.589V23.5226ZM31.329 23.2676L30.9754 23.6212L30.9805 23.6262L30.9857 23.6311L31.329 23.2676ZM31.329 21.8126L31.6716 22.1767L31.6723 22.1761L31.329 21.8126ZM32.589 21.5576V22.0576H33.089V21.5576H32.589ZM34.914 19.6226L34.5604 19.9762V19.9762L34.914 19.6226ZM35.259 21.5576H34.759V22.0576H35.259V21.5576ZM37.239 21.8126L36.8854 22.1662L36.8958 22.1766L36.9068 22.1863L37.239 21.8126ZM37.239 23.2676L36.8957 22.9041L36.8905 22.909L36.8854 22.9141L37.239 23.2676ZM35.259 23.5226V23.0226H34.759V23.5226H35.259ZM35.514 26.7026L35.1505 27.0459L35.1603 27.0563L35.1707 27.0661L35.514 26.7026ZM36.759 26.9126L36.8714 27.3998L36.759 26.9126ZM37.119 26.8676V27.3676H37.1346L37.1502 27.3666L37.119 26.8676ZM37.509 27.0176L37.139 27.354L37.147 27.3628L37.1554 27.3712L37.509 27.0176ZM37.524 28.4876L37.98 28.6928L37.9835 28.6846L37.524 28.4876ZM37.044 28.9226L37.2121 29.3935L37.2192 29.391L37.2262 29.3882L37.044 28.9226ZM36.474 29.0426L36.412 28.5465L36.4018 28.5477L36.3918 28.5494L36.474 29.0426ZM35.889 28.6026C35.1858 28.6026 34.6445 28.4942 34.2414 28.305L33.8165 29.2102C34.3935 29.4811 35.0921 29.6026 35.889 29.6026V28.6026ZM34.245 28.3067C33.8598 28.1221 33.5809 27.8529 33.3923 27.4913L32.5057 27.9539C32.7971 28.5124 33.2381 28.9331 33.8129 29.2085L34.245 28.3067ZM33.3943 27.4952C33.2 27.1148 33.089 26.6133 33.089 25.9676H32.089C32.089 26.7219 32.2179 27.3904 32.5037 27.95L33.3943 27.4952ZM33.089 25.9676V23.5226H32.089V25.9676H33.089ZM32.589 23.0226H32.079V24.0226H32.589V23.0226ZM32.079 23.0226C31.848 23.0226 31.7347 22.9631 31.6723 22.9041L30.9857 23.6311C31.2832 23.9121 31.67 24.0226 32.079 24.0226V23.0226ZM31.6825 22.9141C31.6341 22.8657 31.574 22.7654 31.574 22.5326H30.574C30.574 22.9399 30.6838 23.3296 30.9754 23.6212L31.6825 22.9141ZM31.574 22.5326C31.574 22.2977 31.6349 22.2113 31.6716 22.1767L30.9863 21.4485C30.683 21.7339 30.574 22.1275 30.574 22.5326H31.574ZM31.6723 22.1761C31.7347 22.1171 31.848 22.0576 32.079 22.0576V21.0576C31.67 21.0576 31.2832 21.1681 30.9857 21.4491L31.6723 22.1761ZM32.079 22.0576H32.589V21.0576H32.079V22.0576ZM33.089 21.5576V20.6276H32.089V21.5576H33.089ZM33.089 20.6276C33.089 20.2722 33.1805 20.0831 33.2875 19.9762L32.5804 19.2691C32.2274 19.6221 32.089 20.1031 32.089 20.6276H33.089ZM33.2875 19.9762C33.3965 19.8672 33.5823 19.7776 33.924 19.7776V18.7776C33.4056 18.7776 32.9314 18.9181 32.5804 19.2691L33.2875 19.9762ZM33.924 19.7776C34.2656 19.7776 34.4514 19.8672 34.5604 19.9762L35.2675 19.2691C34.9165 18.9181 34.4423 18.7776 33.924 18.7776V19.7776ZM34.5604 19.9762C34.6674 20.0831 34.759 20.2722 34.759 20.6276H35.759C35.759 20.1031 35.6205 19.6221 35.2675 19.2691L34.5604 19.9762ZM34.759 20.6276V21.5576H35.759V20.6276H34.759ZM35.259 22.0576H36.489V21.0576H35.259V22.0576ZM36.489 22.0576C36.7369 22.0576 36.8397 22.1205 36.8854 22.1662L37.5925 21.4591C37.2982 21.1648 36.9011 21.0576 36.489 21.0576V22.0576ZM36.9068 22.1863C36.9479 22.2229 37.009 22.3059 37.009 22.5326H38.009C38.009 22.1193 37.89 21.7224 37.5711 21.4389L36.9068 22.1863ZM37.009 22.5326C37.009 22.7575 36.9485 22.8542 36.8957 22.9041L37.5823 23.6311C37.8894 23.341 38.009 22.9478 38.009 22.5326H37.009ZM36.8854 22.9141C36.8397 22.9598 36.7369 23.0226 36.489 23.0226V24.0226C36.9011 24.0226 37.2982 23.9155 37.5925 23.6212L36.8854 22.9141ZM36.489 23.0226H35.259V24.0226H36.489V23.0226ZM34.759 23.5226V25.8776H35.759V23.5226H34.759ZM34.759 25.8776C34.759 26.3134 34.8579 26.7362 35.1505 27.0459L35.8775 26.3593C35.83 26.309 35.759 26.1819 35.759 25.8776H34.759ZM35.1707 27.0661C35.4825 27.3606 35.9126 27.4576 36.354 27.4576V26.4576C36.0353 26.4576 35.9055 26.3846 35.8573 26.3391L35.1707 27.0661ZM36.354 27.4576C36.5299 27.4576 36.7028 27.4387 36.8714 27.3998L36.6465 26.4254C36.5552 26.4465 36.458 26.4576 36.354 26.4576V27.4576ZM36.8714 27.3998C36.972 27.3766 37.0538 27.3676 37.119 27.3676V26.3676C36.9641 26.3676 36.8059 26.3886 36.6465 26.4254L36.8714 27.3998ZM37.1502 27.3666C37.1601 27.366 37.1647 27.3666 37.165 27.3667C37.1652 27.3667 37.1621 27.3663 37.157 27.3643C37.1518 27.3623 37.1468 27.3596 37.1428 27.3568C37.1389 27.3541 37.1377 27.3526 37.139 27.354L37.8789 26.6813C37.668 26.4493 37.3856 26.35 37.0878 26.3686L37.1502 27.3666ZM37.1554 27.3712C37.1267 27.3424 37.1173 27.3203 37.1183 27.3223C37.119 27.3239 37.1251 27.3387 37.1324 27.3729C37.1474 27.4431 37.159 27.556 37.159 27.7226H38.159C38.159 27.5192 38.1456 27.3296 38.1105 27.1648C38.0779 27.0115 38.0136 26.8151 37.8625 26.6641L37.1554 27.3712ZM37.159 27.7226C37.159 27.9751 37.1208 28.1591 37.0644 28.2907L37.9835 28.6846C38.1072 28.3961 38.159 28.0702 38.159 27.7226H37.159ZM37.068 28.2824C37.0386 28.3477 36.9867 28.4081 36.8618 28.457L37.2262 29.3882C37.5613 29.2571 37.8293 29.0275 37.9799 28.6928L37.068 28.2824ZM36.8758 28.4518C36.7847 28.4843 36.6353 28.5186 36.412 28.5465L36.536 29.5388C36.7927 29.5067 37.0232 29.461 37.2121 29.3935L36.8758 28.4518ZM36.3918 28.5494C36.1644 28.5873 35.9999 28.6026 35.889 28.6026V29.6026C36.0781 29.6026 36.3035 29.5779 36.5562 29.5358L36.3918 28.5494ZM39.5907 28.7576L39.3381 29.1892L39.3461 29.1937L39.5907 28.7576ZM38.6607 27.6926L38.2005 27.8884L38.2042 27.8966L38.6607 27.6926ZM38.7057 21.7676L39.0514 22.129L39.0592 22.1212L38.7057 21.7676ZM40.6857 21.7676L40.332 22.1213L40.3401 22.1289L40.6857 21.7676ZM41.2557 26.7926L41.6398 26.4725V26.4725L41.2557 26.7926ZM42.8457 26.6726L42.4712 26.3413L42.8457 26.6726ZM43.5357 21.7676L43.8814 22.129L43.8892 22.1212L43.5357 21.7676ZM45.5157 21.7676L45.162 22.1213L45.1701 22.1289L45.5157 21.7676ZM43.5957 28.7276L43.9492 28.3741L43.5957 28.7276ZM43.2507 26.8526L43.726 26.6974L42.7507 26.8526H43.2507ZM43.4907 27.5876L43.9468 27.7924L44.026 27.6161L43.966 27.4324L43.4907 27.5876ZM42.5607 28.7126L42.2882 28.2934L42.2833 28.2966L42.5607 28.7126ZM41.1657 28.6026C40.5817 28.6026 40.1484 28.4972 39.8353 28.3216L39.3461 29.1937C39.853 29.4781 40.4697 29.6026 41.1657 29.6026V28.6026ZM39.8433 28.3261C39.5309 28.1433 39.2884 27.8718 39.1172 27.4887L38.2042 27.8966C38.453 28.4535 38.8304 28.892 39.3381 29.1891L39.8433 28.3261ZM39.1208 27.4968C38.9556 27.1086 38.8607 26.5859 38.8607 25.9076H37.8607C37.8607 26.6693 37.9658 27.3366 38.2006 27.8884L39.1208 27.4968ZM38.8607 25.9076V22.7576H37.8607V25.9076H38.8607ZM38.8607 22.7576C38.8607 22.4005 38.9529 22.2231 39.0513 22.1289L38.3601 21.4063C37.9985 21.7522 37.8607 22.2347 37.8607 22.7576H38.8607ZM39.0592 22.1212C39.1682 22.0122 39.354 21.9226 39.6957 21.9226V20.9226C39.1773 20.9226 38.7031 21.0631 38.3521 21.4141L39.0592 22.1212ZM39.6957 21.9226C40.0373 21.9226 40.2231 22.0122 40.3321 22.1212L41.0392 21.4141C40.6882 21.0631 40.2141 20.9226 39.6957 20.9226V21.9226ZM40.3401 22.1289C40.4385 22.2231 40.5307 22.4005 40.5307 22.7576H41.5307C41.5307 22.2347 41.3929 21.7522 41.0313 21.4063L40.3401 22.1289ZM40.5307 22.7576V25.9826H41.5307V22.7576H40.5307ZM40.5307 25.9826C40.5307 26.3997 40.6157 26.8057 40.8716 27.1127L41.6398 26.4725C41.5957 26.4196 41.5307 26.2855 41.5307 25.9826H40.5307ZM40.8716 27.1127C41.148 27.4444 41.5496 27.5626 41.9607 27.5626V26.5626C41.7318 26.5626 41.6634 26.5008 41.6398 26.4725L40.8716 27.1127ZM41.9607 27.5626C42.4579 27.5626 42.8913 27.3756 43.2202 27.0039L42.4712 26.3413C42.34 26.4896 42.1835 26.5626 41.9607 26.5626V27.5626ZM43.2202 27.0039C43.5491 26.6321 43.6907 26.1594 43.6907 25.6376H42.6907C42.6907 25.9759 42.6023 26.1932 42.4712 26.3413L43.2202 27.0039ZM43.6907 25.6376V22.7576H42.6907V25.6376H43.6907ZM43.6907 22.7576C43.6907 22.4005 43.7829 22.2231 43.8813 22.1289L43.1901 21.4063C42.8285 21.7522 42.6907 22.2347 42.6907 22.7576H43.6907ZM43.8892 22.1212C43.9982 22.0122 44.184 21.9226 44.5257 21.9226V20.9226C44.0073 20.9226 43.5331 21.0631 43.1821 21.4141L43.8892 22.1212ZM44.5257 21.9226C44.8673 21.9226 45.0531 22.0122 45.1621 22.1212L45.8692 21.4141C45.5182 21.0631 45.0441 20.9226 44.5257 20.9226V21.9226ZM45.1701 22.1289C45.2685 22.2231 45.3607 22.4005 45.3607 22.7576H46.3607C46.3607 22.2347 46.2229 21.7522 45.8613 21.4063L45.1701 22.1289ZM45.3607 22.7576V27.7226H46.3607V22.7576H45.3607ZM45.3607 27.7226C45.3607 28.1011 45.2699 28.2921 45.1767 28.3897C45.0875 28.483 44.9177 28.5726 44.5707 28.5726V29.5726C45.0837 29.5726 45.5588 29.4372 45.8997 29.0806C46.2365 28.7281 46.3607 28.2442 46.3607 27.7226H45.3607ZM44.5707 28.5726C44.2429 28.5726 44.0603 28.4852 43.9492 28.3741L43.2421 29.0812C43.591 29.4301 44.0584 29.5726 44.5707 29.5726V28.5726ZM43.9492 28.3741C43.8423 28.2671 43.7507 28.0781 43.7507 27.7226H42.7507C42.7507 28.2472 42.8891 28.7282 43.2421 29.0812L43.9492 28.3741ZM43.7507 27.7226V26.8526H42.7507V27.7226H43.7507ZM42.7754 27.0078L43.0154 27.7428L43.966 27.4324L43.726 26.6974L42.7754 27.0078ZM43.0346 27.3828C42.8488 27.7966 42.5978 28.0922 42.2882 28.2934L42.8332 29.1318C43.3236 28.8131 43.6926 28.3587 43.9468 27.7924L43.0346 27.3828ZM42.2833 28.2966C41.9874 28.4939 41.6224 28.6026 41.1657 28.6026V29.6026C41.789 29.6026 42.3539 29.4514 42.838 29.1286L42.2833 28.2966ZM48.6145 28.6376L48.3432 29.0577L48.3472 29.0602L48.6145 28.6376ZM47.4745 27.3026L47.0211 27.5137L47.0242 27.52L47.4745 27.3026ZM47.4745 23.1776L47.0257 22.9571L47.0226 22.9636L47.4745 23.1776ZM48.6145 21.8576L48.3471 21.4351L48.3432 21.4376L48.6145 21.8576ZM52.6645 22.7876V23.2876H53.3798L53.134 22.6158L52.6645 22.7876ZM52.4995 22.7876H51.9995V23.2876H52.4995V22.7876ZM52.8445 18.5726L53.198 18.9262V18.9262L52.8445 18.5726ZM54.8095 18.5726L54.4558 18.9263L54.4635 18.9336L54.8095 18.5726ZM54.8245 28.7276L54.4708 28.374L54.4632 28.382L54.8245 28.7276ZM52.8745 28.7276L53.228 28.3741L52.8745 28.7276ZM52.5295 26.8676L53.0173 26.7581L52.0295 26.8676H52.5295ZM52.6945 27.6026L53.1719 27.7512L53.2116 27.6235L53.1823 27.4931L52.6945 27.6026ZM51.8095 28.6976L52.071 29.1238L52.0736 29.1222L51.8095 28.6976ZM51.8695 26.9426L52.1327 27.3678L52.1398 27.3633L52.1468 27.3586L51.8695 26.9426ZM52.3495 26.3276L51.8898 26.1306L51.8864 26.139L52.3495 26.3276ZM52.1395 23.8076L51.7616 24.1351L51.7672 24.1414L52.1395 23.8076ZM50.4295 23.5526L50.1663 23.1275L50.4295 23.5526ZM49.9345 24.1676L50.3914 24.3707L50.394 24.3646L49.9345 24.1676ZM50.1445 26.6876L49.7666 27.0151L50.1445 26.6876ZM50.2945 28.6026C49.7506 28.6026 49.2849 28.4701 48.8818 28.2151L48.3472 29.0602C48.924 29.4251 49.5783 29.6026 50.2945 29.6026V28.6026ZM48.8857 28.2176C48.4924 27.9635 48.17 27.5933 47.9248 27.0852L47.0242 27.52C47.3389 28.1719 47.7766 28.6917 48.3432 29.0576L48.8857 28.2176ZM47.9278 27.0916C47.6949 26.5913 47.5695 25.9814 47.5695 25.2476H46.5695C46.5695 26.0938 46.7141 26.8539 47.0212 27.5136L47.9278 27.0916ZM47.5695 25.2476C47.5695 24.4914 47.6957 23.8786 47.9263 23.3917L47.0226 22.9636C46.7132 23.6167 46.5695 24.3839 46.5695 25.2476H47.5695ZM47.9233 23.3981C48.1679 22.9001 48.4902 22.5331 48.8857 22.2776L48.3432 21.4376C47.7788 21.8021 47.3411 22.3151 47.0257 22.9572L47.9233 23.3981ZM48.8818 22.2802C49.2849 22.0251 49.7506 21.8926 50.2945 21.8926V20.8926C49.5783 20.8926 48.924 21.0701 48.3472 21.4351L48.8818 22.2802ZM50.2945 21.8926C50.7621 21.8926 51.168 22.0021 51.5251 22.2131L52.0338 21.3522C51.5109 21.0432 50.9269 20.8926 50.2945 20.8926V21.8926ZM51.5251 22.2131C51.8834 22.4248 52.0912 22.6758 52.1949 22.9594L53.134 22.6158C52.9378 22.0794 52.5555 21.6604 52.0338 21.3522L51.5251 22.2131ZM52.6645 22.2876H52.4995V23.2876H52.6645V22.2876ZM52.9995 22.7876V19.5776H51.9995V22.7876H52.9995ZM52.9995 19.5776C52.9995 19.2222 53.0911 19.0331 53.198 18.9262L52.4909 18.2191C52.1379 18.5721 51.9995 19.0531 51.9995 19.5776H52.9995ZM53.198 18.9262C53.307 18.8172 53.4928 18.7276 53.8345 18.7276V17.7276C53.3161 17.7276 52.8419 17.8681 52.4909 18.2191L53.198 18.9262ZM53.8345 18.7276C54.1622 18.7276 54.3448 18.8151 54.4559 18.9262L55.163 18.2191C54.8141 17.8702 54.3467 17.7276 53.8345 17.7276V18.7276ZM54.4635 18.9336C54.5762 19.0416 54.6695 19.2279 54.6695 19.5776H55.6695C55.6695 19.0473 55.5227 18.5636 55.1554 18.2116L54.4635 18.9336ZM54.6695 19.5776V27.7226H55.6695V19.5776H54.6695ZM54.6695 27.7226C54.6695 28.0781 54.5779 28.2671 54.4709 28.3741L55.178 29.0812C55.5311 28.7282 55.6695 28.2472 55.6695 27.7226H54.6695ZM54.4632 28.382C54.367 28.4825 54.1926 28.5726 53.8495 28.5726V29.5726C54.3663 29.5726 54.8419 29.4327 55.1858 29.0732L54.4632 28.382ZM53.8495 28.5726C53.5217 28.5726 53.3391 28.4852 53.228 28.3741L52.5209 29.0812C52.8698 29.4301 53.3372 29.5726 53.8495 29.5726V28.5726ZM53.228 28.3741C53.1211 28.2671 53.0295 28.0781 53.0295 27.7226H52.0295C52.0295 28.2472 52.1679 28.7282 52.5209 29.0812L53.228 28.3741ZM53.0295 27.7226V26.8676H52.0295V27.7226H53.0295ZM52.0416 26.9771L52.2066 27.7121L53.1823 27.4931L53.0173 26.7581L52.0416 26.9771ZM52.217 27.4541C52.1172 27.7751 51.907 28.0481 51.5453 28.2731L52.0736 29.1222C52.612 28.7872 52.9918 28.3302 53.1719 27.7512L52.217 27.4541ZM51.548 28.2715C51.1947 28.4882 50.7821 28.6026 50.2945 28.6026V29.6026C50.9469 29.6026 51.5443 29.447 52.071 29.1238L51.548 28.2715ZM51.1495 27.6376C51.5035 27.6376 51.8363 27.5512 52.1327 27.3678L51.6063 26.5175C51.4827 26.594 51.3355 26.6376 51.1495 26.6376V27.6376ZM52.1468 27.3586C52.4524 27.1549 52.6708 26.8641 52.8125 26.5163L51.8864 26.139C51.8082 26.3311 51.7065 26.4503 51.5921 26.5266L52.1468 27.3586ZM52.809 26.5246C52.9648 26.1611 53.0295 25.7277 53.0295 25.2476H52.0295C52.0295 25.6476 51.9741 25.9341 51.8899 26.1307L52.809 26.5246ZM53.0295 25.2476C53.0295 24.5359 52.8957 23.9021 52.5118 23.4738L51.7672 24.1414C51.9033 24.2932 52.0295 24.6194 52.0295 25.2476H53.0295ZM52.5173 23.4802C52.1615 23.0696 51.6932 22.8576 51.1495 22.8576V23.8576C51.4057 23.8576 51.5974 23.9456 51.7616 24.1351L52.5173 23.4802ZM51.1495 22.8576C50.7955 22.8576 50.4627 22.944 50.1663 23.1275L50.6927 23.9778C50.8163 23.9012 50.9635 23.8576 51.1495 23.8576V22.8576ZM50.1663 23.1275C49.8504 23.3231 49.6258 23.6185 49.4749 23.9707L50.394 24.3646C50.4831 24.1567 50.5886 24.0422 50.6927 23.9778L50.1663 23.1275ZM49.4776 23.9646C49.3183 24.323 49.2545 24.7607 49.2545 25.2476H50.2545C50.2545 24.8345 50.3107 24.5522 50.3914 24.3707L49.4776 23.9646ZM49.2545 25.2476C49.2545 25.954 49.3901 26.5807 49.7666 27.0151L50.5223 26.3602C50.3788 26.1946 50.2545 25.8613 50.2545 25.2476H49.2545ZM49.7666 27.0151C50.1251 27.4287 50.5999 27.6376 51.1495 27.6376V26.6376C50.879 26.6376 50.6838 26.5465 50.5223 26.3602L49.7666 27.0151ZM58.1112 31.5326L58.4333 31.1502L58.1112 31.5326ZM57.7512 30.9026L57.257 30.9787L57.2585 30.9879L57.2602 30.997L57.7512 30.9026ZM57.8862 30.0776L57.4323 29.8679L57.43 29.8731L57.8862 30.0776ZM58.8912 27.9026H59.3912L58.4373 27.6929L58.8912 27.9026ZM58.8912 28.9826L58.4331 29.183L59.3912 28.9826H58.8912ZM56.3262 23.1176L55.8675 23.3164L55.8681 23.318L56.3262 23.1176ZM56.1912 22.2776L55.7002 22.1832L55.6985 22.1924L55.697 22.2016L56.1912 22.2776ZM56.5962 21.6626L56.8779 22.0757L56.8842 22.0715L56.8903 22.067L56.5962 21.6626ZM58.2612 21.6476L57.9514 22.0401L57.9627 22.049L57.9745 22.0572L58.2612 21.6476ZM58.8012 22.4876L58.334 22.6656L58.3346 22.6671L58.8012 22.4876ZM60.3012 26.3876V26.8876H61.0292L60.7679 26.2081L60.3012 26.3876ZM59.7912 26.3876L59.328 26.1995L59.0485 26.8876H59.7912V26.3876ZM61.3812 22.4726L61.8445 22.6608L61.847 22.6544L61.3812 22.4726ZM61.9212 21.6476L62.208 22.0573L62.2119 22.0545L61.9212 21.6476ZM63.4812 21.6626L63.1491 22.0363L63.155 22.0416L63.1611 22.0467L63.4812 21.6626ZM63.8112 22.2776L64.3054 22.2016L63.8112 22.2776ZM63.6762 23.1176L64.1331 23.321L64.135 23.3164L63.6762 23.1176ZM60.2712 30.7676L60.7272 30.9728L60.728 30.9709L60.2712 30.7676ZM59.6712 31.5626L59.4169 31.1322L59.4052 31.1391L59.3939 31.1466L59.6712 31.5626ZM58.8612 31.2726C58.639 31.2726 58.5125 31.2169 58.4333 31.1502L57.7892 31.9151C58.09 32.1684 58.4635 32.2726 58.8612 32.2726V31.2726ZM58.4333 31.1502C58.337 31.069 58.2721 30.9636 58.2422 30.8082L57.2602 30.997C57.3303 31.3616 57.5055 31.6762 57.7892 31.9151L58.4333 31.1502ZM58.2454 30.8266C58.2229 30.68 58.2436 30.5027 58.3425 30.2822L57.43 29.8731C57.2689 30.2325 57.1996 30.6052 57.257 30.9787L58.2454 30.8266ZM58.3401 30.2873L59.3451 28.1123L58.4373 27.6929L57.4323 29.8679L58.3401 30.2873ZM58.3912 27.9026V28.9826H59.3912V27.9026H58.3912ZM59.3493 28.7823L56.7843 22.9173L55.8681 23.318L58.4331 29.183L59.3493 28.7823ZM56.785 22.9188C56.6834 22.6843 56.6629 22.5003 56.6854 22.3537L55.697 22.2016C55.6396 22.575 55.7091 22.9509 55.8675 23.3164L56.785 22.9188ZM56.6822 22.372C56.7071 22.2426 56.7663 22.1518 56.8779 22.0757L56.3146 21.2495C55.9861 21.4734 55.7753 21.7927 55.7002 22.1832L56.6822 22.372ZM56.8903 22.067C56.9969 21.9895 57.1811 21.9226 57.4962 21.9226V20.9226C57.0514 20.9226 56.6356 21.0158 56.3021 21.2583L56.8903 22.067ZM57.4962 21.9226C57.7401 21.9226 57.8744 21.9793 57.9514 22.0401L58.5711 21.2552C58.268 21.0159 57.8924 20.9226 57.4962 20.9226V21.9226ZM57.9745 22.0572C58.0484 22.109 58.1838 22.2714 58.334 22.6656L59.2685 22.3096C59.0987 21.8638 58.8741 21.4663 58.548 21.238L57.9745 22.0572ZM58.3346 22.6671L59.8346 26.5671L60.7679 26.2081L59.2679 22.3081L58.3346 22.6671ZM60.3012 25.8876H59.7912V26.8876H60.3012V25.8876ZM60.2545 26.5758L61.8445 22.6608L60.918 22.2845L59.328 26.1995L60.2545 26.5758ZM61.847 22.6544C61.9961 22.2723 62.1311 22.1111 62.208 22.0572L61.6345 21.238C61.3114 21.4642 61.0863 21.853 60.9154 22.2909L61.847 22.6544ZM62.2119 22.0545C62.3116 21.9833 62.479 21.9226 62.7612 21.9226V20.9226C62.3435 20.9226 61.9509 21.012 61.6306 21.2408L62.2119 22.0545ZM62.7612 21.9226C62.97 21.9226 63.0815 21.9763 63.1491 22.0363L63.8134 21.2889C63.5209 21.0289 63.1524 20.9226 62.7612 20.9226V21.9226ZM63.1611 22.0467C63.2359 22.109 63.2931 22.1983 63.317 22.3537L64.3054 22.2016C64.2493 21.837 64.0866 21.5162 63.8013 21.2785L63.1611 22.0467ZM63.317 22.3537C63.3396 22.5003 63.3191 22.6843 63.2175 22.9188L64.135 23.3164C64.2934 22.9509 64.3629 22.575 64.3054 22.2016L63.317 22.3537ZM63.2194 22.9143L59.8144 30.5643L60.728 30.9709L64.133 23.3209L63.2194 22.9143ZM59.8153 30.5624C59.6505 30.9285 59.5044 31.0804 59.4169 31.1322L59.9256 31.9931C60.278 31.7848 60.5319 31.4067 60.7272 30.9728L59.8153 30.5624ZM59.3939 31.1466C59.2878 31.2173 59.1225 31.2726 58.8612 31.2726V32.2726C59.26 32.2726 59.6346 32.1879 59.9486 31.9786L59.3939 31.1466ZM19.3607 44.7126L19 45.0589L19.0071 45.0662L19.0145 45.0733L19.3607 44.7126ZM19.3607 34.7376L19.7143 35.0912H19.7143L19.3607 34.7376ZM26.2457 34.6326L26.5993 34.2791H26.5993L26.2457 34.6326ZM26.2457 36.2226L26.5994 36.5763L26.6087 36.5665L26.2457 36.2226ZM21.7607 36.4926V35.9926H21.2607V36.4926H21.7607ZM21.7607 38.6226H21.2607V39.1226H21.7607V38.6226ZM25.9007 38.8926L25.547 39.2463L25.5569 39.2556L25.9007 38.8926ZM25.9007 40.4676L25.5567 40.1045L25.5472 40.1141L25.9007 40.4676ZM21.7607 40.7376V40.2376H21.2607V40.7376H21.7607ZM20.3957 44.5726C20.0485 44.5726 19.8406 44.4802 19.707 44.3519L19.0145 45.0733C19.3809 45.4251 19.863 45.5726 20.3957 45.5726V44.5726ZM19.7214 44.3664C19.5969 44.2367 19.5007 44.022 19.5007 43.6476H18.5007C18.5007 44.1932 18.6445 44.6885 19 45.0589L19.7214 44.3664ZM19.5007 43.6476V35.7876H18.5007V43.6476H19.5007ZM19.5007 35.7876C19.5007 35.4118 19.5975 35.208 19.7143 35.0912L19.0072 34.3841C18.644 34.7473 18.5007 35.2434 18.5007 35.7876H19.5007ZM19.7143 35.0912C19.8428 34.9627 20.0582 34.8626 20.4407 34.8626V33.8626C19.8833 33.8626 19.3787 34.0126 19.0072 34.3841L19.7143 35.0912ZM20.4407 34.8626H25.4357V33.8626H20.4407V34.8626ZM25.4357 34.8626C25.7187 34.8626 25.839 34.933 25.8922 34.9862L26.5993 34.2791C26.2924 33.9722 25.8728 33.8626 25.4357 33.8626V34.8626ZM25.8922 34.9862C25.9503 35.0443 26.0157 35.1593 26.0157 35.4126H27.0157C27.0157 34.986 26.9012 34.581 26.5993 34.2791L25.8922 34.9862ZM26.0157 35.4126C26.0157 35.6789 25.9485 35.8094 25.8827 35.8787L26.6087 36.5665C26.903 36.2559 27.0157 35.8464 27.0157 35.4126H26.0157ZM25.8922 35.8691C25.839 35.9222 25.7187 35.9926 25.4357 35.9926V36.9926C25.8728 36.9926 26.2924 36.883 26.5993 36.5762L25.8922 35.8691ZM25.4357 35.9926H21.7607V36.9926H25.4357V35.9926ZM21.2607 36.4926V38.6226H22.2607V36.4926H21.2607ZM21.7607 39.1226H25.1057V38.1226H21.7607V39.1226ZM25.1057 39.1226C25.3739 39.1226 25.4916 39.1906 25.5472 39.2462L26.2543 38.5391C25.9498 38.2346 25.5375 38.1226 25.1057 38.1226V39.1226ZM25.5569 39.2556C25.6197 39.3151 25.6857 39.4267 25.6857 39.6726H26.6857C26.6857 39.2385 26.5618 38.8301 26.2446 38.5296L25.5569 39.2556ZM25.6857 39.6726C25.6857 39.9335 25.6169 40.0478 25.5569 40.1046L26.2446 40.8306C26.5646 40.5275 26.6857 40.1117 26.6857 39.6726H25.6857ZM25.5472 40.1141C25.4916 40.1696 25.3739 40.2376 25.1057 40.2376V41.2376C25.5375 41.2376 25.9498 41.1256 26.2543 40.8212L25.5472 40.1141ZM25.1057 40.2376H21.7607V41.2376H25.1057V40.2376ZM21.2607 40.7376V43.6476H22.2607V40.7376H21.2607ZM21.2607 43.6476C21.2607 44.0508 21.1638 44.2604 21.0584 44.3705C20.9568 44.4766 20.768 44.5726 20.3957 44.5726V45.5726C20.9334 45.5726 21.4271 45.4312 21.7805 45.0622C22.1301 44.6973 22.2607 44.1944 22.2607 43.6476H21.2607ZM28.4528 44.6976L28.8208 44.3591L28.4528 44.6976ZM28.4528 37.7976L28.8208 38.1362L28.4528 37.7976ZM30.4178 37.7976L30.0498 38.1362L30.0571 38.1439L30.4178 37.7976ZM30.4328 44.6976L30.8008 45.0361L30.4328 44.6976ZM28.3328 36.0276L28.0025 36.403L28.0099 36.4093L28.3328 36.0276ZM28.3328 34.1226L28.0098 33.7409L28.0025 33.7473L28.3328 34.1226ZM30.5378 34.1226L30.2075 34.498L30.5378 34.1226ZM30.5378 36.0276L30.8681 36.403L30.5378 36.0276ZM29.4278 44.5726C29.1122 44.5726 28.9345 44.4827 28.8208 44.3591L28.0849 45.0361C28.4312 45.4126 28.9035 45.5726 29.4278 45.5726V44.5726ZM28.8208 44.3591C28.7036 44.2317 28.6078 44.0106 28.6078 43.6176H27.6078C27.6078 44.1646 27.7421 44.6635 28.0849 45.0361L28.8208 44.3591ZM28.6078 43.6176V38.8776H27.6078V43.6176H28.6078ZM28.6078 38.8776C28.6078 38.4846 28.7036 38.2635 28.8208 38.1362L28.0849 37.4591C27.7421 37.8317 27.6078 38.3306 27.6078 38.8776H28.6078ZM28.8208 38.1362C28.9345 38.0126 29.1122 37.9226 29.4278 37.9226V36.9226C28.9035 36.9226 28.4312 37.0827 28.0849 37.4591L28.8208 38.1362ZM29.4278 37.9226C29.7576 37.9226 29.9384 38.015 30.0499 38.1362L30.7858 37.4591C30.4373 37.0803 29.9581 36.9226 29.4278 36.9226V37.9226ZM30.0571 38.1439C30.1798 38.2717 30.2778 38.4898 30.2778 38.8776H31.2778C31.2778 38.3255 31.1358 37.8236 30.7785 37.4514L30.0571 38.1439ZM30.2778 38.8776V43.6176H31.2778V38.8776H30.2778ZM30.2778 43.6176C30.2778 44.0106 30.1821 44.2317 30.0649 44.3591L30.8008 45.0361C31.1436 44.6635 31.2778 44.1646 31.2778 43.6176H30.2778ZM30.0649 44.3591C29.9555 44.4779 29.7717 44.5726 29.4278 44.5726V45.5726C29.964 45.5726 30.4501 45.4173 30.8008 45.0361L30.0649 44.3591ZM29.4278 35.8576C29.0313 35.8576 28.7964 35.7649 28.6558 35.6459L28.0099 36.4093C28.3893 36.7303 28.8843 36.8576 29.4278 36.8576V35.8576ZM28.6631 35.6523C28.548 35.5509 28.4578 35.3843 28.4578 35.0676H27.4578C27.4578 35.591 27.6177 36.0643 28.0025 36.403L28.6631 35.6523ZM28.4578 35.0676C28.4578 34.7653 28.5454 34.6016 28.6631 34.498L28.0025 33.7473C27.6203 34.0836 27.4578 34.5499 27.4578 35.0676H28.4578ZM28.6558 34.5043C28.7964 34.3853 29.0313 34.2926 29.4278 34.2926V33.2926C28.8843 33.2926 28.3893 33.4199 28.0099 33.7409L28.6558 34.5043ZM29.4278 34.2926C29.8523 34.2926 30.0836 34.3889 30.2075 34.498L30.8681 33.7473C30.4921 33.4164 29.9834 33.2926 29.4278 33.2926V34.2926ZM30.2075 34.498C30.3253 34.6016 30.4128 34.7653 30.4128 35.0676H31.4128C31.4128 34.5499 31.2504 34.0836 30.8681 33.7473L30.2075 34.498ZM30.4128 35.0676C30.4128 35.3843 30.3227 35.5509 30.2075 35.6523L30.8681 36.403C31.253 36.0643 31.4128 35.591 31.4128 35.0676H30.4128ZM30.2075 35.6523C30.0836 35.7614 29.8523 35.8576 29.4278 35.8576V36.8576C29.9834 36.8576 30.4921 36.7339 30.8681 36.403L30.2075 35.6523ZM34.0066 44.6376L33.7857 45.0863L33.794 45.0902L34.0066 44.6376ZM32.5066 43.2876L32.0785 43.546L32.5066 43.2876ZM32.4766 39.2376L32.0452 38.9848L32.0439 38.9871L32.4766 39.2376ZM33.8566 37.8876L34.0981 38.3254L34.1007 38.324L33.8566 37.8876ZM37.3666 37.6626L37.1809 38.1269L37.1899 38.1304L37.3666 37.6626ZM38.5216 38.4276L38.1574 38.7703L38.1626 38.7757L38.5216 38.4276ZM39.2416 39.6276L38.7682 39.7888L38.7714 39.7977L39.2416 39.6276ZM39.3316 41.6526L39.6482 42.0396L39.6583 42.0314L39.6679 42.0226L39.3316 41.6526ZM34.2166 41.7876H33.7166V42.2876H34.2166V41.7876ZM34.2166 40.5276V40.0276H33.7166V40.5276H34.2166ZM37.5466 40.5276L37.8619 40.9157L38.9549 40.0276H37.5466V40.5276ZM37.3066 40.7226H36.8066V41.7731L37.6219 41.1107L37.3066 40.7226ZM36.7066 39.2976L36.4395 39.7205L36.4493 39.7264L36.7066 39.2976ZM35.1766 39.3426L35.445 39.7645L35.4497 39.7614L35.1766 39.3426ZM34.6666 39.9726L34.207 39.7757L34.6666 39.9726ZM34.9516 42.6876L34.598 43.0412L34.6037 43.0469L34.6096 43.0524L34.9516 42.6876ZM37.1716 43.0626L37.2595 43.555L37.2729 43.5523L37.1716 43.0626ZM37.9966 42.8226L38.1761 43.2893L37.9966 42.8226ZM38.6716 42.7776L38.4987 43.2468L38.5098 43.2509L38.521 43.2544L38.6716 42.7776ZM39.1066 43.1076L38.6826 43.3726L38.6924 43.3883L38.7034 43.4033L39.1066 43.1076ZM39.2866 43.6326L38.7872 43.6576L38.7873 43.6589L39.2866 43.6326ZM39.1516 44.2026L39.5888 44.4455L39.594 44.4355L39.1516 44.2026ZM38.6566 44.6226L38.4572 44.164L38.4487 44.1679L38.6566 44.6226ZM37.5316 44.9826L37.4335 44.4923L37.4311 44.4928L37.5316 44.9826ZM36.3466 44.6026C35.5033 44.6026 34.7989 44.4574 34.2192 44.1851L33.794 45.0902C34.5342 45.4379 35.3899 45.6026 36.3466 45.6026V44.6026ZM34.2274 44.189C33.6571 43.9082 33.2318 43.5216 32.9347 43.0293L32.0785 43.546C32.4814 44.2137 33.0561 44.727 33.7857 45.0862L34.2274 44.189ZM32.9347 43.0293C32.6391 42.5394 32.4816 41.9469 32.4816 41.2326H31.4816C31.4816 42.0983 31.6741 42.8758 32.0785 43.546L32.9347 43.0293ZM32.4816 41.2326C32.4816 40.5469 32.6298 39.971 32.9093 39.4881L32.0439 38.9871C31.6634 39.6443 31.4816 40.3984 31.4816 41.2326H32.4816ZM32.9079 39.4905C33.2032 38.9869 33.5981 38.6013 34.0981 38.3254L33.615 37.4498C32.9551 37.814 32.43 38.3284 32.0452 38.9848L32.9079 39.4905ZM34.1007 38.324C34.6082 38.0401 35.1925 37.8926 35.8666 37.8926V36.8926C35.0407 36.8926 34.285 37.0751 33.6125 37.4512L34.1007 38.324ZM35.8666 37.8926C36.3615 37.8926 36.7974 37.9735 37.1809 38.1269L37.5523 37.1984C37.0358 36.9918 36.4717 36.8926 35.8666 36.8926V37.8926ZM37.1899 38.1304C37.5709 38.2743 37.8912 38.4874 38.1575 38.7703L38.8857 38.0849C38.5119 37.6878 38.0622 37.3909 37.5433 37.1949L37.1899 38.1304ZM38.1626 38.7757C38.4271 39.0484 38.6302 39.3831 38.7683 39.7888L39.7149 39.4665C39.533 38.9322 39.2561 38.4668 38.8805 38.0795L38.1626 38.7757ZM38.7714 39.7977C38.9188 40.2052 38.9966 40.6715 38.9966 41.2026H39.9966C39.9966 40.5738 39.9044 39.9901 39.7118 39.4576L38.7714 39.7977ZM38.9966 41.2026C38.9966 41.2581 38.9888 41.285 38.9859 41.293C38.9846 41.2966 38.9844 41.2959 38.9865 41.2928C38.9886 41.2896 38.9917 41.2859 38.9952 41.2827L39.6679 42.0226C39.9146 41.7983 39.9966 41.4926 39.9966 41.2026H38.9966ZM39.015 41.2656C39.0293 41.254 39.0289 41.2605 38.9933 41.2696C38.9573 41.2789 38.8974 41.2876 38.8066 41.2876V42.2876C39.0893 42.2876 39.4054 42.2383 39.6482 42.0396L39.015 41.2656ZM38.8066 41.2876H34.2166V42.2876H38.8066V41.2876ZM34.7166 41.7876V40.5276H33.7166V41.7876H34.7166ZM34.2166 41.0276H37.5466V40.0276H34.2166V41.0276ZM37.2313 40.1396L36.9913 40.3346L37.6219 41.1107L37.8619 40.9157L37.2313 40.1396ZM37.8066 40.7226C37.8066 40.3138 37.7523 39.9387 37.6151 39.6233L36.698 40.022C36.7609 40.1666 36.8066 40.3914 36.8066 40.7226H37.8066ZM37.6151 39.6233C37.4769 39.3053 37.26 39.0466 36.9638 38.8689L36.4493 39.7264C36.5531 39.7886 36.6363 39.88 36.698 40.022L37.6151 39.6233ZM36.9736 38.8749C36.6835 38.6917 36.344 38.6176 35.9866 38.6176V39.6176C36.2091 39.6176 36.3497 39.6636 36.4396 39.7204L36.9736 38.8749ZM35.9866 38.6176C35.5925 38.6176 35.2249 38.7142 34.9035 38.9238L35.4497 39.7614C35.5883 39.671 35.7607 39.6176 35.9866 39.6176V38.6176ZM34.9081 38.9208C34.5897 39.1234 34.3598 39.4191 34.207 39.7757L35.1262 40.1696C35.2134 39.9661 35.3235 39.8418 35.445 39.7645L34.9081 38.9208ZM34.207 39.7757C34.0523 40.1367 33.9866 40.5589 33.9866 41.0226H34.9866C34.9866 40.6463 35.0409 40.3685 35.1262 40.1696L34.207 39.7757ZM33.9866 41.0226V41.1576H34.9866V41.0226H33.9866ZM33.9866 41.1576C33.9866 41.9216 34.1504 42.5935 34.598 43.0412L35.3051 42.3341C35.1328 42.1617 34.9866 41.8137 34.9866 41.1576H33.9866ZM34.6096 43.0524C35.0597 43.4743 35.6972 43.6376 36.4216 43.6376V42.6376C35.8259 42.6376 35.4835 42.5009 35.2936 42.3229L34.6096 43.0524ZM36.4216 43.6376C36.6781 43.6376 36.9584 43.6086 37.2595 43.5548L37.0837 42.5704C36.8248 42.6166 36.605 42.6376 36.4216 42.6376V43.6376ZM37.2729 43.5523C37.5879 43.4871 37.8891 43.3997 38.1761 43.2893L37.8171 42.3559C37.584 42.4456 37.3353 42.5182 37.0703 42.573L37.2729 43.5523ZM38.1761 43.2893C38.3655 43.2165 38.4592 43.2322 38.4987 43.2468L38.8444 42.3085C38.504 42.183 38.1477 42.2288 37.8171 42.3559L38.1761 43.2893ZM38.521 43.2544C38.6045 43.2808 38.6494 43.3195 38.6826 43.3726L39.5306 42.8426C39.3638 42.5758 39.1187 42.3945 38.8222 42.3008L38.521 43.2544ZM38.7034 43.4033C38.7511 43.4683 38.7817 43.5475 38.7872 43.6576L39.786 43.6077C39.7715 43.3178 39.6821 43.0469 39.5098 42.8119L38.7034 43.4033ZM38.7873 43.6589C38.792 43.7479 38.7727 43.849 38.7091 43.9697L39.594 44.4355C39.7305 44.1763 39.8012 43.8974 39.7859 43.6063L38.7873 43.6589ZM38.7145 43.9598C38.6787 44.0242 38.609 44.0981 38.4572 44.1641L38.8559 45.0812C39.1642 44.9471 39.4245 44.741 39.5887 44.4454L38.7145 43.9598ZM38.4487 44.1679C38.1359 44.3109 37.7979 44.4195 37.4335 44.4923L37.6296 45.4729C38.0652 45.3858 38.4773 45.2543 38.8645 45.0774L38.4487 44.1679ZM37.4311 44.4928C37.0743 44.566 36.713 44.6026 36.3466 44.6026V45.6026C36.7802 45.6026 37.2088 45.5592 37.6321 45.4724L37.4311 44.4928ZM41.3219 44.3376L40.9437 44.6649L40.9506 44.6725L41.3219 44.3376ZM42.9569 34.5726L42.6033 34.9263L42.6109 34.9336L42.9569 34.5726ZM43.5269 42.7176L43.1409 43.0355L43.1463 43.042L43.152 43.0484L43.5269 42.7176ZM44.3069 42.9576L44.3776 43.4526L44.4031 43.4489L44.4282 43.4427L44.3069 42.9576ZM44.5619 42.9126V42.4126H44.5342L44.5067 42.4157L44.5619 42.9126ZM44.9369 43.1076L44.5111 43.3697L44.5181 43.3811L44.5258 43.3922L44.9369 43.1076ZM44.8619 44.6976L45.248 45.0156L45.2566 45.0046L44.8619 44.6976ZM44.2169 45.0276L44.2789 45.5238L44.2904 45.5223L44.3019 45.5204L44.2169 45.0276ZM43.8719 45.0726L43.938 45.5682H43.938L43.8719 45.0726ZM43.4519 44.6026C42.5753 44.6026 42.0254 44.3711 41.6932 44.0027L40.9506 44.6725C41.5384 45.3242 42.4085 45.6026 43.4519 45.6026V44.6026ZM41.7 44.0104C41.3603 43.6179 41.1469 42.9768 41.1469 41.9976H40.1469C40.1469 43.0984 40.3835 44.0173 40.9438 44.6648L41.7 44.0104ZM41.1469 41.9976V35.5776H40.1469V41.9976H41.1469ZM41.1469 35.5776C41.1469 35.2222 41.2385 35.0331 41.3455 34.9262L40.6383 34.2191C40.2853 34.5721 40.1469 35.0531 40.1469 35.5776H41.1469ZM41.3455 34.9262C41.4566 34.8151 41.6392 34.7276 41.9669 34.7276V33.7276C41.4546 33.7276 40.9872 33.8702 40.6383 34.2191L41.3455 34.9262ZM41.9669 34.7276C42.3085 34.7276 42.4943 34.8172 42.6033 34.9262L43.3105 34.2191C42.9595 33.8681 42.4853 33.7276 41.9669 33.7276V34.7276ZM42.6109 34.9336C42.7236 35.0416 42.8169 35.2279 42.8169 35.5776H43.8169C43.8169 35.0473 43.6701 34.5636 43.3029 34.2116L42.6109 34.9336ZM42.8169 35.5776V41.9076H43.8169V35.5776H42.8169ZM42.8169 41.9076C42.8169 42.3212 42.8916 42.7327 43.1409 43.0355L43.9129 42.3998C43.8822 42.3626 43.8169 42.234 43.8169 41.9076H42.8169ZM43.152 43.0484C43.3985 43.3278 43.7258 43.4726 44.0969 43.4726V42.4726C44.008 42.4726 43.9553 42.4475 43.9018 42.3868L43.152 43.0484ZM44.0969 43.4726C44.1908 43.4726 44.2844 43.4659 44.3776 43.4526L44.2362 42.4626C44.1894 42.4693 44.143 42.4726 44.0969 42.4726V43.4726ZM44.4282 43.4427C44.4844 43.4286 44.5472 43.4173 44.6171 43.4096L44.5067 42.4157C44.3966 42.4279 44.2893 42.4466 44.1856 42.4726L44.4282 43.4427ZM44.5619 43.4126C44.583 43.4126 44.5745 43.4164 44.5525 43.405C44.5419 43.3995 44.5321 43.3924 44.5239 43.3846C44.5158 43.377 44.5119 43.3711 44.5111 43.3697L45.3627 42.8456C45.18 42.5487 44.882 42.4126 44.5619 42.4126V43.4126ZM44.5258 43.3922C44.5097 43.3689 44.5275 43.3835 44.5452 43.4876C44.5613 43.5826 44.5719 43.7185 44.5719 43.9026H45.5719C45.5719 43.6867 45.56 43.4902 45.5311 43.3202C45.5038 43.1593 45.4541 42.9763 45.348 42.823L44.5258 43.3922ZM44.5719 43.9026C44.5719 44.1977 44.511 44.3344 44.4672 44.3907L45.2566 45.0046C45.4928 44.7009 45.5719 44.3076 45.5719 43.9026H44.5719ZM44.4759 44.3798C44.4345 44.4301 44.344 44.4983 44.1319 44.5349L44.3019 45.5204C44.6698 45.4569 45.0093 45.3051 45.2479 45.0155L44.4759 44.3798ZM44.1549 44.5315C44.0728 44.5417 43.9562 44.557 43.8058 44.577L43.938 45.5682C44.0876 45.5483 44.201 45.5335 44.2789 45.5238L44.1549 44.5315ZM43.8058 44.577C43.6743 44.5945 43.5566 44.6026 43.4519 44.6026V45.6026C43.6072 45.6026 43.7695 45.5907 43.938 45.5682L43.8058 44.577ZM46.9885 44.6376L46.7172 45.0577L46.7212 45.0602L46.9885 44.6376ZM45.8485 43.3026L45.3952 43.5137L45.3982 43.52L45.8485 43.3026ZM45.8485 39.1776L45.3997 38.9571L45.3966 38.9636L45.8485 39.1776ZM46.9885 37.8576L46.7212 37.4351L46.7172 37.4376L46.9885 37.8576ZM51.0385 38.7876V39.2876H51.7538L51.5081 38.6158L51.0385 38.7876ZM50.8735 38.7876H50.3735V39.2876H50.8735V38.7876ZM51.2185 34.5726L51.5721 34.9262L51.2185 34.5726ZM53.1835 34.5726L52.8299 34.9263L52.8375 34.9336L53.1835 34.5726ZM53.1985 44.7276L52.8449 44.374L52.8372 44.382L53.1985 44.7276ZM51.2485 44.7276L51.6021 44.3741L51.2485 44.7276ZM50.9035 42.8676L51.3914 42.7581L50.4035 42.8676H50.9035ZM51.0685 43.6026L51.5459 43.7512L51.5856 43.6235L51.5564 43.4931L51.0685 43.6026ZM50.1835 44.6976L50.445 45.1238L50.4477 45.1222L50.1835 44.6976ZM50.2435 42.9426L50.5067 43.3678L50.5138 43.3633L50.5209 43.3586L50.2435 42.9426ZM50.7235 42.3276L50.2639 42.1306L50.2605 42.139L50.7235 42.3276ZM50.5135 39.8076L50.1356 40.1351L50.1412 40.1414L50.5135 39.8076ZM48.8035 39.5526L48.5403 39.1275L48.8035 39.5526ZM48.3085 40.1676L48.7654 40.3707L48.7681 40.3646L48.3085 40.1676ZM48.5185 42.6876L48.1407 43.0151L48.5185 42.6876ZM48.6685 44.6026C48.1246 44.6026 47.6589 44.4701 47.2558 44.2151L46.7212 45.0602C47.2981 45.4251 47.9524 45.6026 48.6685 45.6026V44.6026ZM47.2598 44.2176C46.8664 43.9635 46.5441 43.5933 46.2988 43.0852L45.3982 43.52C45.7129 44.1719 46.1506 44.6917 46.7172 45.0576L47.2598 44.2176ZM46.3018 43.0916C46.0689 42.5913 45.9435 41.9814 45.9435 41.2476H44.9435C44.9435 42.0938 45.0881 42.8539 45.3952 43.5136L46.3018 43.0916ZM45.9435 41.2476C45.9435 40.4914 46.0697 39.8786 46.3004 39.3917L45.3966 38.9636C45.0873 39.6167 44.9435 40.3839 44.9435 41.2476H45.9435ZM46.2973 39.3981C46.5419 38.9001 46.8642 38.5331 47.2598 38.2776L46.7172 37.4376C46.1528 37.8021 45.7151 38.3151 45.3997 38.9572L46.2973 39.3981ZM47.2558 38.2802C47.6589 38.0251 48.1246 37.8926 48.6685 37.8926V36.8926C47.9524 36.8926 47.2981 37.0701 46.7212 37.4351L47.2558 38.2802ZM48.6685 37.8926C49.1361 37.8926 49.542 38.0021 49.8991 38.2131L50.4079 37.3522C49.885 37.0432 49.3009 36.8926 48.6685 36.8926V37.8926ZM49.8991 38.2131C50.2575 38.4248 50.4652 38.6758 50.5689 38.9594L51.5081 38.6158C51.3118 38.0794 50.9295 37.6604 50.4079 37.3522L49.8991 38.2131ZM51.0385 38.2876H50.8735V39.2876H51.0385V38.2876ZM51.3735 38.7876V35.5776H50.3735V38.7876H51.3735ZM51.3735 35.5776C51.3735 35.2222 51.4651 35.0331 51.5721 34.9262L50.8649 34.2191C50.5119 34.5721 50.3735 35.0531 50.3735 35.5776H51.3735ZM51.5721 34.9262C51.6811 34.8172 51.8669 34.7276 52.2085 34.7276V33.7276C51.6901 33.7276 51.2159 33.8681 50.8649 34.2191L51.5721 34.9262ZM52.2085 34.7276C52.5362 34.7276 52.7188 34.8151 52.8299 34.9262L53.5371 34.2191C53.1882 33.8702 52.7208 33.7276 52.2085 33.7276V34.7276ZM52.8375 34.9336C52.9503 35.0416 53.0435 35.2279 53.0435 35.5776H54.0435C54.0435 35.0473 53.8967 34.5636 53.5295 34.2116L52.8375 34.9336ZM53.0435 35.5776V43.7226H54.0435V35.5776H53.0435ZM53.0435 43.7226C53.0435 44.0781 52.9519 44.2671 52.8449 44.3741L53.5521 45.0812C53.9051 44.7282 54.0435 44.2472 54.0435 43.7226H53.0435ZM52.8372 44.382C52.741 44.4825 52.5666 44.5726 52.2235 44.5726V45.5726C52.7404 45.5726 53.216 45.4327 53.5598 45.0732L52.8372 44.382ZM52.2235 44.5726C51.8958 44.5726 51.7132 44.4852 51.6021 44.3741L50.8949 45.0812C51.2438 45.4301 51.7112 45.5726 52.2235 45.5726V44.5726ZM51.6021 44.3741C51.4951 44.2671 51.4035 44.0781 51.4035 43.7226H50.4035C50.4035 44.2472 50.5419 44.7282 50.8949 45.0812L51.6021 44.3741ZM51.4035 43.7226V42.8676H50.4035V43.7226H51.4035ZM50.4156 42.9771L50.5806 43.7121L51.5564 43.4931L51.3914 42.7581L50.4156 42.9771ZM50.5911 43.4541C50.4912 43.7751 50.281 44.0481 49.9193 44.2731L50.4477 45.1222C50.986 44.7872 51.3658 44.3302 51.5459 43.7512L50.5911 43.4541ZM49.922 44.2715C49.5687 44.4882 49.1561 44.6026 48.6685 44.6026V45.6026C49.3209 45.6026 49.9183 45.447 50.445 45.1238L49.922 44.2715ZM49.5235 43.6376C49.8775 43.6376 50.2103 43.5512 50.5067 43.3678L49.9803 42.5175C49.8567 42.594 49.7095 42.6376 49.5235 42.6376V43.6376ZM50.5209 43.3586C50.8265 43.1549 51.0448 42.8641 51.1865 42.5163L50.2605 42.139C50.1822 42.3311 50.0805 42.4503 49.9661 42.5266L50.5209 43.3586ZM51.1831 42.5246C51.3388 42.1611 51.4035 41.7277 51.4035 41.2476H50.4035C50.4035 41.6476 50.3482 41.9341 50.2639 42.1307L51.1831 42.5246ZM51.4035 41.2476C51.4035 40.5359 51.2697 39.9021 50.8858 39.4739L50.1412 40.1414C50.2773 40.2932 50.4035 40.6194 50.4035 41.2476H51.4035ZM50.8913 39.4802C50.5355 39.0696 50.0672 38.8576 49.5235 38.8576V39.8576C49.7798 39.8576 49.9715 39.9456 50.1357 40.1351L50.8913 39.4802ZM49.5235 38.8576C49.1695 38.8576 48.8367 38.944 48.5403 39.1275L49.0667 39.9778C49.1903 39.9012 49.3375 39.8576 49.5235 39.8576V38.8576ZM48.5403 39.1275C48.2244 39.3231 47.9998 39.6185 47.8489 39.9707L48.7681 40.3646C48.8572 40.1567 48.9626 40.0422 49.0667 39.9778L48.5403 39.1275ZM47.8516 39.9646C47.6923 40.323 47.6285 40.7607 47.6285 41.2476H48.6285C48.6285 40.8345 48.6847 40.5522 48.7654 40.3707L47.8516 39.9646ZM47.6285 41.2476C47.6285 41.954 47.7641 42.5807 48.1407 43.0151L48.8963 42.3602C48.7529 42.1946 48.6285 41.8613 48.6285 41.2476H47.6285ZM48.1407 43.0151C48.4991 43.4287 48.9739 43.6376 49.5235 43.6376V42.6376C49.2531 42.6376 49.0579 42.5465 48.8963 42.3602L48.1407 43.0151ZM63.7022 44.7276L63.3486 45.0813L63.3563 45.0886L63.7022 44.7276ZM63.3573 43.1676H63.8573V42.6676H63.3573V43.1676ZM59.3073 42.8676L58.9871 43.2518L58.9949 43.2581L59.3073 42.8676ZM59.0822 41.2626L59.5451 41.452L59.5479 41.4448L59.0822 41.2626ZM59.5622 40.4376L59.9684 40.7295L59.9747 40.7203L59.5622 40.4376ZM63.2222 35.0976L63.6347 35.3803L63.6383 35.375L63.2222 35.0976ZM65.6823 34.5726L65.3208 34.9183L65.3287 34.9262L65.6823 34.5726ZM66.0122 41.0826H65.5122V41.5826H66.0122V41.0826ZM67.2272 41.3526L66.8833 41.7157L66.8928 41.7243L67.2272 41.3526ZM67.2272 42.8976L66.8927 42.5259L66.8834 42.5346L67.2272 42.8976ZM66.0122 43.1676V42.6676H65.5122V43.1676H66.0122ZM65.6672 44.7276L65.3063 44.3817L65.3059 44.382L65.6672 44.7276ZM63.3573 41.0826V41.5826H63.8573V41.0826H63.3573ZM63.3573 37.5426V37.0426H62.8573V37.5426H63.3573ZM63.7772 37.5426L64.1919 37.822L64.7171 37.0426H63.7772V37.5426ZM60.9572 41.7276H60.4572V43.3644L61.3719 42.007L60.9572 41.7276ZM60.9572 41.0826V40.5826H60.4572V41.0826H60.9572ZM64.6922 44.5726C64.3657 44.5726 64.1723 44.4855 64.0482 44.3666L63.3563 45.0886C63.7122 45.4297 64.1788 45.5726 64.6922 45.5726V44.5726ZM64.0558 44.3741C63.9508 44.269 63.8573 44.0769 63.8573 43.7076H62.8573C62.8573 44.2384 62.9937 44.7262 63.3487 45.0812L64.0558 44.3741ZM63.8573 43.7076V43.1676H62.8573V43.7076H63.8573ZM63.3573 42.6676H60.3423V43.6676H63.3573V42.6676ZM60.3423 42.6676C59.9737 42.6676 59.7529 42.5838 59.6196 42.4772L58.9949 43.2581C59.3616 43.5514 59.8308 43.6676 60.3423 43.6676V42.6676ZM59.6273 42.4835C59.5346 42.4063 59.4473 42.2639 59.4473 41.9526H58.4473C58.4473 42.4614 58.5999 42.929 58.9872 43.2517L59.6273 42.4835ZM59.4473 41.9526C59.4473 41.7769 59.4798 41.6113 59.545 41.4519L58.6195 41.0733C58.5047 41.354 58.4473 41.6483 58.4473 41.9526H59.4473ZM59.5479 41.4448C59.6164 41.2697 59.75 41.0331 59.9683 40.7294L59.1562 40.1458C58.9145 40.4822 58.7281 40.7956 58.6166 41.0804L59.5479 41.4448ZM59.9747 40.7203L63.6347 35.3803L62.8098 34.8149L59.1498 40.1549L59.9747 40.7203ZM63.6383 35.375C63.8055 35.1242 63.9761 34.9665 64.1416 34.8739L63.6529 34.0014C63.3184 34.1887 63.039 34.4711 62.8062 34.8203L63.6383 35.375ZM64.1416 34.8739C64.3041 34.7828 64.5118 34.7276 64.7822 34.7276V33.7276C64.3727 33.7276 63.9904 33.8124 63.6529 34.0014L64.1416 34.8739ZM64.7822 34.7276C65.0544 34.7276 65.2133 34.8057 65.3209 34.9182L66.0436 34.227C65.7112 33.8795 65.2701 33.7276 64.7822 33.7276V34.7276ZM65.3287 34.9262C65.4182 35.0157 65.5122 35.2022 65.5122 35.5926H66.5122C66.5122 35.0631 66.3863 34.5696 66.0358 34.2191L65.3287 34.9262ZM65.5122 35.5926V41.0826H66.5122V35.5926H65.5122ZM66.0122 41.5826H66.3722V40.5826H66.0122V41.5826ZM66.3722 41.5826C66.6817 41.5826 66.8209 41.6564 66.8834 41.7156L67.5711 40.9896C67.2536 40.6888 66.8228 40.5826 66.3722 40.5826V41.5826ZM66.8928 41.7243C66.9641 41.7885 67.0272 41.8947 67.0272 42.1176H68.0272C68.0272 41.6806 67.8904 41.2768 67.5617 40.981L66.8928 41.7243ZM67.0272 42.1176C67.0272 42.3559 66.9609 42.4646 66.8928 42.526L67.5617 43.2693C67.8936 42.9706 68.0272 42.5594 68.0272 42.1176H67.0272ZM66.8834 42.5346C66.8209 42.5938 66.6817 42.6676 66.3722 42.6676V43.6676C66.8228 43.6676 67.2536 43.5614 67.5711 43.2606L66.8834 42.5346ZM66.3722 42.6676H66.0122V43.6676H66.3722V42.6676ZM65.5122 43.1676V43.7076H66.5122V43.1676H65.5122ZM65.5122 43.7076C65.5122 44.0616 65.4212 44.2617 65.3063 44.3817L66.0282 45.0736C66.3733 44.7135 66.5122 44.2336 66.5122 43.7076H65.5122ZM65.3059 44.382C65.2098 44.4825 65.0354 44.5726 64.6922 44.5726V45.5726C65.2091 45.5726 65.6847 45.4327 66.0286 45.0732L65.3059 44.382ZM63.8573 41.0826V37.5426H62.8573V41.0826H63.8573ZM63.3573 38.0426H63.7772V37.0426H63.3573V38.0426ZM63.3626 37.2632L60.5426 41.4482L61.3719 42.007L64.1919 37.822L63.3626 37.2632ZM61.4572 41.7276V41.0826H60.4572V41.7276H61.4572ZM60.9572 41.5826H63.3573V40.5826H60.9572V41.5826Z" fill="url(#paint7_linear_2193_3107)" mask="url(#path-13-outside-1_2193_3107)"/>
</g>
<path fill-rule="evenodd" clip-rule="evenodd" d="M62.1095 85.906C62.1095 85.906 66.0807 86.3947 66.3862 87.4945C66.6917 88.5942 63.6369 91.1602 63.6369 91.1602C63.6369 91.1602 64.37 95.0703 63.4536 95.7424C62.5372 96.4144 59.1158 94.2761 59.1158 94.2761C59.1158 94.2761 55.6333 96.2312 54.7169 95.498C53.8005 94.826 54.778 90.9158 54.778 90.9158C54.778 90.9158 51.8454 88.1665 52.2731 87.0668C52.6397 85.9671 56.672 85.7227 56.672 85.7227C56.672 85.7227 58.3826 82.118 59.5435 82.118C60.5821 82.1791 62.1095 85.906 62.1095 85.906Z" fill="url(#paint8_linear_2193_3107)"/>
<path fill-rule="evenodd" clip-rule="evenodd" d="M61.496 86.6393C61.496 86.6393 64.734 87.067 65.0395 87.9834C65.2839 88.8999 62.779 90.9771 62.779 90.9771C62.779 90.9771 63.3899 94.2152 62.5957 94.765C61.8015 95.3149 59.0522 93.5431 59.0522 93.5431C59.0522 93.5431 56.1807 95.1316 55.4475 94.5207C54.7144 93.9708 55.5086 90.7327 55.5086 90.7327C55.5086 90.7327 53.1259 88.4722 53.4313 87.6169C53.7368 86.7004 57.036 86.5171 57.036 86.5171C57.036 86.5171 58.4412 83.5234 59.3576 83.5845C60.2741 83.5845 61.496 86.6393 61.496 86.6393Z" fill="#0B4C53"/>
<path fill-rule="evenodd" clip-rule="evenodd" d="M61.3763 86.7614C61.3763 86.7614 64.4921 87.128 64.7365 88.0444C64.9809 88.8998 62.5982 90.9159 62.5982 90.9159C62.5982 90.9159 63.2091 94.0318 62.4149 94.5206C61.6818 95.0094 58.9935 93.3598 58.9935 93.3598C58.9935 93.3598 56.2442 94.8872 55.5111 94.3373C54.7779 93.7874 55.5722 90.7327 55.5722 90.7327C55.5722 90.7327 53.2505 88.5943 53.556 87.739C53.8615 86.8836 56.9774 86.7003 56.9774 86.7003C56.9774 86.7003 58.3215 83.8288 59.2379 83.8899C60.2154 83.8899 61.3763 86.7614 61.3763 86.7614Z" fill="url(#paint9_radial_2193_3107)"/>
<path fill-rule="evenodd" clip-rule="evenodd" d="M77.3292 85.906C77.3292 85.906 81.3004 86.3947 81.6059 87.4945C81.9114 88.5942 78.8566 91.1602 78.8566 91.1602C78.8566 91.1602 79.5898 95.0703 78.6733 95.7424C77.7569 96.4144 74.3355 94.2761 74.3355 94.2761C74.3355 94.2761 70.8531 96.2312 69.9366 95.498C69.0202 94.826 69.9977 90.9158 69.9977 90.9158C69.9977 90.9158 67.0651 88.1665 67.4928 87.0668C67.8594 85.9671 71.8917 85.7227 71.8917 85.7227C71.8917 85.7227 73.6024 82.118 74.7632 82.118C75.8018 82.1791 77.3292 85.906 77.3292 85.906Z" fill="url(#paint10_linear_2193_3107)"/>
<path fill-rule="evenodd" clip-rule="evenodd" d="M76.7157 86.6393C76.7157 86.6393 79.9538 87.067 80.2593 87.9834C80.5036 88.8999 77.9987 90.9771 77.9987 90.9771C77.9987 90.9771 78.6097 94.2152 77.8154 94.765C77.0212 95.3149 74.2719 93.5431 74.2719 93.5431C74.2719 93.5431 71.4004 95.1316 70.6672 94.5207C69.9341 93.9708 70.7283 90.7327 70.7283 90.7327C70.7283 90.7327 68.3456 88.4722 68.6511 87.6169C68.9566 86.7004 72.2557 86.5171 72.2557 86.5171C72.2557 86.5171 73.6609 83.5234 74.5774 83.5845C75.4938 83.5845 76.7157 86.6393 76.7157 86.6393Z" fill="#0B4C53"/>
<path fill-rule="evenodd" clip-rule="evenodd" d="M76.596 86.7614C76.596 86.7614 79.7119 87.128 79.9563 88.0444C80.2006 88.8998 77.8179 90.9159 77.8179 90.9159C77.8179 90.9159 78.4289 94.0318 77.6346 94.5206C76.9015 95.0094 74.2133 93.3598 74.2133 93.3598C74.2133 93.3598 71.464 94.8872 70.7308 94.3373C69.9977 93.7874 70.7919 90.7327 70.7919 90.7327C70.7919 90.7327 68.4703 88.5943 68.7758 87.739C69.0812 86.8836 72.1971 86.7003 72.1971 86.7003C72.1971 86.7003 73.5412 83.8288 74.4576 83.8899C75.4352 83.8899 76.596 86.7614 76.596 86.7614Z" fill="url(#paint11_radial_2193_3107)"/>
<path fill-rule="evenodd" clip-rule="evenodd" d="M46.8898 85.906C46.8898 85.906 50.861 86.3947 51.1665 87.4945C51.4719 88.5942 48.4172 91.1602 48.4172 91.1602C48.4172 91.1602 49.1503 95.0703 48.2339 95.7424C47.3174 96.4144 43.8961 94.2761 43.8961 94.2761C43.8961 94.2761 40.4136 96.2312 39.4972 95.498C38.5807 94.826 39.5583 90.9158 39.5583 90.9158C39.5583 90.9158 36.6257 88.1665 37.0534 87.0668C37.4199 85.9671 41.4522 85.7227 41.4522 85.7227C41.4522 85.7227 43.1629 82.118 44.3237 82.118C45.3624 82.1791 46.8898 85.906 46.8898 85.906Z" fill="url(#paint12_linear_2193_3107)"/>
<path fill-rule="evenodd" clip-rule="evenodd" d="M46.2763 86.6393C46.2763 86.6393 49.5143 87.067 49.8198 87.9834C50.0642 88.8999 47.5593 90.9771 47.5593 90.9771C47.5593 90.9771 48.1702 94.2152 47.376 94.765C46.5817 95.3149 43.8324 93.5431 43.8324 93.5431C43.8324 93.5431 40.9609 95.1316 40.2278 94.5207C39.4946 93.9708 40.2889 90.7327 40.2889 90.7327C40.2889 90.7327 37.9061 88.4722 38.2116 87.6169C38.5171 86.7004 41.8163 86.5171 41.8163 86.5171C41.8163 86.5171 43.2215 83.5234 44.1379 83.5845C45.0543 83.5845 46.2763 86.6393 46.2763 86.6393Z" fill="#0B4C53"/>
<path fill-rule="evenodd" clip-rule="evenodd" d="M46.1575 86.7614C46.1575 86.7614 49.2734 87.128 49.5178 88.0444C49.7622 88.8998 47.3794 90.9159 47.3794 90.9159C47.3794 90.9159 47.9904 94.0318 47.1961 94.5206C46.463 95.0094 43.7748 93.3598 43.7748 93.3598C43.7748 93.3598 41.0255 94.8872 40.2923 94.3373C39.5592 93.7874 40.3534 90.7327 40.3534 90.7327C40.3534 90.7327 38.0318 88.5943 38.3373 87.739C38.6428 86.8836 41.7586 86.7003 41.7586 86.7003C41.7586 86.7003 43.1027 83.8288 44.0192 83.8899C44.9967 83.8899 46.1575 86.7614 46.1575 86.7614Z" fill="url(#paint13_radial_2193_3107)"/>
<path fill-rule="evenodd" clip-rule="evenodd" d="M31.67 85.906C31.67 85.906 35.6413 86.3947 35.9467 87.4945C36.2522 88.5942 33.1974 91.1602 33.1974 91.1602C33.1974 91.1602 33.9306 95.0703 33.0141 95.7424C32.0977 96.4144 28.6764 94.2761 28.6764 94.2761C28.6764 94.2761 25.1939 96.2312 24.2775 95.498C23.361 94.826 24.3386 90.9158 24.3386 90.9158C24.3386 90.9158 21.406 88.1665 21.8336 87.0668C22.2002 85.9671 26.2325 85.7227 26.2325 85.7227C26.2325 85.7227 27.9432 82.118 29.104 82.118C30.1426 82.1791 31.67 85.906 31.67 85.906Z" fill="url(#paint14_linear_2193_3107)"/>
<path fill-rule="evenodd" clip-rule="evenodd" d="M31.0565 86.6393C31.0565 86.6393 34.2946 87.067 34.6001 87.9834C34.8445 88.8999 32.3395 90.9771 32.3395 90.9771C32.3395 90.9771 32.9505 94.2152 32.1562 94.765C31.362 95.3149 28.6127 93.5431 28.6127 93.5431C28.6127 93.5431 25.7412 95.1316 25.0081 94.5207C24.2749 93.9708 25.0692 90.7327 25.0692 90.7327C25.0692 90.7327 22.6864 88.4722 22.9919 87.6169C23.2974 86.7004 26.5966 86.5171 26.5966 86.5171C26.5966 86.5171 28.0017 83.5234 28.9182 83.5845C29.8346 83.5845 31.0565 86.6393 31.0565 86.6393Z" fill="#0B4C53"/>
<path fill-rule="evenodd" clip-rule="evenodd" d="M30.9368 86.7614C30.9368 86.7614 34.0527 87.128 34.2971 88.0444C34.5415 88.8998 32.1587 90.9159 32.1587 90.9159C32.1587 90.9159 32.7697 94.0318 31.9754 94.5206C31.2423 95.0094 28.5541 93.3598 28.5541 93.3598C28.5541 93.3598 25.8048 94.8872 25.0716 94.3373C24.3385 93.7874 25.1327 90.7327 25.1327 90.7327C25.1327 90.7327 22.8111 88.5943 23.1166 87.739C23.422 86.8836 26.5379 86.7003 26.5379 86.7003C26.5379 86.7003 27.882 83.8288 28.7985 83.8899C29.776 83.8899 30.9368 86.7614 30.9368 86.7614Z" fill="url(#paint15_radial_2193_3107)"/>
<path fill-rule="evenodd" clip-rule="evenodd" d="M16.4503 85.906C16.4503 85.906 20.4215 86.3947 20.727 87.4945C21.0325 88.5942 17.9777 91.1602 17.9777 91.1602C17.9777 91.1602 18.7109 95.0703 17.7944 95.7424C16.878 96.4144 13.4566 94.2761 13.4566 94.2761C13.4566 94.2761 9.97416 96.2312 9.05773 95.498C8.14129 94.826 9.11883 90.9158 9.11883 90.9158C9.11883 90.9158 6.18623 88.1665 6.6139 87.0668C6.98047 85.9671 11.0128 85.7227 11.0128 85.7227C11.0128 85.7227 12.7235 82.118 13.8843 82.118C14.9229 82.1791 16.4503 85.906 16.4503 85.906Z" fill="url(#paint16_linear_2193_3107)"/>
<path fill-rule="evenodd" clip-rule="evenodd" d="M15.8368 86.6393C15.8368 86.6393 19.0749 87.067 19.3803 87.9834C19.6247 88.8999 17.1198 90.9771 17.1198 90.9771C17.1198 90.9771 17.7308 94.2152 16.9365 94.765C16.1423 95.3149 13.393 93.5431 13.393 93.5431C13.393 93.5431 10.5215 95.1316 9.78833 94.5207C9.05519 93.9708 9.84943 90.7327 9.84943 90.7327C9.84943 90.7327 7.46669 88.4722 7.77217 87.6169C8.07764 86.7004 11.3768 86.5171 11.3768 86.5171C11.3768 86.5171 12.782 83.5234 13.6985 83.5845C14.6149 83.5845 15.8368 86.6393 15.8368 86.6393Z" fill="#0B4C53"/>
<path fill-rule="evenodd" clip-rule="evenodd" d="M15.7181 86.7614C15.7181 86.7614 18.8339 87.128 19.0783 88.0444C19.3227 88.8998 16.94 90.9159 16.94 90.9159C16.94 90.9159 17.5509 94.0318 16.7567 94.5206C16.0235 95.0094 13.3353 93.3598 13.3353 93.3598C13.3353 93.3598 10.586 94.8872 9.85289 94.3373C9.11974 93.7874 9.91397 90.7327 9.91397 90.7327C9.91397 90.7327 7.59234 88.5943 7.89782 87.739C8.2033 86.8836 11.3192 86.7003 11.3192 86.7003C11.3192 86.7003 12.6633 83.8288 13.5797 83.8899C14.5572 83.8899 15.7181 86.7614 15.7181 86.7614Z" fill="url(#paint17_radial_2193_3107)"/>
<defs>
<filter id="filter0_d_2193_3107" x="14.501" y="17.6976" width="57.5264" height="35.905" filterUnits="userSpaceOnUse" color-interpolation-filters="sRGB">
<feFlood flood-opacity="0" result="BackgroundImageFix"/>
<feColorMatrix in="SourceAlpha" type="matrix" values="0 0 0 0 0 0 0 0 0 0 0 0 0 0 0 0 0 0 127 0" result="hardAlpha"/>
<feOffset dy="4"/>
<feGaussianBlur stdDeviation="2"/>
<feComposite in2="hardAlpha" operator="out"/>
<feColorMatrix type="matrix" values="0 0 0 0 0 0 0 0 0 0 0 0 0 0 0 0 0 0 0.38 0"/>
<feBlend mode="normal" in2="BackgroundImageFix" result="effect1_dropShadow_2193_3107"/>
<feBlend mode="normal" in="SourceGraphic" in2="effect1_dropShadow_2193_3107" result="shape"/>
</filter>
<linearGradient id="paint0_linear_2193_3107" x1="44.2853" y1="75.5591" x2="44.2853" y2="2.96864" gradientUnits="userSpaceOnUse">
<stop stop-color="white"/>
<stop offset="1" stop-color="white"/>
</linearGradient>
<linearGradient id="paint1_linear_2193_3107" x1="44.2861" y1="73.2038" x2="44.2861" y2="0.611042" gradientUnits="userSpaceOnUse">
<stop stop-color="white"/>
<stop offset="1" stop-color="white"/>
</linearGradient>
<radialGradient id="paint2_radial_2193_3107" cx="0" cy="0" r="1" gradientUnits="userSpaceOnUse" gradientTransform="translate(44.8212 63.8093) scale(31.2938 55.9461)">
<stop stop-color="#0D6C76"/>
<stop offset="1" stop-color="#45C3D2"/>
</radialGradient>
<linearGradient id="paint3_linear_2193_3107" x1="43.5116" y1="64.9692" x2="43.5116" y2="5.06057" gradientUnits="userSpaceOnUse">
<stop stop-color="#5DCFDC"/>
<stop offset="1" stop-color="#11737E"/>
</linearGradient>
<linearGradient id="paint4_linear_2193_3107" x1="43.5103" y1="63.8447" x2="43.5103" y2="5.70799" gradientUnits="userSpaceOnUse">
<stop stop-color="#45C2D1"/>
<stop offset="0.958333" stop-color="#0E6E79"/>
</linearGradient>
<linearGradient id="paint5_linear_2193_3107" x1="8.7937" y1="17.3843" x2="81.8444" y2="17.3843" gradientUnits="userSpaceOnUse">
<stop stop-color="#FF9840"/>
<stop offset="0.0972342" stop-color="#EF8E3C"/>
<stop offset="0.2877" stop-color="#C57531"/>
<stop offset="0.5527" stop-color="#814D20"/>
<stop offset="0.879" stop-color="#241609"/>
<stop offset="1"/>
</linearGradient>
<linearGradient id="paint6_linear_2193_3107" x1="78.5566" y1="56.6545" x2="8.9151" y2="56.6545" gradientUnits="userSpaceOnUse">
<stop stop-color="#FF6140"/>
<stop offset="0.0972342" stop-color="#EF5B3C"/>
<stop offset="0.2877" stop-color="#C54B31"/>
<stop offset="0.5527" stop-color="#813120"/>
<stop offset="0.879" stop-color="#240E09"/>
<stop offset="1"/>
</linearGradient>
<linearGradient id="paint7_linear_2193_3107" x1="42.8186" y1="15.9376" x2="42.8186" y2="53.5212" gradientUnits="userSpaceOnUse">
<stop stop-color="#42BFCD"/>
<stop offset="1" stop-color="#11727D"/>
</linearGradient>
<linearGradient id="paint8_linear_2193_3107" x1="63.0979" y1="95.942" x2="56.1601" y2="83.9255" gradientUnits="userSpaceOnUse">
<stop stop-color="#F4F3F1"/>
<stop offset="1" stop-color="#FBF9FE"/>
</linearGradient>
<radialGradient id="paint9_radial_2193_3107" cx="0" cy="0" r="1" gradientUnits="userSpaceOnUse" gradientTransform="translate(57.9355 87.0937) scale(5.49378 5.49378)">
<stop stop-color="#56C7D4"/>
<stop offset="0.9973" stop-color="#19727C"/>
</radialGradient>
<linearGradient id="paint10_linear_2193_3107" x1="78.3176" y1="95.942" x2="71.3798" y2="83.9255" gradientUnits="userSpaceOnUse">
<stop stop-color="#F4F3F1"/>
<stop offset="1" stop-color="#FBF9FE"/>
</linearGradient>
<radialGradient id="paint11_radial_2193_3107" cx="0" cy="0" r="1" gradientUnits="userSpaceOnUse" gradientTransform="translate(73.1552 87.0937) scale(5.49378 5.49378)">
<stop stop-color="#56C7D4"/>
<stop offset="0.9973" stop-color="#19727C"/>
</radialGradient>
<linearGradient id="paint12_linear_2193_3107" x1="47.8782" y1="95.942" x2="40.9404" y2="83.9255" gradientUnits="userSpaceOnUse">
<stop stop-color="#F4F3F1"/>
<stop offset="1" stop-color="#FBF9FE"/>
</linearGradient>
<radialGradient id="paint13_radial_2193_3107" cx="0" cy="0" r="1" gradientUnits="userSpaceOnUse" gradientTransform="translate(42.7167 87.0937) scale(5.49378 5.49378)">
<stop stop-color="#56C7D4"/>
<stop offset="0.9973" stop-color="#19727C"/>
</radialGradient>
<linearGradient id="paint14_linear_2193_3107" x1="32.6584" y1="95.942" x2="25.7207" y2="83.9255" gradientUnits="userSpaceOnUse">
<stop stop-color="#F4F3F1"/>
<stop offset="1" stop-color="#FBF9FE"/>
</linearGradient>
<radialGradient id="paint15_radial_2193_3107" cx="0" cy="0" r="1" gradientUnits="userSpaceOnUse" gradientTransform="translate(27.496 87.0937) scale(5.49378 5.49378)">
<stop stop-color="#56C7D4"/>
<stop offset="0.9973" stop-color="#19727C"/>
</radialGradient>
<linearGradient id="paint16_linear_2193_3107" x1="17.4387" y1="95.942" x2="10.5009" y2="83.9255" gradientUnits="userSpaceOnUse">
<stop stop-color="#F4F3F1"/>
<stop offset="1" stop-color="#FBF9FE"/>
</linearGradient>
<radialGradient id="paint17_radial_2193_3107" cx="0" cy="0" r="1" gradientUnits="userSpaceOnUse" gradientTransform="translate(12.2773 87.0937) scale(5.49378 5.49378)">
<stop stop-color="#56C7D4"/>
<stop offset="0.9973" stop-color="#19727C"/>
</radialGradient>
</defs>
</svg>
