<svg width="89" height="96" viewBox="0 0 89 96" fill="none" xmlns="http://www.w3.org/2000/svg">
<path d="M84.616 66.6318C84.5528 66.7449 84.4264 66.9709 84.3631 67.084C76.9024 78.0484 11.9684 77.5962 2.92692 67.7622C2.42111 67.197 2.10497 66.7449 1.97852 66.1797C-1.24605 54.311 0.524308 18.3659 5.58246 10.5665C11.02 2.20192 76.3333 -1.52822 83.0354 9.09706C88.0935 16.8965 90.4329 55.7805 84.616 66.6318Z" fill="url(#paint0_linear_2193_3147)"/>
<path d="M2.04239 63.8056C5.14051 75.3352 78.294 76.2394 84.6799 64.2577C90.4968 53.4064 88.0941 14.5224 83.1625 6.72295C76.3972 -3.90234 11.1471 -0.0591626 5.70954 8.19239C0.588164 15.9918 -1.18218 51.9369 2.04239 63.8056Z" fill="url(#paint1_linear_2193_3147)"/>
<path d="M5.01074 59.9634C5.01074 59.9634 14.8741 69.4583 45.2862 69.4583C75.6984 69.4583 80.5668 59.9634 80.5668 59.9634H5.01074Z" fill="white"/>
<path d="M84.363 59.9622V67.1964C76.9022 78.1608 11.9682 77.7087 2.92676 67.8746L3.11645 65.7269L4.95003 59.9622L82.972 53.5192L84.363 59.9622Z" fill="#F4F3F1"/>
<path d="M4.31815 58.6049C7.10013 69.0042 75.069 71.9431 80.8859 61.0917C86.1337 51.2577 83.984 15.8777 79.4949 8.86958C73.3619 -0.738391 12.9802 6.04372 8.04853 13.6171C3.36974 20.6252 1.40971 47.7536 4.31815 58.6049Z" fill="url(#paint2_radial_2193_3147)"/>
<path d="M4.50817 56.7985C7.29015 66.8586 74.8797 67.5368 80.6333 57.1376C85.8811 47.6427 83.7947 16.1059 79.3056 9.3238C73.1726 0.054935 13.0438 6.61096 8.11211 13.8452C3.55977 20.6273 1.66296 46.3993 4.50817 56.7985Z" fill="url(#paint3_linear_2193_3147)"/>
<path d="M5.392 55.8936C8.11075 65.6146 74.1828 66.4059 79.8733 56.2327C84.9946 46.9639 82.9714 16.4444 78.6087 9.8884C72.6654 0.958637 13.8012 7.17555 8.93271 14.2968C4.38037 20.8528 2.54679 45.7205 5.392 55.8936Z" fill="url(#paint4_linear_2193_3147)"/>
<path d="M8.74023 14.2954C8.74023 14.2954 54.8326 -2.43372 78.7324 10.0001C78.7324 10.0001 80.8189 14.7476 81.7673 22.0949C81.7673 22.0949 73.0419 27.6336 60.7759 28.6509C48.5099 29.6682 35.6117 17.2343 25.2425 15.4258C14.8732 13.6172 8.74023 14.2954 8.74023 14.2954Z" fill="url(#paint5_linear_2193_3147)" fill-opacity="0.1"/>
<path d="M78.4849 56.3462C78.4849 56.3462 47.6301 66.0672 8.87207 57.4765C8.87207 57.4765 34.0996 61.4328 45.2908 57.4765C64.322 50.9205 73.4899 48.9989 78.4849 56.3462Z" fill="url(#paint6_linear_2193_3147)" fill-opacity="0.1"/>
<path d="M7.03906 18.4792C7.03906 18.4792 7.98747 14.9751 10.2636 13.0535C12.4766 11.132 18.8625 9.21033 19.2419 9.77551C19.6212 10.2276 16.1437 12.4883 14.3102 13.7317C12.4766 14.8621 7.92424 19.3835 7.03906 18.4792Z" fill="black" fill-opacity="0.14"/>
<path d="M6.7816 19.496C6.33901 19.6091 5.1377 26.0521 5.26415 27.0694C5.32738 28.0867 6.71838 24.8087 6.90806 23.0001C7.16096 21.1916 6.7816 19.496 6.7816 19.496Z" fill="black" fill-opacity="0.14"/>
<path d="M77.6592 59.1695C77.3431 58.1522 80.1883 53.4047 80.8838 53.5177C81.5793 53.5177 80.947 56.5697 80.5044 57.3609C80.125 57.9261 77.8489 59.6216 77.6592 59.1695Z" fill="white"/>
<g filter="url(#filter0_d_2193_3147)">
<mask id="path-13-outside-1_2193_3147" maskUnits="userSpaceOnUse" x="17.5713" y="16.6328" width="51" height="29" fill="black">
<rect fill="white" x="17.5713" y="16.6328" width="51" height="29"/>
<path d="M26.4161 28.7978C26.0161 28.7978 25.5961 28.7678 25.1561 28.7078C24.7261 28.6578 24.3161 28.5778 23.9261 28.4678C23.5361 28.3578 23.1861 28.2278 22.8761 28.0778C22.6061 27.9478 22.4161 27.7778 22.3061 27.5678C22.1961 27.3478 22.1561 27.1178 22.1861 26.8778C22.2161 26.6378 22.3011 26.4278 22.4411 26.2478C22.5811 26.0578 22.7661 25.9328 22.9961 25.8728C23.2261 25.8028 23.4861 25.8328 23.7761 25.9628C24.1561 26.1428 24.5861 26.2828 25.0661 26.3828C25.5461 26.4828 25.9961 26.5328 26.4161 26.5328C27.0761 26.5328 27.5361 26.4478 27.7961 26.2778C28.0661 26.0978 28.2011 25.8778 28.2011 25.6178C28.2011 25.3878 28.1061 25.2028 27.9161 25.0628C27.7361 24.9228 27.4111 24.8028 26.9411 24.7028L25.1861 24.3278C24.2261 24.1278 23.5111 23.7778 23.0411 23.2778C22.5711 22.7778 22.3361 22.1328 22.3361 21.3428C22.3361 20.8228 22.4411 20.3528 22.6511 19.9328C22.8711 19.5028 23.1761 19.1378 23.5661 18.8378C23.9661 18.5378 24.4361 18.3078 24.9761 18.1478C25.5261 17.9778 26.1361 17.8928 26.8061 17.8928C27.3261 17.8928 27.8511 17.9528 28.3811 18.0728C28.9211 18.1828 29.3861 18.3528 29.7761 18.5828C30.0061 18.7028 30.1711 18.8678 30.2711 19.0778C30.3711 19.2878 30.4111 19.5078 30.3911 19.7378C30.3711 19.9578 30.2911 20.1528 30.1511 20.3228C30.0211 20.4928 29.8411 20.6078 29.6111 20.6678C29.3911 20.7178 29.1261 20.6778 28.8161 20.5478C28.5261 20.4178 28.1961 20.3228 27.8261 20.2628C27.4661 20.1928 27.1161 20.1578 26.7761 20.1578C26.4061 20.1578 26.0911 20.2028 25.8311 20.2928C25.5711 20.3728 25.3711 20.4928 25.2311 20.6528C25.1011 20.8128 25.0361 20.9978 25.0361 21.2078C25.0361 21.4178 25.1211 21.5978 25.2911 21.7478C25.4711 21.8878 25.7961 22.0078 26.2661 22.1078L28.0061 22.4828C28.9761 22.6928 29.7011 23.0378 30.1811 23.5178C30.6611 23.9978 30.9011 24.6228 30.9011 25.3928C30.9011 25.9128 30.7961 26.3828 30.5861 26.8028C30.3761 27.2228 30.0761 27.5828 29.6861 27.8828C29.2961 28.1728 28.8261 28.3978 28.2761 28.5578C27.7261 28.7178 27.1061 28.7978 26.4161 28.7978ZM35.8294 28.7978C35.0794 28.7978 34.4594 28.6828 33.9694 28.4528C33.4894 28.2228 33.1294 27.8778 32.8894 27.4178C32.6494 26.9478 32.5294 26.3628 32.5294 25.6628V23.2178H32.0194C31.6994 23.2178 31.4494 23.1328 31.2694 22.9628C31.0994 22.7928 31.0144 22.5478 31.0144 22.2278C31.0144 21.9078 31.0994 21.6678 31.2694 21.5078C31.4494 21.3378 31.6994 21.2528 32.0194 21.2528H32.5294V20.3228C32.5294 19.8828 32.6444 19.5478 32.8744 19.3178C33.1044 19.0878 33.4344 18.9728 33.8644 18.9728C34.2944 18.9728 34.6244 19.0878 34.8544 19.3178C35.0844 19.5478 35.1994 19.8828 35.1994 20.3228V21.2528H36.4294C36.7594 21.2528 37.0094 21.3378 37.1794 21.5078C37.3594 21.6678 37.4494 21.9078 37.4494 22.2278C37.4494 22.5478 37.3594 22.7928 37.1794 22.9628C37.0094 23.1328 36.7594 23.2178 36.4294 23.2178H35.1994V25.5728C35.1994 25.9428 35.2844 26.2178 35.4544 26.3978C35.6344 26.5678 35.9144 26.6528 36.2944 26.6528C36.4344 26.6528 36.5694 26.6378 36.6994 26.6078C36.8294 26.5778 36.9494 26.5628 37.0594 26.5628C37.2194 26.5528 37.3494 26.6028 37.4494 26.7128C37.5494 26.8128 37.5994 27.0478 37.5994 27.4178C37.5994 27.7178 37.5544 27.9728 37.4644 28.1828C37.3744 28.3828 37.2144 28.5278 36.9844 28.6178C36.8444 28.6678 36.6544 28.7078 36.4144 28.7378C36.1744 28.7778 35.9794 28.7978 35.8294 28.7978ZM41.1061 28.7978C40.4661 28.7978 39.9411 28.6828 39.5311 28.4528C39.1211 28.2128 38.8111 27.8578 38.6011 27.3878C38.4011 26.9178 38.3011 26.3228 38.3011 25.6028V22.4528C38.3011 22.0128 38.4161 21.6828 38.6461 21.4628C38.8761 21.2328 39.2061 21.1178 39.6361 21.1178C40.0661 21.1178 40.3961 21.2328 40.6261 21.4628C40.8561 21.6828 40.9711 22.0128 40.9711 22.4528V25.6778C40.9711 26.0378 41.0461 26.3078 41.1961 26.4878C41.3461 26.6678 41.5811 26.7578 41.9011 26.7578C42.2611 26.7578 42.5561 26.6278 42.7861 26.3678C43.0161 26.1078 43.1311 25.7628 43.1311 25.3328V22.4528C43.1311 22.0128 43.2461 21.6828 43.4761 21.4628C43.7061 21.2328 44.0361 21.1178 44.4661 21.1178C44.8961 21.1178 45.2261 21.2328 45.4561 21.4628C45.6861 21.6828 45.8011 22.0128 45.8011 22.4528V27.4178C45.8011 28.3178 45.3711 28.7678 44.5111 28.7678C44.0911 28.7678 43.7661 28.6528 43.5361 28.4228C43.3061 28.1928 43.1911 27.8578 43.1911 27.4178V26.5478L43.4311 27.2828C43.2111 27.7728 42.9011 28.1478 42.5011 28.4078C42.1111 28.6678 41.6461 28.7978 41.1061 28.7978ZM50.2349 28.7978C49.6049 28.7978 49.0449 28.6428 48.5549 28.3328C48.0749 28.0228 47.6949 27.5778 47.4149 26.9978C47.1449 26.4178 47.0099 25.7328 47.0099 24.9428C47.0099 24.1328 47.1449 23.4428 47.4149 22.8728C47.6949 22.3028 48.0749 21.8628 48.5549 21.5528C49.0449 21.2428 49.6049 21.0878 50.2349 21.0878C50.7849 21.0878 51.2799 21.2178 51.7199 21.4778C52.1599 21.7378 52.4549 22.0728 52.6049 22.4828H52.4399V19.2728C52.4399 18.8328 52.5549 18.4978 52.7849 18.2678C53.0149 18.0378 53.3449 17.9228 53.7749 17.9228C54.1949 17.9228 54.5199 18.0378 54.7499 18.2678C54.9899 18.4978 55.1099 18.8328 55.1099 19.2728V27.4178C55.1099 27.8578 54.9949 28.1928 54.7649 28.4228C54.5449 28.6528 54.2199 28.7678 53.7899 28.7678C53.3699 28.7678 53.0449 28.6528 52.8149 28.4228C52.5849 28.1928 52.4699 27.8578 52.4699 27.4178V26.5628L52.6349 27.2978C52.4949 27.7478 52.1999 28.1128 51.7499 28.3928C51.3099 28.6628 50.8049 28.7978 50.2349 28.7978ZM51.0899 26.8328C51.3599 26.8328 51.5999 26.7678 51.8099 26.6378C52.0199 26.4978 52.1799 26.2928 52.2899 26.0228C52.4099 25.7428 52.4699 25.3828 52.4699 24.9428C52.4699 24.2728 52.3399 23.7928 52.0799 23.5028C51.8199 23.2028 51.4899 23.0528 51.0899 23.0528C50.8199 23.0528 50.5799 23.1178 50.3699 23.2478C50.1599 23.3778 49.9949 23.5828 49.8749 23.8628C49.7549 24.1328 49.6949 24.4928 49.6949 24.9428C49.6949 25.6028 49.8249 26.0828 50.0849 26.3828C50.3449 26.6828 50.6799 26.8328 51.0899 26.8328ZM58.8017 31.4678C58.4917 31.4678 58.2417 31.3878 58.0517 31.2278C57.8617 31.0678 57.7417 30.8578 57.6917 30.5978C57.6517 30.3378 57.6967 30.0628 57.8267 29.7728L58.8317 27.5978V28.6778L56.2667 22.8128C56.1367 22.5128 56.0917 22.2328 56.1317 21.9728C56.1817 21.7128 56.3167 21.5078 56.5367 21.3578C56.7567 21.1978 57.0567 21.1178 57.4367 21.1178C57.7567 21.1178 58.0117 21.1928 58.2017 21.3428C58.4017 21.4828 58.5817 21.7628 58.7417 22.1828L60.2417 26.0828H59.7317L61.3217 22.1678C61.4817 21.7578 61.6617 21.4828 61.8617 21.3428C62.0717 21.1928 62.3517 21.1178 62.7017 21.1178C63.0017 21.1178 63.2417 21.1978 63.4217 21.3578C63.6017 21.5078 63.7117 21.7128 63.7517 21.9728C63.7917 22.2328 63.7467 22.5128 63.6167 22.8128L60.2117 30.4628C60.0317 30.8628 59.8317 31.1278 59.6117 31.2578C59.4017 31.3978 59.1317 31.4678 58.8017 31.4678ZM20.3362 44.7678C19.8962 44.7678 19.5512 44.6478 19.3012 44.4078C19.0612 44.1578 18.9412 43.8028 18.9412 43.3428V35.4828C18.9412 35.0228 19.0612 34.6728 19.3012 34.4328C19.5512 34.1828 19.9112 34.0578 20.3812 34.0578H25.3762C25.7362 34.0578 26.0062 34.1478 26.1862 34.3278C26.3662 34.5078 26.4562 34.7678 26.4562 35.1078C26.4562 35.4578 26.3662 35.7278 26.1862 35.9178C26.0062 36.0978 25.7362 36.1878 25.3762 36.1878H21.7012V38.3178H25.0462C25.3962 38.3178 25.6612 38.4078 25.8412 38.5878C26.0312 38.7678 26.1262 39.0278 26.1262 39.3678C26.1262 39.7178 26.0312 39.9828 25.8412 40.1628C25.6612 40.3428 25.3962 40.4328 25.0462 40.4328H21.7012V43.3428C21.7012 44.2928 21.2462 44.7678 20.3362 44.7678ZM29.3683 44.7678C28.9483 44.7678 28.6233 44.6428 28.3933 44.3928C28.1633 44.1428 28.0483 43.7828 28.0483 43.3128V38.5728C28.0483 38.1028 28.1633 37.7428 28.3933 37.4928C28.6233 37.2428 28.9483 37.1178 29.3683 37.1178C29.7983 37.1178 30.1283 37.2428 30.3583 37.4928C30.5983 37.7428 30.7183 38.1028 30.7183 38.5728V43.3128C30.7183 43.7828 30.6033 44.1428 30.3733 44.3928C30.1433 44.6428 29.8083 44.7678 29.3683 44.7678ZM29.3683 36.0528C28.8983 36.0528 28.5333 35.9428 28.2733 35.7228C28.0233 35.5028 27.8983 35.1828 27.8983 34.7628C27.8983 34.3528 28.0233 34.0378 28.2733 33.8178C28.5333 33.5978 28.8983 33.4878 29.3683 33.4878C29.8583 33.4878 30.2283 33.5978 30.4783 33.8178C30.7283 34.0378 30.8533 34.3528 30.8533 34.7628C30.8533 35.1828 30.7283 35.5028 30.4783 35.7228C30.2283 35.9428 29.8583 36.0528 29.3683 36.0528ZM36.287 44.7978C35.387 44.7978 34.607 44.6428 33.947 44.3328C33.297 44.0128 32.797 43.5628 32.447 42.9828C32.097 42.4028 31.922 41.7178 31.922 40.9278C31.922 40.1678 32.087 39.5028 32.417 38.9328C32.757 38.3528 33.217 37.9028 33.797 37.5828C34.387 37.2528 35.057 37.0878 35.807 37.0878C36.357 37.0878 36.857 37.1778 37.307 37.3578C37.757 37.5278 38.142 37.7828 38.462 38.1228C38.782 38.4528 39.022 38.8528 39.182 39.3228C39.352 39.7928 39.437 40.3178 39.437 40.8978C39.437 41.0978 39.382 41.2478 39.272 41.3478C39.162 41.4378 38.987 41.4828 38.747 41.4828H34.157V40.2228H37.487L37.247 40.4178C37.247 40.0478 37.197 39.7478 37.097 39.5178C36.997 39.2878 36.847 39.1128 36.647 38.9928C36.457 38.8728 36.217 38.8128 35.927 38.8128C35.617 38.8128 35.347 38.8878 35.117 39.0378C34.897 39.1778 34.727 39.3878 34.607 39.6678C34.487 39.9478 34.427 40.2978 34.427 40.7178V40.8528C34.427 41.5628 34.582 42.0728 34.892 42.3828C35.212 42.6828 35.702 42.8328 36.362 42.8328C36.582 42.8328 36.832 42.8078 37.112 42.7578C37.402 42.6978 37.677 42.6178 37.937 42.5178C38.197 42.4178 38.422 42.4028 38.612 42.4728C38.802 42.5328 38.947 42.6428 39.047 42.8028C39.157 42.9528 39.217 43.1278 39.227 43.3278C39.237 43.5178 39.192 43.7078 39.092 43.8978C38.992 44.0778 38.827 44.2178 38.597 44.3178C38.247 44.4778 37.872 44.5978 37.472 44.6778C37.082 44.7578 36.687 44.7978 36.287 44.7978ZM43.3923 44.7978C42.4323 44.7978 41.7223 44.5428 41.2623 44.0328C40.8123 43.5128 40.5873 42.7328 40.5873 41.6928V35.2728C40.5873 34.8328 40.7023 34.4978 40.9323 34.2678C41.1623 34.0378 41.4873 33.9228 41.9073 33.9228C42.3373 33.9228 42.6673 34.0378 42.8973 34.2678C43.1373 34.4978 43.2573 34.8328 43.2573 35.2728V41.6028C43.2573 41.9728 43.3273 42.2428 43.4673 42.4128C43.6173 42.5828 43.8073 42.6678 44.0373 42.6678C44.1073 42.6678 44.1773 42.6628 44.2473 42.6528C44.3273 42.6328 44.4123 42.6178 44.5023 42.6078C44.6723 42.6078 44.7973 42.6728 44.8773 42.8028C44.9673 42.9328 45.0123 43.1978 45.0123 43.5978C45.0123 43.9478 44.9423 44.2128 44.8023 44.3928C44.6623 44.5628 44.4473 44.6728 44.1573 44.7228C44.0773 44.7328 43.9623 44.7478 43.8123 44.7678C43.6623 44.7878 43.5223 44.7978 43.3923 44.7978ZM48.6089 44.7978C47.9789 44.7978 47.4189 44.6428 46.9289 44.3328C46.4489 44.0228 46.0689 43.5778 45.7889 42.9978C45.5189 42.4178 45.3839 41.7328 45.3839 40.9428C45.3839 40.1328 45.5189 39.4428 45.7889 38.8728C46.0689 38.3028 46.4489 37.8628 46.9289 37.5528C47.4189 37.2428 47.9789 37.0878 48.6089 37.0878C49.1589 37.0878 49.6539 37.2178 50.0939 37.4778C50.5339 37.7378 50.8289 38.0728 50.9789 38.4828H50.8139V35.2728C50.8139 34.8328 50.9289 34.4978 51.1589 34.2678C51.3889 34.0378 51.7189 33.9228 52.1489 33.9228C52.5689 33.9228 52.8939 34.0378 53.1239 34.2678C53.3639 34.4978 53.4839 34.8328 53.4839 35.2728V43.4178C53.4839 43.8578 53.3689 44.1928 53.1389 44.4228C52.9189 44.6528 52.5939 44.7678 52.1639 44.7678C51.7439 44.7678 51.4189 44.6528 51.1889 44.4228C50.9589 44.1928 50.8439 43.8578 50.8439 43.4178V42.5628L51.0089 43.2978C50.8689 43.7478 50.5739 44.1128 50.1239 44.3928C49.6839 44.6628 49.1789 44.7978 48.6089 44.7978ZM49.4639 42.8328C49.7339 42.8328 49.9739 42.7678 50.1839 42.6378C50.3939 42.4978 50.5539 42.2928 50.6639 42.0228C50.7839 41.7428 50.8439 41.3828 50.8439 40.9428C50.8439 40.2728 50.7139 39.7928 50.4539 39.5028C50.1939 39.2028 49.8639 39.0528 49.4639 39.0528C49.1939 39.0528 48.9539 39.1178 48.7439 39.2478C48.5339 39.3778 48.3689 39.5828 48.2489 39.8628C48.1289 40.1328 48.0689 40.4928 48.0689 40.9428C48.0689 41.6028 48.1989 42.0828 48.4589 42.3828C48.7189 42.6828 49.0539 42.8328 49.4639 42.8328ZM62.9677 44.7978C62.4877 44.7978 61.9827 44.7428 61.4527 44.6328C60.9227 44.5228 60.4327 44.3528 59.9827 44.1228C59.7127 43.9828 59.5227 43.8028 59.4127 43.5828C59.3127 43.3528 59.2777 43.1228 59.3077 42.8928C59.3477 42.6628 59.4377 42.4578 59.5777 42.2778C59.7277 42.0978 59.9127 41.9828 60.1327 41.9328C60.3627 41.8728 60.6127 41.9128 60.8827 42.0528C61.2127 42.2128 61.5527 42.3328 61.9027 42.4128C62.2627 42.4928 62.5977 42.5328 62.9077 42.5328C63.2477 42.5328 63.5377 42.4828 63.7777 42.3828C64.0177 42.2828 64.1977 42.1378 64.3177 41.9478C64.4477 41.7578 64.5127 41.5328 64.5127 41.2728C64.5127 40.8728 64.3777 40.5578 64.1077 40.3278C63.8377 40.0978 63.4777 39.9828 63.0277 39.9828C62.8277 39.9828 62.6077 40.0128 62.3677 40.0728C62.1377 40.1328 61.8977 40.2478 61.6477 40.4178C61.5377 40.4778 61.3877 40.5478 61.1977 40.6278C61.0077 40.6978 60.8127 40.7328 60.6127 40.7328C60.2527 40.7328 59.9877 40.6478 59.8177 40.4778C59.6477 40.3078 59.5627 40.0678 59.5627 39.7578V35.2278C59.5627 34.8478 59.6627 34.5578 59.8627 34.3578C60.0727 34.1578 60.3627 34.0578 60.7327 34.0578H65.4427C65.8127 34.0578 66.0977 34.1528 66.2977 34.3428C66.4977 34.5328 66.5977 34.8128 66.5977 35.1828C66.5977 35.5428 66.4977 35.8178 66.2977 36.0078C66.0977 36.1978 65.8127 36.2928 65.4427 36.2928H62.1577V38.6478H61.5277C61.7677 38.3678 62.0827 38.1578 62.4727 38.0178C62.8627 37.8678 63.2877 37.7928 63.7477 37.7928C64.4177 37.7928 65.0077 37.9378 65.5177 38.2278C66.0277 38.5078 66.4227 38.9028 66.7027 39.4128C66.9927 39.9228 67.1377 40.5178 67.1377 41.1978C67.1377 41.9178 66.9677 42.5528 66.6277 43.1028C66.2977 43.6428 65.8177 44.0628 65.1877 44.3628C64.5677 44.6528 63.8277 44.7978 62.9677 44.7978Z"/>
</mask>
<path d="M26.4161 28.7978C26.0161 28.7978 25.5961 28.7678 25.1561 28.7078C24.7261 28.6578 24.3161 28.5778 23.9261 28.4678C23.5361 28.3578 23.1861 28.2278 22.8761 28.0778C22.6061 27.9478 22.4161 27.7778 22.3061 27.5678C22.1961 27.3478 22.1561 27.1178 22.1861 26.8778C22.2161 26.6378 22.3011 26.4278 22.4411 26.2478C22.5811 26.0578 22.7661 25.9328 22.9961 25.8728C23.2261 25.8028 23.4861 25.8328 23.7761 25.9628C24.1561 26.1428 24.5861 26.2828 25.0661 26.3828C25.5461 26.4828 25.9961 26.5328 26.4161 26.5328C27.0761 26.5328 27.5361 26.4478 27.7961 26.2778C28.0661 26.0978 28.2011 25.8778 28.2011 25.6178C28.2011 25.3878 28.1061 25.2028 27.9161 25.0628C27.7361 24.9228 27.4111 24.8028 26.9411 24.7028L25.1861 24.3278C24.2261 24.1278 23.5111 23.7778 23.0411 23.2778C22.5711 22.7778 22.3361 22.1328 22.3361 21.3428C22.3361 20.8228 22.4411 20.3528 22.6511 19.9328C22.8711 19.5028 23.1761 19.1378 23.5661 18.8378C23.9661 18.5378 24.4361 18.3078 24.9761 18.1478C25.5261 17.9778 26.1361 17.8928 26.8061 17.8928C27.3261 17.8928 27.8511 17.9528 28.3811 18.0728C28.9211 18.1828 29.3861 18.3528 29.7761 18.5828C30.0061 18.7028 30.1711 18.8678 30.2711 19.0778C30.3711 19.2878 30.4111 19.5078 30.3911 19.7378C30.3711 19.9578 30.2911 20.1528 30.1511 20.3228C30.0211 20.4928 29.8411 20.6078 29.6111 20.6678C29.3911 20.7178 29.1261 20.6778 28.8161 20.5478C28.5261 20.4178 28.1961 20.3228 27.8261 20.2628C27.4661 20.1928 27.1161 20.1578 26.7761 20.1578C26.4061 20.1578 26.0911 20.2028 25.8311 20.2928C25.5711 20.3728 25.3711 20.4928 25.2311 20.6528C25.1011 20.8128 25.0361 20.9978 25.0361 21.2078C25.0361 21.4178 25.1211 21.5978 25.2911 21.7478C25.4711 21.8878 25.7961 22.0078 26.2661 22.1078L28.0061 22.4828C28.9761 22.6928 29.7011 23.0378 30.1811 23.5178C30.6611 23.9978 30.9011 24.6228 30.9011 25.3928C30.9011 25.9128 30.7961 26.3828 30.5861 26.8028C30.3761 27.2228 30.0761 27.5828 29.6861 27.8828C29.2961 28.1728 28.8261 28.3978 28.2761 28.5578C27.7261 28.7178 27.1061 28.7978 26.4161 28.7978ZM35.8294 28.7978C35.0794 28.7978 34.4594 28.6828 33.9694 28.4528C33.4894 28.2228 33.1294 27.8778 32.8894 27.4178C32.6494 26.9478 32.5294 26.3628 32.5294 25.6628V23.2178H32.0194C31.6994 23.2178 31.4494 23.1328 31.2694 22.9628C31.0994 22.7928 31.0144 22.5478 31.0144 22.2278C31.0144 21.9078 31.0994 21.6678 31.2694 21.5078C31.4494 21.3378 31.6994 21.2528 32.0194 21.2528H32.5294V20.3228C32.5294 19.8828 32.6444 19.5478 32.8744 19.3178C33.1044 19.0878 33.4344 18.9728 33.8644 18.9728C34.2944 18.9728 34.6244 19.0878 34.8544 19.3178C35.0844 19.5478 35.1994 19.8828 35.1994 20.3228V21.2528H36.4294C36.7594 21.2528 37.0094 21.3378 37.1794 21.5078C37.3594 21.6678 37.4494 21.9078 37.4494 22.2278C37.4494 22.5478 37.3594 22.7928 37.1794 22.9628C37.0094 23.1328 36.7594 23.2178 36.4294 23.2178H35.1994V25.5728C35.1994 25.9428 35.2844 26.2178 35.4544 26.3978C35.6344 26.5678 35.9144 26.6528 36.2944 26.6528C36.4344 26.6528 36.5694 26.6378 36.6994 26.6078C36.8294 26.5778 36.9494 26.5628 37.0594 26.5628C37.2194 26.5528 37.3494 26.6028 37.4494 26.7128C37.5494 26.8128 37.5994 27.0478 37.5994 27.4178C37.5994 27.7178 37.5544 27.9728 37.4644 28.1828C37.3744 28.3828 37.2144 28.5278 36.9844 28.6178C36.8444 28.6678 36.6544 28.7078 36.4144 28.7378C36.1744 28.7778 35.9794 28.7978 35.8294 28.7978ZM41.1061 28.7978C40.4661 28.7978 39.9411 28.6828 39.5311 28.4528C39.1211 28.2128 38.8111 27.8578 38.6011 27.3878C38.4011 26.9178 38.3011 26.3228 38.3011 25.6028V22.4528C38.3011 22.0128 38.4161 21.6828 38.6461 21.4628C38.8761 21.2328 39.2061 21.1178 39.6361 21.1178C40.0661 21.1178 40.3961 21.2328 40.6261 21.4628C40.8561 21.6828 40.9711 22.0128 40.9711 22.4528V25.6778C40.9711 26.0378 41.0461 26.3078 41.1961 26.4878C41.3461 26.6678 41.5811 26.7578 41.9011 26.7578C42.2611 26.7578 42.5561 26.6278 42.7861 26.3678C43.0161 26.1078 43.1311 25.7628 43.1311 25.3328V22.4528C43.1311 22.0128 43.2461 21.6828 43.4761 21.4628C43.7061 21.2328 44.0361 21.1178 44.4661 21.1178C44.8961 21.1178 45.2261 21.2328 45.4561 21.4628C45.6861 21.6828 45.8011 22.0128 45.8011 22.4528V27.4178C45.8011 28.3178 45.3711 28.7678 44.5111 28.7678C44.0911 28.7678 43.7661 28.6528 43.5361 28.4228C43.3061 28.1928 43.1911 27.8578 43.1911 27.4178V26.5478L43.4311 27.2828C43.2111 27.7728 42.9011 28.1478 42.5011 28.4078C42.1111 28.6678 41.6461 28.7978 41.1061 28.7978ZM50.2349 28.7978C49.6049 28.7978 49.0449 28.6428 48.5549 28.3328C48.0749 28.0228 47.6949 27.5778 47.4149 26.9978C47.1449 26.4178 47.0099 25.7328 47.0099 24.9428C47.0099 24.1328 47.1449 23.4428 47.4149 22.8728C47.6949 22.3028 48.0749 21.8628 48.5549 21.5528C49.0449 21.2428 49.6049 21.0878 50.2349 21.0878C50.7849 21.0878 51.2799 21.2178 51.7199 21.4778C52.1599 21.7378 52.4549 22.0728 52.6049 22.4828H52.4399V19.2728C52.4399 18.8328 52.5549 18.4978 52.7849 18.2678C53.0149 18.0378 53.3449 17.9228 53.7749 17.9228C54.1949 17.9228 54.5199 18.0378 54.7499 18.2678C54.9899 18.4978 55.1099 18.8328 55.1099 19.2728V27.4178C55.1099 27.8578 54.9949 28.1928 54.7649 28.4228C54.5449 28.6528 54.2199 28.7678 53.7899 28.7678C53.3699 28.7678 53.0449 28.6528 52.8149 28.4228C52.5849 28.1928 52.4699 27.8578 52.4699 27.4178V26.5628L52.6349 27.2978C52.4949 27.7478 52.1999 28.1128 51.7499 28.3928C51.3099 28.6628 50.8049 28.7978 50.2349 28.7978ZM51.0899 26.8328C51.3599 26.8328 51.5999 26.7678 51.8099 26.6378C52.0199 26.4978 52.1799 26.2928 52.2899 26.0228C52.4099 25.7428 52.4699 25.3828 52.4699 24.9428C52.4699 24.2728 52.3399 23.7928 52.0799 23.5028C51.8199 23.2028 51.4899 23.0528 51.0899 23.0528C50.8199 23.0528 50.5799 23.1178 50.3699 23.2478C50.1599 23.3778 49.9949 23.5828 49.8749 23.8628C49.7549 24.1328 49.6949 24.4928 49.6949 24.9428C49.6949 25.6028 49.8249 26.0828 50.0849 26.3828C50.3449 26.6828 50.6799 26.8328 51.0899 26.8328ZM58.8017 31.4678C58.4917 31.4678 58.2417 31.3878 58.0517 31.2278C57.8617 31.0678 57.7417 30.8578 57.6917 30.5978C57.6517 30.3378 57.6967 30.0628 57.8267 29.7728L58.8317 27.5978V28.6778L56.2667 22.8128C56.1367 22.5128 56.0917 22.2328 56.1317 21.9728C56.1817 21.7128 56.3167 21.5078 56.5367 21.3578C56.7567 21.1978 57.0567 21.1178 57.4367 21.1178C57.7567 21.1178 58.0117 21.1928 58.2017 21.3428C58.4017 21.4828 58.5817 21.7628 58.7417 22.1828L60.2417 26.0828H59.7317L61.3217 22.1678C61.4817 21.7578 61.6617 21.4828 61.8617 21.3428C62.0717 21.1928 62.3517 21.1178 62.7017 21.1178C63.0017 21.1178 63.2417 21.1978 63.4217 21.3578C63.6017 21.5078 63.7117 21.7128 63.7517 21.9728C63.7917 22.2328 63.7467 22.5128 63.6167 22.8128L60.2117 30.4628C60.0317 30.8628 59.8317 31.1278 59.6117 31.2578C59.4017 31.3978 59.1317 31.4678 58.8017 31.4678ZM20.3362 44.7678C19.8962 44.7678 19.5512 44.6478 19.3012 44.4078C19.0612 44.1578 18.9412 43.8028 18.9412 43.3428V35.4828C18.9412 35.0228 19.0612 34.6728 19.3012 34.4328C19.5512 34.1828 19.9112 34.0578 20.3812 34.0578H25.3762C25.7362 34.0578 26.0062 34.1478 26.1862 34.3278C26.3662 34.5078 26.4562 34.7678 26.4562 35.1078C26.4562 35.4578 26.3662 35.7278 26.1862 35.9178C26.0062 36.0978 25.7362 36.1878 25.3762 36.1878H21.7012V38.3178H25.0462C25.3962 38.3178 25.6612 38.4078 25.8412 38.5878C26.0312 38.7678 26.1262 39.0278 26.1262 39.3678C26.1262 39.7178 26.0312 39.9828 25.8412 40.1628C25.6612 40.3428 25.3962 40.4328 25.0462 40.4328H21.7012V43.3428C21.7012 44.2928 21.2462 44.7678 20.3362 44.7678ZM29.3683 44.7678C28.9483 44.7678 28.6233 44.6428 28.3933 44.3928C28.1633 44.1428 28.0483 43.7828 28.0483 43.3128V38.5728C28.0483 38.1028 28.1633 37.7428 28.3933 37.4928C28.6233 37.2428 28.9483 37.1178 29.3683 37.1178C29.7983 37.1178 30.1283 37.2428 30.3583 37.4928C30.5983 37.7428 30.7183 38.1028 30.7183 38.5728V43.3128C30.7183 43.7828 30.6033 44.1428 30.3733 44.3928C30.1433 44.6428 29.8083 44.7678 29.3683 44.7678ZM29.3683 36.0528C28.8983 36.0528 28.5333 35.9428 28.2733 35.7228C28.0233 35.5028 27.8983 35.1828 27.8983 34.7628C27.8983 34.3528 28.0233 34.0378 28.2733 33.8178C28.5333 33.5978 28.8983 33.4878 29.3683 33.4878C29.8583 33.4878 30.2283 33.5978 30.4783 33.8178C30.7283 34.0378 30.8533 34.3528 30.8533 34.7628C30.8533 35.1828 30.7283 35.5028 30.4783 35.7228C30.2283 35.9428 29.8583 36.0528 29.3683 36.0528ZM36.287 44.7978C35.387 44.7978 34.607 44.6428 33.947 44.3328C33.297 44.0128 32.797 43.5628 32.447 42.9828C32.097 42.4028 31.922 41.7178 31.922 40.9278C31.922 40.1678 32.087 39.5028 32.417 38.9328C32.757 38.3528 33.217 37.9028 33.797 37.5828C34.387 37.2528 35.057 37.0878 35.807 37.0878C36.357 37.0878 36.857 37.1778 37.307 37.3578C37.757 37.5278 38.142 37.7828 38.462 38.1228C38.782 38.4528 39.022 38.8528 39.182 39.3228C39.352 39.7928 39.437 40.3178 39.437 40.8978C39.437 41.0978 39.382 41.2478 39.272 41.3478C39.162 41.4378 38.987 41.4828 38.747 41.4828H34.157V40.2228H37.487L37.247 40.4178C37.247 40.0478 37.197 39.7478 37.097 39.5178C36.997 39.2878 36.847 39.1128 36.647 38.9928C36.457 38.8728 36.217 38.8128 35.927 38.8128C35.617 38.8128 35.347 38.8878 35.117 39.0378C34.897 39.1778 34.727 39.3878 34.607 39.6678C34.487 39.9478 34.427 40.2978 34.427 40.7178V40.8528C34.427 41.5628 34.582 42.0728 34.892 42.3828C35.212 42.6828 35.702 42.8328 36.362 42.8328C36.582 42.8328 36.832 42.8078 37.112 42.7578C37.402 42.6978 37.677 42.6178 37.937 42.5178C38.197 42.4178 38.422 42.4028 38.612 42.4728C38.802 42.5328 38.947 42.6428 39.047 42.8028C39.157 42.9528 39.217 43.1278 39.227 43.3278C39.237 43.5178 39.192 43.7078 39.092 43.8978C38.992 44.0778 38.827 44.2178 38.597 44.3178C38.247 44.4778 37.872 44.5978 37.472 44.6778C37.082 44.7578 36.687 44.7978 36.287 44.7978ZM43.3923 44.7978C42.4323 44.7978 41.7223 44.5428 41.2623 44.0328C40.8123 43.5128 40.5873 42.7328 40.5873 41.6928V35.2728C40.5873 34.8328 40.7023 34.4978 40.9323 34.2678C41.1623 34.0378 41.4873 33.9228 41.9073 33.9228C42.3373 33.9228 42.6673 34.0378 42.8973 34.2678C43.1373 34.4978 43.2573 34.8328 43.2573 35.2728V41.6028C43.2573 41.9728 43.3273 42.2428 43.4673 42.4128C43.6173 42.5828 43.8073 42.6678 44.0373 42.6678C44.1073 42.6678 44.1773 42.6628 44.2473 42.6528C44.3273 42.6328 44.4123 42.6178 44.5023 42.6078C44.6723 42.6078 44.7973 42.6728 44.8773 42.8028C44.9673 42.9328 45.0123 43.1978 45.0123 43.5978C45.0123 43.9478 44.9423 44.2128 44.8023 44.3928C44.6623 44.5628 44.4473 44.6728 44.1573 44.7228C44.0773 44.7328 43.9623 44.7478 43.8123 44.7678C43.6623 44.7878 43.5223 44.7978 43.3923 44.7978ZM48.6089 44.7978C47.9789 44.7978 47.4189 44.6428 46.9289 44.3328C46.4489 44.0228 46.0689 43.5778 45.7889 42.9978C45.5189 42.4178 45.3839 41.7328 45.3839 40.9428C45.3839 40.1328 45.5189 39.4428 45.7889 38.8728C46.0689 38.3028 46.4489 37.8628 46.9289 37.5528C47.4189 37.2428 47.9789 37.0878 48.6089 37.0878C49.1589 37.0878 49.6539 37.2178 50.0939 37.4778C50.5339 37.7378 50.8289 38.0728 50.9789 38.4828H50.8139V35.2728C50.8139 34.8328 50.9289 34.4978 51.1589 34.2678C51.3889 34.0378 51.7189 33.9228 52.1489 33.9228C52.5689 33.9228 52.8939 34.0378 53.1239 34.2678C53.3639 34.4978 53.4839 34.8328 53.4839 35.2728V43.4178C53.4839 43.8578 53.3689 44.1928 53.1389 44.4228C52.9189 44.6528 52.5939 44.7678 52.1639 44.7678C51.7439 44.7678 51.4189 44.6528 51.1889 44.4228C50.9589 44.1928 50.8439 43.8578 50.8439 43.4178V42.5628L51.0089 43.2978C50.8689 43.7478 50.5739 44.1128 50.1239 44.3928C49.6839 44.6628 49.1789 44.7978 48.6089 44.7978ZM49.4639 42.8328C49.7339 42.8328 49.9739 42.7678 50.1839 42.6378C50.3939 42.4978 50.5539 42.2928 50.6639 42.0228C50.7839 41.7428 50.8439 41.3828 50.8439 40.9428C50.8439 40.2728 50.7139 39.7928 50.4539 39.5028C50.1939 39.2028 49.8639 39.0528 49.4639 39.0528C49.1939 39.0528 48.9539 39.1178 48.7439 39.2478C48.5339 39.3778 48.3689 39.5828 48.2489 39.8628C48.1289 40.1328 48.0689 40.4928 48.0689 40.9428C48.0689 41.6028 48.1989 42.0828 48.4589 42.3828C48.7189 42.6828 49.0539 42.8328 49.4639 42.8328ZM62.9677 44.7978C62.4877 44.7978 61.9827 44.7428 61.4527 44.6328C60.9227 44.5228 60.4327 44.3528 59.9827 44.1228C59.7127 43.9828 59.5227 43.8028 59.4127 43.5828C59.3127 43.3528 59.2777 43.1228 59.3077 42.8928C59.3477 42.6628 59.4377 42.4578 59.5777 42.2778C59.7277 42.0978 59.9127 41.9828 60.1327 41.9328C60.3627 41.8728 60.6127 41.9128 60.8827 42.0528C61.2127 42.2128 61.5527 42.3328 61.9027 42.4128C62.2627 42.4928 62.5977 42.5328 62.9077 42.5328C63.2477 42.5328 63.5377 42.4828 63.7777 42.3828C64.0177 42.2828 64.1977 42.1378 64.3177 41.9478C64.4477 41.7578 64.5127 41.5328 64.5127 41.2728C64.5127 40.8728 64.3777 40.5578 64.1077 40.3278C63.8377 40.0978 63.4777 39.9828 63.0277 39.9828C62.8277 39.9828 62.6077 40.0128 62.3677 40.0728C62.1377 40.1328 61.8977 40.2478 61.6477 40.4178C61.5377 40.4778 61.3877 40.5478 61.1977 40.6278C61.0077 40.6978 60.8127 40.7328 60.6127 40.7328C60.2527 40.7328 59.9877 40.6478 59.8177 40.4778C59.6477 40.3078 59.5627 40.0678 59.5627 39.7578V35.2278C59.5627 34.8478 59.6627 34.5578 59.8627 34.3578C60.0727 34.1578 60.3627 34.0578 60.7327 34.0578H65.4427C65.8127 34.0578 66.0977 34.1528 66.2977 34.3428C66.4977 34.5328 66.5977 34.8128 66.5977 35.1828C66.5977 35.5428 66.4977 35.8178 66.2977 36.0078C66.0977 36.1978 65.8127 36.2928 65.4427 36.2928H62.1577V38.6478H61.5277C61.7677 38.3678 62.0827 38.1578 62.4727 38.0178C62.8627 37.8678 63.2877 37.7928 63.7477 37.7928C64.4177 37.7928 65.0077 37.9378 65.5177 38.2278C66.0277 38.5078 66.4227 38.9028 66.7027 39.4128C66.9927 39.9228 67.1377 40.5178 67.1377 41.1978C67.1377 41.9178 66.9677 42.5528 66.6277 43.1028C66.2977 43.6428 65.8177 44.0628 65.1877 44.3628C64.5677 44.6528 63.8277 44.7978 62.9677 44.7978Z" fill="white"/>
<path d="M25.1561 28.7078L25.2236 28.2122L25.2138 28.2111L25.1561 28.7078ZM22.8761 28.0778L23.0939 27.6277L23.093 27.6273L22.8761 28.0778ZM22.3061 27.5678L21.8588 27.7914L21.8632 27.7998L22.3061 27.5678ZM22.1861 26.8778L22.6822 26.9398L22.1861 26.8778ZM22.4411 26.2478L22.8359 26.5548L22.8436 26.5444L22.4411 26.2478ZM22.9961 25.8728L23.1223 26.3566L23.132 26.354L23.1417 26.3511L22.9961 25.8728ZM23.7761 25.9628L23.9902 25.5108L23.9806 25.5065L23.7761 25.9628ZM25.0661 26.3828L25.1681 25.8933L25.0661 26.3828ZM27.7961 26.2778L28.0697 26.6963L28.0734 26.6938L27.7961 26.2778ZM27.9161 25.0628L27.609 25.4576L27.6195 25.4653L27.9161 25.0628ZM26.9411 24.7028L26.8366 25.1917L26.837 25.1918L26.9411 24.7028ZM25.1861 24.3278L25.2906 23.8388L25.2881 23.8383L25.1861 24.3278ZM23.0411 23.2778L23.4054 22.9353L23.0411 23.2778ZM22.6511 19.9328L22.2059 19.705L22.2039 19.7091L22.6511 19.9328ZM23.5661 18.8378L23.2661 18.4377L23.2612 18.4414L23.5661 18.8378ZM24.9761 18.1478L25.1181 18.6272L25.1237 18.6255L24.9761 18.1478ZM28.3811 18.0728L28.2706 18.5605L28.2813 18.5627L28.3811 18.0728ZM29.7761 18.5828L29.5221 19.0134L29.5333 19.02L29.5448 19.026L29.7761 18.5828ZM30.2711 19.0778L29.8196 19.2927L29.8196 19.2927L30.2711 19.0778ZM30.3911 19.7378L30.889 19.783L30.8892 19.7811L30.3911 19.7378ZM30.1511 20.3228L29.7651 20.0049L29.7594 20.0119L29.7539 20.019L30.1511 20.3228ZM29.6111 20.6678L29.7219 21.1553L29.7296 21.1536L29.7373 21.1516L29.6111 20.6678ZM28.8161 20.5478L28.6115 21.0041L28.6227 21.0088L28.8161 20.5478ZM27.8261 20.2628L27.7306 20.7536L27.7383 20.7551L27.746 20.7563L27.8261 20.2628ZM25.8311 20.2928L25.9781 20.7706L25.9864 20.7681L25.9946 20.7652L25.8311 20.2928ZM25.2311 20.6528L24.8548 20.3235L24.8488 20.3304L24.843 20.3375L25.2311 20.6528ZM25.2911 21.7478L24.9603 22.1227L24.9719 22.1329L24.9841 22.1424L25.2911 21.7478ZM26.2661 22.1078L26.3714 21.619L26.3701 21.6187L26.2661 22.1078ZM28.0061 22.4828L28.1119 21.9941L28.1114 21.994L28.0061 22.4828ZM30.5861 26.8028L31.0333 27.0264V27.0264L30.5861 26.8028ZM29.6861 27.8828L29.9845 28.284L29.9909 28.2791L29.6861 27.8828ZM28.2761 28.5578L28.4157 29.0378L28.2761 28.5578ZM26.4161 28.2978C26.041 28.2978 25.6437 28.2696 25.2236 28.2123L25.0885 29.2032C25.5485 29.2659 25.9912 29.2978 26.4161 29.2978V28.2978ZM25.2138 28.2111C24.8084 28.164 24.4246 28.0889 24.0618 27.9865L23.7903 28.949C24.2076 29.0667 24.6437 29.1515 25.0983 29.2044L25.2138 28.2111ZM24.0618 27.9865C23.6952 27.8831 23.3733 27.7629 23.0939 27.6277L22.6583 28.5278C22.9988 28.6926 23.3769 28.8324 23.7903 28.949L24.0618 27.9865ZM23.093 27.6273C22.894 27.5314 22.7973 27.4279 22.749 27.3357L21.8632 27.7998C22.0349 28.1276 22.3181 28.3641 22.6592 28.5283L23.093 27.6273ZM22.7533 27.3441C22.6866 27.2108 22.6647 27.0801 22.6822 26.9398L21.6899 26.8157C21.6475 27.1554 21.7055 27.4847 21.8589 27.7914L22.7533 27.3441ZM22.6822 26.9398C22.7018 26.7834 22.7544 26.6593 22.8358 26.5547L22.0464 25.9408C21.8478 26.1962 21.7304 26.4921 21.6899 26.8157L22.6822 26.9398ZM22.8436 26.5444C22.9151 26.4473 23.0023 26.3879 23.1223 26.3566L22.8699 25.3889C22.5299 25.4776 22.247 25.6682 22.0385 25.9512L22.8436 26.5444ZM23.1417 26.3511C23.2232 26.3263 23.3557 26.3223 23.5715 26.419L23.9806 25.5065C23.6164 25.3432 23.2289 25.2792 22.8505 25.3944L23.1417 26.3511ZM23.562 26.4146C23.9831 26.6141 24.4516 26.7655 24.9641 26.8722L25.1681 25.8933C24.7205 25.8 24.3291 25.6714 23.9901 25.5109L23.562 26.4146ZM24.9641 26.8722C25.4722 26.9781 25.9567 27.0328 26.4161 27.0328V26.0328C26.0355 26.0328 25.6199 25.9874 25.1681 25.8933L24.9641 26.8722ZM26.4161 27.0328C27.0858 27.0328 27.6774 26.9527 28.0697 26.6962L27.5225 25.8593C27.3947 25.9428 27.0664 26.0328 26.4161 26.0328V27.0328ZM28.0734 26.6938C28.4434 26.4471 28.7011 26.087 28.7011 25.6178H27.7011C27.7011 25.6685 27.6888 25.7484 27.5187 25.8617L28.0734 26.6938ZM28.7011 25.6178C28.7011 25.224 28.5266 24.8916 28.2127 24.6602L27.6195 25.4653C27.6855 25.5139 27.7011 25.5515 27.7011 25.6178H28.7011ZM28.223 24.6681C27.9472 24.4535 27.5248 24.3157 27.0451 24.2137L26.837 25.1918C27.2974 25.2898 27.5249 25.392 27.6091 25.4574L28.223 24.6681ZM27.0456 24.2138L25.2906 23.8388L25.0816 24.8167L26.8366 25.1917L27.0456 24.2138ZM25.2881 23.8383C24.3871 23.6506 23.7808 23.3347 23.4054 22.9353L22.6768 23.6202C23.2413 24.2208 24.065 24.6049 25.0841 24.8172L25.2881 23.8383ZM23.4054 22.9353C23.0357 22.5421 22.8361 22.0262 22.8361 21.3428H21.8361C21.8361 22.2393 22.1064 23.0134 22.6768 23.6202L23.4054 22.9353ZM22.8361 21.3428C22.8361 20.8919 22.9266 20.4997 23.0983 20.1564L22.2039 19.7091C21.9556 20.2058 21.8361 20.7536 21.8361 21.3428H22.8361ZM23.0962 20.1605C23.2819 19.7976 23.5385 19.4898 23.8709 19.2341L23.2612 18.4414C22.8137 18.7857 22.4603 19.2079 22.206 19.705L23.0962 20.1605ZM23.8661 19.2378C24.2129 18.9776 24.6279 18.7724 25.1181 18.6271L24.834 17.6684C24.2442 17.8431 23.7192 18.0979 23.2661 18.4378L23.8661 19.2378ZM25.1237 18.6255C25.6188 18.4724 26.1781 18.3928 26.8061 18.3928V17.3928C26.094 17.3928 25.4333 17.4831 24.8284 17.67L25.1237 18.6255ZM26.8061 18.3928C27.2873 18.3928 27.7753 18.4482 28.2707 18.5604L28.4915 17.5851C27.9269 17.4573 27.3649 17.3928 26.8061 17.3928V18.3928ZM28.2813 18.5627C28.7783 18.6639 29.1889 18.817 29.5221 19.0134L30.0301 18.1521C29.5832 17.8885 29.0638 17.7016 28.4809 17.5828L28.2813 18.5627ZM29.5448 19.026C29.6903 19.1019 29.7717 19.192 29.8196 19.2927L30.7225 18.8628C30.5705 18.5435 30.3219 18.3036 30.0074 18.1395L29.5448 19.026ZM29.8196 19.2927C29.8817 19.423 29.9052 19.5538 29.893 19.6944L30.8892 19.7811C30.917 19.4617 30.8605 19.1526 30.7225 18.8628L29.8196 19.2927ZM29.8931 19.6925C29.8822 19.8128 29.841 19.9127 29.7651 20.0049L30.537 20.6406C30.7411 20.3928 30.86 20.1027 30.889 19.783L29.8931 19.6925ZM29.7539 20.019C29.6991 20.0906 29.6196 20.1488 29.4849 20.1839L29.7373 21.1516C30.0625 21.0667 30.343 20.8949 30.5483 20.6265L29.7539 20.019ZM29.5003 20.1802C29.4207 20.1983 29.2679 20.1951 29.0094 20.0867L28.6227 21.0088C28.9842 21.1604 29.3615 21.2372 29.7219 21.1553L29.5003 20.1802ZM29.0206 20.0915C28.6846 19.9409 28.3116 19.835 27.9061 19.7692L27.746 20.7563C28.0806 20.8105 28.3676 20.8946 28.6115 21.004L29.0206 20.0915ZM27.9215 19.7719C27.5325 19.6963 27.1505 19.6578 26.7761 19.6578V20.6578C27.0816 20.6578 27.3996 20.6892 27.7306 20.7536L27.9215 19.7719ZM26.7761 19.6578C26.3684 19.6578 25.9948 19.707 25.6675 19.8203L25.9946 20.7652C26.1874 20.6985 26.4438 20.6578 26.7761 20.6578V19.6578ZM25.684 19.8149C25.3598 19.9146 25.0708 20.0766 24.8548 20.3235L25.6074 20.982C25.6713 20.9089 25.7824 20.8309 25.9781 20.7706L25.684 19.8149ZM24.843 20.3375C24.6391 20.5884 24.5361 20.8852 24.5361 21.2078H25.5361C25.5361 21.1103 25.563 21.0371 25.6191 20.968L24.843 20.3375ZM24.5361 21.2078C24.5361 21.5736 24.6923 21.8863 24.9603 22.1227L25.6219 21.3728C25.5498 21.3092 25.5361 21.2619 25.5361 21.2078H24.5361ZM24.9841 22.1424C25.2599 22.357 25.6824 22.4948 26.162 22.5968L26.3701 21.6187C25.9098 21.5207 25.6822 21.4185 25.598 21.3531L24.9841 22.1424ZM26.1607 22.5965L27.9007 22.9715L28.1114 21.994L26.3714 21.619L26.1607 22.5965ZM27.9003 22.9714C28.8174 23.17 29.44 23.4837 29.8275 23.8713L30.5346 23.1642C29.9622 22.5918 29.1348 22.2155 28.1119 21.9941L27.9003 22.9714ZM29.8275 23.8713C30.2009 24.2447 30.4011 24.736 30.4011 25.3928H31.4011C31.4011 24.5095 31.1213 23.7508 30.5346 23.1642L29.8275 23.8713ZM30.4011 25.3928C30.4011 25.8436 30.3106 26.2358 30.1389 26.5791L31.0333 27.0264C31.2816 26.5297 31.4011 25.9819 31.4011 25.3928H30.4011ZM30.1389 26.5791C29.9643 26.9283 29.7143 27.2302 29.3812 27.4864L29.9909 28.2791C30.4379 27.9353 30.7879 27.5172 31.0333 27.0264L30.1389 26.5791ZM29.3877 27.4815C29.0532 27.7303 28.6392 27.9314 28.1364 28.0777L28.4157 29.0378C29.0129 28.8641 29.539 28.6152 29.9844 28.284L29.3877 27.4815ZM28.1364 28.0777C27.6399 28.2221 27.0681 28.2978 26.4161 28.2978V29.2978C27.144 29.2978 27.8122 29.2134 28.4157 29.0378L28.1364 28.0777ZM33.9694 28.4528L33.7533 28.9037L33.7569 28.9054L33.9694 28.4528ZM32.8894 27.4178L32.4441 27.6451L32.4461 27.649L32.8894 27.4178ZM32.5294 23.2178H33.0294V22.7178H32.5294V23.2178ZM31.2694 22.9628L30.9158 23.3163L30.9209 23.3214L30.9261 23.3263L31.2694 22.9628ZM31.2694 21.5078L31.6121 21.8719L31.6127 21.8713L31.2694 21.5078ZM32.5294 21.2528V21.7528H33.0294V21.2528H32.5294ZM34.8544 19.3178L34.5008 19.6713V19.6713L34.8544 19.3178ZM35.1994 21.2528H34.6994V21.7528H35.1994V21.2528ZM37.1794 21.5078L36.8258 21.8613L36.8362 21.8717L36.8472 21.8815L37.1794 21.5078ZM37.1794 22.9628L36.8361 22.5992L36.8309 22.6041L36.8258 22.6092L37.1794 22.9628ZM35.1994 23.2178V22.7178H34.6994V23.2178H35.1994ZM35.4544 26.3978L35.0909 26.7411L35.1007 26.7514L35.1111 26.7613L35.4544 26.3978ZM36.6994 26.6078L36.8118 27.0949L36.6994 26.6078ZM37.0594 26.5628V27.0628H37.075L37.0906 27.0618L37.0594 26.5628ZM37.4494 26.7128L37.0794 27.0491L37.0874 27.0579L37.0958 27.0663L37.4494 26.7128ZM37.4644 28.1828L37.9204 28.388L37.924 28.3797L37.4644 28.1828ZM36.9844 28.6178L37.1526 29.0886L37.1596 29.0861L37.1666 29.0834L36.9844 28.6178ZM36.4144 28.7378L36.3524 28.2416L36.3423 28.2429L36.3322 28.2446L36.4144 28.7378ZM35.8294 28.2978C35.1262 28.2978 34.5849 28.1893 34.1819 28.0001L33.7569 28.9054C34.3339 29.1762 35.0326 29.2978 35.8294 29.2978V28.2978ZM34.1855 28.0018C33.8002 27.8173 33.5213 27.548 33.3327 27.1865L32.4461 27.649C32.7375 28.2075 33.1786 28.6282 33.7533 28.9037L34.1855 28.0018ZM33.3347 27.1904C33.1404 26.8099 33.0294 26.3084 33.0294 25.6628H32.0294C32.0294 26.4171 32.1584 27.0856 32.4441 27.6451L33.3347 27.1904ZM33.0294 25.6628V23.2178H32.0294V25.6628H33.0294ZM32.5294 22.7178H32.0194V23.7178H32.5294V22.7178ZM32.0194 22.7178C31.7884 22.7178 31.6752 22.6582 31.6127 22.5992L30.9261 23.3263C31.2236 23.6073 31.6104 23.7178 32.0194 23.7178V22.7178ZM31.623 22.6092C31.5746 22.5608 31.5144 22.4605 31.5144 22.2278H30.5144C30.5144 22.635 30.6242 23.0247 30.9158 23.3163L31.623 22.6092ZM31.5144 22.2278C31.5144 21.9928 31.5753 21.9064 31.6121 21.8719L30.9267 21.1437C30.6235 21.4291 30.5144 21.8227 30.5144 22.2278H31.5144ZM31.6127 21.8713C31.6752 21.8123 31.7884 21.7528 32.0194 21.7528V20.7528C31.6104 20.7528 31.2236 20.8632 30.9261 21.1442L31.6127 21.8713ZM32.0194 21.7528H32.5294V20.7528H32.0194V21.7528ZM33.0294 21.2528V20.3228H32.0294V21.2528H33.0294ZM33.0294 20.3228C33.0294 19.9673 33.121 19.7783 33.228 19.6713L32.5208 18.9642C32.1678 19.3172 32.0294 19.7982 32.0294 20.3228H33.0294ZM33.228 19.6713C33.337 19.5623 33.5228 19.4728 33.8644 19.4728V18.4728C33.346 18.4728 32.8718 18.6132 32.5208 18.9642L33.228 19.6713ZM33.8644 19.4728C34.206 19.4728 34.3918 19.5623 34.5008 19.6713L35.208 18.9642C34.857 18.6132 34.3828 18.4728 33.8644 18.4728V19.4728ZM34.5008 19.6713C34.6078 19.7783 34.6994 19.9673 34.6994 20.3228H35.6994C35.6994 19.7982 35.561 19.3172 35.208 18.9642L34.5008 19.6713ZM34.6994 20.3228V21.2528H35.6994V20.3228H34.6994ZM35.1994 21.7528H36.4294V20.7528H35.1994V21.7528ZM36.4294 21.7528C36.6773 21.7528 36.7801 21.8156 36.8258 21.8613L37.533 21.1542C37.2387 20.8599 36.8415 20.7528 36.4294 20.7528V21.7528ZM36.8472 21.8815C36.8884 21.918 36.9494 22.0011 36.9494 22.2278H37.9494C37.9494 21.8144 37.8304 21.4175 37.5116 21.134L36.8472 21.8815ZM36.9494 22.2278C36.9494 22.4526 36.8889 22.5493 36.8361 22.5992L37.5227 23.3263C37.8299 23.0362 37.9494 22.6429 37.9494 22.2278H36.9494ZM36.8258 22.6092C36.7801 22.6549 36.6773 22.7178 36.4294 22.7178V23.7178C36.8415 23.7178 37.2387 23.6106 37.533 23.3163L36.8258 22.6092ZM36.4294 22.7178H35.1994V23.7178H36.4294V22.7178ZM34.6994 23.2178V25.5728H35.6994V23.2178H34.6994ZM34.6994 25.5728C34.6994 26.0085 34.7984 26.4313 35.0909 26.7411L35.8179 26.0544C35.7704 26.0042 35.6994 25.877 35.6994 25.5728H34.6994ZM35.1111 26.7613C35.4229 27.0558 35.853 27.1528 36.2944 27.1528V26.1528C35.9758 26.1528 35.8459 26.0797 35.7977 26.0342L35.1111 26.7613ZM36.2944 27.1528C36.4704 27.1528 36.6432 27.1339 36.8118 27.0949L36.587 26.1206C36.4956 26.1416 36.3984 26.1528 36.2944 26.1528V27.1528ZM36.8118 27.0949C36.9125 27.0717 36.9942 27.0628 37.0594 27.0628V26.0628C36.9046 26.0628 36.7463 26.0838 36.587 26.1206L36.8118 27.0949ZM37.0906 27.0618C37.1005 27.0612 37.1051 27.0618 37.1055 27.0618C37.1056 27.0618 37.1025 27.0614 37.0974 27.0594C37.0922 27.0574 37.0873 27.0548 37.0832 27.052C37.0793 27.0492 37.0782 27.0477 37.0794 27.0491L37.8194 26.3764C37.6084 26.1444 37.3261 26.0451 37.0282 26.0637L37.0906 27.0618ZM37.0958 27.0663C37.0671 27.0375 37.0578 27.0154 37.0587 27.0174C37.0594 27.019 37.0656 27.0339 37.0728 27.0681C37.0878 27.1382 37.0994 27.2511 37.0994 27.4178H38.0994C38.0994 27.2144 38.086 27.0248 38.051 26.8599C38.0183 26.7066 37.954 26.5103 37.8029 26.3592L37.0958 27.0663ZM37.0994 27.4178C37.0994 27.6702 37.0612 27.8542 37.0048 27.9858L37.924 28.3797C38.0476 28.0913 38.0994 27.7653 38.0994 27.4178H37.0994ZM37.0084 27.9776C36.9791 28.0429 36.9271 28.1033 36.8022 28.1521L37.1666 29.0834C37.5017 28.9522 37.7697 28.7226 37.9204 28.3879L37.0084 27.9776ZM36.8162 28.1469C36.7252 28.1794 36.5757 28.2137 36.3524 28.2416L36.4764 29.2339C36.7331 29.2018 36.9636 29.1561 37.1526 29.0886L36.8162 28.1469ZM36.3322 28.2446C36.1049 28.2824 35.9403 28.2978 35.8294 28.2978V29.2978C36.0185 29.2978 36.2439 29.2731 36.4966 29.2309L36.3322 28.2446ZM39.5311 28.4528L39.2785 28.8843L39.2865 28.8888L39.5311 28.4528ZM38.6011 27.3878L38.141 27.5836L38.1446 27.5917L38.6011 27.3878ZM38.6461 21.4628L38.9918 21.8242L38.9997 21.8163L38.6461 21.4628ZM40.6261 21.4628L40.2725 21.8164L40.2805 21.8241L40.6261 21.4628ZM41.1961 26.4878L41.5802 26.1677V26.1677L41.1961 26.4878ZM42.7861 26.3678L42.4116 26.0365L42.7861 26.3678ZM43.4761 21.4628L43.8218 21.8242L43.8297 21.8163L43.4761 21.4628ZM45.4561 21.4628L45.1025 21.8164L45.1105 21.8241L45.4561 21.4628ZM43.5361 28.4228L43.8897 28.0692L43.5361 28.4228ZM43.1911 26.5478L43.6664 26.3926L42.6911 26.5478H43.1911ZM43.4311 27.2828L43.8873 27.4875L43.9664 27.3113L43.9064 27.1276L43.4311 27.2828ZM42.5011 28.4078L42.2286 27.9885L42.2238 27.9917L42.5011 28.4078ZM41.1061 28.2978C40.5221 28.2978 40.0888 28.1923 39.7757 28.0167L39.2865 28.8888C39.7934 29.1732 40.4101 29.2978 41.1061 29.2978V28.2978ZM39.7837 28.0212C39.4714 27.8384 39.2288 27.5669 39.0576 27.1838L38.1446 27.5917C38.3934 28.1486 38.7709 28.5871 39.2785 28.8843L39.7837 28.0212ZM39.0612 27.192C38.896 26.8037 38.8011 26.281 38.8011 25.6028H37.8011C37.8011 26.3645 37.9062 27.0318 38.141 27.5835L39.0612 27.192ZM38.8011 25.6028V22.4528H37.8011V25.6028H38.8011ZM38.8011 22.4528C38.8011 22.0956 38.8933 21.9182 38.9917 21.8241L38.3005 21.1014C37.9389 21.4473 37.8011 21.9299 37.8011 22.4528H38.8011ZM38.9997 21.8163C39.1087 21.7073 39.2945 21.6178 39.6361 21.6178V20.6178C39.1178 20.6178 38.6436 20.7582 38.2926 21.1092L38.9997 21.8163ZM39.6361 21.6178C39.9778 21.6178 40.1636 21.7073 40.2726 21.8163L40.9797 21.1092C40.6287 20.7582 40.1545 20.6178 39.6361 20.6178V21.6178ZM40.2805 21.8241C40.3789 21.9182 40.4711 22.0956 40.4711 22.4528H41.4711C41.4711 21.9299 41.3333 21.4473 40.9717 21.1014L40.2805 21.8241ZM40.4711 22.4528V25.6778H41.4711V22.4528H40.4711ZM40.4711 25.6778C40.4711 26.0949 40.5561 26.5008 40.812 26.8078L41.5802 26.1677C41.5361 26.1147 41.4711 25.9806 41.4711 25.6778H40.4711ZM40.812 26.8078C41.0884 27.1395 41.49 27.2578 41.9011 27.2578V26.2578C41.6722 26.2578 41.6038 26.196 41.5802 26.1677L40.812 26.8078ZM41.9011 27.2578C42.3983 27.2578 42.8318 27.0708 43.1606 26.699L42.4116 26.0365C42.2805 26.1847 42.1239 26.2578 41.9011 26.2578V27.2578ZM43.1606 26.699C43.4895 26.3272 43.6311 25.8545 43.6311 25.3328H42.6311C42.6311 25.671 42.5427 25.8883 42.4116 26.0365L43.1606 26.699ZM43.6311 25.3328V22.4528H42.6311V25.3328H43.6311ZM43.6311 22.4528C43.6311 22.0956 43.7233 21.9182 43.8217 21.8241L43.1305 21.1014C42.7689 21.4473 42.6311 21.9299 42.6311 22.4528H43.6311ZM43.8297 21.8163C43.9387 21.7073 44.1245 21.6178 44.4661 21.6178V20.6178C43.9478 20.6178 43.4736 20.7582 43.1226 21.1092L43.8297 21.8163ZM44.4661 21.6178C44.8078 21.6178 44.9936 21.7073 45.1026 21.8163L45.8097 21.1092C45.4587 20.7582 44.9845 20.6178 44.4661 20.6178V21.6178ZM45.1105 21.8241C45.2089 21.9182 45.3011 22.0956 45.3011 22.4528H46.3011C46.3011 21.9299 46.1633 21.4473 45.8017 21.1014L45.1105 21.8241ZM45.3011 22.4528V27.4178H46.3011V22.4528H45.3011ZM45.3011 27.4178C45.3011 27.7962 45.2103 27.9873 45.1171 28.0848C45.028 28.1781 44.8581 28.2678 44.5111 28.2678V29.2678C45.0241 29.2678 45.4993 29.1324 45.8401 28.7757C46.1769 28.4232 46.3011 27.9393 46.3011 27.4178H45.3011ZM44.5111 28.2678C44.1834 28.2678 44.0008 28.1803 43.8897 28.0692L43.1826 28.7763C43.5315 29.1252 43.9989 29.2678 44.5111 29.2678V28.2678ZM43.8897 28.0692C43.7827 27.9622 43.6911 27.7732 43.6911 27.4178H42.6911C42.6911 27.9423 42.8295 28.4233 43.1826 28.7763L43.8897 28.0692ZM43.6911 27.4178V26.5478H42.6911V27.4178H43.6911ZM42.7158 26.703L42.9558 27.438L43.9064 27.1276L43.6664 26.3926L42.7158 26.703ZM42.975 27.078C42.7892 27.4917 42.5382 27.7873 42.2286 27.9885L42.7736 28.827C43.264 28.5082 43.633 28.0538 43.8873 27.4875L42.975 27.078ZM42.2238 27.9917C41.9279 28.189 41.5628 28.2978 41.1061 28.2978V29.2978C41.7294 29.2978 42.2944 29.1465 42.7785 28.8238L42.2238 27.9917ZM48.5549 28.3328L48.2836 28.7528L48.2876 28.7553L48.5549 28.3328ZM47.4149 26.9978L46.9616 27.2088L46.9646 27.2151L47.4149 26.9978ZM47.4149 22.8728L46.9661 22.6523L46.963 22.6587L47.4149 22.8728ZM48.5549 21.5528L48.2876 21.1302L48.2836 21.1327L48.5549 21.5528ZM52.6049 22.4828V22.9828H53.3202L53.0745 22.311L52.6049 22.4828ZM52.4399 22.4828H51.9399V22.9828H52.4399V22.4828ZM52.7849 18.2678L53.1385 18.6213V18.6213L52.7849 18.2678ZM54.7499 18.2678L54.3963 18.6214L54.404 18.6287L54.7499 18.2678ZM54.7649 28.4228L54.4113 28.0691L54.4036 28.0771L54.7649 28.4228ZM52.8149 28.4228L53.1685 28.0692L52.8149 28.4228ZM52.4699 26.5628L52.9578 26.4532L51.9699 26.5628H52.4699ZM52.6349 27.2978L53.1123 27.4463L53.152 27.3187L53.1228 27.1882L52.6349 27.2978ZM51.7499 28.3928L52.0114 28.8189L52.0141 28.8173L51.7499 28.3928ZM51.8099 26.6378L52.0731 27.0629L52.0802 27.0584L52.0873 27.0538L51.8099 26.6378ZM52.2899 26.0228L51.8303 25.8258L51.8269 25.8341L52.2899 26.0228ZM52.0799 23.5028L51.702 23.8303L51.7076 23.8365L52.0799 23.5028ZM50.3699 23.2478L50.1067 22.8226L50.3699 23.2478ZM49.8749 23.8628L50.3319 24.0658L50.3345 24.0597L49.8749 23.8628ZM50.0849 26.3828L49.7071 26.7102L50.0849 26.3828ZM50.2349 28.2978C49.691 28.2978 49.2253 28.1652 48.8222 27.9102L48.2876 28.7553C48.8645 29.1203 49.5188 29.2978 50.2349 29.2978V28.2978ZM48.8262 27.9127C48.4328 27.6587 48.1105 27.2884 47.8652 26.7804L46.9646 27.2151C47.2794 27.8671 47.717 28.3868 48.2836 28.7528L48.8262 27.9127ZM47.8682 26.7867C47.6353 26.2865 47.5099 25.6766 47.5099 24.9428H46.5099C46.5099 25.7889 46.6545 26.549 46.9616 27.2088L47.8682 26.7867ZM47.5099 24.9428C47.5099 24.1865 47.6361 23.5737 47.8668 23.0868L46.963 22.6587C46.6537 23.3118 46.5099 24.079 46.5099 24.9428H47.5099ZM47.8637 23.0932C48.1083 22.5953 48.4306 22.2282 48.8262 21.9728L48.2836 21.1327C47.7192 21.4973 47.2815 22.0102 46.9661 22.6523L47.8637 23.0932ZM48.8222 21.9753C49.2253 21.7203 49.691 21.5878 50.2349 21.5878V20.5878C49.5188 20.5878 48.8645 20.7652 48.2876 21.1302L48.8222 21.9753ZM50.2349 21.5878C50.7025 21.5878 51.1084 21.6972 51.4655 21.9082L51.9743 21.0473C51.4514 20.7383 50.8673 20.5878 50.2349 20.5878V21.5878ZM51.4655 21.9082C51.8239 22.12 52.0316 22.371 52.1353 22.6545L53.0745 22.311C52.8782 21.7745 52.4959 21.3556 51.9743 21.0473L51.4655 21.9082ZM52.6049 21.9828H52.4399V22.9828H52.6049V21.9828ZM52.9399 22.4828V19.2728H51.9399V22.4828H52.9399ZM52.9399 19.2728C52.9399 18.9173 53.0315 18.7283 53.1385 18.6213L52.4314 17.9142C52.0783 18.2672 51.9399 18.7482 51.9399 19.2728H52.9399ZM53.1385 18.6213C53.2475 18.5123 53.4333 18.4228 53.7749 18.4228V17.4228C53.2565 17.4228 52.7824 17.5632 52.4314 17.9142L53.1385 18.6213ZM53.7749 18.4228C54.1026 18.4228 54.2852 18.5102 54.3964 18.6213L55.1035 17.9142C54.7546 17.5653 54.2872 17.4228 53.7749 17.4228V18.4228ZM54.404 18.6287C54.5167 18.7368 54.6099 18.9231 54.6099 19.2728H55.6099C55.6099 18.7425 55.4632 18.2587 55.0959 17.9068L54.404 18.6287ZM54.6099 19.2728V27.4178H55.6099V19.2728H54.6099ZM54.6099 27.4178C54.6099 27.7732 54.5183 27.9622 54.4114 28.0692L55.1185 28.7763C55.4715 28.4233 55.6099 27.9423 55.6099 27.4178H54.6099ZM54.4036 28.0771C54.3074 28.1777 54.133 28.2678 53.7899 28.2678V29.2678C54.3068 29.2678 54.7824 29.1278 55.1262 28.7684L54.4036 28.0771ZM53.7899 28.2678C53.4622 28.2678 53.2796 28.1803 53.1685 28.0692L52.4614 28.7763C52.8102 29.1252 53.2776 29.2678 53.7899 29.2678V28.2678ZM53.1685 28.0692C53.0615 27.9622 52.9699 27.7732 52.9699 27.4178H51.9699C51.9699 27.9423 52.1083 28.4233 52.4614 28.7763L53.1685 28.0692ZM52.9699 27.4178V26.5628H51.9699V27.4178H52.9699ZM51.982 26.6723L52.147 27.4073L53.1228 27.1882L52.9578 26.4532L51.982 26.6723ZM52.1575 27.1492C52.0576 27.4702 51.8474 27.7432 51.4858 27.9682L52.0141 28.8173C52.5524 28.4823 52.9322 28.0253 53.1123 27.4463L52.1575 27.1492ZM51.4884 27.9666C51.1351 28.1834 50.7225 28.2978 50.2349 28.2978V29.2978C50.8873 29.2978 51.4847 29.1421 52.0114 28.8189L51.4884 27.9666ZM51.0899 27.3328C51.4439 27.3328 51.7767 27.2463 52.0731 27.0629L51.5467 26.2126C51.4231 26.2892 51.2759 26.3328 51.0899 26.3328V27.3328ZM52.0873 27.0538C52.3929 26.85 52.6112 26.5593 52.753 26.2114L51.8269 25.8341C51.7486 26.0262 51.6469 26.1455 51.5326 26.2217L52.0873 27.0538ZM52.7495 26.2197C52.9052 25.8563 52.9699 25.4228 52.9699 24.9428H51.9699C51.9699 25.3427 51.9146 25.6292 51.8303 25.8258L52.7495 26.2197ZM52.9699 24.9428C52.9699 24.231 52.8361 23.5972 52.4522 23.169L51.7076 23.8365C51.8437 23.9883 51.9699 24.3145 51.9699 24.9428H52.9699ZM52.4577 23.1753C52.102 22.7648 51.6336 22.5528 51.0899 22.5528V23.5528C51.3462 23.5528 51.5379 23.6408 51.7021 23.8302L52.4577 23.1753ZM51.0899 22.5528C50.7359 22.5528 50.4031 22.6392 50.1067 22.8226L50.6331 23.6729C50.7567 23.5963 50.9039 23.5528 51.0899 23.5528V22.5528ZM50.1067 22.8226C49.7908 23.0182 49.5662 23.3137 49.4153 23.6658L50.3345 24.0597C50.4236 23.8518 50.529 23.7373 50.6331 23.6729L50.1067 22.8226ZM49.418 23.6597C49.2587 24.0181 49.1949 24.4558 49.1949 24.9428H50.1949C50.1949 24.5297 50.2511 24.2474 50.3318 24.0658L49.418 23.6597ZM49.1949 24.9428C49.1949 25.6491 49.3306 26.2758 49.7071 26.7102L50.4627 26.0553C50.3193 25.8897 50.1949 25.5564 50.1949 24.9428H49.1949ZM49.7071 26.7102C50.0655 27.1238 50.5403 27.3328 51.0899 27.3328V26.3328C50.8195 26.3328 50.6243 26.2417 50.4627 26.0553L49.7071 26.7102ZM58.0517 31.2278L58.3737 30.8453L58.0517 31.2278ZM57.6917 30.5978L57.1975 30.6738L57.1989 30.683L57.2007 30.6922L57.6917 30.5978ZM57.8267 29.7728L57.3727 29.563L57.3704 29.5682L57.8267 29.7728ZM58.8317 27.5978H59.3317L58.3778 27.388L58.8317 27.5978ZM58.8317 28.6778L58.3736 28.8781L59.3317 28.6778H58.8317ZM56.2667 22.8128L55.8079 23.0116L55.8086 23.0131L56.2667 22.8128ZM56.1317 21.9728L55.6407 21.8783L55.6389 21.8875L55.6375 21.8967L56.1317 21.9728ZM56.5367 21.3578L56.8183 21.7709L56.8246 21.7666L56.8307 21.7621L56.5367 21.3578ZM58.2017 21.3428L57.8918 21.7352L57.9031 21.7441L57.9149 21.7524L58.2017 21.3428ZM58.7417 22.1828L58.2744 22.3607L58.275 22.3622L58.7417 22.1828ZM60.2417 26.0828V26.5828H60.9697L60.7083 25.9033L60.2417 26.0828ZM59.7317 26.0828L59.2684 25.8946L58.9889 26.5828H59.7317V26.0828ZM61.3217 22.1678L61.785 22.3559L61.7875 22.3495L61.3217 22.1678ZM61.8617 21.3428L62.1484 21.7524L62.1523 21.7496L61.8617 21.3428ZM63.4217 21.3578L63.0895 21.7315L63.0954 21.7368L63.1016 21.7419L63.4217 21.3578ZM63.7517 21.9728L64.2458 21.8967L63.7517 21.9728ZM63.6167 22.8128L64.0735 23.0161L64.0754 23.0116L63.6167 22.8128ZM60.2117 30.4628L60.6676 30.6679L60.6685 30.6661L60.2117 30.4628ZM59.6117 31.2578L59.3573 30.8273L59.3456 30.8342L59.3343 30.8417L59.6117 31.2578ZM58.8017 30.9678C58.5794 30.9678 58.4529 30.912 58.3737 30.8453L57.7296 31.6102C58.0304 31.8635 58.4039 31.9678 58.8017 31.9678V30.9678ZM58.3737 30.8453C58.2774 30.7642 58.2126 30.6588 58.1827 30.5033L57.2007 30.6922C57.2708 31.0567 57.4459 31.3713 57.7296 31.6102L58.3737 30.8453ZM58.1858 30.5217C58.1633 30.3751 58.184 30.1978 58.2829 29.9773L57.3704 29.5682C57.2093 29.9277 57.14 30.3004 57.1975 30.6738L58.1858 30.5217ZM58.2806 29.9825L59.2856 27.8075L58.3778 27.388L57.3728 29.563L58.2806 29.9825ZM58.3317 27.5978V28.6778H59.3317V27.5978H58.3317ZM59.2898 28.4774L56.7248 22.6124L55.8086 23.0131L58.3736 28.8781L59.2898 28.4774ZM56.7254 22.6139C56.6238 22.3794 56.6033 22.1954 56.6259 22.0488L55.6375 21.8967C55.58 22.2701 55.6495 22.6461 55.8079 23.0116L56.7254 22.6139ZM56.6227 22.0672C56.6476 21.9377 56.7068 21.8469 56.8183 21.7709L56.255 20.9446C55.9266 21.1686 55.7158 21.4878 55.6407 21.8783L56.6227 22.0672ZM56.8307 21.7621C56.9373 21.6846 57.1215 21.6178 57.4367 21.6178V20.6178C56.9918 20.6178 56.576 20.7109 56.2426 20.9534L56.8307 21.7621ZM57.4367 21.6178C57.6805 21.6178 57.8149 21.6744 57.8918 21.7352L58.5115 20.9503C58.2085 20.7111 57.8328 20.6178 57.4367 20.6178V21.6178ZM57.9149 21.7524C57.9888 21.8041 58.1242 21.9665 58.2744 22.3607L59.2089 22.0048C59.0391 21.559 58.8145 21.1614 58.4884 20.9331L57.9149 21.7524ZM58.275 22.3622L59.775 26.2622L60.7083 25.9033L59.2083 22.0033L58.275 22.3622ZM60.2417 25.5828H59.7317V26.5828H60.2417V25.5828ZM60.1949 26.2709L61.7849 22.3559L60.8584 21.9796L59.2684 25.8946L60.1949 26.2709ZM61.7875 22.3495C61.9366 21.9674 62.0715 21.8062 62.1484 21.7524L61.5749 20.9331C61.2518 21.1593 61.0268 21.5481 60.8559 21.986L61.7875 22.3495ZM62.1523 21.7496C62.252 21.6784 62.4194 21.6178 62.7017 21.6178V20.6178C62.2839 20.6178 61.8913 20.7071 61.571 20.9359L62.1523 21.7496ZM62.7017 21.6178C62.9105 21.6178 63.0219 21.6714 63.0895 21.7315L63.7538 20.984C63.4614 20.7241 63.0929 20.6178 62.7017 20.6178V21.6178ZM63.1016 21.7419C63.1763 21.8041 63.2336 21.8934 63.2575 22.0488L64.2458 21.8967C64.1898 21.5321 64.027 21.2114 63.7418 20.9736L63.1016 21.7419ZM63.2575 22.0488C63.28 22.1954 63.2595 22.3794 63.1579 22.6139L64.0754 23.0116C64.2338 22.6461 64.3033 22.2701 64.2458 21.8967L63.2575 22.0488ZM63.1599 22.6094L59.7549 30.2594L60.6685 30.6661L64.0735 23.0161L63.1599 22.6094ZM59.7557 30.2576C59.591 30.6236 59.4449 30.7755 59.3573 30.8273L59.866 31.6882C60.2184 31.48 60.4724 31.1019 60.6676 30.6679L59.7557 30.2576ZM59.3343 30.8417C59.2283 30.9124 59.0629 30.9678 58.8017 30.9678V31.9678C59.2004 31.9678 59.5751 31.8831 59.889 31.6738L59.3343 30.8417ZM19.3012 44.4078L18.9405 44.754L18.9475 44.7614L18.9549 44.7684L19.3012 44.4078ZM19.3012 34.4328L19.6547 34.7863H19.6547L19.3012 34.4328ZM26.1862 34.3278L26.5397 33.9742H26.5397L26.1862 34.3278ZM26.1862 35.9178L26.5398 36.2714L26.5491 36.2616L26.1862 35.9178ZM21.7012 36.1878V35.6878H21.2012V36.1878H21.7012ZM21.7012 38.3178H21.2012V38.8178H21.7012V38.3178ZM25.8412 38.5878L25.4875 38.9414L25.4973 38.9507L25.8412 38.5878ZM25.8412 40.1628L25.4972 39.7996L25.4876 39.8092L25.8412 40.1628ZM21.7012 40.4328V39.9328H21.2012V40.4328H21.7012ZM20.3362 44.2678C19.9889 44.2678 19.781 44.1753 19.6474 44.0471L18.9549 44.7684C19.3213 45.1202 19.8034 45.2678 20.3362 45.2678V44.2678ZM19.6618 44.0615C19.5374 43.9318 19.4412 43.7171 19.4412 43.3428H18.4412C18.4412 43.8884 18.5849 44.3837 18.9405 44.754L19.6618 44.0615ZM19.4412 43.3428V35.4828H18.4412V43.3428H19.4412ZM19.4412 35.4828C19.4412 35.107 19.5379 34.9031 19.6547 34.7863L18.9476 34.0792C18.5844 34.4424 18.4412 34.9385 18.4412 35.4828H19.4412ZM19.6547 34.7863C19.7832 34.6578 19.9986 34.5578 20.3812 34.5578V33.5578C19.8237 33.5578 19.3191 33.7077 18.9476 34.0792L19.6547 34.7863ZM20.3812 34.5578H25.3762V33.5578H20.3812V34.5578ZM25.3762 34.5578C25.6591 34.5578 25.7794 34.6281 25.8326 34.6813L26.5397 33.9742C26.2329 33.6674 25.8132 33.5578 25.3762 33.5578V34.5578ZM25.8326 34.6813C25.8907 34.7394 25.9562 34.8544 25.9562 35.1077H26.9562C26.9562 34.6811 26.8416 34.2761 26.5397 33.9742L25.8326 34.6813ZM25.9562 35.1077C25.9562 35.374 25.8889 35.5045 25.8232 35.5739L26.5491 36.2616C26.8434 35.951 26.9562 35.5415 26.9562 35.1077H25.9562ZM25.8326 35.5642C25.7794 35.6174 25.6591 35.6878 25.3762 35.6878V36.6878C25.8132 36.6878 26.2329 36.5781 26.5397 36.2713L25.8326 35.5642ZM25.3762 35.6878H21.7012V36.6878H25.3762V35.6878ZM21.2012 36.1878V38.3178H22.2012V36.1878H21.2012ZM21.7012 38.8178H25.0462V37.8178H21.7012V38.8178ZM25.0462 38.8178C25.3143 38.8178 25.432 38.8857 25.4876 38.9413L26.1947 38.2342C25.8903 37.9298 25.478 37.8178 25.0462 37.8178V38.8178ZM25.4973 38.9507C25.5601 39.0102 25.6262 39.1219 25.6262 39.3678H26.6262C26.6262 38.9336 26.5022 38.5253 26.185 38.2248L25.4973 38.9507ZM25.6262 39.3678C25.6262 39.6287 25.5573 39.7429 25.4973 39.7998L26.185 40.5257C26.505 40.2226 26.6262 39.8068 26.6262 39.3678H25.6262ZM25.4876 39.8092C25.432 39.8648 25.3143 39.9328 25.0462 39.9328V40.9328C25.478 40.9328 25.8903 40.8207 26.1947 40.5163L25.4876 39.8092ZM25.0462 39.9328H21.7012V40.9328H25.0462V39.9328ZM21.2012 40.4328V43.3428H22.2012V40.4328H21.2012ZM21.2012 43.3428C21.2012 43.7459 21.1043 43.9556 20.9988 44.0656C20.8972 44.1717 20.7085 44.2678 20.3362 44.2678V45.2678C20.8738 45.2678 21.3676 45.1263 21.721 44.7574C22.0705 44.3924 22.2012 43.8896 22.2012 43.3428H21.2012ZM28.3933 44.3928L28.7612 44.0542L28.3933 44.3928ZM28.3933 37.4928L28.7612 37.8313L28.3933 37.4928ZM30.3583 37.4928L29.9902 37.8314L29.9976 37.839L30.3583 37.4928ZM30.3733 44.3928L30.7412 44.7313L30.3733 44.3928ZM28.2733 35.7228L27.9429 36.0982L27.9503 36.1044L28.2733 35.7228ZM28.2733 33.8178L27.9502 33.436L27.943 33.4424L28.2733 33.8178ZM30.4783 33.8178L30.148 34.1931L30.4783 33.8178ZM30.4783 35.7228L30.8086 36.0981L30.4783 35.7228ZM29.3683 44.2678C29.0526 44.2678 28.8749 44.1778 28.7612 44.0542L28.0253 44.7313C28.3716 45.1077 28.8439 45.2678 29.3683 45.2678V44.2678ZM28.7612 44.0542C28.644 43.9268 28.5483 43.7058 28.5483 43.3128H27.5483C27.5483 43.8597 27.6825 44.3587 28.0253 44.7313L28.7612 44.0542ZM28.5483 43.3128V38.5728H27.5483V43.3128H28.5483ZM28.5483 38.5728C28.5483 38.1797 28.644 37.9587 28.7612 37.8313L28.0253 37.1542C27.6825 37.5268 27.5483 38.0258 27.5483 38.5728H28.5483ZM28.7612 37.8313C28.8749 37.7077 29.0526 37.6178 29.3683 37.6178V36.6178C28.8439 36.6178 28.3716 36.7778 28.0253 37.1542L28.7612 37.8313ZM29.3683 37.6178C29.698 37.6178 29.8788 37.7101 29.9903 37.8313L30.7262 37.1542C30.3777 36.7754 29.8985 36.6178 29.3683 36.6178V37.6178ZM29.9976 37.839C30.1203 37.9668 30.2183 38.1849 30.2183 38.5728H31.2183C31.2183 38.0206 31.0763 37.5187 30.719 37.1465L29.9976 37.839ZM30.2183 38.5728V43.3128H31.2183V38.5728H30.2183ZM30.2183 43.3128C30.2183 43.7058 30.1225 43.9268 30.0053 44.0542L30.7412 44.7313C31.084 44.3587 31.2183 43.8597 31.2183 43.3128H30.2183ZM30.0053 44.0542C29.896 44.1731 29.7121 44.2678 29.3683 44.2678V45.2678C29.9044 45.2678 30.3906 45.1124 30.7412 44.7313L30.0053 44.0542ZM29.3683 35.5528C28.9718 35.5528 28.7368 35.46 28.5962 35.3411L27.9503 36.1044C28.3297 36.4255 28.8248 36.5528 29.3683 36.5528V35.5528ZM28.6036 35.3474C28.4884 35.2461 28.3983 35.0794 28.3983 34.7628H27.3983C27.3983 35.2861 27.5581 35.7594 27.943 36.0981L28.6036 35.3474ZM28.3983 34.7628C28.3983 34.4604 28.4858 34.2967 28.6036 34.1931L27.943 33.4424C27.5607 33.7788 27.3983 34.2451 27.3983 34.7628H28.3983ZM28.5962 34.1994C28.7368 34.0805 28.9718 33.9878 29.3683 33.9878V32.9878C28.8248 32.9878 28.3297 33.115 27.9503 33.4361L28.5962 34.1994ZM29.3683 33.9878C29.7927 33.9878 30.024 34.084 30.148 34.1931L30.8086 33.4424C30.4325 33.1115 29.9238 32.9878 29.3683 32.9878V33.9878ZM30.148 34.1931C30.2657 34.2967 30.3533 34.4604 30.3533 34.7628H31.3533C31.3533 34.2451 31.1908 33.7788 30.8086 33.4424L30.148 34.1931ZM30.3533 34.7628C30.3533 35.0794 30.2631 35.2461 30.148 35.3474L30.8086 36.0981C31.1934 35.7594 31.3533 35.2861 31.3533 34.7628H30.3533ZM30.148 35.3474C30.024 35.4565 29.7927 35.5528 29.3683 35.5528V36.5528C29.9238 36.5528 30.4325 36.429 30.8086 36.0981L30.148 35.3474ZM33.947 44.3328L33.7261 44.7814L33.7344 44.7853L33.947 44.3328ZM32.447 42.9828L32.0189 43.2411L32.447 42.9828ZM32.417 38.9328L31.9857 38.6799L31.9843 38.6822L32.417 38.9328ZM33.797 37.5828L34.0386 38.0205L34.0411 38.0191L33.797 37.5828ZM37.307 37.3578L37.1213 37.8221L37.1303 37.8255L37.307 37.3578ZM38.462 38.1228L38.0979 38.4655L38.1031 38.4708L38.462 38.1228ZM39.182 39.3228L38.7086 39.4839L38.7118 39.4928L39.182 39.3228ZM39.272 41.3478L39.5886 41.7347L39.5987 41.7265L39.6084 41.7177L39.272 41.3478ZM34.157 41.4828H33.657V41.9828H34.157V41.4828ZM34.157 40.2228V39.7228H33.657V40.2228H34.157ZM37.487 40.2228L37.8023 40.6108L38.8953 39.7228H37.487V40.2228ZM37.247 40.4178H36.747V41.4682L37.5623 40.8058L37.247 40.4178ZM36.647 38.9928L36.3799 39.4156L36.3898 39.4215L36.647 38.9928ZM35.117 39.0378L35.3855 39.4596L35.3901 39.4566L35.117 39.0378ZM34.607 39.6678L34.1474 39.4708L34.607 39.6678ZM34.892 42.3828L34.5385 42.7363L34.5442 42.742L34.55 42.7475L34.892 42.3828ZM37.112 42.7578L37.1999 43.2501L37.2133 43.2474L37.112 42.7578ZM37.937 42.5178L38.1165 42.9844L37.937 42.5178ZM38.612 42.4728L38.4392 42.9419L38.4502 42.946L38.4614 42.9495L38.612 42.4728ZM39.047 42.8028L38.623 43.0678L38.6328 43.0835L38.6438 43.0984L39.047 42.8028ZM39.227 43.3278L38.7276 43.3527L38.7277 43.354L39.227 43.3278ZM39.092 43.8978L39.5292 44.1406L39.5345 44.1306L39.092 43.8978ZM38.597 44.3178L38.3976 43.8591L38.3891 43.863L38.597 44.3178ZM37.472 44.6778L37.374 44.1875L37.3715 44.188L37.472 44.6778ZM36.287 44.2978C35.4437 44.2978 34.7394 44.1525 34.1596 43.8802L33.7344 44.7853C34.4747 45.133 35.3303 45.2978 36.287 45.2978V44.2978ZM34.1679 43.8842C33.5975 43.6034 33.1722 43.2167 32.8751 42.7244L32.0189 43.2411C32.4218 43.9088 32.9965 44.4221 33.7262 44.7813L34.1679 43.8842ZM32.8751 42.7244C32.5795 42.2345 32.422 41.642 32.422 40.9278H31.422C31.422 41.7935 31.6145 42.571 32.0189 43.2411L32.8751 42.7244ZM32.422 40.9278C32.422 40.242 32.5702 39.6661 32.8497 39.1833L31.9843 38.6822C31.6038 39.3394 31.422 40.0935 31.422 40.9278H32.422ZM32.8484 39.1856C33.1436 38.682 33.5385 38.2964 34.0386 38.0205L33.5555 37.145C32.8955 37.5091 32.3704 38.0235 31.9857 38.6799L32.8484 39.1856ZM34.0411 38.0191C34.5486 37.7353 35.1329 37.5878 35.807 37.5878V36.5878C34.9811 36.5878 34.2254 36.7702 33.5529 37.1464L34.0411 38.0191ZM35.807 37.5878C36.3019 37.5878 36.7378 37.6686 37.1213 37.822L37.4927 36.8935C36.9762 36.6869 36.4121 36.5878 35.807 36.5878V37.5878ZM37.1303 37.8255C37.5114 37.9694 37.8317 38.1825 38.0979 38.4654L38.8261 37.7801C38.4524 37.383 38.0027 37.0861 37.4837 36.89L37.1303 37.8255ZM38.1031 38.4708C38.3675 38.7436 38.5706 39.0782 38.7087 39.4839L39.6553 39.1616C39.4734 38.6273 39.1965 38.1619 38.821 37.7747L38.1031 38.4708ZM38.7118 39.4928C38.8592 39.9003 38.937 40.3666 38.937 40.8978H39.937C39.937 40.2689 39.8448 39.6852 39.6522 39.1527L38.7118 39.4928ZM38.937 40.8978C38.937 40.9532 38.9292 40.9802 38.9263 40.9881C38.925 40.9917 38.9248 40.9911 38.9269 40.988C38.929 40.9847 38.9321 40.981 38.9357 40.9778L39.6084 41.7177C39.8551 41.4934 39.937 41.1878 39.937 40.8978H38.937ZM38.9554 40.9608C38.9697 40.9491 38.9694 40.9556 38.9337 40.9648C38.8977 40.974 38.8378 40.9828 38.747 40.9828V41.9828C39.0297 41.9828 39.3458 41.9334 39.5886 41.7347L38.9554 40.9608ZM38.747 40.9828H34.157V41.9828H38.747V40.9828ZM34.657 41.4828V40.2228H33.657V41.4828H34.657ZM34.157 40.7228H37.487V39.7228H34.157V40.7228ZM37.1717 39.8347L36.9317 40.0297L37.5623 40.8058L37.8023 40.6108L37.1717 39.8347ZM37.747 40.4178C37.747 40.0089 37.6927 39.6338 37.5555 39.3184L36.6385 39.7171C36.7013 39.8617 36.747 40.0866 36.747 40.4178H37.747ZM37.5555 39.3184C37.4173 39.0004 37.2005 38.7417 36.9043 38.564L36.3898 39.4215C36.4936 39.4838 36.5767 39.5751 36.6385 39.7171L37.5555 39.3184ZM36.914 38.57C36.6239 38.3868 36.2845 38.3128 35.927 38.3128V39.3128C36.1496 39.3128 36.2901 39.3587 36.38 39.4155L36.914 38.57ZM35.927 38.3128C35.5329 38.3128 35.1653 38.4093 34.8439 38.6189L35.3901 39.4566C35.5287 39.3662 35.7011 39.3128 35.927 39.3128V38.3128ZM34.8486 38.6159C34.5301 38.8186 34.3002 39.1143 34.1474 39.4708L35.0666 39.8647C35.1538 39.6612 35.2639 39.5369 35.3855 39.4596L34.8486 38.6159ZM34.1474 39.4708C33.9927 39.8318 33.927 40.254 33.927 40.7178H34.927C34.927 40.3415 34.9813 40.0637 35.0666 39.8647L34.1474 39.4708ZM33.927 40.7178V40.8528H34.927V40.7178H33.927ZM33.927 40.8528C33.927 41.6167 34.0908 42.2887 34.5385 42.7363L35.2456 42.0292C35.0732 41.8568 34.927 41.5088 34.927 40.8528H33.927ZM34.55 42.7475C35.0001 43.1694 35.6377 43.3328 36.362 43.3328V42.3328C35.7664 42.3328 35.424 42.1961 35.234 42.018L34.55 42.7475ZM36.362 43.3328C36.6186 43.3328 36.8988 43.3037 37.1999 43.25L37.0241 42.2655C36.7652 42.3118 36.5455 42.3328 36.362 42.3328V43.3328ZM37.2133 43.2474C37.5283 43.1822 37.8296 43.0948 38.1165 42.9844L37.7575 42.0511C37.5245 42.1407 37.2757 42.2133 37.0107 42.2681L37.2133 43.2474ZM38.1165 42.9844C38.3059 42.9116 38.3996 42.9274 38.4392 42.9419L38.7849 42.0036C38.4444 41.8781 38.0881 41.9239 37.7575 42.0511L38.1165 42.9844ZM38.4614 42.9495C38.5449 42.9759 38.5898 43.0146 38.623 43.0678L39.471 42.5378C39.3042 42.2709 39.0591 42.0896 38.7626 41.996L38.4614 42.9495ZM38.6438 43.0984C38.6915 43.1635 38.7221 43.2426 38.7276 43.3527L39.7264 43.3028C39.7119 43.0129 39.6225 42.742 39.4502 42.5071L38.6438 43.0984ZM38.7277 43.354C38.7324 43.443 38.7131 43.5441 38.6496 43.6649L39.5345 44.1306C39.6709 43.8714 39.7416 43.5925 39.7263 43.3015L38.7277 43.354ZM38.6549 43.6549C38.6191 43.7194 38.5494 43.7932 38.3977 43.8592L38.7964 44.7763C39.1046 44.6423 39.3649 44.4361 39.5291 44.1406L38.6549 43.6549ZM38.3891 43.863C38.0763 44.006 37.7384 44.1146 37.374 44.1875L37.5701 45.168C38.0057 45.0809 38.4177 44.9495 38.8049 44.7725L38.3891 43.863ZM37.3715 44.188C37.0148 44.2611 36.6534 44.2978 36.287 44.2978V45.2978C36.7206 45.2978 37.1493 45.2544 37.5725 45.1676L37.3715 44.188ZM41.2623 44.0328L40.8842 44.36L40.891 44.3676L41.2623 44.0328ZM42.8973 34.2678L42.5437 34.6214L42.5514 34.6287L42.8973 34.2678ZM43.4673 42.4128L43.0814 42.7306L43.0868 42.7372L43.0924 42.7436L43.4673 42.4128ZM44.2473 42.6528L44.318 43.1477L44.3436 43.1441L44.3686 43.1378L44.2473 42.6528ZM44.5023 42.6078V42.1078H44.4746L44.4471 42.1108L44.5023 42.6078ZM44.8773 42.8028L44.4515 43.0648L44.4586 43.0763L44.4662 43.0874L44.8773 42.8028ZM44.8023 44.3928L45.1884 44.7107L45.197 44.6997L44.8023 44.3928ZM44.1573 44.7228L44.2193 45.2189L44.2309 45.2175L44.2423 45.2155L44.1573 44.7228ZM43.8123 44.7678L43.8784 45.2634H43.8784L43.8123 44.7678ZM43.3923 44.2978C42.5158 44.2978 41.9658 44.0662 41.6336 43.6979L40.891 44.3676C41.4788 45.0193 42.3489 45.2978 43.3923 45.2978V44.2978ZM41.6404 43.7056C41.3007 43.313 41.0873 42.672 41.0873 41.6928H40.0873C40.0873 42.7935 40.3239 43.7125 40.8842 44.3599L41.6404 43.7056ZM41.0873 41.6928V35.2728H40.0873V41.6928H41.0873ZM41.0873 35.2728C41.0873 34.9173 41.1789 34.7283 41.2859 34.6213L40.5788 33.9142C40.2257 34.2672 40.0873 34.7482 40.0873 35.2728H41.0873ZM41.2859 34.6213C41.397 34.5102 41.5796 34.4228 41.9073 34.4228V33.4228C41.3951 33.4228 40.9277 33.5653 40.5788 33.9142L41.2859 34.6213ZM41.9073 34.4228C42.249 34.4228 42.4348 34.5123 42.5438 34.6213L43.2509 33.9142C42.8999 33.5632 42.4257 33.4228 41.9073 33.4228V34.4228ZM42.5514 34.6287C42.6641 34.7368 42.7573 34.9231 42.7573 35.2728H43.7573C43.7573 34.7425 43.6106 34.2587 43.2433 33.9068L42.5514 34.6287ZM42.7573 35.2728V41.6028H43.7573V35.2728H42.7573ZM42.7573 41.6028C42.7573 42.0164 42.832 42.4278 43.0814 42.7306L43.8533 42.0949C43.8227 42.0577 43.7573 41.9291 43.7573 41.6028H42.7573ZM43.0924 42.7436C43.3389 43.0229 43.6663 43.1678 44.0373 43.1678V42.1678C43.9484 42.1678 43.8958 42.1426 43.8422 42.0819L43.0924 42.7436ZM44.0373 43.1678C44.1312 43.1678 44.2249 43.161 44.318 43.1477L44.1766 42.1578C44.1298 42.1645 44.0834 42.1678 44.0373 42.1678V43.1678ZM44.3686 43.1378C44.4249 43.1238 44.4877 43.1125 44.5575 43.1047L44.4471 42.1108C44.337 42.123 44.2298 42.1418 44.1261 42.1677L44.3686 43.1378ZM44.5023 43.1078C44.5235 43.1078 44.5149 43.1116 44.4929 43.1001C44.4824 43.0946 44.4725 43.0875 44.4643 43.0797C44.4563 43.0721 44.4524 43.0662 44.4515 43.0648L45.3032 42.5407C45.1205 42.2438 44.8224 42.1078 44.5023 42.1078V43.1078ZM44.4662 43.0874C44.4501 43.0641 44.468 43.0786 44.4856 43.1827C44.5018 43.2777 44.5123 43.4137 44.5123 43.5978H45.5123C45.5123 43.3818 45.5004 43.1853 45.4715 43.0153C45.4442 42.8544 45.3945 42.6714 45.2884 42.5181L44.4662 43.0874ZM44.5123 43.5978C44.5123 43.8928 44.4514 44.0295 44.4077 44.0858L45.197 44.6997C45.4332 44.396 45.5123 44.0027 45.5123 43.5978H44.5123ZM44.4164 44.0749C44.3749 44.1252 44.2844 44.1935 44.0724 44.23L44.2423 45.2155C44.6102 45.152 44.9497 45.0003 45.1883 44.7106L44.4164 44.0749ZM44.0953 44.2266C44.0133 44.2369 43.8966 44.2521 43.7462 44.2721L43.8784 45.2634C44.028 45.2434 44.1414 45.2286 44.2193 45.2189L44.0953 44.2266ZM43.7462 44.2721C43.6147 44.2897 43.497 44.2978 43.3923 44.2978V45.2978C43.5477 45.2978 43.71 45.2858 43.8784 45.2634L43.7462 44.2721ZM46.9289 44.3328L46.6577 44.7528L46.6616 44.7553L46.9289 44.3328ZM45.7889 42.9978L45.3356 43.2088L45.3387 43.2151L45.7889 42.9978ZM45.7889 38.8728L45.3401 38.6523L45.3371 38.6587L45.7889 38.8728ZM46.9289 37.5528L46.6616 37.1302L46.6577 37.1327L46.9289 37.5528ZM50.9789 38.4828V38.9828H51.6943L51.4485 38.311L50.9789 38.4828ZM50.8139 38.4828H50.3139V38.9828H50.8139V38.4828ZM51.1589 34.2678L51.5125 34.6213L51.1589 34.2678ZM53.1239 34.2678L52.7703 34.6214L52.778 34.6287L53.1239 34.2678ZM53.1389 44.4228L52.7853 44.0691L52.7776 44.0771L53.1389 44.4228ZM51.1889 44.4228L51.5425 44.0692L51.1889 44.4228ZM50.8439 42.5628L51.3318 42.4532L50.3439 42.5628H50.8439ZM51.0089 43.2978L51.4864 43.4463L51.5261 43.3187L51.4968 43.1882L51.0089 43.2978ZM50.1239 44.3928L50.3854 44.8189L50.3881 44.8173L50.1239 44.3928ZM50.1839 42.6378L50.4471 43.0629L50.4543 43.0584L50.4613 43.0538L50.1839 42.6378ZM50.6639 42.0228L50.2043 41.8258L50.2009 41.8341L50.6639 42.0228ZM50.4539 39.5028L50.076 39.8303L50.0816 39.8365L50.4539 39.5028ZM48.7439 39.2478L48.4808 38.8226L48.7439 39.2478ZM48.2489 39.8628L48.7059 40.0658L48.7085 40.0597L48.2489 39.8628ZM48.4589 42.3828L48.0811 42.7102L48.4589 42.3828ZM48.6089 44.2978C48.0651 44.2978 47.5994 44.1652 47.1963 43.9102L46.6616 44.7553C47.2385 45.1203 47.8928 45.2978 48.6089 45.2978V44.2978ZM47.2002 43.9127C46.8068 43.6587 46.4845 43.2884 46.2392 42.7804L45.3387 43.2151C45.6534 43.8671 46.091 44.3868 46.6577 44.7528L47.2002 43.9127ZM46.2422 42.7867C46.0093 42.2865 45.8839 41.6766 45.8839 40.9428H44.8839C44.8839 41.7889 45.0285 42.549 45.3356 43.2088L46.2422 42.7867ZM45.8839 40.9428C45.8839 40.1865 46.0102 39.5737 46.2408 39.0868L45.3371 38.6587C45.0277 39.3118 44.8839 40.079 44.8839 40.9428H45.8839ZM46.2377 39.0932C46.4823 38.5953 46.8046 38.2282 47.2002 37.9728L46.6577 37.1327C46.0932 37.4973 45.6556 38.0102 45.3402 38.6523L46.2377 39.0932ZM47.1963 37.9753C47.5994 37.7203 48.0651 37.5878 48.6089 37.5878V36.5878C47.8928 36.5878 47.2385 36.7652 46.6616 37.1302L47.1963 37.9753ZM48.6089 37.5878C49.0765 37.5878 49.4825 37.6972 49.8396 37.9082L50.3483 37.0473C49.8254 36.7383 49.2414 36.5878 48.6089 36.5878V37.5878ZM49.8396 37.9082C50.1979 38.12 50.4056 38.371 50.5094 38.6545L51.4485 38.311C51.2522 37.7745 50.87 37.3556 50.3483 37.0473L49.8396 37.9082ZM50.9789 37.9828H50.8139V38.9828H50.9789V37.9828ZM51.3139 38.4828V35.2728H50.3139V38.4828H51.3139ZM51.3139 35.2728C51.3139 34.9173 51.4055 34.7283 51.5125 34.6213L50.8054 33.9142C50.4524 34.2672 50.3139 34.7482 50.3139 35.2728H51.3139ZM51.5125 34.6213C51.6215 34.5123 51.8073 34.4228 52.1489 34.4228V33.4228C51.6306 33.4228 51.1564 33.5632 50.8054 33.9142L51.5125 34.6213ZM52.1489 34.4228C52.4767 34.4228 52.6593 34.5102 52.7704 34.6213L53.4775 33.9142C53.1286 33.5653 52.6612 33.4228 52.1489 33.4228V34.4228ZM52.778 34.6287C52.8907 34.7368 52.9839 34.9231 52.9839 35.2728H53.9839C53.9839 34.7425 53.8372 34.2587 53.4699 33.9068L52.778 34.6287ZM52.9839 35.2728V43.4178H53.9839V35.2728H52.9839ZM52.9839 43.4178C52.9839 43.7732 52.8923 43.9622 52.7854 44.0692L53.4925 44.7763C53.8455 44.4233 53.9839 43.9423 53.9839 43.4178H52.9839ZM52.7776 44.0771C52.6815 44.1777 52.5071 44.2678 52.1639 44.2678V45.2678C52.6808 45.2678 53.1564 45.1278 53.5003 44.7684L52.7776 44.0771ZM52.1639 44.2678C51.8362 44.2678 51.6536 44.1803 51.5425 44.0692L50.8354 44.7763C51.1843 45.1252 51.6517 45.2678 52.1639 45.2678V44.2678ZM51.5425 44.0692C51.4355 43.9622 51.3439 43.7732 51.3439 43.4178H50.3439C50.3439 43.9423 50.4823 44.4233 50.8354 44.7763L51.5425 44.0692ZM51.3439 43.4178V42.5628H50.3439V43.4178H51.3439ZM50.3561 42.6723L50.5211 43.4073L51.4968 43.1882L51.3318 42.4532L50.3561 42.6723ZM50.5315 43.1492C50.4316 43.4702 50.2214 43.7432 49.8598 43.9682L50.3881 44.8173C50.9264 44.4823 51.3062 44.0253 51.4864 43.4463L50.5315 43.1492ZM49.8624 43.9666C49.5091 44.1834 49.0965 44.2978 48.6089 44.2978V45.2978C49.2613 45.2978 49.8587 45.1421 50.3854 44.8189L49.8624 43.9666ZM49.4639 43.3328C49.8179 43.3328 50.1507 43.2463 50.4471 43.0629L49.9208 42.2126C49.7971 42.2892 49.6499 42.3328 49.4639 42.3328V43.3328ZM50.4613 43.0538C50.7669 42.85 50.9852 42.5593 51.127 42.2114L50.2009 41.8341C50.1226 42.0262 50.021 42.1455 49.9066 42.2217L50.4613 43.0538ZM51.1235 42.2197C51.2793 41.8563 51.3439 41.4228 51.3439 40.9428H50.3439C50.3439 41.3427 50.2886 41.6292 50.2044 41.8258L51.1235 42.2197ZM51.3439 40.9428C51.3439 40.231 51.2101 39.5972 50.8262 39.169L50.0816 39.8365C50.2177 39.9883 50.3439 40.3145 50.3439 40.9428H51.3439ZM50.8318 39.1753C50.476 38.7648 50.0077 38.5528 49.4639 38.5528V39.5528C49.7202 39.5528 49.9119 39.6408 50.0761 39.8302L50.8318 39.1753ZM49.4639 38.5528C49.1099 38.5528 48.7771 38.6392 48.4808 38.8226L49.0071 39.6729C49.1307 39.5963 49.2779 39.5528 49.4639 39.5528V38.5528ZM48.4808 38.8226C48.1648 39.0182 47.9403 39.3137 47.7894 39.6658L48.7085 40.0597C48.7976 39.8518 48.903 39.7373 49.0071 39.6729L48.4808 38.8226ZM47.792 39.6597C47.6327 40.0181 47.5689 40.4558 47.5689 40.9428H48.5689C48.5689 40.5297 48.6252 40.2474 48.7058 40.0658L47.792 39.6597ZM47.5689 40.9428C47.5689 41.6491 47.7046 42.2758 48.0811 42.7102L48.8368 42.0553C48.6933 41.8897 48.5689 41.5564 48.5689 40.9428H47.5689ZM48.0811 42.7102C48.4396 43.1238 48.9144 43.3328 49.4639 43.3328V42.3328C49.1935 42.3328 48.9983 42.2417 48.8368 42.0553L48.0811 42.7102ZM59.9827 44.1228L59.7525 44.5666L59.7551 44.568L59.9827 44.1228ZM59.4127 43.5828L58.9541 43.7821L58.9595 43.7944L58.9655 43.8064L59.4127 43.5828ZM59.3077 42.8928L58.8151 42.8071L58.8133 42.8175L58.8119 42.8281L59.3077 42.8928ZM59.5777 42.2778L59.1936 41.9577L59.1882 41.9641L59.183 41.9708L59.5777 42.2778ZM60.1327 41.9328L60.2435 42.4203L60.2512 42.4186L60.2589 42.4166L60.1327 41.9328ZM60.8827 42.0528L60.6524 42.4968L60.6645 42.5027L60.8827 42.0528ZM61.9027 42.4128L61.7913 42.9002L61.7942 42.9008L61.9027 42.4128ZM63.7777 42.3828L63.5854 41.9212L63.7777 42.3828ZM64.3177 41.9478L63.905 41.6654L63.8998 41.673L63.8949 41.6808L64.3177 41.9478ZM62.3677 40.0728L62.2464 39.5877L62.2415 39.5889L62.3677 40.0728ZM61.6477 40.4178L61.8871 40.8567L61.9086 40.845L61.9288 40.8312L61.6477 40.4178ZM61.1977 40.6278L61.3705 41.0969L61.3812 41.093L61.3917 41.0886L61.1977 40.6278ZM59.8177 40.4778L59.4641 40.8313L59.8177 40.4778ZM59.8627 34.3577L59.5177 33.9956L59.5091 34.0042L59.8627 34.3577ZM66.2977 34.3428L66.6421 33.9803L66.2977 34.3428ZM66.2977 36.0078L66.6421 36.3703L66.2977 36.0078ZM62.1577 36.2928V35.7928H61.6577V36.2928H62.1577ZM62.1577 38.6478V39.1478H62.6577V38.6478H62.1577ZM61.5277 38.6478L61.1481 38.3224L60.4406 39.1478H61.5277V38.6478ZM62.4727 38.0178L62.6417 38.4885L62.6522 38.4844L62.4727 38.0178ZM65.5177 38.2278L65.2705 38.6624L65.2771 38.666L65.5177 38.2278ZM66.7027 39.4128L66.2643 39.6534L66.268 39.6599L66.7027 39.4128ZM66.6277 43.1028L66.2024 42.8398L66.201 42.842L66.6277 43.1028ZM65.1877 44.3628L65.3995 44.8157L65.4026 44.8142L65.1877 44.3628ZM62.9677 44.2978C62.5258 44.2978 62.055 44.2471 61.5543 44.1432L61.3511 45.1223C61.9103 45.2384 62.4495 45.2978 62.9677 45.2978V44.2978ZM61.5543 44.1432C61.065 44.0416 60.6177 43.8858 60.2102 43.6775L59.7551 44.568C60.2477 44.8197 60.7804 45.0039 61.3511 45.1223L61.5543 44.1432ZM60.2128 43.6789C60.0141 43.5758 59.9124 43.4642 59.8599 43.3591L58.9655 43.8064C59.1329 44.1413 59.4112 44.3897 59.7525 44.5666L60.2128 43.6789ZM59.8712 43.3834C59.8043 43.2294 59.7861 43.0904 59.8035 42.9574L58.8119 42.8281C58.7692 43.1551 58.8211 43.4761 58.9541 43.7821L59.8712 43.3834ZM59.8003 42.9784C59.8266 42.8271 59.8839 42.6985 59.9724 42.5847L59.183 41.9708C58.9915 42.217 58.8688 42.4984 58.8151 42.8071L59.8003 42.9784ZM59.9618 42.5978C60.0444 42.4987 60.1348 42.445 60.2435 42.4203L60.0219 41.4452C59.6905 41.5205 59.4109 41.6968 59.1936 41.9577L59.9618 42.5978ZM60.2589 42.4166C60.3387 42.3957 60.4606 42.3971 60.6525 42.4966L61.1128 41.6089C60.7647 41.4284 60.3866 41.3498 60.0065 41.4489L60.2589 42.4166ZM60.6645 42.5027C61.0278 42.6788 61.4036 42.8116 61.7913 42.9002L62.0141 41.9253C61.7018 41.8539 61.3975 41.7467 61.1008 41.6028L60.6645 42.5027ZM61.7942 42.9008C62.1833 42.9873 62.5551 43.0328 62.9077 43.0328V42.0328C62.6403 42.0328 62.342 41.9982 62.0111 41.9247L61.7942 42.9008ZM62.9077 43.0328C63.2944 43.0328 63.6534 42.9762 63.97 42.8443L63.5854 41.9212C63.4219 41.9893 63.201 42.0328 62.9077 42.0328V43.0328ZM63.97 42.8443C64.2896 42.7111 64.5572 42.5049 64.7404 42.2147L63.8949 41.6808C63.8382 41.7706 63.7458 41.8544 63.5854 41.9212L63.97 42.8443ZM64.7303 42.2301C64.9244 41.9464 65.0127 41.62 65.0127 41.2728H64.0127C64.0127 41.4455 63.9709 41.5691 63.905 41.6654L64.7303 42.2301ZM65.0127 41.2728C65.0127 40.7472 64.8285 40.2849 64.4319 39.9471L63.7834 40.7084C63.9269 40.8306 64.0127 40.9983 64.0127 41.2728H65.0127ZM64.4319 39.9471C64.0493 39.6212 63.5637 39.4828 63.0277 39.4828V40.4828C63.3916 40.4828 63.6261 40.5743 63.7834 40.7084L64.4319 39.9471ZM63.0277 39.4828C62.7785 39.4828 62.5171 39.52 62.2464 39.5877L62.4889 40.5578C62.6982 40.5055 62.8769 40.4828 63.0277 40.4828V39.4828ZM62.2415 39.5889C61.9435 39.6667 61.6515 39.8105 61.3665 40.0043L61.9288 40.8312C62.1438 40.685 62.3319 40.5988 62.4939 40.5566L62.2415 39.5889ZM61.4083 39.9788C61.3193 40.0273 61.1867 40.0899 61.0037 40.1669L61.3917 41.0886C61.5887 41.0056 61.756 40.9282 61.8871 40.8567L61.4083 39.9788ZM61.0248 40.1586C60.8895 40.2084 60.753 40.2328 60.6127 40.2328V41.2328C60.8724 41.2328 61.1259 41.1871 61.3705 41.0969L61.0248 40.1586ZM60.6127 40.2328C60.3201 40.2328 60.2097 40.1626 60.1712 40.1242L59.4641 40.8313C59.7657 41.1329 60.1853 41.2328 60.6127 41.2328V40.2328ZM60.1712 40.1242C60.12 40.073 60.0627 39.9753 60.0627 39.7578H59.0627C59.0627 40.1602 59.1754 40.5425 59.4641 40.8313L60.1712 40.1242ZM60.0627 39.7578V35.2278H59.0627V39.7578H60.0627ZM60.0627 35.2278C60.0627 34.9334 60.1387 34.7889 60.2162 34.7113L59.5091 34.0042C59.1867 34.3266 59.0627 34.7621 59.0627 35.2278H60.0627ZM60.2075 34.7198C60.3009 34.6309 60.4542 34.5578 60.7327 34.5578V33.5578C60.2712 33.5578 59.8445 33.6846 59.5179 33.9957L60.2075 34.7198ZM60.7327 34.5578H65.4427V33.5578H60.7327V34.5578ZM65.4427 34.5578C65.7292 34.5578 65.8743 34.6302 65.9533 34.7052L66.6421 33.9803C66.3211 33.6753 65.8961 33.5578 65.4427 33.5578V34.5578ZM65.9533 34.7052C66.0235 34.7719 66.0977 34.9012 66.0977 35.1828H67.0977C67.0977 34.7243 66.9719 34.2936 66.6421 33.9803L65.9533 34.7052ZM66.0977 35.1828C66.0977 35.4496 66.0261 35.5761 65.9533 35.6453L66.6421 36.3703C66.9693 36.0594 67.0977 35.6359 67.0977 35.1828H66.0977ZM65.9533 35.6453C65.8743 35.7203 65.7292 35.7928 65.4427 35.7928V36.7928C65.8961 36.7928 66.3211 36.6752 66.6421 36.3703L65.9533 35.6453ZM65.4427 35.7928H62.1577V36.7928H65.4427V35.7928ZM61.6577 36.2928V38.6478H62.6577V36.2928H61.6577ZM62.1577 38.1478H61.5277V39.1478H62.1577V38.1478ZM61.9073 38.9731C62.0841 38.7668 62.323 38.6027 62.6416 38.4883L62.3037 37.5472C61.8424 37.7128 61.4512 37.9687 61.1481 38.3224L61.9073 38.9731ZM62.6522 38.4844C62.9794 38.3586 63.3429 38.2928 63.7477 38.2928V37.2928C63.2325 37.2928 62.746 37.3769 62.2932 37.5511L62.6522 38.4844ZM63.7477 38.2928C64.3435 38.2928 64.846 38.421 65.2705 38.6624L65.7648 37.7931C65.1693 37.4545 64.4918 37.2928 63.7477 37.2928V38.2928ZM65.2771 38.666C65.7037 38.9003 66.0301 39.2267 66.2644 39.6534L67.141 39.1721C66.8152 38.5788 66.3516 38.1152 65.7583 37.7895L65.2771 38.666ZM66.268 39.6599C66.5088 40.0833 66.6377 40.5905 66.6377 41.1978H67.6377C67.6377 40.445 67.4766 39.7622 67.1373 39.1656L66.268 39.6599ZM66.6377 41.1978C66.6377 41.8357 66.4881 42.3776 66.2024 42.8398L67.053 43.3657C67.4472 42.7279 67.6377 41.9998 67.6377 41.1978H66.6377ZM66.201 42.842C65.9267 43.2909 65.5245 43.6486 64.9727 43.9113L65.4026 44.8142C66.1109 44.4769 66.6686 43.9946 67.0543 43.3635L66.201 42.842ZM64.9758 43.9098C64.4369 44.1619 63.7727 44.2978 62.9677 44.2978V45.2978C63.8827 45.2978 64.6985 45.1436 65.3995 44.8157L64.9758 43.9098Z" fill="url(#paint7_linear_2193_3147)" mask="url(#path-13-outside-1_2193_3147)"/>
</g>
<path fill-rule="evenodd" clip-rule="evenodd" d="M62.0489 85.6012C62.0489 85.6012 66.0202 86.0899 66.3256 87.1897C66.6311 88.2894 63.5763 90.8554 63.5763 90.8554C63.5763 90.8554 64.3095 94.7655 63.3931 95.4376C62.4766 96.1096 59.0553 93.9713 59.0553 93.9713C59.0553 93.9713 55.5728 95.9263 54.6564 95.1932C53.7399 94.5211 54.7175 90.611 54.7175 90.611C54.7175 90.611 51.7849 87.8617 52.2125 86.762C52.5791 85.6623 56.6114 85.4179 56.6114 85.4179C56.6114 85.4179 58.3221 81.8132 59.4829 81.8132C60.5215 81.8743 62.0489 85.6012 62.0489 85.6012Z" fill="url(#paint8_linear_2193_3147)"/>
<path fill-rule="evenodd" clip-rule="evenodd" d="M61.4354 86.3345C61.4354 86.3345 64.6735 86.7621 64.979 87.6786C65.2234 88.595 62.7185 90.6722 62.7185 90.6722C62.7185 90.6722 63.3294 93.9103 62.5352 94.4602C61.7409 95.01 58.9916 93.2383 58.9916 93.2383C58.9916 93.2383 56.1201 94.8268 55.387 94.2158C54.6538 93.6659 55.4481 90.4279 55.4481 90.4279C55.4481 90.4279 53.0653 88.1673 53.3708 87.312C53.6763 86.3955 56.9755 86.2123 56.9755 86.2123C56.9755 86.2123 58.3807 83.2186 59.2971 83.2797C60.2135 83.2797 61.4354 86.3345 61.4354 86.3345Z" fill="#0B4C53"/>
<path fill-rule="evenodd" clip-rule="evenodd" d="M61.3167 86.4566C61.3167 86.4566 64.4326 86.8231 64.677 87.7396C64.9213 88.5949 62.5386 90.6111 62.5386 90.6111C62.5386 90.6111 63.1496 93.7269 62.3553 94.2157C61.6222 94.7045 58.934 93.0549 58.934 93.0549C58.934 93.0549 56.1847 94.5823 55.4515 94.0324C54.7184 93.4826 55.5126 90.4278 55.5126 90.4278C55.5126 90.4278 53.191 88.2894 53.4965 87.4341C53.8019 86.5787 56.9178 86.3955 56.9178 86.3955C56.9178 86.3955 58.2619 83.524 59.1783 83.5851C60.1559 83.5851 61.3167 86.4566 61.3167 86.4566Z" fill="url(#paint9_radial_2193_3147)"/>
<path fill-rule="evenodd" clip-rule="evenodd" d="M77.2696 85.6012C77.2696 85.6012 81.2409 86.0899 81.5463 87.1897C81.8518 88.2894 78.797 90.8554 78.797 90.8554C78.797 90.8554 79.5302 94.7655 78.6138 95.4376C77.6973 96.1096 74.276 93.9713 74.276 93.9713C74.276 93.9713 70.7935 95.9263 69.8771 95.1932C68.9606 94.5211 69.9382 90.611 69.9382 90.611C69.9382 90.611 67.0056 87.8617 67.4332 86.762C67.7998 85.6623 71.8321 85.4179 71.8321 85.4179C71.8321 85.4179 73.5428 81.8132 74.7036 81.8132C75.7422 81.8743 77.2696 85.6012 77.2696 85.6012Z" fill="url(#paint10_linear_2193_3147)"/>
<path fill-rule="evenodd" clip-rule="evenodd" d="M76.6561 86.3345C76.6561 86.3345 79.8942 86.7621 80.1997 87.6786C80.4441 88.595 77.9392 90.6722 77.9392 90.6722C77.9392 90.6722 78.5501 93.9103 77.7559 94.4602C76.9616 95.01 74.2123 93.2383 74.2123 93.2383C74.2123 93.2383 71.3408 94.8268 70.6077 94.2158C69.8745 93.6659 70.6688 90.4279 70.6688 90.4279C70.6688 90.4279 68.286 88.1673 68.5915 87.312C68.897 86.3955 72.1962 86.2123 72.1962 86.2123C72.1962 86.2123 73.6014 83.2186 74.5178 83.2797C75.4342 83.2797 76.6561 86.3345 76.6561 86.3345Z" fill="#0B4C53"/>
<path fill-rule="evenodd" clip-rule="evenodd" d="M76.5374 86.4566C76.5374 86.4566 79.6533 86.8231 79.8977 87.7396C80.142 88.5949 77.7593 90.6111 77.7593 90.6111C77.7593 90.6111 78.3703 93.7269 77.576 94.2157C76.8429 94.7045 74.1547 93.0549 74.1547 93.0549C74.1547 93.0549 71.4054 94.5823 70.6722 94.0324C69.9391 93.4826 70.7333 90.4278 70.7333 90.4278C70.7333 90.4278 68.4117 88.2894 68.7172 87.4341C69.0226 86.5787 72.1385 86.3955 72.1385 86.3955C72.1385 86.3955 73.4826 83.524 74.399 83.5851C75.3766 83.5851 76.5374 86.4566 76.5374 86.4566Z" fill="url(#paint11_radial_2193_3147)"/>
<path fill-rule="evenodd" clip-rule="evenodd" d="M46.8302 85.6012C46.8302 85.6012 50.8014 86.0899 51.1069 87.1897C51.4124 88.2894 48.3576 90.8554 48.3576 90.8554C48.3576 90.8554 49.0907 94.7655 48.1743 95.4376C47.2579 96.1096 43.8365 93.9713 43.8365 93.9713C43.8365 93.9713 40.354 95.9263 39.4376 95.1932C38.5212 94.5211 39.4987 90.611 39.4987 90.611C39.4987 90.611 36.5661 87.8617 36.9938 86.762C37.3604 85.6623 41.3927 85.4179 41.3927 85.4179C41.3927 85.4179 43.1033 81.8132 44.2642 81.8132C45.3028 81.8743 46.8302 85.6012 46.8302 85.6012Z" fill="url(#paint12_linear_2193_3147)"/>
<path fill-rule="evenodd" clip-rule="evenodd" d="M46.2167 86.3345C46.2167 86.3345 49.4548 86.7621 49.7602 87.6786C50.0046 88.595 47.4997 90.6722 47.4997 90.6722C47.4997 90.6722 48.1106 93.9103 47.3164 94.4602C46.5222 95.01 43.7729 93.2383 43.7729 93.2383C43.7729 93.2383 40.9014 94.8268 40.1682 94.2158C39.4351 93.6659 40.2293 90.4279 40.2293 90.4279C40.2293 90.4279 37.8466 88.1673 38.152 87.312C38.4575 86.3955 41.7567 86.2123 41.7567 86.2123C41.7567 86.2123 43.1619 83.2186 44.0783 83.2797C44.9948 83.2797 46.2167 86.3345 46.2167 86.3345Z" fill="#0B4C53"/>
<path fill-rule="evenodd" clip-rule="evenodd" d="M46.0979 86.4566C46.0979 86.4566 49.2138 86.8231 49.4582 87.7396C49.7026 88.5949 47.3199 90.6111 47.3199 90.6111C47.3199 90.6111 47.9308 93.7269 47.1366 94.2157C46.4034 94.7045 43.7152 93.0549 43.7152 93.0549C43.7152 93.0549 40.9659 94.5823 40.2328 94.0324C39.4996 93.4826 40.2939 90.4278 40.2939 90.4278C40.2939 90.4278 37.9722 88.2894 38.2777 87.4341C38.5832 86.5787 41.6991 86.3955 41.6991 86.3955C41.6991 86.3955 43.0432 83.524 43.9596 83.5851C44.9371 83.5851 46.0979 86.4566 46.0979 86.4566Z" fill="url(#paint13_radial_2193_3147)"/>
<path fill-rule="evenodd" clip-rule="evenodd" d="M31.6095 85.6012C31.6095 85.6012 35.5807 86.0899 35.8862 87.1897C36.1917 88.2894 33.1369 90.8554 33.1369 90.8554C33.1369 90.8554 33.87 94.7655 32.9536 95.4376C32.0372 96.1096 28.6158 93.9713 28.6158 93.9713C28.6158 93.9713 25.1333 95.9263 24.2169 95.1932C23.3005 94.5211 24.278 90.611 24.278 90.611C24.278 90.611 21.3454 87.8617 21.7731 86.762C22.1397 85.6623 26.172 85.4179 26.172 85.4179C26.172 85.4179 27.8826 81.8132 29.0435 81.8132C30.0821 81.8743 31.6095 85.6012 31.6095 85.6012Z" fill="url(#paint14_linear_2193_3147)"/>
<path fill-rule="evenodd" clip-rule="evenodd" d="M30.996 86.3345C30.996 86.3345 34.234 86.7621 34.5395 87.6786C34.7839 88.595 32.279 90.6722 32.279 90.6722C32.279 90.6722 32.8899 93.9103 32.0957 94.4602C31.3015 95.01 28.5522 93.2383 28.5522 93.2383C28.5522 93.2383 25.6807 94.8268 24.9475 94.2158C24.2144 93.6659 25.0086 90.4279 25.0086 90.4279C25.0086 90.4279 22.6259 88.1673 22.9313 87.312C23.2368 86.3955 26.536 86.2123 26.536 86.2123C26.536 86.2123 27.9412 83.2186 28.8576 83.2797C29.7741 83.2797 30.996 86.3345 30.996 86.3345Z" fill="#0B4C53"/>
<path fill-rule="evenodd" clip-rule="evenodd" d="M30.8763 86.4566C30.8763 86.4566 33.9921 86.8231 34.2365 87.7396C34.4809 88.5949 32.0982 90.6111 32.0982 90.6111C32.0982 90.6111 32.7091 93.7269 31.9149 94.2157C31.1818 94.7045 28.4935 93.0549 28.4935 93.0549C28.4935 93.0549 25.7442 94.5823 25.0111 94.0324C24.2779 93.4826 25.0722 90.4278 25.0722 90.4278C25.0722 90.4278 22.7505 88.2894 23.056 87.4341C23.3615 86.5787 26.4774 86.3955 26.4774 86.3955C26.4774 86.3955 27.8215 83.524 28.7379 83.5851C29.7154 83.5851 30.8763 86.4566 30.8763 86.4566Z" fill="url(#paint15_radial_2193_3147)"/>
<path fill-rule="evenodd" clip-rule="evenodd" d="M16.3898 85.6012C16.3898 85.6012 20.361 86.0899 20.6665 87.1897C20.9719 88.2894 17.9172 90.8554 17.9172 90.8554C17.9172 90.8554 18.6503 94.7655 17.7339 95.4376C16.8174 96.1096 13.3961 93.9713 13.3961 93.9713C13.3961 93.9713 9.91361 95.9263 8.99718 95.1932C8.08074 94.5211 9.05828 90.611 9.05828 90.611C9.05828 90.611 6.12568 87.8617 6.55335 86.762C6.91993 85.6623 10.9522 85.4179 10.9522 85.4179C10.9522 85.4179 12.6629 81.8132 13.8237 81.8132C14.8624 81.8743 16.3898 85.6012 16.3898 85.6012Z" fill="url(#paint16_linear_2193_3147)"/>
<path fill-rule="evenodd" clip-rule="evenodd" d="M15.7763 86.3345C15.7763 86.3345 19.0143 86.7621 19.3198 87.6786C19.5642 88.595 17.0593 90.6722 17.0593 90.6722C17.0593 90.6722 17.6702 93.9103 16.876 94.4602C16.0817 95.01 13.3324 93.2383 13.3324 93.2383C13.3324 93.2383 10.4609 94.8268 9.72779 94.2158C8.99464 93.6659 9.78889 90.4279 9.78889 90.4279C9.78889 90.4279 7.40614 88.1673 7.71162 87.312C8.0171 86.3955 11.3163 86.2123 11.3163 86.2123C11.3163 86.2123 12.7215 83.2186 13.6379 83.2797C14.5543 83.2797 15.7763 86.3345 15.7763 86.3345Z" fill="#0B4C53"/>
<path fill-rule="evenodd" clip-rule="evenodd" d="M15.6575 86.4566C15.6575 86.4566 18.7734 86.8231 19.0178 87.7396C19.2622 88.5949 16.8794 90.6111 16.8794 90.6111C16.8794 90.6111 17.4904 93.7269 16.6961 94.2157C15.963 94.7045 13.2748 93.0549 13.2748 93.0549C13.2748 93.0549 10.5255 94.5823 9.79234 94.0324C9.05919 93.4826 9.85342 90.4278 9.85342 90.4278C9.85342 90.4278 7.53179 88.2894 7.83727 87.4341C8.14275 86.5787 11.2586 86.3955 11.2586 86.3955C11.2586 86.3955 12.6027 83.524 13.5192 83.5851C14.4967 83.5851 15.6575 86.4566 15.6575 86.4566Z" fill="url(#paint17_radial_2193_3147)"/>
<defs>
<filter id="filter0_d_2193_3147" x="14.4414" y="17.3928" width="57.1953" height="35.905" filterUnits="userSpaceOnUse" color-interpolation-filters="sRGB">
<feFlood flood-opacity="0" result="BackgroundImageFix"/>
<feColorMatrix in="SourceAlpha" type="matrix" values="0 0 0 0 0 0 0 0 0 0 0 0 0 0 0 0 0 0 127 0" result="hardAlpha"/>
<feOffset dy="4"/>
<feGaussianBlur stdDeviation="2"/>
<feComposite in2="hardAlpha" operator="out"/>
<feColorMatrix type="matrix" values="0 0 0 0 0 0 0 0 0 0 0 0 0 0 0 0 0 0 0.38 0"/>
<feBlend mode="normal" in2="BackgroundImageFix" result="effect1_dropShadow_2193_3147"/>
<feBlend mode="normal" in="SourceGraphic" in2="effect1_dropShadow_2193_3147" result="shape"/>
</filter>
<linearGradient id="paint0_linear_2193_3147" x1="44.2248" y1="75.2545" x2="44.2248" y2="2.66402" gradientUnits="userSpaceOnUse">
<stop stop-color="white"/>
<stop offset="1" stop-color="white"/>
</linearGradient>
<linearGradient id="paint1_linear_2193_3147" x1="44.2256" y1="72.8989" x2="44.2256" y2="0.306172" gradientUnits="userSpaceOnUse">
<stop stop-color="white"/>
<stop offset="1" stop-color="white"/>
</linearGradient>
<radialGradient id="paint2_radial_2193_3147" cx="0" cy="0" r="1" gradientUnits="userSpaceOnUse" gradientTransform="translate(44.7607 63.5047) scale(31.2938 55.9461)">
<stop stop-color="#0D6C76"/>
<stop offset="1" stop-color="#45C3D2"/>
</radialGradient>
<linearGradient id="paint3_linear_2193_3147" x1="43.4511" y1="64.6646" x2="43.4511" y2="4.75594" gradientUnits="userSpaceOnUse">
<stop stop-color="#5DCFDC"/>
<stop offset="1" stop-color="#11737E"/>
</linearGradient>
<linearGradient id="paint4_linear_2193_3147" x1="43.4497" y1="63.5398" x2="43.4497" y2="5.40306" gradientUnits="userSpaceOnUse">
<stop stop-color="#45C2D1"/>
<stop offset="0.958333" stop-color="#0E6E79"/>
</linearGradient>
<linearGradient id="paint5_linear_2193_3147" x1="8.73315" y1="17.0794" x2="81.7839" y2="17.0794" gradientUnits="userSpaceOnUse">
<stop stop-color="#FF9840"/>
<stop offset="0.0972342" stop-color="#EF8E3C"/>
<stop offset="0.2877" stop-color="#C57531"/>
<stop offset="0.5527" stop-color="#814D20"/>
<stop offset="0.879" stop-color="#241609"/>
<stop offset="1"/>
</linearGradient>
<linearGradient id="paint6_linear_2193_3147" x1="78.4961" y1="56.3499" x2="8.85456" y2="56.3499" gradientUnits="userSpaceOnUse">
<stop stop-color="#FF6140"/>
<stop offset="0.0972342" stop-color="#EF5B3C"/>
<stop offset="0.2877" stop-color="#C54B31"/>
<stop offset="0.5527" stop-color="#813120"/>
<stop offset="0.879" stop-color="#240E09"/>
<stop offset="1"/>
</linearGradient>
<linearGradient id="paint7_linear_2193_3147" x1="42.759" y1="15.6328" x2="42.759" y2="53.2163" gradientUnits="userSpaceOnUse">
<stop stop-color="#42BFCD"/>
<stop offset="1" stop-color="#11727D"/>
</linearGradient>
<linearGradient id="paint8_linear_2193_3147" x1="63.0373" y1="95.6372" x2="56.0996" y2="83.6207" gradientUnits="userSpaceOnUse">
<stop stop-color="#F4F3F1"/>
<stop offset="1" stop-color="#FBF9FE"/>
</linearGradient>
<radialGradient id="paint9_radial_2193_3147" cx="0" cy="0" r="1" gradientUnits="userSpaceOnUse" gradientTransform="translate(57.8759 86.7889) scale(5.49378 5.49378)">
<stop stop-color="#56C7D4"/>
<stop offset="0.9973" stop-color="#19727C"/>
</radialGradient>
<linearGradient id="paint10_linear_2193_3147" x1="78.2581" y1="95.6372" x2="71.3203" y2="83.6207" gradientUnits="userSpaceOnUse">
<stop stop-color="#F4F3F1"/>
<stop offset="1" stop-color="#FBF9FE"/>
</linearGradient>
<radialGradient id="paint11_radial_2193_3147" cx="0" cy="0" r="1" gradientUnits="userSpaceOnUse" gradientTransform="translate(73.0966 86.7889) scale(5.49378 5.49378)">
<stop stop-color="#56C7D4"/>
<stop offset="0.9973" stop-color="#19727C"/>
</radialGradient>
<linearGradient id="paint12_linear_2193_3147" x1="47.8186" y1="95.6372" x2="40.8808" y2="83.6207" gradientUnits="userSpaceOnUse">
<stop stop-color="#F4F3F1"/>
<stop offset="1" stop-color="#FBF9FE"/>
</linearGradient>
<radialGradient id="paint13_radial_2193_3147" cx="0" cy="0" r="1" gradientUnits="userSpaceOnUse" gradientTransform="translate(42.6572 86.7889) scale(5.49378 5.49378)">
<stop stop-color="#56C7D4"/>
<stop offset="0.9973" stop-color="#19727C"/>
</radialGradient>
<linearGradient id="paint14_linear_2193_3147" x1="32.5979" y1="95.6372" x2="25.6601" y2="83.6207" gradientUnits="userSpaceOnUse">
<stop stop-color="#F4F3F1"/>
<stop offset="1" stop-color="#FBF9FE"/>
</linearGradient>
<radialGradient id="paint15_radial_2193_3147" cx="0" cy="0" r="1" gradientUnits="userSpaceOnUse" gradientTransform="translate(27.4355 86.7889) scale(5.49378 5.49378)">
<stop stop-color="#56C7D4"/>
<stop offset="0.9973" stop-color="#19727C"/>
</radialGradient>
<linearGradient id="paint16_linear_2193_3147" x1="17.3782" y1="95.6372" x2="10.4404" y2="83.6207" gradientUnits="userSpaceOnUse">
<stop stop-color="#F4F3F1"/>
<stop offset="1" stop-color="#FBF9FE"/>
</linearGradient>
<radialGradient id="paint17_radial_2193_3147" cx="0" cy="0" r="1" gradientUnits="userSpaceOnUse" gradientTransform="translate(12.2167 86.7889) scale(5.49378 5.49378)">
<stop stop-color="#56C7D4"/>
<stop offset="0.9973" stop-color="#19727C"/>
</radialGradient>
</defs>
</svg>
