<svg width="88" height="96" viewBox="0 0 88 96" fill="none" xmlns="http://www.w3.org/2000/svg">
<path d="M84.2616 66.3897C84.1983 66.5027 84.0719 66.7288 84.0086 66.8419C76.5479 77.8062 11.6139 77.3541 2.57243 67.5201C2.06661 66.9549 1.75048 66.5028 1.62403 65.9376C-1.60054 54.0689 0.169816 18.1238 5.22797 10.3244C10.6655 1.95979 75.9788 -1.77035 82.6809 8.85494C87.739 16.6543 90.0784 55.5384 84.2616 66.3897Z" fill="url(#paint0_linear_2193_4745)"/>
<path d="M1.6879 63.5635C4.78601 75.093 77.9395 75.9973 84.3254 64.0156C90.1423 53.1642 87.7397 14.2802 82.808 6.48082C76.0427 -4.14446 10.7926 -0.301289 5.35505 7.95026C0.233672 15.7497 -1.53667 51.6948 1.6879 63.5635Z" fill="url(#paint1_linear_2193_4745)"/>
<path d="M4.65625 59.7213C4.65625 59.7213 14.5196 69.2162 44.9318 69.2162C75.3439 69.2162 80.2124 59.7213 80.2124 59.7213H4.65625Z" fill="white"/>
<path d="M84.0075 59.7201V66.9543C76.5467 77.9187 11.6127 77.4666 2.57129 67.6325L2.76098 65.4849L4.59456 59.7201L82.6165 53.2771L84.0075 59.7201Z" fill="#F4F3F1"/>
<path d="M3.96366 58.3629C6.74564 68.7621 74.7145 71.701 80.5314 60.8497C85.7792 51.0156 83.6295 15.6357 79.1404 8.62751C73.0074 -0.980456 12.6257 5.80165 7.69404 13.375C3.01525 20.3832 1.05522 47.5115 3.96366 58.3629Z" fill="url(#paint2_radial_2193_4745)"/>
<path d="M4.15367 56.5564C6.93566 66.6165 74.5252 67.2948 80.2788 56.8955C85.5266 47.4006 83.4402 15.8638 78.9511 9.08173C72.8181 -0.18713 12.6893 6.3689 7.75761 13.6031C3.20528 20.3852 1.30847 46.1572 4.15367 56.5564Z" fill="url(#paint3_linear_2193_4745)"/>
<path d="M5.0375 55.6518C7.75626 65.3728 73.8283 66.164 79.5188 55.9909C84.6401 46.722 82.6169 16.2026 78.2542 9.64658C72.3109 0.716816 13.4467 6.93373 8.57821 14.0549C4.02588 20.611 2.1923 45.4787 5.0375 55.6518Z" fill="url(#paint4_linear_2193_4745)"/>
<path d="M8.38574 14.0533C8.38574 14.0533 54.4781 -2.67585 78.3779 9.758C78.3779 9.758 80.4644 14.5055 81.4128 21.8528C81.4128 21.8528 72.6875 27.3915 60.4214 28.4088C48.1554 29.4261 35.2572 16.9922 24.888 15.1837C14.5188 13.3751 8.38574 14.0533 8.38574 14.0533Z" fill="url(#paint5_linear_2193_4745)" fill-opacity="0.1"/>
<path d="M78.1304 56.1041C78.1304 56.1041 47.2757 65.8251 8.51758 57.2345C8.51758 57.2345 33.7451 61.1907 44.9363 57.2345C63.9675 50.6784 73.1354 48.7568 78.1304 56.1041Z" fill="url(#paint6_linear_2193_4745)" fill-opacity="0.1"/>
<path d="M6.68359 18.2374C6.68359 18.2374 7.632 14.7333 9.90817 12.8117C12.1211 10.8901 18.507 8.96851 18.8864 9.53369C19.2658 9.98583 15.7883 12.2465 13.9547 13.4899C12.1211 14.6203 7.56877 19.1417 6.68359 18.2374Z" fill="black" fill-opacity="0.14"/>
<path d="M6.4271 19.2539C5.98451 19.3669 4.78321 25.8099 4.90966 26.8273C4.97289 27.8446 6.36388 24.5666 6.55356 22.758C6.80647 20.9494 6.4271 19.2539 6.4271 19.2539Z" fill="black" fill-opacity="0.14"/>
<path d="M77.3047 58.9274C76.9886 57.91 79.8338 53.1626 80.5293 53.2756C81.2248 53.2756 80.5925 56.3275 80.1499 57.1188C79.7705 57.684 77.4944 59.3795 77.3047 58.9274Z" fill="white"/>
<path d="M84.2616 66.3898C84.1983 66.5028 84.0719 66.7289 84.0086 66.8419C76.5479 77.8063 11.6139 77.3542 2.57243 67.5201C2.06661 66.9549 1.75048 66.5028 1.62403 65.9376C-1.60054 54.069 0.169816 18.1239 5.22797 10.3244C10.6655 1.95985 75.9788 -1.77028 82.6809 8.855C87.739 16.6544 90.0784 55.5384 84.2616 66.3898Z" fill="url(#paint7_linear_2193_4745)"/>
<path d="M1.6879 63.5635C4.78601 75.0931 77.9395 75.9974 84.3254 64.0157C90.1423 53.1643 87.7397 14.2803 82.808 6.48088C76.0427 -4.1444 10.7926 -0.301228 5.35505 7.95032C0.233672 15.7497 -1.53667 51.6949 1.6879 63.5635Z" fill="url(#paint8_linear_2193_4745)"/>
<path d="M4.65625 59.7213C4.65625 59.7213 14.5196 69.2162 44.9318 69.2162C75.3439 69.2162 80.2124 59.7213 80.2124 59.7213H4.65625Z" fill="white"/>
<path d="M84.0075 59.7201V66.9543C76.5467 77.9187 11.6127 77.4666 2.57129 67.6325L2.76098 65.4849L4.59456 59.7201L82.6165 53.2771L84.0075 59.7201Z" fill="#F4F3F1"/>
<path d="M3.96366 58.3629C6.74564 68.7622 74.7145 71.7011 80.5314 60.8497C85.7792 51.0157 83.6295 15.6357 79.1404 8.62757C73.0074 -0.980395 12.6257 5.80171 7.69404 13.3751C3.01525 20.3832 1.05522 47.5116 3.96366 58.3629Z" fill="url(#paint9_radial_2193_4745)"/>
<path d="M4.15367 56.5565C6.93566 66.6166 74.5252 67.2948 80.2788 56.8956C85.5266 47.4007 83.4402 15.8639 78.9511 9.0818C72.8181 -0.187069 12.6893 6.36896 7.75761 13.6032C3.20528 20.3853 1.30847 46.1573 4.15367 56.5565Z" fill="url(#paint10_linear_2193_4745)"/>
<path d="M5.0375 55.6519C7.75626 65.3729 73.8283 66.1641 79.5188 55.991C84.6401 46.7221 82.6169 16.2027 78.2542 9.64664C72.3109 0.716877 13.4467 6.93379 8.57821 14.055C4.02588 20.611 2.1923 45.4787 5.0375 55.6519Z" fill="url(#paint11_linear_2193_4745)"/>
<path d="M8.38574 14.0534C8.38574 14.0534 54.4781 -2.67579 78.3779 9.75806C78.3779 9.75806 80.4644 14.5055 81.4128 21.8528C81.4128 21.8528 72.6875 27.3915 60.4214 28.4088C48.1554 29.4261 35.2572 16.9923 24.888 15.1837C14.5188 13.3752 8.38574 14.0534 8.38574 14.0534Z" fill="url(#paint12_linear_2193_4745)" fill-opacity="0.1"/>
<path d="M78.1304 56.1042C78.1304 56.1042 47.2757 65.8252 8.51758 57.2345C8.51758 57.2345 33.7451 61.1907 44.9363 57.2345C63.9675 50.6785 73.1354 48.7569 78.1304 56.1042Z" fill="url(#paint13_linear_2193_4745)" fill-opacity="0.1"/>
<path d="M6.68359 18.2375C6.68359 18.2375 7.632 14.7334 9.90817 12.8118C12.1211 10.8902 18.507 8.96857 18.8864 9.53375C19.2658 9.98589 15.7883 12.2466 13.9547 13.49C12.1211 14.6203 7.56877 19.1417 6.68359 18.2375Z" fill="black" fill-opacity="0.14"/>
<path d="M6.4271 19.254C5.98451 19.367 4.78321 25.81 4.90966 26.8273C4.97289 27.8446 6.36388 24.5666 6.55356 22.7581C6.80647 20.9495 6.4271 19.254 6.4271 19.254Z" fill="black" fill-opacity="0.14"/>
<path d="M77.3047 58.9274C76.9886 57.9101 79.8338 53.1626 80.5293 53.2757C81.2248 53.2757 80.5925 56.3276 80.1499 57.1188C79.7705 57.684 77.4944 59.3796 77.3047 58.9274Z" fill="white"/>
<g filter="url(#filter0_d_2193_4745)">
<mask id="path-25-outside-1_2193_4745" maskUnits="userSpaceOnUse" x="17.2168" y="16.3907" width="51" height="29" fill="black">
<rect fill="white" x="17.2168" y="16.3907" width="51" height="29"/>
<path d="M26.0616 28.5557C25.6616 28.5557 25.2416 28.5257 24.8016 28.4657C24.3716 28.4157 23.9616 28.3357 23.5716 28.2257C23.1816 28.1157 22.8316 27.9857 22.5216 27.8357C22.2516 27.7057 22.0616 27.5357 21.9516 27.3257C21.8416 27.1057 21.8016 26.8757 21.8316 26.6357C21.8616 26.3957 21.9466 26.1857 22.0866 26.0057C22.2266 25.8157 22.4116 25.6907 22.6416 25.6307C22.8716 25.5607 23.1316 25.5907 23.4216 25.7207C23.8016 25.9007 24.2316 26.0407 24.7116 26.1407C25.1916 26.2407 25.6416 26.2907 26.0616 26.2907C26.7216 26.2907 27.1816 26.2057 27.4416 26.0357C27.7116 25.8557 27.8466 25.6357 27.8466 25.3757C27.8466 25.1457 27.7516 24.9607 27.5616 24.8207C27.3816 24.6807 27.0566 24.5607 26.5866 24.4607L24.8316 24.0857C23.8716 23.8857 23.1566 23.5357 22.6866 23.0357C22.2166 22.5357 21.9816 21.8907 21.9816 21.1007C21.9816 20.5807 22.0866 20.1107 22.2966 19.6907C22.5166 19.2607 22.8216 18.8957 23.2116 18.5957C23.6116 18.2957 24.0816 18.0657 24.6216 17.9057C25.1716 17.7357 25.7816 17.6507 26.4516 17.6507C26.9716 17.6507 27.4966 17.7107 28.0266 17.8307C28.5666 17.9407 29.0316 18.1107 29.4216 18.3407C29.6516 18.4607 29.8166 18.6257 29.9166 18.8357C30.0166 19.0457 30.0566 19.2657 30.0366 19.4957C30.0166 19.7157 29.9366 19.9107 29.7966 20.0807C29.6666 20.2507 29.4866 20.3657 29.2566 20.4257C29.0366 20.4757 28.7716 20.4357 28.4616 20.3057C28.1716 20.1757 27.8416 20.0807 27.4716 20.0207C27.1116 19.9507 26.7616 19.9157 26.4216 19.9157C26.0516 19.9157 25.7366 19.9607 25.4766 20.0507C25.2166 20.1307 25.0166 20.2507 24.8766 20.4107C24.7466 20.5707 24.6816 20.7557 24.6816 20.9657C24.6816 21.1757 24.7666 21.3557 24.9366 21.5057C25.1166 21.6457 25.4416 21.7657 25.9116 21.8657L27.6516 22.2407C28.6216 22.4507 29.3466 22.7957 29.8266 23.2757C30.3066 23.7557 30.5466 24.3807 30.5466 25.1507C30.5466 25.6707 30.4416 26.1407 30.2316 26.5607C30.0216 26.9807 29.7216 27.3407 29.3316 27.6407C28.9416 27.9307 28.4716 28.1557 27.9216 28.3157C27.3716 28.4757 26.7516 28.5557 26.0616 28.5557ZM35.4749 28.5557C34.7249 28.5557 34.1049 28.4407 33.6149 28.2107C33.1349 27.9807 32.7749 27.6357 32.5349 27.1757C32.2949 26.7057 32.1749 26.1207 32.1749 25.4207V22.9757H31.6649C31.3449 22.9757 31.0949 22.8907 30.9149 22.7207C30.7449 22.5507 30.6599 22.3057 30.6599 21.9857C30.6599 21.6657 30.7449 21.4257 30.9149 21.2657C31.0949 21.0957 31.3449 21.0107 31.6649 21.0107H32.1749V20.0807C32.1749 19.6407 32.2899 19.3057 32.5199 19.0757C32.7499 18.8457 33.0799 18.7307 33.5099 18.7307C33.9399 18.7307 34.2699 18.8457 34.4999 19.0757C34.7299 19.3057 34.8449 19.6407 34.8449 20.0807V21.0107H36.0749C36.4049 21.0107 36.6549 21.0957 36.8249 21.2657C37.0049 21.4257 37.0949 21.6657 37.0949 21.9857C37.0949 22.3057 37.0049 22.5507 36.8249 22.7207C36.6549 22.8907 36.4049 22.9757 36.0749 22.9757H34.8449V25.3307C34.8449 25.7007 34.9299 25.9757 35.0999 26.1557C35.2799 26.3257 35.5599 26.4107 35.9399 26.4107C36.0799 26.4107 36.2149 26.3957 36.3449 26.3657C36.4749 26.3357 36.5949 26.3207 36.7049 26.3207C36.8649 26.3107 36.9949 26.3607 37.0949 26.4707C37.1949 26.5707 37.2449 26.8057 37.2449 27.1757C37.2449 27.4757 37.1999 27.7307 37.1099 27.9407C37.0199 28.1407 36.8599 28.2857 36.6299 28.3757C36.4899 28.4257 36.2999 28.4657 36.0599 28.4957C35.8199 28.5357 35.6249 28.5557 35.4749 28.5557ZM40.7516 28.5557C40.1116 28.5557 39.5866 28.4407 39.1766 28.2107C38.7666 27.9707 38.4566 27.6157 38.2466 27.1457C38.0466 26.6757 37.9466 26.0807 37.9466 25.3607V22.2107C37.9466 21.7707 38.0616 21.4407 38.2916 21.2207C38.5216 20.9907 38.8516 20.8757 39.2816 20.8757C39.7116 20.8757 40.0416 20.9907 40.2716 21.2207C40.5016 21.4407 40.6166 21.7707 40.6166 22.2107V25.4357C40.6166 25.7957 40.6916 26.0657 40.8416 26.2457C40.9916 26.4257 41.2266 26.5157 41.5466 26.5157C41.9066 26.5157 42.2016 26.3857 42.4316 26.1257C42.6616 25.8657 42.7766 25.5207 42.7766 25.0907V22.2107C42.7766 21.7707 42.8916 21.4407 43.1216 21.2207C43.3516 20.9907 43.6816 20.8757 44.1116 20.8757C44.5416 20.8757 44.8716 20.9907 45.1016 21.2207C45.3316 21.4407 45.4466 21.7707 45.4466 22.2107V27.1757C45.4466 28.0757 45.0166 28.5257 44.1566 28.5257C43.7366 28.5257 43.4116 28.4107 43.1816 28.1807C42.9516 27.9507 42.8366 27.6157 42.8366 27.1757V26.3057L43.0766 27.0407C42.8566 27.5307 42.5466 27.9057 42.1466 28.1657C41.7566 28.4257 41.2916 28.5557 40.7516 28.5557ZM49.8804 28.5557C49.2504 28.5557 48.6904 28.4007 48.2004 28.0907C47.7204 27.7807 47.3404 27.3357 47.0604 26.7557C46.7904 26.1757 46.6554 25.4907 46.6554 24.7007C46.6554 23.8907 46.7904 23.2007 47.0604 22.6307C47.3404 22.0607 47.7204 21.6207 48.2004 21.3107C48.6904 21.0007 49.2504 20.8457 49.8804 20.8457C50.4304 20.8457 50.9254 20.9757 51.3654 21.2357C51.8054 21.4957 52.1004 21.8307 52.2504 22.2407H52.0854V19.0307C52.0854 18.5907 52.2004 18.2557 52.4304 18.0257C52.6604 17.7957 52.9904 17.6807 53.4204 17.6807C53.8404 17.6807 54.1654 17.7957 54.3954 18.0257C54.6354 18.2557 54.7554 18.5907 54.7554 19.0307V27.1757C54.7554 27.6157 54.6404 27.9507 54.4104 28.1807C54.1904 28.4107 53.8654 28.5257 53.4354 28.5257C53.0154 28.5257 52.6904 28.4107 52.4604 28.1807C52.2304 27.9507 52.1154 27.6157 52.1154 27.1757V26.3207L52.2804 27.0557C52.1404 27.5057 51.8454 27.8707 51.3954 28.1507C50.9554 28.4207 50.4504 28.5557 49.8804 28.5557ZM50.7354 26.5907C51.0054 26.5907 51.2454 26.5257 51.4554 26.3957C51.6654 26.2557 51.8254 26.0507 51.9354 25.7807C52.0554 25.5007 52.1154 25.1407 52.1154 24.7007C52.1154 24.0307 51.9854 23.5507 51.7254 23.2607C51.4654 22.9607 51.1354 22.8107 50.7354 22.8107C50.4654 22.8107 50.2254 22.8757 50.0154 23.0057C49.8054 23.1357 49.6404 23.3407 49.5204 23.6207C49.4004 23.8907 49.3404 24.2507 49.3404 24.7007C49.3404 25.3607 49.4704 25.8407 49.7304 26.1407C49.9904 26.4407 50.3254 26.5907 50.7354 26.5907ZM58.4472 31.2257C58.1372 31.2257 57.8872 31.1457 57.6972 30.9857C57.5072 30.8257 57.3872 30.6157 57.3372 30.3557C57.2972 30.0957 57.3422 29.8207 57.4722 29.5307L58.4772 27.3557V28.4357L55.9122 22.5707C55.7822 22.2707 55.7372 21.9907 55.7772 21.7307C55.8272 21.4707 55.9622 21.2657 56.1822 21.1157C56.4022 20.9557 56.7022 20.8757 57.0822 20.8757C57.4022 20.8757 57.6572 20.9507 57.8472 21.1007C58.0472 21.2407 58.2272 21.5207 58.3872 21.9407L59.8872 25.8407H59.3772L60.9672 21.9257C61.1272 21.5157 61.3072 21.2407 61.5072 21.1007C61.7172 20.9507 61.9972 20.8757 62.3472 20.8757C62.6472 20.8757 62.8872 20.9557 63.0672 21.1157C63.2472 21.2657 63.3572 21.4707 63.3972 21.7307C63.4372 21.9907 63.3922 22.2707 63.2622 22.5707L59.8572 30.2207C59.6772 30.6207 59.4772 30.8857 59.2572 31.0157C59.0472 31.1557 58.7772 31.2257 58.4472 31.2257ZM19.9817 44.5257C19.5417 44.5257 19.1967 44.4057 18.9467 44.1657C18.7067 43.9157 18.5867 43.5607 18.5867 43.1007V35.2407C18.5867 34.7807 18.7067 34.4307 18.9467 34.1907C19.1967 33.9407 19.5567 33.8157 20.0267 33.8157H25.0217C25.3817 33.8157 25.6517 33.9057 25.8317 34.0857C26.0117 34.2657 26.1017 34.5257 26.1017 34.8657C26.1017 35.2157 26.0117 35.4857 25.8317 35.6757C25.6517 35.8557 25.3817 35.9457 25.0217 35.9457H21.3467V38.0757H24.6917C25.0417 38.0757 25.3067 38.1657 25.4867 38.3457C25.6767 38.5257 25.7717 38.7857 25.7717 39.1257C25.7717 39.4757 25.6767 39.7407 25.4867 39.9207C25.3067 40.1007 25.0417 40.1907 24.6917 40.1907H21.3467V43.1007C21.3467 44.0507 20.8917 44.5257 19.9817 44.5257ZM29.0138 44.5257C28.5938 44.5257 28.2688 44.4007 28.0388 44.1507C27.8088 43.9007 27.6938 43.5407 27.6938 43.0707V38.3307C27.6938 37.8607 27.8088 37.5007 28.0388 37.2507C28.2688 37.0007 28.5938 36.8757 29.0138 36.8757C29.4438 36.8757 29.7738 37.0007 30.0038 37.2507C30.2438 37.5007 30.3638 37.8607 30.3638 38.3307V43.0707C30.3638 43.5407 30.2488 43.9007 30.0188 44.1507C29.7888 44.4007 29.4538 44.5257 29.0138 44.5257ZM29.0138 35.8107C28.5438 35.8107 28.1788 35.7007 27.9188 35.4807C27.6688 35.2607 27.5438 34.9407 27.5438 34.5207C27.5438 34.1107 27.6688 33.7957 27.9188 33.5757C28.1788 33.3557 28.5438 33.2457 29.0138 33.2457C29.5038 33.2457 29.8738 33.3557 30.1238 33.5757C30.3738 33.7957 30.4988 34.1107 30.4988 34.5207C30.4988 34.9407 30.3738 35.2607 30.1238 35.4807C29.8738 35.7007 29.5038 35.8107 29.0138 35.8107ZM35.9325 44.5557C35.0325 44.5557 34.2525 44.4007 33.5925 44.0907C32.9425 43.7707 32.4425 43.3207 32.0925 42.7407C31.7425 42.1607 31.5675 41.4757 31.5675 40.6857C31.5675 39.9257 31.7325 39.2607 32.0625 38.6907C32.4025 38.1107 32.8625 37.6607 33.4425 37.3407C34.0325 37.0107 34.7025 36.8457 35.4525 36.8457C36.0025 36.8457 36.5025 36.9357 36.9525 37.1157C37.4025 37.2857 37.7875 37.5407 38.1075 37.8807C38.4275 38.2107 38.6675 38.6107 38.8275 39.0807C38.9975 39.5507 39.0825 40.0757 39.0825 40.6557C39.0825 40.8557 39.0275 41.0057 38.9175 41.1057C38.8075 41.1957 38.6325 41.2407 38.3925 41.2407H33.8025V39.9807H37.1325L36.8925 40.1757C36.8925 39.8057 36.8425 39.5057 36.7425 39.2757C36.6425 39.0457 36.4925 38.8707 36.2925 38.7507C36.1025 38.6307 35.8625 38.5707 35.5725 38.5707C35.2625 38.5707 34.9925 38.6457 34.7625 38.7957C34.5425 38.9357 34.3725 39.1457 34.2525 39.4257C34.1325 39.7057 34.0725 40.0557 34.0725 40.4757V40.6107C34.0725 41.3207 34.2275 41.8307 34.5375 42.1407C34.8575 42.4407 35.3475 42.5907 36.0075 42.5907C36.2275 42.5907 36.4775 42.5657 36.7575 42.5157C37.0475 42.4557 37.3225 42.3757 37.5825 42.2757C37.8425 42.1757 38.0675 42.1607 38.2575 42.2307C38.4475 42.2907 38.5925 42.4007 38.6925 42.5607C38.8025 42.7107 38.8625 42.8857 38.8725 43.0857C38.8825 43.2757 38.8375 43.4657 38.7375 43.6557C38.6375 43.8357 38.4725 43.9757 38.2425 44.0757C37.8925 44.2357 37.5175 44.3557 37.1175 44.4357C36.7275 44.5157 36.3325 44.5557 35.9325 44.5557ZM43.0378 44.5557C42.0778 44.5557 41.3678 44.3007 40.9078 43.7907C40.4578 43.2707 40.2328 42.4907 40.2328 41.4507V35.0307C40.2328 34.5907 40.3478 34.2557 40.5778 34.0257C40.8078 33.7957 41.1328 33.6807 41.5528 33.6807C41.9828 33.6807 42.3128 33.7957 42.5428 34.0257C42.7828 34.2557 42.9028 34.5907 42.9028 35.0307V41.3607C42.9028 41.7307 42.9728 42.0007 43.1128 42.1707C43.2628 42.3407 43.4528 42.4257 43.6828 42.4257C43.7528 42.4257 43.8228 42.4207 43.8928 42.4107C43.9728 42.3907 44.0578 42.3757 44.1478 42.3657C44.3178 42.3657 44.4428 42.4307 44.5228 42.5607C44.6128 42.6907 44.6578 42.9557 44.6578 43.3557C44.6578 43.7057 44.5878 43.9707 44.4478 44.1507C44.3078 44.3207 44.0928 44.4307 43.8028 44.4807C43.7228 44.4907 43.6078 44.5057 43.4578 44.5257C43.3078 44.5457 43.1678 44.5557 43.0378 44.5557ZM48.2544 44.5557C47.6244 44.5557 47.0644 44.4007 46.5744 44.0907C46.0944 43.7807 45.7144 43.3357 45.4344 42.7557C45.1644 42.1757 45.0294 41.4907 45.0294 40.7007C45.0294 39.8907 45.1644 39.2007 45.4344 38.6307C45.7144 38.0607 46.0944 37.6207 46.5744 37.3107C47.0644 37.0007 47.6244 36.8457 48.2544 36.8457C48.8044 36.8457 49.2994 36.9757 49.7394 37.2357C50.1794 37.4957 50.4744 37.8307 50.6244 38.2407H50.4594V35.0307C50.4594 34.5907 50.5744 34.2557 50.8044 34.0257C51.0344 33.7957 51.3644 33.6807 51.7944 33.6807C52.2144 33.6807 52.5394 33.7957 52.7694 34.0257C53.0094 34.2557 53.1294 34.5907 53.1294 35.0307V43.1757C53.1294 43.6157 53.0144 43.9507 52.7844 44.1807C52.5644 44.4107 52.2394 44.5257 51.8094 44.5257C51.3894 44.5257 51.0644 44.4107 50.8344 44.1807C50.6044 43.9507 50.4894 43.6157 50.4894 43.1757V42.3207L50.6544 43.0557C50.5144 43.5057 50.2194 43.8707 49.7694 44.1507C49.3294 44.4207 48.8244 44.5557 48.2544 44.5557ZM49.1094 42.5907C49.3794 42.5907 49.6194 42.5257 49.8294 42.3957C50.0394 42.2557 50.1994 42.0507 50.3094 41.7807C50.4294 41.5007 50.4894 41.1407 50.4894 40.7007C50.4894 40.0307 50.3594 39.5507 50.0994 39.2607C49.8394 38.9607 49.5094 38.8107 49.1094 38.8107C48.8394 38.8107 48.5994 38.8757 48.3894 39.0057C48.1794 39.1357 48.0144 39.3407 47.8944 39.6207C47.7744 39.8907 47.7144 40.2507 47.7144 40.7007C47.7144 41.3607 47.8444 41.8407 48.1044 42.1407C48.3644 42.4407 48.6994 42.5907 49.1094 42.5907ZM60.5432 44.3907C60.1732 44.3907 59.8882 44.2957 59.6882 44.1057C59.4982 43.9057 59.4032 43.6257 59.4032 43.2657C59.4032 42.9057 59.4982 42.6307 59.6882 42.4407C59.8882 42.2507 60.1732 42.1557 60.5432 42.1557H61.8932V36.0207H63.1532L60.9782 37.3557C60.7182 37.5157 60.4732 37.5807 60.2432 37.5507C60.0132 37.5107 59.8182 37.4107 59.6582 37.2507C59.4982 37.0907 59.3932 36.8957 59.3432 36.6657C59.2932 36.4357 59.3132 36.2057 59.4032 35.9757C59.4932 35.7457 59.6732 35.5507 59.9432 35.3907L62.0132 34.1007C62.2332 33.9607 62.4582 33.8557 62.6882 33.7857C62.9282 33.7157 63.1782 33.6807 63.4382 33.6807C63.8182 33.6807 64.1132 33.7807 64.3232 33.9807C64.5332 34.1707 64.6382 34.4507 64.6382 34.8207V42.1557H65.8382C66.2082 42.1557 66.4882 42.2507 66.6782 42.4407C66.8782 42.6307 66.9782 42.9057 66.9782 43.2657C66.9782 43.6257 66.8782 43.9057 66.6782 44.1057C66.4882 44.2957 66.2082 44.3907 65.8382 44.3907H60.5432Z"/>
</mask>
<path d="M26.0616 28.5557C25.6616 28.5557 25.2416 28.5257 24.8016 28.4657C24.3716 28.4157 23.9616 28.3357 23.5716 28.2257C23.1816 28.1157 22.8316 27.9857 22.5216 27.8357C22.2516 27.7057 22.0616 27.5357 21.9516 27.3257C21.8416 27.1057 21.8016 26.8757 21.8316 26.6357C21.8616 26.3957 21.9466 26.1857 22.0866 26.0057C22.2266 25.8157 22.4116 25.6907 22.6416 25.6307C22.8716 25.5607 23.1316 25.5907 23.4216 25.7207C23.8016 25.9007 24.2316 26.0407 24.7116 26.1407C25.1916 26.2407 25.6416 26.2907 26.0616 26.2907C26.7216 26.2907 27.1816 26.2057 27.4416 26.0357C27.7116 25.8557 27.8466 25.6357 27.8466 25.3757C27.8466 25.1457 27.7516 24.9607 27.5616 24.8207C27.3816 24.6807 27.0566 24.5607 26.5866 24.4607L24.8316 24.0857C23.8716 23.8857 23.1566 23.5357 22.6866 23.0357C22.2166 22.5357 21.9816 21.8907 21.9816 21.1007C21.9816 20.5807 22.0866 20.1107 22.2966 19.6907C22.5166 19.2607 22.8216 18.8957 23.2116 18.5957C23.6116 18.2957 24.0816 18.0657 24.6216 17.9057C25.1716 17.7357 25.7816 17.6507 26.4516 17.6507C26.9716 17.6507 27.4966 17.7107 28.0266 17.8307C28.5666 17.9407 29.0316 18.1107 29.4216 18.3407C29.6516 18.4607 29.8166 18.6257 29.9166 18.8357C30.0166 19.0457 30.0566 19.2657 30.0366 19.4957C30.0166 19.7157 29.9366 19.9107 29.7966 20.0807C29.6666 20.2507 29.4866 20.3657 29.2566 20.4257C29.0366 20.4757 28.7716 20.4357 28.4616 20.3057C28.1716 20.1757 27.8416 20.0807 27.4716 20.0207C27.1116 19.9507 26.7616 19.9157 26.4216 19.9157C26.0516 19.9157 25.7366 19.9607 25.4766 20.0507C25.2166 20.1307 25.0166 20.2507 24.8766 20.4107C24.7466 20.5707 24.6816 20.7557 24.6816 20.9657C24.6816 21.1757 24.7666 21.3557 24.9366 21.5057C25.1166 21.6457 25.4416 21.7657 25.9116 21.8657L27.6516 22.2407C28.6216 22.4507 29.3466 22.7957 29.8266 23.2757C30.3066 23.7557 30.5466 24.3807 30.5466 25.1507C30.5466 25.6707 30.4416 26.1407 30.2316 26.5607C30.0216 26.9807 29.7216 27.3407 29.3316 27.6407C28.9416 27.9307 28.4716 28.1557 27.9216 28.3157C27.3716 28.4757 26.7516 28.5557 26.0616 28.5557ZM35.4749 28.5557C34.7249 28.5557 34.1049 28.4407 33.6149 28.2107C33.1349 27.9807 32.7749 27.6357 32.5349 27.1757C32.2949 26.7057 32.1749 26.1207 32.1749 25.4207V22.9757H31.6649C31.3449 22.9757 31.0949 22.8907 30.9149 22.7207C30.7449 22.5507 30.6599 22.3057 30.6599 21.9857C30.6599 21.6657 30.7449 21.4257 30.9149 21.2657C31.0949 21.0957 31.3449 21.0107 31.6649 21.0107H32.1749V20.0807C32.1749 19.6407 32.2899 19.3057 32.5199 19.0757C32.7499 18.8457 33.0799 18.7307 33.5099 18.7307C33.9399 18.7307 34.2699 18.8457 34.4999 19.0757C34.7299 19.3057 34.8449 19.6407 34.8449 20.0807V21.0107H36.0749C36.4049 21.0107 36.6549 21.0957 36.8249 21.2657C37.0049 21.4257 37.0949 21.6657 37.0949 21.9857C37.0949 22.3057 37.0049 22.5507 36.8249 22.7207C36.6549 22.8907 36.4049 22.9757 36.0749 22.9757H34.8449V25.3307C34.8449 25.7007 34.9299 25.9757 35.0999 26.1557C35.2799 26.3257 35.5599 26.4107 35.9399 26.4107C36.0799 26.4107 36.2149 26.3957 36.3449 26.3657C36.4749 26.3357 36.5949 26.3207 36.7049 26.3207C36.8649 26.3107 36.9949 26.3607 37.0949 26.4707C37.1949 26.5707 37.2449 26.8057 37.2449 27.1757C37.2449 27.4757 37.1999 27.7307 37.1099 27.9407C37.0199 28.1407 36.8599 28.2857 36.6299 28.3757C36.4899 28.4257 36.2999 28.4657 36.0599 28.4957C35.8199 28.5357 35.6249 28.5557 35.4749 28.5557ZM40.7516 28.5557C40.1116 28.5557 39.5866 28.4407 39.1766 28.2107C38.7666 27.9707 38.4566 27.6157 38.2466 27.1457C38.0466 26.6757 37.9466 26.0807 37.9466 25.3607V22.2107C37.9466 21.7707 38.0616 21.4407 38.2916 21.2207C38.5216 20.9907 38.8516 20.8757 39.2816 20.8757C39.7116 20.8757 40.0416 20.9907 40.2716 21.2207C40.5016 21.4407 40.6166 21.7707 40.6166 22.2107V25.4357C40.6166 25.7957 40.6916 26.0657 40.8416 26.2457C40.9916 26.4257 41.2266 26.5157 41.5466 26.5157C41.9066 26.5157 42.2016 26.3857 42.4316 26.1257C42.6616 25.8657 42.7766 25.5207 42.7766 25.0907V22.2107C42.7766 21.7707 42.8916 21.4407 43.1216 21.2207C43.3516 20.9907 43.6816 20.8757 44.1116 20.8757C44.5416 20.8757 44.8716 20.9907 45.1016 21.2207C45.3316 21.4407 45.4466 21.7707 45.4466 22.2107V27.1757C45.4466 28.0757 45.0166 28.5257 44.1566 28.5257C43.7366 28.5257 43.4116 28.4107 43.1816 28.1807C42.9516 27.9507 42.8366 27.6157 42.8366 27.1757V26.3057L43.0766 27.0407C42.8566 27.5307 42.5466 27.9057 42.1466 28.1657C41.7566 28.4257 41.2916 28.5557 40.7516 28.5557ZM49.8804 28.5557C49.2504 28.5557 48.6904 28.4007 48.2004 28.0907C47.7204 27.7807 47.3404 27.3357 47.0604 26.7557C46.7904 26.1757 46.6554 25.4907 46.6554 24.7007C46.6554 23.8907 46.7904 23.2007 47.0604 22.6307C47.3404 22.0607 47.7204 21.6207 48.2004 21.3107C48.6904 21.0007 49.2504 20.8457 49.8804 20.8457C50.4304 20.8457 50.9254 20.9757 51.3654 21.2357C51.8054 21.4957 52.1004 21.8307 52.2504 22.2407H52.0854V19.0307C52.0854 18.5907 52.2004 18.2557 52.4304 18.0257C52.6604 17.7957 52.9904 17.6807 53.4204 17.6807C53.8404 17.6807 54.1654 17.7957 54.3954 18.0257C54.6354 18.2557 54.7554 18.5907 54.7554 19.0307V27.1757C54.7554 27.6157 54.6404 27.9507 54.4104 28.1807C54.1904 28.4107 53.8654 28.5257 53.4354 28.5257C53.0154 28.5257 52.6904 28.4107 52.4604 28.1807C52.2304 27.9507 52.1154 27.6157 52.1154 27.1757V26.3207L52.2804 27.0557C52.1404 27.5057 51.8454 27.8707 51.3954 28.1507C50.9554 28.4207 50.4504 28.5557 49.8804 28.5557ZM50.7354 26.5907C51.0054 26.5907 51.2454 26.5257 51.4554 26.3957C51.6654 26.2557 51.8254 26.0507 51.9354 25.7807C52.0554 25.5007 52.1154 25.1407 52.1154 24.7007C52.1154 24.0307 51.9854 23.5507 51.7254 23.2607C51.4654 22.9607 51.1354 22.8107 50.7354 22.8107C50.4654 22.8107 50.2254 22.8757 50.0154 23.0057C49.8054 23.1357 49.6404 23.3407 49.5204 23.6207C49.4004 23.8907 49.3404 24.2507 49.3404 24.7007C49.3404 25.3607 49.4704 25.8407 49.7304 26.1407C49.9904 26.4407 50.3254 26.5907 50.7354 26.5907ZM58.4472 31.2257C58.1372 31.2257 57.8872 31.1457 57.6972 30.9857C57.5072 30.8257 57.3872 30.6157 57.3372 30.3557C57.2972 30.0957 57.3422 29.8207 57.4722 29.5307L58.4772 27.3557V28.4357L55.9122 22.5707C55.7822 22.2707 55.7372 21.9907 55.7772 21.7307C55.8272 21.4707 55.9622 21.2657 56.1822 21.1157C56.4022 20.9557 56.7022 20.8757 57.0822 20.8757C57.4022 20.8757 57.6572 20.9507 57.8472 21.1007C58.0472 21.2407 58.2272 21.5207 58.3872 21.9407L59.8872 25.8407H59.3772L60.9672 21.9257C61.1272 21.5157 61.3072 21.2407 61.5072 21.1007C61.7172 20.9507 61.9972 20.8757 62.3472 20.8757C62.6472 20.8757 62.8872 20.9557 63.0672 21.1157C63.2472 21.2657 63.3572 21.4707 63.3972 21.7307C63.4372 21.9907 63.3922 22.2707 63.2622 22.5707L59.8572 30.2207C59.6772 30.6207 59.4772 30.8857 59.2572 31.0157C59.0472 31.1557 58.7772 31.2257 58.4472 31.2257ZM19.9817 44.5257C19.5417 44.5257 19.1967 44.4057 18.9467 44.1657C18.7067 43.9157 18.5867 43.5607 18.5867 43.1007V35.2407C18.5867 34.7807 18.7067 34.4307 18.9467 34.1907C19.1967 33.9407 19.5567 33.8157 20.0267 33.8157H25.0217C25.3817 33.8157 25.6517 33.9057 25.8317 34.0857C26.0117 34.2657 26.1017 34.5257 26.1017 34.8657C26.1017 35.2157 26.0117 35.4857 25.8317 35.6757C25.6517 35.8557 25.3817 35.9457 25.0217 35.9457H21.3467V38.0757H24.6917C25.0417 38.0757 25.3067 38.1657 25.4867 38.3457C25.6767 38.5257 25.7717 38.7857 25.7717 39.1257C25.7717 39.4757 25.6767 39.7407 25.4867 39.9207C25.3067 40.1007 25.0417 40.1907 24.6917 40.1907H21.3467V43.1007C21.3467 44.0507 20.8917 44.5257 19.9817 44.5257ZM29.0138 44.5257C28.5938 44.5257 28.2688 44.4007 28.0388 44.1507C27.8088 43.9007 27.6938 43.5407 27.6938 43.0707V38.3307C27.6938 37.8607 27.8088 37.5007 28.0388 37.2507C28.2688 37.0007 28.5938 36.8757 29.0138 36.8757C29.4438 36.8757 29.7738 37.0007 30.0038 37.2507C30.2438 37.5007 30.3638 37.8607 30.3638 38.3307V43.0707C30.3638 43.5407 30.2488 43.9007 30.0188 44.1507C29.7888 44.4007 29.4538 44.5257 29.0138 44.5257ZM29.0138 35.8107C28.5438 35.8107 28.1788 35.7007 27.9188 35.4807C27.6688 35.2607 27.5438 34.9407 27.5438 34.5207C27.5438 34.1107 27.6688 33.7957 27.9188 33.5757C28.1788 33.3557 28.5438 33.2457 29.0138 33.2457C29.5038 33.2457 29.8738 33.3557 30.1238 33.5757C30.3738 33.7957 30.4988 34.1107 30.4988 34.5207C30.4988 34.9407 30.3738 35.2607 30.1238 35.4807C29.8738 35.7007 29.5038 35.8107 29.0138 35.8107ZM35.9325 44.5557C35.0325 44.5557 34.2525 44.4007 33.5925 44.0907C32.9425 43.7707 32.4425 43.3207 32.0925 42.7407C31.7425 42.1607 31.5675 41.4757 31.5675 40.6857C31.5675 39.9257 31.7325 39.2607 32.0625 38.6907C32.4025 38.1107 32.8625 37.6607 33.4425 37.3407C34.0325 37.0107 34.7025 36.8457 35.4525 36.8457C36.0025 36.8457 36.5025 36.9357 36.9525 37.1157C37.4025 37.2857 37.7875 37.5407 38.1075 37.8807C38.4275 38.2107 38.6675 38.6107 38.8275 39.0807C38.9975 39.5507 39.0825 40.0757 39.0825 40.6557C39.0825 40.8557 39.0275 41.0057 38.9175 41.1057C38.8075 41.1957 38.6325 41.2407 38.3925 41.2407H33.8025V39.9807H37.1325L36.8925 40.1757C36.8925 39.8057 36.8425 39.5057 36.7425 39.2757C36.6425 39.0457 36.4925 38.8707 36.2925 38.7507C36.1025 38.6307 35.8625 38.5707 35.5725 38.5707C35.2625 38.5707 34.9925 38.6457 34.7625 38.7957C34.5425 38.9357 34.3725 39.1457 34.2525 39.4257C34.1325 39.7057 34.0725 40.0557 34.0725 40.4757V40.6107C34.0725 41.3207 34.2275 41.8307 34.5375 42.1407C34.8575 42.4407 35.3475 42.5907 36.0075 42.5907C36.2275 42.5907 36.4775 42.5657 36.7575 42.5157C37.0475 42.4557 37.3225 42.3757 37.5825 42.2757C37.8425 42.1757 38.0675 42.1607 38.2575 42.2307C38.4475 42.2907 38.5925 42.4007 38.6925 42.5607C38.8025 42.7107 38.8625 42.8857 38.8725 43.0857C38.8825 43.2757 38.8375 43.4657 38.7375 43.6557C38.6375 43.8357 38.4725 43.9757 38.2425 44.0757C37.8925 44.2357 37.5175 44.3557 37.1175 44.4357C36.7275 44.5157 36.3325 44.5557 35.9325 44.5557ZM43.0378 44.5557C42.0778 44.5557 41.3678 44.3007 40.9078 43.7907C40.4578 43.2707 40.2328 42.4907 40.2328 41.4507V35.0307C40.2328 34.5907 40.3478 34.2557 40.5778 34.0257C40.8078 33.7957 41.1328 33.6807 41.5528 33.6807C41.9828 33.6807 42.3128 33.7957 42.5428 34.0257C42.7828 34.2557 42.9028 34.5907 42.9028 35.0307V41.3607C42.9028 41.7307 42.9728 42.0007 43.1128 42.1707C43.2628 42.3407 43.4528 42.4257 43.6828 42.4257C43.7528 42.4257 43.8228 42.4207 43.8928 42.4107C43.9728 42.3907 44.0578 42.3757 44.1478 42.3657C44.3178 42.3657 44.4428 42.4307 44.5228 42.5607C44.6128 42.6907 44.6578 42.9557 44.6578 43.3557C44.6578 43.7057 44.5878 43.9707 44.4478 44.1507C44.3078 44.3207 44.0928 44.4307 43.8028 44.4807C43.7228 44.4907 43.6078 44.5057 43.4578 44.5257C43.3078 44.5457 43.1678 44.5557 43.0378 44.5557ZM48.2544 44.5557C47.6244 44.5557 47.0644 44.4007 46.5744 44.0907C46.0944 43.7807 45.7144 43.3357 45.4344 42.7557C45.1644 42.1757 45.0294 41.4907 45.0294 40.7007C45.0294 39.8907 45.1644 39.2007 45.4344 38.6307C45.7144 38.0607 46.0944 37.6207 46.5744 37.3107C47.0644 37.0007 47.6244 36.8457 48.2544 36.8457C48.8044 36.8457 49.2994 36.9757 49.7394 37.2357C50.1794 37.4957 50.4744 37.8307 50.6244 38.2407H50.4594V35.0307C50.4594 34.5907 50.5744 34.2557 50.8044 34.0257C51.0344 33.7957 51.3644 33.6807 51.7944 33.6807C52.2144 33.6807 52.5394 33.7957 52.7694 34.0257C53.0094 34.2557 53.1294 34.5907 53.1294 35.0307V43.1757C53.1294 43.6157 53.0144 43.9507 52.7844 44.1807C52.5644 44.4107 52.2394 44.5257 51.8094 44.5257C51.3894 44.5257 51.0644 44.4107 50.8344 44.1807C50.6044 43.9507 50.4894 43.6157 50.4894 43.1757V42.3207L50.6544 43.0557C50.5144 43.5057 50.2194 43.8707 49.7694 44.1507C49.3294 44.4207 48.8244 44.5557 48.2544 44.5557ZM49.1094 42.5907C49.3794 42.5907 49.6194 42.5257 49.8294 42.3957C50.0394 42.2557 50.1994 42.0507 50.3094 41.7807C50.4294 41.5007 50.4894 41.1407 50.4894 40.7007C50.4894 40.0307 50.3594 39.5507 50.0994 39.2607C49.8394 38.9607 49.5094 38.8107 49.1094 38.8107C48.8394 38.8107 48.5994 38.8757 48.3894 39.0057C48.1794 39.1357 48.0144 39.3407 47.8944 39.6207C47.7744 39.8907 47.7144 40.2507 47.7144 40.7007C47.7144 41.3607 47.8444 41.8407 48.1044 42.1407C48.3644 42.4407 48.6994 42.5907 49.1094 42.5907ZM60.5432 44.3907C60.1732 44.3907 59.8882 44.2957 59.6882 44.1057C59.4982 43.9057 59.4032 43.6257 59.4032 43.2657C59.4032 42.9057 59.4982 42.6307 59.6882 42.4407C59.8882 42.2507 60.1732 42.1557 60.5432 42.1557H61.8932V36.0207H63.1532L60.9782 37.3557C60.7182 37.5157 60.4732 37.5807 60.2432 37.5507C60.0132 37.5107 59.8182 37.4107 59.6582 37.2507C59.4982 37.0907 59.3932 36.8957 59.3432 36.6657C59.2932 36.4357 59.3132 36.2057 59.4032 35.9757C59.4932 35.7457 59.6732 35.5507 59.9432 35.3907L62.0132 34.1007C62.2332 33.9607 62.4582 33.8557 62.6882 33.7857C62.9282 33.7157 63.1782 33.6807 63.4382 33.6807C63.8182 33.6807 64.1132 33.7807 64.3232 33.9807C64.5332 34.1707 64.6382 34.4507 64.6382 34.8207V42.1557H65.8382C66.2082 42.1557 66.4882 42.2507 66.6782 42.4407C66.8782 42.6307 66.9782 42.9057 66.9782 43.2657C66.9782 43.6257 66.8782 43.9057 66.6782 44.1057C66.4882 44.2957 66.2082 44.3907 65.8382 44.3907H60.5432Z" fill="white"/>
<path d="M24.8016 28.4657L24.8692 27.9702L24.8593 27.9691L24.8016 28.4657ZM22.5216 27.8357L22.7394 27.3857L22.7385 27.3852L22.5216 27.8357ZM21.9516 27.3257L21.5043 27.5494L21.5087 27.5578L21.9516 27.3257ZM21.8316 26.6357L22.3277 26.6978L21.8316 26.6357ZM22.0866 26.0057L22.4814 26.3128L22.4891 26.3023L22.0866 26.0057ZM22.6416 25.6307L22.7678 26.1146L22.7775 26.112L22.7872 26.1091L22.6416 25.6307ZM23.4216 25.7207L23.6357 25.2688L23.6261 25.2645L23.4216 25.7207ZM24.7116 26.1407L24.8136 25.6513L24.7116 26.1407ZM27.4416 26.0357L27.7152 26.4542L27.7189 26.4518L27.4416 26.0357ZM27.5616 24.8207L27.2545 25.2156L27.265 25.2233L27.5616 24.8207ZM26.5866 24.4607L26.4821 24.9497L26.4825 24.9498L26.5866 24.4607ZM24.8316 24.0857L24.9361 23.5968L24.9336 23.5963L24.8316 24.0857ZM22.6866 23.0357L23.0509 22.6933L22.6866 23.0357ZM22.2966 19.6907L21.8514 19.463L21.8494 19.4671L22.2966 19.6907ZM23.2116 18.5957L22.9116 18.1957L22.9067 18.1994L23.2116 18.5957ZM24.6216 17.9057L24.7636 18.3852L24.7692 18.3834L24.6216 17.9057ZM28.0266 17.8307L27.9161 18.3185L27.9268 18.3207L28.0266 17.8307ZM29.4216 18.3407L29.1676 18.7714L29.1788 18.778L29.1903 18.784L29.4216 18.3407ZM29.9166 18.8357L29.4652 19.0507L29.4652 19.0507L29.9166 18.8357ZM30.0366 19.4957L30.5345 19.541L30.5347 19.5391L30.0366 19.4957ZM29.7966 20.0807L29.4106 19.7629L29.4049 19.7699L29.3994 19.777L29.7966 20.0807ZM29.2566 20.4257L29.3674 20.9133L29.3751 20.9116L29.3828 20.9096L29.2566 20.4257ZM28.4616 20.3057L28.257 20.7621L28.2682 20.7668L28.4616 20.3057ZM27.4716 20.0207L27.3762 20.5116L27.3838 20.513L27.3916 20.5143L27.4716 20.0207ZM25.4766 20.0507L25.6236 20.5286L25.6319 20.5261L25.6401 20.5232L25.4766 20.0507ZM24.8766 20.4107L24.5003 20.0815L24.4943 20.0884L24.4885 20.0955L24.8766 20.4107ZM24.9366 21.5057L24.6058 21.8807L24.6174 21.8909L24.6296 21.9004L24.9366 21.5057ZM25.9116 21.8657L26.0169 21.377L26.0156 21.3767L25.9116 21.8657ZM27.6516 22.2407L27.7574 21.7521L27.7569 21.752L27.6516 22.2407ZM30.2316 26.5607L30.6788 26.7844V26.7844L30.2316 26.5607ZM29.3316 27.6407L29.63 28.042L29.6364 28.0371L29.3316 27.6407ZM27.9216 28.3157L28.0612 28.7958L27.9216 28.3157ZM26.0616 28.0557C25.6865 28.0557 25.2892 28.0276 24.8691 27.9703L24.734 28.9612C25.194 29.0239 25.6367 29.0557 26.0616 29.0557V28.0557ZM24.8593 27.9691C24.4539 27.922 24.0701 27.8468 23.7073 27.7445L23.4359 28.707C23.8531 28.8246 24.2893 28.9095 24.7438 28.9624L24.8593 27.9691ZM23.7073 27.7445C23.3407 27.6411 23.0188 27.5209 22.7394 27.3857L22.3038 28.2858C22.6443 28.4506 23.0224 28.5904 23.4359 28.707L23.7073 27.7445ZM22.7385 27.3852C22.5395 27.2894 22.4428 27.1859 22.3945 27.0937L21.5087 27.5578C21.6804 27.8856 21.9637 28.1221 22.3047 28.2862L22.7385 27.3852ZM22.3988 27.1021C22.3321 26.9688 22.3102 26.8381 22.3277 26.6978L21.3354 26.5737C21.293 26.9134 21.351 27.2427 21.5044 27.5494L22.3988 27.1021ZM22.3277 26.6978C22.3473 26.5414 22.3999 26.4173 22.4813 26.3127L21.6919 25.6988C21.4933 25.9542 21.3759 26.2501 21.3354 26.5737L22.3277 26.6978ZM22.4891 26.3023C22.5606 26.2053 22.6478 26.1459 22.7678 26.1146L22.5154 25.1469C22.1754 25.2356 21.8925 25.4262 21.6841 25.7091L22.4891 26.3023ZM22.7872 26.1091C22.8687 26.0843 23.0012 26.0803 23.2171 26.177L23.6261 25.2645C23.2619 25.1012 22.8744 25.0372 22.496 25.1524L22.7872 26.1091ZM23.2075 26.1726C23.6286 26.3721 24.0971 26.5235 24.6096 26.6302L24.8136 25.6513C24.366 25.558 23.9746 25.4294 23.6356 25.2689L23.2075 26.1726ZM24.6096 26.6302C25.1177 26.7361 25.6022 26.7907 26.0616 26.7907V25.7907C25.681 25.7907 25.2654 25.7454 24.8136 25.6513L24.6096 26.6302ZM26.0616 26.7907C26.7313 26.7907 27.3229 26.7107 27.7152 26.4542L27.168 25.6173C27.0402 25.7008 26.7119 25.7907 26.0616 25.7907V26.7907ZM27.7189 26.4518C28.0889 26.2051 28.3466 25.845 28.3466 25.3757H27.3466C27.3466 25.4264 27.3343 25.5064 27.1642 25.6197L27.7189 26.4518ZM28.3466 25.3757C28.3466 24.982 28.1721 24.6496 27.8582 24.4182L27.265 25.2233C27.331 25.2719 27.3466 25.3095 27.3466 25.3757H28.3466ZM27.8686 24.4261C27.5927 24.2115 27.1703 24.0737 26.6906 23.9717L26.4825 24.9498C26.9429 25.0477 27.1705 25.15 27.2546 25.2154L27.8686 24.4261ZM26.6911 23.9718L24.9361 23.5968L24.7271 24.5747L26.4821 24.9497L26.6911 23.9718ZM24.9336 23.5963C24.0326 23.4086 23.4263 23.0927 23.0509 22.6933L22.3223 23.3782C22.8868 23.9788 23.7106 24.3629 24.7296 24.5752L24.9336 23.5963ZM23.0509 22.6933C22.6813 22.3001 22.4816 21.7842 22.4816 21.1007H21.4816C21.4816 21.9973 21.7519 22.7714 22.3223 23.3782L23.0509 22.6933ZM22.4816 21.1007C22.4816 20.6499 22.5721 20.2577 22.7438 19.9144L21.8494 19.4671C21.6011 19.9637 21.4816 20.5116 21.4816 21.1007H22.4816ZM22.7417 19.9185C22.9274 19.5556 23.184 19.2478 23.5164 18.9921L22.9067 18.1994C22.4592 18.5437 22.1058 18.9659 21.8515 19.463L22.7417 19.9185ZM23.5116 18.9957C23.8585 18.7356 24.2734 18.5304 24.7636 18.3851L24.4795 17.4263C23.8897 17.6011 23.3647 17.8559 22.9116 18.1957L23.5116 18.9957ZM24.7692 18.3834C25.2643 18.2304 25.8236 18.1507 26.4516 18.1507V17.1507C25.7395 17.1507 25.0788 17.2411 24.4739 17.428L24.7692 18.3834ZM26.4516 18.1507C26.9328 18.1507 27.4208 18.2062 27.9162 18.3184L28.137 17.3431C27.5724 17.2153 27.0104 17.1507 26.4516 17.1507V18.1507ZM27.9268 18.3207C28.4239 18.4219 28.8344 18.5749 29.1676 18.7714L29.6756 17.9101C29.2287 17.6465 28.7093 17.4596 28.1264 17.3408L27.9268 18.3207ZM29.1903 18.784C29.3358 18.8599 29.4172 18.95 29.4652 19.0507L30.368 18.6208C30.216 18.3015 29.9674 18.0616 29.6529 17.8975L29.1903 18.784ZM29.4652 19.0507C29.5272 19.1809 29.5507 19.3118 29.5385 19.4524L30.5347 19.5391C30.5625 19.2196 30.506 18.9105 30.368 18.6208L29.4652 19.0507ZM29.5386 19.4505C29.5277 19.5708 29.4865 19.6707 29.4106 19.7629L30.1826 20.3986C30.3866 20.1508 30.5055 19.8607 30.5345 19.541L29.5386 19.4505ZM29.3994 19.777C29.3447 19.8486 29.2651 19.9068 29.1304 19.9419L29.3828 20.9096C29.708 20.8247 29.9885 20.6529 30.1938 20.3845L29.3994 19.777ZM29.1458 19.9382C29.0662 19.9563 28.9134 19.9531 28.6549 19.8446L28.2682 20.7668C28.6297 20.9184 29.007 20.9952 29.3674 20.9133L29.1458 19.9382ZM28.6661 19.8495C28.3301 19.6989 27.9571 19.5929 27.5516 19.5272L27.3916 20.5143C27.7261 20.5685 28.0131 20.6526 28.2571 20.762L28.6661 19.8495ZM27.567 19.5299C27.178 19.4543 26.796 19.4157 26.4216 19.4157V20.4157C26.7272 20.4157 27.0452 20.4472 27.3762 20.5116L27.567 19.5299ZM26.4216 19.4157C26.0139 19.4157 25.6403 19.465 25.313 19.5783L25.6401 20.5232C25.8329 20.4565 26.0893 20.4157 26.4216 20.4157V19.4157ZM25.3295 19.5729C25.0053 19.6726 24.7163 19.8346 24.5003 20.0815L25.2529 20.74C25.3168 20.6669 25.4279 20.5889 25.6236 20.5286L25.3295 19.5729ZM24.4885 20.0955C24.2847 20.3464 24.1816 20.6432 24.1816 20.9657H25.1816C25.1816 20.8683 25.2085 20.7951 25.2646 20.726L24.4885 20.0955ZM24.1816 20.9657C24.1816 21.3316 24.3379 21.6443 24.6058 21.8807L25.2674 21.1308C25.1953 21.0672 25.1816 21.0199 25.1816 20.9657H24.1816ZM24.6296 21.9004C24.9055 22.115 25.3279 22.2527 25.8075 22.3548L26.0156 21.3767C25.5553 21.2787 25.3277 21.1765 25.2436 21.1111L24.6296 21.9004ZM25.8062 22.3545L27.5462 22.7295L27.7569 21.752L26.0169 21.377L25.8062 22.3545ZM27.5458 22.7294C28.4629 22.928 29.0855 23.2417 29.473 23.6293L30.1801 22.9222C29.6077 22.3498 28.7803 21.9735 27.7574 21.7521L27.5458 22.7294ZM29.473 23.6293C29.8464 24.0027 30.0466 24.494 30.0466 25.1507H31.0466C31.0466 24.2675 30.7668 23.5088 30.1801 22.9222L29.473 23.6293ZM30.0466 25.1507C30.0466 25.6016 29.9561 25.9937 29.7844 26.3371L30.6788 26.7844C30.9271 26.2877 31.0466 25.7399 31.0466 25.1507H30.0466ZM29.7844 26.3371C29.6098 26.6863 29.3598 26.9882 29.0267 27.2444L29.6364 28.0371C30.0834 27.6933 30.4334 27.2752 30.6788 26.7844L29.7844 26.3371ZM29.0332 27.2395C28.6987 27.4883 28.2847 27.6894 27.7819 27.8356L28.0612 28.7958C28.6584 28.6221 29.1845 28.3732 29.6299 28.042L29.0332 27.2395ZM27.7819 27.8356C27.2855 27.9801 26.7136 28.0557 26.0616 28.0557V29.0557C26.7895 29.0557 27.4577 28.9714 28.0612 28.7958L27.7819 27.8356ZM33.6149 28.2107L33.3988 28.6617L33.4025 28.6634L33.6149 28.2107ZM32.5349 27.1757L32.0896 27.4031L32.0916 27.407L32.5349 27.1757ZM32.1749 22.9757H32.6749V22.4757H32.1749V22.9757ZM30.9149 22.7207L30.5614 23.0743L30.5664 23.0793L30.5716 23.0843L30.9149 22.7207ZM30.9149 21.2657L31.2576 21.6298L31.2582 21.6293L30.9149 21.2657ZM32.1749 21.0107V21.5107H32.6749V21.0107H32.1749ZM34.4999 19.0757L34.1464 19.4293V19.4293L34.4999 19.0757ZM34.8449 21.0107H34.3449V21.5107H34.8449V21.0107ZM36.8249 21.2657L36.4714 21.6193L36.4817 21.6297L36.4927 21.6395L36.8249 21.2657ZM36.8249 22.7207L36.4816 22.3572L36.4764 22.3621L36.4714 22.3672L36.8249 22.7207ZM34.8449 22.9757V22.4757H34.3449V22.9757H34.8449ZM35.0999 26.1557L34.7364 26.4991L34.7462 26.5094L34.7566 26.5193L35.0999 26.1557ZM36.3449 26.3657L36.4573 26.8529L36.3449 26.3657ZM36.7049 26.3207V26.8207H36.7205L36.7361 26.8198L36.7049 26.3207ZM37.0949 26.4707L36.7249 26.8071L36.7329 26.8159L36.7414 26.8243L37.0949 26.4707ZM37.1099 27.9407L37.5659 28.146L37.5695 28.1377L37.1099 27.9407ZM36.6299 28.3757L36.7981 28.8466L36.8051 28.8441L36.8121 28.8414L36.6299 28.3757ZM36.0599 28.4957L35.9979 27.9996L35.9878 28.0009L35.9777 28.0026L36.0599 28.4957ZM35.4749 28.0557C34.7718 28.0557 34.2304 27.9473 33.8274 27.7581L33.4025 28.6634C33.9794 28.9342 34.6781 29.0557 35.4749 29.0557V28.0557ZM33.831 27.7598C33.4458 27.5753 33.1668 27.306 32.9782 26.9445L32.0916 27.407C32.383 27.9655 32.8241 28.3862 33.3988 28.6617L33.831 27.7598ZM32.9802 26.9484C32.7859 26.5679 32.6749 26.0664 32.6749 25.4207H31.6749C31.6749 26.175 31.8039 26.8436 32.0896 27.4031L32.9802 26.9484ZM32.6749 25.4207V22.9757H31.6749V25.4207H32.6749ZM32.1749 22.4757H31.6649V23.4757H32.1749V22.4757ZM31.6649 22.4757C31.4339 22.4757 31.3207 22.4162 31.2582 22.3572L30.5716 23.0843C30.8691 23.3653 31.2559 23.4757 31.6649 23.4757V22.4757ZM31.2685 22.3672C31.2201 22.3188 31.1599 22.2185 31.1599 21.9857H30.1599C30.1599 22.393 30.2697 22.7827 30.5614 23.0743L31.2685 22.3672ZM31.1599 21.9857C31.1599 21.7508 31.2208 21.6644 31.2576 21.6298L30.5722 20.9016C30.269 21.1871 30.1599 21.5807 30.1599 21.9857H31.1599ZM31.2582 21.6293C31.3207 21.5703 31.4339 21.5107 31.6649 21.5107V20.5107C31.2559 20.5107 30.8691 20.6212 30.5716 20.9022L31.2582 21.6293ZM31.6649 21.5107H32.1749V20.5107H31.6649V21.5107ZM32.6749 21.0107V20.0807H31.6749V21.0107H32.6749ZM32.6749 20.0807C32.6749 19.7253 32.7665 19.5363 32.8735 19.4293L32.1664 18.7222C31.8133 19.0752 31.6749 19.5562 31.6749 20.0807H32.6749ZM32.8735 19.4293C32.9825 19.3203 33.1683 19.2307 33.5099 19.2307V18.2307C32.9915 18.2307 32.5174 18.3712 32.1664 18.7222L32.8735 19.4293ZM33.5099 19.2307C33.8515 19.2307 34.0374 19.3203 34.1464 19.4293L34.8535 18.7222C34.5025 18.3712 34.0283 18.2307 33.5099 18.2307V19.2307ZM34.1464 19.4293C34.2533 19.5363 34.3449 19.7253 34.3449 20.0807H35.3449C35.3449 19.5562 35.2065 19.0752 34.8535 18.7222L34.1464 19.4293ZM34.3449 20.0807V21.0107H35.3449V20.0807H34.3449ZM34.8449 21.5107H36.0749V20.5107H34.8449V21.5107ZM36.0749 21.5107C36.3228 21.5107 36.4256 21.5736 36.4714 21.6193L37.1785 20.9122C36.8842 20.6179 36.487 20.5107 36.0749 20.5107V21.5107ZM36.4927 21.6395C36.5339 21.676 36.5949 21.7591 36.5949 21.9857H37.5949C37.5949 21.5724 37.476 21.1755 37.1571 20.892L36.4927 21.6395ZM36.5949 21.9857C36.5949 22.2106 36.5345 22.3073 36.4816 22.3572L37.1682 23.0843C37.4754 22.7942 37.5949 22.4009 37.5949 21.9857H36.5949ZM36.4714 22.3672C36.4256 22.4129 36.3228 22.4757 36.0749 22.4757V23.4757C36.487 23.4757 36.8842 23.3686 37.1785 23.0743L36.4714 22.3672ZM36.0749 22.4757H34.8449V23.4757H36.0749V22.4757ZM34.3449 22.9757V25.3307H35.3449V22.9757H34.3449ZM34.3449 25.3307C34.3449 25.7665 34.4439 26.1893 34.7364 26.4991L35.4634 25.8124C35.4159 25.7622 35.3449 25.635 35.3449 25.3307H34.3449ZM34.7566 26.5193C35.0684 26.8138 35.4985 26.9107 35.9399 26.9107V25.9107C35.6213 25.9107 35.4914 25.8377 35.4432 25.7922L34.7566 26.5193ZM35.9399 26.9107C36.1159 26.9107 36.2887 26.8919 36.4573 26.8529L36.2325 25.8786C36.1411 25.8996 36.0439 25.9107 35.9399 25.9107V26.9107ZM36.4573 26.8529C36.558 26.8297 36.6397 26.8207 36.7049 26.8207V25.8207C36.5501 25.8207 36.3918 25.8418 36.2325 25.8786L36.4573 26.8529ZM36.7361 26.8198C36.746 26.8192 36.7506 26.8198 36.751 26.8198C36.7511 26.8198 36.748 26.8194 36.7429 26.8174C36.7377 26.8154 36.7328 26.8127 36.7287 26.8099C36.7248 26.8072 36.7237 26.8057 36.7249 26.8071L37.4649 26.1344C37.2539 25.9024 36.9716 25.8031 36.6737 25.8217L36.7361 26.8198ZM36.7414 26.8243C36.7126 26.7955 36.7033 26.7734 36.7042 26.7754C36.7049 26.777 36.7111 26.7919 36.7184 26.8261C36.7333 26.8962 36.7449 27.0091 36.7449 27.1757H37.7449C37.7449 26.9724 37.7315 26.7828 37.6965 26.6179C37.6638 26.4646 37.5995 26.2682 37.4485 26.1172L36.7414 26.8243ZM36.7449 27.1757C36.7449 27.4282 36.7067 27.6122 36.6503 27.7438L37.5695 28.1377C37.6931 27.8493 37.7449 27.5233 37.7449 27.1757H36.7449ZM36.6539 27.7356C36.6246 27.8009 36.5726 27.8612 36.4477 27.9101L36.8121 28.8414C37.1472 28.7102 37.4153 28.4806 37.5659 28.1459L36.6539 27.7356ZM36.4617 27.9049C36.3707 27.9374 36.2212 27.9717 35.9979 27.9996L36.1219 28.9919C36.3786 28.9598 36.6091 28.9141 36.7981 28.8466L36.4617 27.9049ZM35.9777 28.0026C35.7504 28.0404 35.5858 28.0557 35.4749 28.0557V29.0557C35.664 29.0557 35.8894 29.0311 36.1421 28.9889L35.9777 28.0026ZM39.1766 28.2107L38.924 28.6423L38.932 28.6468L39.1766 28.2107ZM38.2466 27.1457L37.7865 27.3416L37.7901 27.3497L38.2466 27.1457ZM38.2916 21.2207L38.6373 21.5822L38.6452 21.5743L38.2916 21.2207ZM40.2716 21.2207L39.918 21.5744L39.926 21.5821L40.2716 21.2207ZM40.8416 26.2457L41.2257 25.9257V25.9257L40.8416 26.2457ZM42.4316 26.1257L42.0571 25.7945L42.4316 26.1257ZM43.1216 21.2207L43.4673 21.5822L43.4752 21.5743L43.1216 21.2207ZM45.1016 21.2207L44.748 21.5744L44.756 21.5821L45.1016 21.2207ZM43.1816 28.1807L43.5352 27.8272L43.1816 28.1807ZM42.8366 26.3057L43.3119 26.1505L42.3366 26.3057H42.8366ZM43.0766 27.0407L43.5328 27.2455L43.6119 27.0692L43.5519 26.8855L43.0766 27.0407ZM42.1466 28.1657L41.8741 27.7465L41.8693 27.7497L42.1466 28.1657ZM40.7516 28.0557C40.1677 28.0557 39.7344 27.9503 39.4212 27.7747L38.932 28.6468C39.4389 28.9312 40.0556 29.0557 40.7516 29.0557V28.0557ZM39.4292 27.7792C39.1169 27.5964 38.8743 27.3249 38.7031 26.9418L37.7901 27.3497C38.0389 27.9066 38.4164 28.3451 38.924 28.6423L39.4292 27.7792ZM38.7067 26.95C38.5415 26.5617 38.4466 26.039 38.4466 25.3607H37.4466C37.4466 26.1225 37.5518 26.7898 37.7865 27.3415L38.7067 26.95ZM38.4466 25.3607V22.2107H37.4466V25.3607H38.4466ZM38.4466 22.2107C38.4466 21.8536 38.5388 21.6762 38.6372 21.5821L37.946 20.8594C37.5844 21.2053 37.4466 21.6879 37.4466 22.2107H38.4466ZM38.6452 21.5743C38.7542 21.4653 38.94 21.3757 39.2816 21.3757V20.3757C38.7633 20.3757 38.2891 20.5162 37.9381 20.8672L38.6452 21.5743ZM39.2816 21.3757C39.6233 21.3757 39.8091 21.4653 39.9181 21.5743L40.6252 20.8672C40.2742 20.5162 39.8 20.3757 39.2816 20.3757V21.3757ZM39.926 21.5821C40.0244 21.6762 40.1166 21.8536 40.1166 22.2107H41.1166C41.1166 21.6879 40.9788 21.2053 40.6172 20.8594L39.926 21.5821ZM40.1166 22.2107V25.4357H41.1166V22.2107H40.1166ZM40.1166 25.4357C40.1166 25.8529 40.2016 26.2588 40.4575 26.5658L41.2257 25.9257C41.1816 25.8727 41.1166 25.7386 41.1166 25.4357H40.1166ZM40.4575 26.5658C40.7339 26.8975 41.1355 27.0157 41.5466 27.0157V26.0157C41.3177 26.0157 41.2493 25.954 41.2257 25.9257L40.4575 26.5658ZM41.5466 27.0157C42.0438 27.0157 42.4773 26.8288 42.8061 26.457L42.0571 25.7945C41.926 25.9427 41.7694 26.0157 41.5466 26.0157V27.0157ZM42.8061 26.457C43.135 26.0852 43.2766 25.6125 43.2766 25.0907H42.2766C42.2766 25.429 42.1882 25.6463 42.0571 25.7945L42.8061 26.457ZM43.2766 25.0907V22.2107H42.2766V25.0907H43.2766ZM43.2766 22.2107C43.2766 21.8536 43.3688 21.6762 43.4672 21.5821L42.776 20.8594C42.4144 21.2053 42.2766 21.6879 42.2766 22.2107H43.2766ZM43.4752 21.5743C43.5842 21.4653 43.77 21.3757 44.1116 21.3757V20.3757C43.5933 20.3757 43.1191 20.5162 42.7681 20.8672L43.4752 21.5743ZM44.1116 21.3757C44.4533 21.3757 44.6391 21.4653 44.7481 21.5743L45.4552 20.8672C45.1042 20.5162 44.63 20.3757 44.1116 20.3757V21.3757ZM44.756 21.5821C44.8544 21.6762 44.9466 21.8536 44.9466 22.2107H45.9466C45.9466 21.6879 45.8088 21.2053 45.4472 20.8594L44.756 21.5821ZM44.9466 22.2107V27.1757H45.9466V22.2107H44.9466ZM44.9466 27.1757C44.9466 27.5542 44.8558 27.7453 44.7626 27.8428C44.6735 27.9361 44.5036 28.0257 44.1566 28.0257V29.0257C44.6696 29.0257 45.1448 28.8904 45.4856 28.5337C45.8224 28.1812 45.9466 27.6973 45.9466 27.1757H44.9466ZM44.1566 28.0257C43.8289 28.0257 43.6463 27.9383 43.5352 27.8272L42.8281 28.5343C43.177 28.8832 43.6444 29.0257 44.1566 29.0257V28.0257ZM43.5352 27.8272C43.4282 27.7202 43.3366 27.5312 43.3366 27.1757H42.3366C42.3366 27.7003 42.475 28.1813 42.8281 28.5343L43.5352 27.8272ZM43.3366 27.1757V26.3057H42.3366V27.1757H43.3366ZM42.3613 26.4609L42.6013 27.1959L43.5519 26.8855L43.3119 26.1505L42.3613 26.4609ZM42.6205 26.836C42.4347 27.2497 42.1837 27.5453 41.8741 27.7465L42.4191 28.585C42.9095 28.2662 43.2785 27.8118 43.5328 27.2455L42.6205 26.836ZM41.8693 27.7497C41.5734 27.947 41.2083 28.0557 40.7516 28.0557V29.0557C41.3749 29.0557 41.9399 28.9045 42.424 28.5818L41.8693 27.7497ZM48.2004 28.0907L47.9291 28.5108L47.9331 28.5133L48.2004 28.0907ZM47.0604 26.7557L46.6071 26.9668L46.6101 26.9731L47.0604 26.7557ZM47.0604 22.6307L46.6116 22.4103L46.6085 22.4167L47.0604 22.6307ZM48.2004 21.3107L47.9331 20.8882L47.9291 20.8907L48.2004 21.3107ZM52.2504 22.2407V22.7407H52.9658L52.72 22.069L52.2504 22.2407ZM52.0854 22.2407H51.5854V22.7407H52.0854V22.2407ZM52.4304 18.0257L52.784 18.3793V18.3793L52.4304 18.0257ZM54.3954 18.0257L54.0418 18.3794L54.0495 18.3867L54.3954 18.0257ZM54.4104 28.1807L54.0568 27.8271L54.0491 27.8351L54.4104 28.1807ZM52.4604 28.1807L52.814 27.8272L52.4604 28.1807ZM52.1154 26.3207L52.6033 26.2112L51.6154 26.3207H52.1154ZM52.2804 27.0557L52.7578 27.2043L52.7976 27.0766L52.7683 26.9462L52.2804 27.0557ZM51.3954 28.1507L51.6569 28.5769L51.6596 28.5753L51.3954 28.1507ZM51.4554 26.3957L51.7186 26.8209L51.7258 26.8164L51.7328 26.8118L51.4554 26.3957ZM51.9354 25.7807L51.4758 25.5838L51.4724 25.5921L51.9354 25.7807ZM51.7254 23.2607L51.3475 23.5883L51.3531 23.5945L51.7254 23.2607ZM50.0154 23.0057L49.7522 22.5806L50.0154 23.0057ZM49.5204 23.6207L49.9774 23.8238L49.98 23.8177L49.5204 23.6207ZM49.7304 26.1407L49.3526 26.4682L49.7304 26.1407ZM49.8804 28.0557C49.3365 28.0557 48.8709 27.9232 48.4677 27.6682L47.9331 28.5133C48.51 28.8783 49.1643 29.0557 49.8804 29.0557V28.0557ZM48.4717 27.6707C48.0783 27.4167 47.756 27.0464 47.5107 26.5384L46.6101 26.9731C46.9249 27.625 47.3625 28.1448 47.9291 28.5108L48.4717 27.6707ZM47.5137 26.5447C47.2808 26.0445 47.1554 25.4346 47.1554 24.7007H46.1554C46.1554 25.5469 46.3 26.307 46.6071 26.9668L47.5137 26.5447ZM47.1554 24.7007C47.1554 23.9445 47.2816 23.3317 47.5123 22.8448L46.6085 22.4167C46.2992 23.0698 46.1554 23.837 46.1554 24.7007H47.1554ZM47.5092 22.8512C47.7538 22.3533 48.0761 21.9862 48.4717 21.7308L47.9291 20.8907C47.3647 21.2553 46.927 21.7682 46.6116 22.4103L47.5092 22.8512ZM48.4677 21.7333C48.8709 21.4783 49.3365 21.3457 49.8804 21.3457V20.3457C49.1643 20.3457 48.51 20.5232 47.9331 20.8882L48.4677 21.7333ZM49.8804 21.3457C50.348 21.3457 50.7539 21.4552 51.111 21.6662L51.6198 20.8053C51.0969 20.4963 50.5128 20.3457 49.8804 20.3457V21.3457ZM51.111 21.6662C51.4694 21.8779 51.6771 22.129 51.7809 22.4125L52.72 22.069C52.5237 21.5325 52.1415 21.1135 51.6198 20.8053L51.111 21.6662ZM52.2504 21.7407H52.0854V22.7407H52.2504V21.7407ZM52.5854 22.2407V19.0307H51.5854V22.2407H52.5854ZM52.5854 19.0307C52.5854 18.6753 52.677 18.4863 52.784 18.3793L52.0769 17.6722C51.7238 18.0252 51.5854 18.5062 51.5854 19.0307H52.5854ZM52.784 18.3793C52.893 18.2703 53.0788 18.1807 53.4204 18.1807V17.1807C52.9021 17.1807 52.4279 17.3212 52.0769 17.6722L52.784 18.3793ZM53.4204 18.1807C53.7482 18.1807 53.9308 18.2682 54.0419 18.3793L54.749 17.6722C54.4001 17.3233 53.9327 17.1807 53.4204 17.1807V18.1807ZM54.0495 18.3867C54.1622 18.4947 54.2554 18.681 54.2554 19.0307H55.2554C55.2554 18.5004 55.1087 18.0167 54.7414 17.6648L54.0495 18.3867ZM54.2554 19.0307V27.1757H55.2554V19.0307H54.2554ZM54.2554 27.1757C54.2554 27.5312 54.1638 27.7202 54.0569 27.8272L54.764 28.5343C55.117 28.1813 55.2554 27.7003 55.2554 27.1757H54.2554ZM54.0491 27.8351C53.9529 27.9357 53.7786 28.0257 53.4354 28.0257V29.0257C53.9523 29.0257 54.4279 28.8858 54.7717 28.5264L54.0491 27.8351ZM53.4354 28.0257C53.1077 28.0257 52.9251 27.9383 52.814 27.8272L52.1069 28.5343C52.4558 28.8832 52.9232 29.0257 53.4354 29.0257V28.0257ZM52.814 27.8272C52.707 27.7202 52.6154 27.5312 52.6154 27.1757H51.6154C51.6154 27.7003 51.7538 28.1813 52.1069 28.5343L52.814 27.8272ZM52.6154 27.1757V26.3207H51.6154V27.1757H52.6154ZM51.6276 26.4303L51.7926 27.1653L52.7683 26.9462L52.6033 26.2112L51.6276 26.4303ZM51.803 26.9072C51.7031 27.2282 51.4929 27.5012 51.1313 27.7262L51.6596 28.5753C52.1979 28.2403 52.5777 27.7833 52.7578 27.2043L51.803 26.9072ZM51.1339 27.7246C50.7806 27.9414 50.368 28.0557 49.8804 28.0557V29.0557C50.5328 29.0557 51.1302 28.9001 51.6569 28.5769L51.1339 27.7246ZM50.7354 27.0907C51.0894 27.0907 51.4222 27.0043 51.7186 26.8209L51.1922 25.9706C51.0686 26.0472 50.9214 26.0907 50.7354 26.0907V27.0907ZM51.7328 26.8118C52.0384 26.608 52.2567 26.3173 52.3985 25.9694L51.4724 25.5921C51.3941 25.7842 51.2924 25.9035 51.1781 25.9797L51.7328 26.8118ZM52.395 25.9777C52.5507 25.6143 52.6154 25.1808 52.6154 24.7007H51.6154C51.6154 25.1007 51.5601 25.3872 51.4758 25.5838L52.395 25.9777ZM52.6154 24.7007C52.6154 23.989 52.4816 23.3552 52.0977 22.927L51.3531 23.5945C51.4892 23.7463 51.6154 24.0725 51.6154 24.7007H52.6154ZM52.1033 22.9333C51.7475 22.5227 51.2792 22.3107 50.7354 22.3107V23.3107C50.9917 23.3107 51.1834 23.3987 51.3476 23.5882L52.1033 22.9333ZM50.7354 22.3107C50.3814 22.3107 50.0486 22.3972 49.7522 22.5806L50.2786 23.4309C50.4022 23.3543 50.5494 23.3107 50.7354 23.3107V22.3107ZM49.7522 22.5806C49.4363 22.7762 49.2118 23.0717 49.0608 23.4238L49.98 23.8177C50.0691 23.6098 50.1745 23.4953 50.2786 23.4309L49.7522 22.5806ZM49.0635 23.4177C48.9042 23.7761 48.8404 24.2138 48.8404 24.7007H49.8404C49.8404 24.2877 49.8966 24.0054 49.9773 23.8238L49.0635 23.4177ZM48.8404 24.7007C48.8404 25.4071 48.9761 26.0338 49.3526 26.4682L50.1083 25.8133C49.9648 25.6477 49.8404 25.3144 49.8404 24.7007H48.8404ZM49.3526 26.4682C49.711 26.8818 50.1858 27.0907 50.7354 27.0907V26.0907C50.465 26.0907 50.2698 25.9997 50.1083 25.8133L49.3526 26.4682ZM57.6972 30.9857L58.0192 30.6033L57.6972 30.9857ZM57.3372 30.3557L56.843 30.4318L56.8444 30.441L56.8462 30.4502L57.3372 30.3557ZM57.4722 29.5307L57.0183 29.321L57.0159 29.3262L57.4722 29.5307ZM58.4772 27.3557H58.9772L58.0233 27.146L58.4772 27.3557ZM58.4772 28.4357L58.0191 28.6361L58.9772 28.4357H58.4772ZM55.9122 22.5707L55.4534 22.7696L55.4541 22.7711L55.9122 22.5707ZM55.7772 21.7307L55.2862 21.6363L55.2844 21.6455L55.283 21.6547L55.7772 21.7307ZM56.1822 21.1157L56.4638 21.5289L56.4701 21.5246L56.4763 21.5201L56.1822 21.1157ZM57.8472 21.1007L57.5373 21.4932L57.5486 21.5021L57.5604 21.5104L57.8472 21.1007ZM58.3872 21.9407L57.9199 22.1187L57.9205 22.1202L58.3872 21.9407ZM59.8872 25.8407V26.3407H60.6152L60.3538 25.6613L59.8872 25.8407ZM59.3772 25.8407L58.9139 25.6526L58.6344 26.3407H59.3772V25.8407ZM60.9672 21.9257L61.4305 22.1139L61.433 22.1075L60.9672 21.9257ZM61.5072 21.1007L61.7939 21.5104L61.7978 21.5076L61.5072 21.1007ZM63.0672 21.1157L62.735 21.4895L62.741 21.4948L62.7471 21.4999L63.0672 21.1157ZM63.3972 21.7307L63.8914 21.6547L63.3972 21.7307ZM63.2622 22.5707L63.719 22.7741L63.721 22.7696L63.2622 22.5707ZM59.8572 30.2207L60.3131 30.4259L60.314 30.4241L59.8572 30.2207ZM59.2572 31.0157L59.0028 30.5853L58.9911 30.5922L58.9798 30.5997L59.2572 31.0157ZM58.4472 30.7257C58.2249 30.7257 58.0985 30.67 58.0192 30.6033L57.3751 31.3682C57.6759 31.6215 58.0494 31.7257 58.4472 31.7257V30.7257ZM58.0192 30.6033C57.9229 30.5222 57.8581 30.4168 57.8282 30.2613L56.8462 30.4502C56.9163 30.8147 57.0914 31.1293 57.3751 31.3682L58.0192 30.6033ZM57.8314 30.2797C57.8088 30.1331 57.8296 29.9558 57.9284 29.7353L57.0159 29.3262C56.8548 29.6857 56.7855 30.0583 56.843 30.4318L57.8314 30.2797ZM57.9261 29.7405L58.9311 27.5655L58.0233 27.146L57.0183 29.321L57.9261 29.7405ZM57.9772 27.3557V28.4357H58.9772V27.3557H57.9772ZM58.9353 28.2354L56.3703 22.3704L55.4541 22.7711L58.0191 28.6361L58.9353 28.2354ZM56.3709 22.3719C56.2693 22.1374 56.2488 21.9534 56.2714 21.8068L55.283 21.6547C55.2255 22.0281 55.295 22.4041 55.4534 22.7696L56.3709 22.3719ZM56.2682 21.8252C56.2931 21.6957 56.3523 21.6049 56.4638 21.5289L55.9005 20.7026C55.5721 20.9266 55.3613 21.2458 55.2862 21.6363L56.2682 21.8252ZM56.4763 21.5201C56.5828 21.4426 56.767 21.3757 57.0822 21.3757V20.3757C56.6373 20.3757 56.2215 20.4689 55.8881 20.7114L56.4763 21.5201ZM57.0822 21.3757C57.326 21.3757 57.4604 21.4324 57.5373 21.4932L58.157 20.7083C57.854 20.4691 57.4783 20.3757 57.0822 20.3757V21.3757ZM57.5604 21.5104C57.6343 21.5621 57.7698 21.7245 57.9199 22.1187L58.8544 21.7627C58.6846 21.317 58.46 20.9194 58.1339 20.6911L57.5604 21.5104ZM57.9205 22.1202L59.4205 26.0202L60.3538 25.6613L58.8538 21.7613L57.9205 22.1202ZM59.8872 25.3407H59.3772V26.3407H59.8872V25.3407ZM59.8404 26.0289L61.4304 22.1139L60.5039 21.7376L58.9139 25.6526L59.8404 26.0289ZM61.433 22.1075C61.5821 21.7254 61.717 21.5642 61.7939 21.5104L61.2204 20.6911C60.8973 20.9173 60.6723 21.3061 60.5014 21.744L61.433 22.1075ZM61.7978 21.5076C61.8975 21.4364 62.0649 21.3757 62.3472 21.3757V20.3757C61.9294 20.3757 61.5368 20.4651 61.2166 20.6939L61.7978 21.5076ZM62.3472 21.3757C62.556 21.3757 62.6675 21.4294 62.735 21.4895L63.3994 20.742C63.1069 20.4821 62.7384 20.3757 62.3472 20.3757V21.3757ZM62.7471 21.4999C62.8218 21.5621 62.8791 21.6514 62.903 21.8068L63.8914 21.6547C63.8353 21.2901 63.6725 20.9694 63.3873 20.7316L62.7471 21.4999ZM62.903 21.8068C62.9255 21.9534 62.905 22.1374 62.8034 22.3719L63.721 22.7696C63.8793 22.4041 63.9488 22.0281 63.8914 21.6547L62.903 21.8068ZM62.8054 22.3674L59.4004 30.0174L60.314 30.4241L63.719 22.7741L62.8054 22.3674ZM59.4012 30.0156C59.2365 30.3816 59.0904 30.5335 59.0028 30.5853L59.5115 31.4462C59.864 31.238 60.1179 30.8599 60.3131 30.4259L59.4012 30.0156ZM58.9798 30.5997C58.8738 30.6704 58.7084 30.7257 58.4472 30.7257V31.7257C58.8459 31.7257 59.2206 31.6411 59.5345 31.4318L58.9798 30.5997ZM18.9467 44.1657L18.586 44.512L18.593 44.5194L18.6004 44.5264L18.9467 44.1657ZM18.9467 34.1907L19.3002 34.5443H19.3002L18.9467 34.1907ZM25.8317 34.0857L26.1852 33.7322H26.1852L25.8317 34.0857ZM25.8317 35.6757L26.1853 36.0294L26.1946 36.0196L25.8317 35.6757ZM21.3467 35.9457V35.4457H20.8467V35.9457H21.3467ZM21.3467 38.0757H20.8467V38.5757H21.3467V38.0757ZM25.4867 38.3457L25.133 38.6994L25.1428 38.7087L25.4867 38.3457ZM25.4867 39.9207L25.1427 39.5576L25.1331 39.5672L25.4867 39.9207ZM21.3467 40.1907V39.6907H20.8467V40.1907H21.3467ZM19.9817 44.0257C19.6344 44.0257 19.4265 43.9333 19.2929 43.8051L18.6004 44.5264C18.9668 44.8782 19.4489 45.0257 19.9817 45.0257V44.0257ZM19.3074 43.8195C19.1829 43.6898 19.0867 43.4751 19.0867 43.1007H18.0867C18.0867 43.6464 18.2304 44.1417 18.586 44.512L19.3074 43.8195ZM19.0867 43.1007V35.2407H18.0867V43.1007H19.0867ZM19.0867 35.2407C19.0867 34.865 19.1834 34.6611 19.3002 34.5443L18.5931 33.8372C18.2299 34.2004 18.0867 34.6965 18.0867 35.2407H19.0867ZM19.3002 34.5443C19.4287 34.4158 19.6441 34.3157 20.0267 34.3157V33.3157C19.4692 33.3157 18.9646 33.4657 18.5931 33.8372L19.3002 34.5443ZM20.0267 34.3157H25.0217V33.3157H20.0267V34.3157ZM25.0217 34.3157C25.3046 34.3157 25.425 34.3861 25.4781 34.4393L26.1852 33.7322C25.8784 33.4254 25.4587 33.3157 25.0217 33.3157V34.3157ZM25.4781 34.4393C25.5362 34.4974 25.6017 34.6124 25.6017 34.8657H26.6017C26.6017 34.4391 26.4871 34.0341 26.1852 33.7322L25.4781 34.4393ZM25.6017 34.8657C25.6017 35.132 25.5344 35.2625 25.4687 35.3319L26.1946 36.0196C26.4889 35.709 26.6017 35.2995 26.6017 34.8657H25.6017ZM25.4781 35.3222C25.425 35.3754 25.3046 35.4457 25.0217 35.4457V36.4457C25.4587 36.4457 25.8784 36.3361 26.1852 36.0293L25.4781 35.3222ZM25.0217 35.4457H21.3467V36.4457H25.0217V35.4457ZM20.8467 35.9457V38.0757H21.8467V35.9457H20.8467ZM21.3467 38.5757H24.6917V37.5757H21.3467V38.5757ZM24.6917 38.5757C24.9599 38.5757 25.0775 38.6437 25.1331 38.6993L25.8402 37.9922C25.5358 37.6878 25.1235 37.5757 24.6917 37.5757V38.5757ZM25.1428 38.7087C25.2056 38.7682 25.2717 38.8799 25.2717 39.1257H26.2717C26.2717 38.6916 26.1477 38.2833 25.8305 37.9828L25.1428 38.7087ZM25.2717 39.1257C25.2717 39.3867 25.2028 39.5009 25.1428 39.5578L25.8305 40.2837C26.1505 39.9806 26.2717 39.5648 26.2717 39.1257H25.2717ZM25.1331 39.5672C25.0775 39.6228 24.9599 39.6907 24.6917 39.6907V40.6907C25.1235 40.6907 25.5358 40.5787 25.8402 40.2743L25.1331 39.5672ZM24.6917 39.6907H21.3467V40.6907H24.6917V39.6907ZM20.8467 40.1907V43.1007H21.8467V40.1907H20.8467ZM20.8467 43.1007C20.8467 43.5039 20.7498 43.7136 20.6443 43.8236C20.5427 43.9297 20.354 44.0257 19.9817 44.0257V45.0257C20.5193 45.0257 21.0131 44.8843 21.3665 44.5154C21.716 44.1504 21.8467 43.6476 21.8467 43.1007H20.8467ZM28.0388 44.1507L28.4067 43.8122L28.0388 44.1507ZM28.0388 37.2507L28.4067 37.5893L28.0388 37.2507ZM30.0038 37.2507L29.6357 37.5894L29.6431 37.597L30.0038 37.2507ZM30.0188 44.1507L30.3867 44.4893L30.0188 44.1507ZM27.9188 35.4807L27.5884 35.8562L27.5958 35.8624L27.9188 35.4807ZM27.9188 33.5757L27.5957 33.194L27.5885 33.2004L27.9188 33.5757ZM30.1238 33.5757L29.7935 33.9511L30.1238 33.5757ZM30.1238 35.4807L30.4541 35.8561L30.1238 35.4807ZM29.0138 44.0257C28.6981 44.0257 28.5204 43.9358 28.4067 43.8122L27.6708 44.4893C28.0171 44.8657 28.4894 45.0257 29.0138 45.0257V44.0257ZM28.4067 43.8122C28.2896 43.6848 28.1938 43.4638 28.1938 43.0707H27.1938C27.1938 43.6177 27.328 44.1166 27.6708 44.4893L28.4067 43.8122ZM28.1938 43.0707V38.3307H27.1938V43.0707H28.1938ZM28.1938 38.3307C28.1938 37.9377 28.2896 37.7166 28.4067 37.5893L27.6708 36.9122C27.328 37.2848 27.1938 37.7838 27.1938 38.3307H28.1938ZM28.4067 37.5893C28.5204 37.4657 28.6981 37.3757 29.0138 37.3757V36.3757C28.4894 36.3757 28.0171 36.5358 27.6708 36.9122L28.4067 37.5893ZM29.0138 37.3757C29.3436 37.3757 29.5243 37.4681 29.6358 37.5893L30.3717 36.9122C30.0232 36.5334 29.544 36.3757 29.0138 36.3757V37.3757ZM29.6431 37.597C29.7658 37.7248 29.8638 37.9429 29.8638 38.3307H30.8638C30.8638 37.7786 30.7218 37.2767 30.3645 36.9045L29.6431 37.597ZM29.8638 38.3307V43.0707H30.8638V38.3307H29.8638ZM29.8638 43.0707C29.8638 43.4638 29.768 43.6848 29.6508 43.8122L30.3867 44.4893C30.7296 44.1166 30.8638 43.6177 30.8638 43.0707H29.8638ZM29.6508 43.8122C29.5415 43.9311 29.3576 44.0257 29.0138 44.0257V45.0257C29.5499 45.0257 30.0361 44.8704 30.3867 44.4893L29.6508 43.8122ZM29.0138 35.3107C28.6173 35.3107 28.3823 35.218 28.2417 35.0991L27.5958 35.8624C27.9752 36.1835 28.4703 36.3107 29.0138 36.3107V35.3107ZM28.2491 35.1054C28.1339 35.0041 28.0438 34.8374 28.0438 34.5207H27.0438C27.0438 35.0441 27.2036 35.5174 27.5885 35.8561L28.2491 35.1054ZM28.0438 34.5207C28.0438 34.2184 28.1313 34.0547 28.2491 33.9511L27.5885 33.2004C27.2062 33.5368 27.0438 34.0031 27.0438 34.5207H28.0438ZM28.2417 33.9574C28.3823 33.8385 28.6173 33.7457 29.0138 33.7457V32.7457C28.4703 32.7457 27.9752 32.873 27.5958 33.1941L28.2417 33.9574ZM29.0138 33.7457C29.4382 33.7457 29.6695 33.842 29.7935 33.9511L30.4541 33.2004C30.0781 32.8695 29.5693 32.7457 29.0138 32.7457V33.7457ZM29.7935 33.9511C29.9112 34.0547 29.9988 34.2184 29.9988 34.5207H30.9988C30.9988 34.0031 30.8363 33.5368 30.4541 33.2004L29.7935 33.9511ZM29.9988 34.5207C29.9988 34.8374 29.9086 35.0041 29.7935 35.1054L30.4541 35.8561C30.8389 35.5174 30.9988 35.0441 30.9988 34.5207H29.9988ZM29.7935 35.1054C29.6695 35.2145 29.4382 35.3107 29.0138 35.3107V36.3107C29.5693 36.3107 30.0781 36.187 30.4541 35.8561L29.7935 35.1054ZM33.5925 44.0907L33.3716 44.5394L33.38 44.5433L33.5925 44.0907ZM32.0925 42.7407L31.6644 42.9991L32.0925 42.7407ZM32.0625 38.6907L31.6312 38.4379L31.6298 38.4402L32.0625 38.6907ZM33.4425 37.3407L33.6841 37.7785L33.6866 37.7771L33.4425 37.3407ZM36.9525 37.1157L36.7668 37.5801L36.7758 37.5835L36.9525 37.1157ZM38.1075 37.8807L37.7434 38.2235L37.7486 38.2288L38.1075 37.8807ZM38.8275 39.0807L38.3541 39.2419L38.3573 39.2508L38.8275 39.0807ZM38.9175 41.1057L39.2341 41.4927L39.2442 41.4845L39.2539 41.4757L38.9175 41.1057ZM33.8025 41.2407H33.3025V41.7407H33.8025V41.2407ZM33.8025 39.9807V39.4807H33.3025V39.9807H33.8025ZM37.1325 39.9807L37.4478 40.3688L38.5408 39.4807H37.1325V39.9807ZM36.8925 40.1757H36.3925V41.2262L37.2078 40.5638L36.8925 40.1757ZM36.2925 38.7507L36.0255 39.1736L36.0353 39.1795L36.2925 38.7507ZM34.7625 38.7957L35.031 39.2176L35.0357 39.2146L34.7625 38.7957ZM34.2525 39.4257L33.7929 39.2288L34.2525 39.4257ZM34.5375 42.1407L34.184 42.4943L34.1897 42.5L34.1956 42.5055L34.5375 42.1407ZM36.7575 42.5157L36.8455 43.0081L36.8588 43.0054L36.7575 42.5157ZM37.5825 42.2757L37.762 42.7424L37.5825 42.2757ZM38.2575 42.2307L38.0847 42.6999L38.0957 42.704L38.107 42.7075L38.2575 42.2307ZM38.6925 42.5607L38.2685 42.8257L38.2784 42.8415L38.2893 42.8564L38.6925 42.5607ZM38.8725 43.0857L38.3731 43.1107L38.3732 43.112L38.8725 43.0857ZM38.7375 43.6557L39.1747 43.8986L39.18 43.8886L38.7375 43.6557ZM38.2425 44.0757L38.0431 43.6171L38.0346 43.621L38.2425 44.0757ZM37.1175 44.4357L37.0195 43.9455L37.0171 43.9459L37.1175 44.4357ZM35.9325 44.0557C35.0892 44.0557 34.3849 43.9105 33.8051 43.6382L33.38 44.5433C34.1202 44.891 34.9759 45.0557 35.9325 45.0557V44.0557ZM33.8134 43.6422C33.243 43.3614 32.8177 42.9747 32.5206 42.4824L31.6644 42.9991C32.0674 43.6668 32.642 44.1801 33.3717 44.5393L33.8134 43.6422ZM32.5206 42.4824C32.225 41.9925 32.0675 41.4 32.0675 40.6857H31.0675C31.0675 41.5515 31.26 42.329 31.6644 42.9991L32.5206 42.4824ZM32.0675 40.6857C32.0675 40 32.2157 39.4241 32.4952 38.9413L31.6298 38.4402C31.2493 39.0974 31.0675 39.8515 31.0675 40.6857H32.0675ZM32.4939 38.9436C32.7891 38.44 33.184 38.0544 33.6841 37.7785L33.201 36.903C32.541 37.2671 32.0159 37.7815 31.6312 38.4379L32.4939 38.9436ZM33.6866 37.7771C34.1941 37.4933 34.7784 37.3457 35.4525 37.3457V36.3457C34.6266 36.3457 33.871 36.5282 33.1984 36.9044L33.6866 37.7771ZM35.4525 37.3457C35.9474 37.3457 36.3833 37.4266 36.7668 37.58L37.1382 36.6515C36.6217 36.4449 36.0576 36.3457 35.4525 36.3457V37.3457ZM36.7758 37.5835C37.1569 37.7274 37.4772 37.9405 37.7434 38.2234L38.4716 37.5381C38.0979 37.141 37.6482 36.8441 37.1292 36.648L36.7758 37.5835ZM37.7486 38.2288C38.0131 38.5016 38.2161 38.8362 38.3542 39.2419L39.3008 38.9196C39.119 38.3853 38.842 37.9199 38.4665 37.5327L37.7486 38.2288ZM38.3573 39.2508C38.5047 39.6583 38.5825 40.1246 38.5825 40.6557H39.5825C39.5825 40.0269 39.4903 39.4432 39.2977 38.9107L38.3573 39.2508ZM38.5825 40.6557C38.5825 40.7112 38.5747 40.7382 38.5718 40.7461C38.5705 40.7497 38.5703 40.7491 38.5724 40.746C38.5746 40.7427 38.5776 40.739 38.5812 40.7358L39.2539 41.4757C39.5006 41.2514 39.5825 40.9457 39.5825 40.6557H38.5825ZM38.6009 40.7188C38.6152 40.7071 38.6149 40.7136 38.5793 40.7227C38.5432 40.732 38.4833 40.7407 38.3925 40.7407V41.7407C38.6753 41.7407 38.9913 41.6914 39.2341 41.4927L38.6009 40.7188ZM38.3925 40.7407H33.8025V41.7407H38.3925V40.7407ZM34.3025 41.2407V39.9807H33.3025V41.2407H34.3025ZM33.8025 40.4807H37.1325V39.4807H33.8025V40.4807ZM36.8172 39.5927L36.5772 39.7877L37.2078 40.5638L37.4478 40.3688L36.8172 39.5927ZM37.3925 40.1757C37.3925 39.7669 37.3382 39.3918 37.2011 39.0764L36.284 39.4751C36.3468 39.6197 36.3925 39.8446 36.3925 40.1757H37.3925ZM37.2011 39.0764C37.0628 38.7584 36.846 38.4997 36.5498 38.322L36.0353 39.1795C36.1391 39.2418 36.2222 39.3331 36.284 39.4751L37.2011 39.0764ZM36.5595 38.328C36.2695 38.1448 35.93 38.0707 35.5725 38.0707V39.0707C35.7951 39.0707 35.9356 39.1167 36.0255 39.1735L36.5595 38.328ZM35.5725 38.0707C35.1784 38.0707 34.8108 38.1673 34.4894 38.3769L35.0357 39.2146C35.1742 39.1242 35.3466 39.0707 35.5725 39.0707V38.0707ZM34.4941 38.3739C34.1756 38.5766 33.9457 38.8723 33.7929 39.2288L34.7121 39.6227C34.7993 39.4192 34.9094 39.2949 35.031 39.2176L34.4941 38.3739ZM33.7929 39.2288C33.6382 39.5898 33.5725 40.012 33.5725 40.4757H34.5725C34.5725 40.0995 34.6268 39.8217 34.7121 39.6227L33.7929 39.2288ZM33.5725 40.4757V40.6107H34.5725V40.4757H33.5725ZM33.5725 40.6107C33.5725 41.3747 33.7363 42.0467 34.184 42.4943L34.8911 41.7872C34.7187 41.6148 34.5725 41.2668 34.5725 40.6107H33.5725ZM34.1956 42.5055C34.6456 42.9274 35.2832 43.0907 36.0075 43.0907V42.0907C35.4119 42.0907 35.0695 41.9541 34.8795 41.776L34.1956 42.5055ZM36.0075 43.0907C36.2641 43.0907 36.5443 43.0617 36.8454 43.008L36.6696 42.0235C36.4107 42.0698 36.191 42.0907 36.0075 42.0907V43.0907ZM36.8588 43.0054C37.1738 42.9402 37.4751 42.8528 37.762 42.7424L37.403 41.8091C37.17 41.8987 36.9212 41.9713 36.6562 42.0261L36.8588 43.0054ZM37.762 42.7424C37.9514 42.6696 38.0451 42.6853 38.0847 42.6999L38.4304 41.7616C38.0899 41.6361 37.7336 41.6819 37.403 41.8091L37.762 42.7424ZM38.107 42.7075C38.1904 42.7339 38.2353 42.7726 38.2685 42.8257L39.1165 42.2957C38.9497 42.0289 38.7046 41.8476 38.4081 41.754L38.107 42.7075ZM38.2893 42.8564C38.337 42.9215 38.3676 43.0006 38.3731 43.1107L39.3719 43.0608C39.3574 42.7709 39.268 42.5 39.0957 42.2651L38.2893 42.8564ZM38.3732 43.112C38.3779 43.201 38.3586 43.3021 38.2951 43.4229L39.18 43.8886C39.3164 43.6294 39.3871 43.3505 39.3718 43.0595L38.3732 43.112ZM38.3004 43.4129C38.2646 43.4774 38.1949 43.5512 38.0432 43.6172L38.4419 44.5343C38.7501 44.4003 39.0104 44.1941 39.1746 43.8986L38.3004 43.4129ZM38.0346 43.621C37.7218 43.764 37.3839 43.8726 37.0195 43.9455L37.2156 44.926C37.6512 44.8389 38.0633 44.7075 38.4504 44.5305L38.0346 43.621ZM37.0171 43.9459C36.6603 44.0191 36.2989 44.0557 35.9325 44.0557V45.0557C36.3661 45.0557 36.7948 45.0124 37.218 44.9255L37.0171 43.9459ZM40.9078 43.7907L40.5297 44.118L40.5366 44.1256L40.9078 43.7907ZM42.5428 34.0257L42.1892 34.3794L42.1969 34.3867L42.5428 34.0257ZM43.1128 42.1707L42.7269 42.4886L42.7323 42.4952L42.7379 42.5016L43.1128 42.1707ZM43.8928 42.4107L43.9635 42.9057L43.9891 42.9021L44.0141 42.8958L43.8928 42.4107ZM44.1478 42.3657V41.8657H44.1201L44.0926 41.8688L44.1478 42.3657ZM44.5228 42.5607L44.097 42.8228L44.1041 42.8343L44.1117 42.8454L44.5228 42.5607ZM44.4478 44.1507L44.834 44.4687L44.8425 44.4577L44.4478 44.1507ZM43.8028 44.4807L43.8649 44.9769L43.8764 44.9754L43.8878 44.9735L43.8028 44.4807ZM43.4578 44.5257L43.5239 45.0214H43.5239L43.4578 44.5257ZM43.0378 44.0557C42.1613 44.0557 41.6113 43.8242 41.2791 43.4559L40.5366 44.1256C41.1243 44.7773 41.9944 45.0557 43.0378 45.0557V44.0557ZM41.2859 43.4636C40.9462 43.071 40.7328 42.43 40.7328 41.4507H39.7328C39.7328 42.5515 39.9694 43.4705 40.5298 44.1179L41.2859 43.4636ZM40.7328 41.4507V35.0307H39.7328V41.4507H40.7328ZM40.7328 35.0307C40.7328 34.6753 40.8244 34.4863 40.9314 34.3793L40.2243 33.6722C39.8713 34.0252 39.7328 34.5062 39.7328 35.0307H40.7328ZM40.9314 34.3793C41.0425 34.2682 41.2251 34.1807 41.5528 34.1807V33.1807C41.0406 33.1807 40.5732 33.3233 40.2243 33.6722L40.9314 34.3793ZM41.5528 34.1807C41.8945 34.1807 42.0803 34.2703 42.1893 34.3793L42.8964 33.6722C42.5454 33.3212 42.0712 33.1807 41.5528 33.1807V34.1807ZM42.1969 34.3867C42.3096 34.4947 42.4028 34.681 42.4028 35.0307H43.4028C43.4028 34.5004 43.2561 34.0167 42.8888 33.6648L42.1969 34.3867ZM42.4028 35.0307V41.3607H43.4028V35.0307H42.4028ZM42.4028 41.3607C42.4028 41.7744 42.4775 42.1858 42.7269 42.4886L43.4988 41.8529C43.4682 41.8157 43.4028 41.6871 43.4028 41.3607H42.4028ZM42.7379 42.5016C42.9844 42.7809 43.3118 42.9257 43.6828 42.9257V41.9257C43.5939 41.9257 43.5413 41.9006 43.4878 41.8399L42.7379 42.5016ZM43.6828 42.9257C43.7767 42.9257 43.8704 42.919 43.9635 42.9057L43.8221 41.9158C43.7753 41.9225 43.7289 41.9257 43.6828 41.9257V42.9257ZM44.0141 42.8958C44.0704 42.8817 44.1332 42.8705 44.2031 42.8627L44.0926 41.8688C43.9825 41.881 43.8753 41.8997 43.7716 41.9257L44.0141 42.8958ZM44.1478 42.8657C44.169 42.8657 44.1604 42.8696 44.1384 42.8581C44.1279 42.8526 44.118 42.8455 44.1098 42.8377C44.1018 42.8301 44.0979 42.8242 44.097 42.8228L44.9487 42.2987C44.766 42.0018 44.4679 41.8657 44.1478 41.8657V42.8657ZM44.1117 42.8454C44.0956 42.8221 44.1135 42.8366 44.1311 42.9407C44.1473 43.0357 44.1578 43.1716 44.1578 43.3557H45.1578C45.1578 43.1398 45.1459 42.9433 45.117 42.7733C45.0897 42.6124 45.0401 42.4294 44.9339 42.2761L44.1117 42.8454ZM44.1578 43.3557C44.1578 43.6508 44.0969 43.7875 44.0532 43.8438L44.8425 44.4577C45.0787 44.154 45.1578 43.7607 45.1578 43.3557H44.1578ZM44.0619 43.8329C44.0204 43.8832 43.9299 43.9515 43.7179 43.988L43.8878 44.9735C44.2557 44.91 44.5953 44.7583 44.8338 44.4686L44.0619 43.8329ZM43.7408 43.9846C43.6588 43.9949 43.5422 44.0101 43.3918 44.0301L43.5239 45.0214C43.6735 45.0014 43.7869 44.9866 43.8649 44.9769L43.7408 43.9846ZM43.3918 44.0301C43.2602 44.0477 43.1425 44.0557 43.0378 44.0557V45.0557C43.1932 45.0557 43.3555 45.0438 43.5239 45.0214L43.3918 44.0301ZM46.5744 44.0907L46.3032 44.5108L46.3071 44.5133L46.5744 44.0907ZM45.4344 42.7557L44.9811 42.9668L44.9842 42.9731L45.4344 42.7557ZM45.4344 38.6307L44.9856 38.4103L44.9826 38.4167L45.4344 38.6307ZM46.5744 37.3107L46.3071 36.8882L46.3032 36.8907L46.5744 37.3107ZM50.6244 38.2407V38.7407H51.3398L51.094 38.069L50.6244 38.2407ZM50.4594 38.2407H49.9594V38.7407H50.4594V38.2407ZM50.8044 34.0257L51.158 34.3793L50.8044 34.0257ZM52.7694 34.0257L52.4158 34.3794L52.4235 34.3867L52.7694 34.0257ZM52.7844 44.1807L52.4308 43.8271L52.4231 43.8351L52.7844 44.1807ZM50.8344 44.1807L51.188 43.8272L50.8344 44.1807ZM50.4894 42.3207L50.9773 42.2112L49.9894 42.3207H50.4894ZM50.6544 43.0557L51.1319 43.2043L51.1716 43.0766L51.1423 42.9462L50.6544 43.0557ZM49.7694 44.1507L50.0309 44.5769L50.0336 44.5753L49.7694 44.1507ZM49.8294 42.3957L50.0926 42.8209L50.0998 42.8164L50.1068 42.8118L49.8294 42.3957ZM50.3094 41.7807L49.8498 41.5838L49.8464 41.5921L50.3094 41.7807ZM50.0994 39.2607L49.7215 39.5883L49.7272 39.5945L50.0994 39.2607ZM48.3894 39.0057L48.1263 38.5806L48.3894 39.0057ZM47.8944 39.6207L48.3514 39.8238L48.354 39.8177L47.8944 39.6207ZM48.1044 42.1407L47.7266 42.4682L48.1044 42.1407ZM48.2544 44.0557C47.7106 44.0557 47.2449 43.9232 46.8418 43.6682L46.3071 44.5133C46.884 44.8783 47.5383 45.0557 48.2544 45.0557V44.0557ZM46.8457 43.6707C46.4523 43.4167 46.13 43.0464 45.8847 42.5384L44.9842 42.9731C45.2989 43.625 45.7366 44.1448 46.3032 44.5108L46.8457 43.6707ZM45.8877 42.5447C45.6548 42.0445 45.5294 41.4346 45.5294 40.7007H44.5294C44.5294 41.5469 44.674 42.307 44.9811 42.9668L45.8877 42.5447ZM45.5294 40.7007C45.5294 39.9445 45.6557 39.3317 45.8863 38.8448L44.9826 38.4167C44.6732 39.0698 44.5294 39.837 44.5294 40.7007H45.5294ZM45.8832 38.8512C46.1278 38.3533 46.4501 37.9862 46.8457 37.7308L46.3032 36.8907C45.7387 37.2553 45.3011 37.7682 44.9857 38.4103L45.8832 38.8512ZM46.8418 37.7333C47.2449 37.4783 47.7106 37.3457 48.2544 37.3457V36.3457C47.5383 36.3457 46.884 36.5232 46.3071 36.8882L46.8418 37.7333ZM48.2544 37.3457C48.722 37.3457 49.128 37.4552 49.4851 37.6662L49.9938 36.8053C49.4709 36.4963 48.8869 36.3457 48.2544 36.3457V37.3457ZM49.4851 37.6662C49.8434 37.8779 50.0511 38.129 50.1549 38.4125L51.094 38.069C50.8977 37.5325 50.5155 37.1135 49.9938 36.8053L49.4851 37.6662ZM50.6244 37.7407H50.4594V38.7407H50.6244V37.7407ZM50.9594 38.2407V35.0307H49.9594V38.2407H50.9594ZM50.9594 35.0307C50.9594 34.6753 51.051 34.4863 51.158 34.3793L50.4509 33.6722C50.0979 34.0252 49.9594 34.5062 49.9594 35.0307H50.9594ZM51.158 34.3793C51.267 34.2703 51.4528 34.1807 51.7944 34.1807V33.1807C51.2761 33.1807 50.8019 33.3212 50.4509 33.6722L51.158 34.3793ZM51.7944 34.1807C52.1222 34.1807 52.3048 34.2682 52.4159 34.3793L53.123 33.6722C52.7741 33.3233 52.3067 33.1807 51.7944 33.1807V34.1807ZM52.4235 34.3867C52.5362 34.4947 52.6294 34.681 52.6294 35.0307H53.6294C53.6294 34.5004 53.4827 34.0167 53.1154 33.6648L52.4235 34.3867ZM52.6294 35.0307V43.1757H53.6294V35.0307H52.6294ZM52.6294 43.1757C52.6294 43.5312 52.5379 43.7202 52.4309 43.8272L53.138 44.5343C53.491 44.1813 53.6294 43.7003 53.6294 43.1757H52.6294ZM52.4231 43.8351C52.327 43.9357 52.1526 44.0257 51.8094 44.0257V45.0257C52.3263 45.0257 52.8019 44.8858 53.1458 44.5264L52.4231 43.8351ZM51.8094 44.0257C51.4817 44.0257 51.2991 43.9383 51.188 43.8272L50.4809 44.5343C50.8298 44.8832 51.2972 45.0257 51.8094 45.0257V44.0257ZM51.188 43.8272C51.081 43.7202 50.9894 43.5312 50.9894 43.1757H49.9894C49.9894 43.7003 50.1279 44.1813 50.4809 44.5343L51.188 43.8272ZM50.9894 43.1757V42.3207H49.9894V43.1757H50.9894ZM50.0016 42.4303L50.1666 43.1653L51.1423 42.9462L50.9773 42.2112L50.0016 42.4303ZM50.177 42.9072C50.0771 43.2282 49.8669 43.5012 49.5053 43.7262L50.0336 44.5753C50.5719 44.2403 50.9517 43.7833 51.1319 43.2043L50.177 42.9072ZM49.5079 43.7246C49.1547 43.9414 48.742 44.0557 48.2544 44.0557V45.0557C48.9068 45.0557 49.5042 44.9001 50.0309 44.5769L49.5079 43.7246ZM49.1094 43.0907C49.4634 43.0907 49.7963 43.0043 50.0926 42.8209L49.5663 41.9706C49.4426 42.0472 49.2954 42.0907 49.1094 42.0907V43.0907ZM50.1068 42.8118C50.4124 42.608 50.6308 42.3173 50.7725 41.9694L49.8464 41.5921C49.7681 41.7842 49.6665 41.9035 49.5521 41.9797L50.1068 42.8118ZM50.769 41.9777C50.9248 41.6143 50.9894 41.1808 50.9894 40.7007H49.9894C49.9894 41.1007 49.9341 41.3872 49.8499 41.5838L50.769 41.9777ZM50.9894 40.7007C50.9894 39.989 50.8556 39.3552 50.4717 38.927L49.7272 39.5945C49.8632 39.7463 49.9894 40.0725 49.9894 40.7007H50.9894ZM50.4773 38.9333C50.1215 38.5227 49.6532 38.3107 49.1094 38.3107V39.3107C49.3657 39.3107 49.5574 39.3987 49.7216 39.5882L50.4773 38.9333ZM49.1094 38.3107C48.7554 38.3107 48.4226 38.3972 48.1263 38.5806L48.6526 39.4309C48.7763 39.3543 48.9234 39.3107 49.1094 39.3107V38.3107ZM48.1263 38.5806C47.8103 38.7762 47.5858 39.0717 47.4349 39.4238L48.354 39.8177C48.4431 39.6098 48.5485 39.4953 48.6526 39.4309L48.1263 38.5806ZM47.4375 39.4177C47.2782 39.7761 47.2144 40.2138 47.2144 40.7007H48.2144C48.2144 40.2877 48.2707 40.0054 48.3513 39.8238L47.4375 39.4177ZM47.2144 40.7007C47.2144 41.4071 47.3501 42.0338 47.7266 42.4682L48.4823 41.8133C48.3388 41.6477 48.2144 41.3144 48.2144 40.7007H47.2144ZM47.7266 42.4682C48.0851 42.8818 48.5599 43.0907 49.1094 43.0907V42.0907C48.839 42.0907 48.6438 41.9997 48.4823 41.8133L47.7266 42.4682ZM59.6882 44.1057L59.3257 44.4501L59.3345 44.4594L59.3438 44.4682L59.6882 44.1057ZM59.6882 42.4407L59.3437 42.0781L59.3346 42.0872L59.6882 42.4407ZM61.8932 42.1557V42.6557H62.3932V42.1557H61.8932ZM61.8932 36.0207V35.5207H61.3932V36.0207H61.8932ZM63.1532 36.0207L63.4147 36.4469L64.9236 35.5207H63.1532V36.0207ZM60.9782 37.3557L60.7166 36.9296L60.7161 36.9299L60.9782 37.3557ZM60.2432 37.5507L60.1575 38.0434L60.168 38.0452L60.1785 38.0465L60.2432 37.5507ZM59.3432 36.6657L59.8318 36.5595L59.3432 36.6657ZM59.4032 35.9757L58.9376 35.7935L59.4032 35.9757ZM59.9432 35.3907L60.1982 35.821L60.2076 35.8151L59.9432 35.3907ZM62.0132 34.1007L62.2776 34.5251L62.2816 34.5226L62.0132 34.1007ZM62.6882 33.7857L62.5482 33.3057L62.5426 33.3074L62.6882 33.7857ZM64.3232 33.9807L63.9782 34.3429L63.9877 34.3515L64.3232 33.9807ZM64.6382 42.1557H64.1382V42.6557H64.6382V42.1557ZM66.6782 42.4407L66.3245 42.7944L66.3338 42.8032L66.6782 42.4407ZM66.6782 44.1057L67.0317 44.4593L66.6782 44.1057ZM60.5432 43.8907C60.2566 43.8907 60.1116 43.8183 60.0326 43.7432L59.3438 44.4682C59.6648 44.7732 60.0898 44.8907 60.5432 44.8907V43.8907ZM60.0507 43.7614C59.9733 43.6799 59.9032 43.538 59.9032 43.2657H58.9032C58.9032 43.7135 59.023 44.1316 59.3257 44.4501L60.0507 43.7614ZM59.9032 43.2657C59.9032 42.9919 59.9739 42.8621 60.0417 42.7943L59.3346 42.0872C59.0224 42.3994 58.9032 42.8196 58.9032 43.2657H59.9032ZM60.0326 42.8032C60.1116 42.7282 60.2566 42.6557 60.5432 42.6557V41.6557C60.0898 41.6557 59.6648 41.7733 59.3438 42.0782L60.0326 42.8032ZM60.5432 42.6557H61.8932V41.6557H60.5432V42.6557ZM62.3932 42.1557V36.0207H61.3932V42.1557H62.3932ZM61.8932 36.5207H63.1532V35.5207H61.8932V36.5207ZM62.8916 35.5946L60.7166 36.9296L61.2397 37.7819L63.4147 36.4469L62.8916 35.5946ZM60.7161 36.9299C60.5227 37.049 60.3926 37.066 60.3079 37.0549L60.1785 38.0465C60.5538 38.0955 60.9137 37.9825 61.2402 37.7816L60.7161 36.9299ZM60.3289 37.0581C60.1969 37.0352 60.0965 36.9819 60.0117 36.8972L59.3046 37.6043C59.5399 37.8396 59.8295 37.9863 60.1575 38.0434L60.3289 37.0581ZM60.0117 36.8972C59.9224 36.8078 59.8623 36.6998 59.8318 36.5595L58.8546 36.772C58.9241 37.0917 59.074 37.3737 59.3046 37.6043L60.0117 36.8972ZM59.8318 36.5595C59.8038 36.4307 59.8129 36.3009 59.8688 36.1579L58.9376 35.7935C58.8135 36.1105 58.7826 36.4408 58.8546 36.772L59.8318 36.5595ZM59.8688 36.1579C59.9083 36.0571 59.9977 35.9397 60.1981 35.8209L59.6883 34.9606C59.3487 35.1618 59.0781 35.4344 58.9376 35.7935L59.8688 36.1579ZM60.2076 35.8151L62.2776 34.5251L61.7487 33.6764L59.6787 34.9664L60.2076 35.8151ZM62.2816 34.5226C62.4666 34.4048 62.6506 34.3198 62.8338 34.2641L62.5426 33.3074C62.2658 33.3917 61.9997 33.5166 61.7448 33.6789L62.2816 34.5226ZM62.8282 34.2657C63.0209 34.2095 63.2237 34.1807 63.4382 34.1807V33.1807C63.1327 33.1807 62.8355 33.222 62.5482 33.3057L62.8282 34.2657ZM63.4382 34.1807C63.7309 34.1807 63.8874 34.2561 63.9784 34.3428L64.668 33.6187C64.339 33.3053 63.9055 33.1807 63.4382 33.1807V34.1807ZM63.9877 34.3515C64.0632 34.4198 64.1382 34.5462 64.1382 34.8207H65.1382C65.1382 34.3553 65.0031 33.9217 64.6586 33.61L63.9877 34.3515ZM64.1382 34.8207V42.1557H65.1382V34.8207H64.1382ZM64.6382 42.6557H65.8382V41.6557H64.6382V42.6557ZM65.8382 42.6557C66.1266 42.6557 66.2592 42.7289 66.3246 42.7943L67.0317 42.0872C66.7172 41.7726 66.2897 41.6557 65.8382 41.6557V42.6557ZM66.3338 42.8032C66.4066 42.8724 66.4782 42.9989 66.4782 43.2657H67.4782C67.4782 42.8126 67.3498 42.3891 67.0226 42.0782L66.3338 42.8032ZM66.4782 43.2657C66.4782 43.5311 66.407 43.6698 66.3246 43.7522L67.0317 44.4593C67.3493 44.1417 67.4782 43.7204 67.4782 43.2657H66.4782ZM66.3246 43.7522C66.2592 43.8176 66.1266 43.8907 65.8382 43.8907V44.8907C66.2897 44.8907 66.7172 44.7739 67.0317 44.4593L66.3246 43.7522ZM65.8382 43.8907H60.5432V44.8907H65.8382V43.8907Z" fill="url(#paint14_linear_2193_4745)" mask="url(#path-25-outside-1_2193_4745)"/>
</g>
<path fill-rule="evenodd" clip-rule="evenodd" d="M61.6944 85.3592C61.6944 85.3592 65.6657 85.8479 65.9711 86.9477C66.2766 88.0474 63.2218 90.6134 63.2218 90.6134C63.2218 90.6134 63.955 94.5235 63.0386 95.1956C62.1221 95.8676 58.7008 93.7293 58.7008 93.7293C58.7008 93.7293 55.2183 95.6843 54.3019 94.9512C53.3854 94.2791 54.363 90.369 54.363 90.369C54.363 90.369 51.4304 87.6197 51.858 86.52C52.2246 85.4203 56.2569 85.1759 56.2569 85.1759C56.2569 85.1759 57.9676 81.5712 59.1284 81.5712C60.167 81.6323 61.6944 85.3592 61.6944 85.3592Z" fill="url(#paint15_linear_2193_4745)"/>
<path fill-rule="evenodd" clip-rule="evenodd" d="M61.0809 86.0924C61.0809 86.0924 64.319 86.5201 64.6245 87.4365C64.8689 88.3529 62.364 90.4302 62.364 90.4302C62.364 90.4302 62.9749 93.6682 62.1807 94.2181C61.3864 94.768 58.6371 92.9962 58.6371 92.9962C58.6371 92.9962 55.7656 94.5847 55.0325 93.9737C54.2993 93.4239 55.0936 90.1858 55.0936 90.1858C55.0936 90.1858 52.7108 87.9253 53.0163 87.0699C53.3218 86.1535 56.621 85.9702 56.621 85.9702C56.621 85.9702 58.0262 82.9765 58.9426 83.0376C59.859 83.0376 61.0809 86.0924 61.0809 86.0924Z" fill="#0B4C53"/>
<path fill-rule="evenodd" clip-rule="evenodd" d="M60.9622 86.2145C60.9622 86.2145 64.0781 86.5811 64.3225 87.4975C64.5668 88.3528 62.1841 90.369 62.1841 90.369C62.1841 90.369 62.7951 93.4849 62.0008 93.9736C61.2677 94.4624 58.5795 92.8128 58.5795 92.8128C58.5795 92.8128 55.8302 94.3402 55.097 93.7904C54.3639 93.2405 55.1581 90.1857 55.1581 90.1857C55.1581 90.1857 52.8365 88.0474 53.142 87.192C53.4474 86.3367 56.5633 86.1534 56.5633 86.1534C56.5633 86.1534 57.9074 83.2819 58.8239 83.343C59.8014 83.343 60.9622 86.2145 60.9622 86.2145Z" fill="url(#paint16_radial_2193_4745)"/>
<path fill-rule="evenodd" clip-rule="evenodd" d="M76.9152 85.3592C76.9152 85.3592 80.8864 85.8479 81.1919 86.9477C81.4973 88.0474 78.4425 90.6134 78.4425 90.6134C78.4425 90.6134 79.1757 94.5235 78.2593 95.1956C77.3428 95.8676 73.9215 93.7293 73.9215 93.7293C73.9215 93.7293 70.439 95.6843 69.5226 94.9512C68.6061 94.2791 69.5837 90.369 69.5837 90.369C69.5837 90.369 66.6511 87.6197 67.0787 86.52C67.4453 85.4203 71.4776 85.1759 71.4776 85.1759C71.4776 85.1759 73.1883 81.5712 74.3491 81.5712C75.3878 81.6323 76.9152 85.3592 76.9152 85.3592Z" fill="url(#paint17_linear_2193_4745)"/>
<path fill-rule="evenodd" clip-rule="evenodd" d="M76.3016 86.0924C76.3016 86.0924 79.5397 86.5201 79.8452 87.4365C80.0896 88.3529 77.5847 90.4302 77.5847 90.4302C77.5847 90.4302 78.1956 93.6682 77.4014 94.2181C76.6071 94.768 73.8578 92.9962 73.8578 92.9962C73.8578 92.9962 70.9863 94.5847 70.2532 93.9737C69.52 93.4239 70.3143 90.1858 70.3143 90.1858C70.3143 90.1858 67.9315 87.9253 68.237 87.0699C68.5425 86.1535 71.8417 85.9702 71.8417 85.9702C71.8417 85.9702 73.2469 82.9765 74.1633 83.0376C75.0797 83.0376 76.3016 86.0924 76.3016 86.0924Z" fill="#0B4C53"/>
<path fill-rule="evenodd" clip-rule="evenodd" d="M76.1829 86.2145C76.1829 86.2145 79.2988 86.5811 79.5432 87.4975C79.7876 88.3528 77.4048 90.369 77.4048 90.369C77.4048 90.369 78.0158 93.4849 77.2215 93.9736C76.4884 94.4624 73.8002 92.8128 73.8002 92.8128C73.8002 92.8128 71.0509 94.3402 70.3177 93.7904C69.5846 93.2405 70.3788 90.1857 70.3788 90.1857C70.3788 90.1857 68.0572 88.0474 68.3627 87.192C68.6681 86.3367 71.784 86.1534 71.784 86.1534C71.784 86.1534 73.1281 83.2819 74.0446 83.343C75.0221 83.343 76.1829 86.2145 76.1829 86.2145Z" fill="url(#paint18_radial_2193_4745)"/>
<path fill-rule="evenodd" clip-rule="evenodd" d="M46.4747 85.3592C46.4747 85.3592 50.4459 85.8479 50.7514 86.9477C51.0569 88.0474 48.0021 90.6134 48.0021 90.6134C48.0021 90.6134 48.7353 94.5235 47.8188 95.1956C46.9024 95.8676 43.481 93.7293 43.481 93.7293C43.481 93.7293 39.9986 95.6843 39.0821 94.9512C38.1657 94.2791 39.1432 90.369 39.1432 90.369C39.1432 90.369 36.2106 87.6197 36.6383 86.52C37.0049 85.4203 41.0372 85.1759 41.0372 85.1759C41.0372 85.1759 42.7479 81.5712 43.9087 81.5712C44.9473 81.6323 46.4747 85.3592 46.4747 85.3592Z" fill="url(#paint19_linear_2193_4745)"/>
<path fill-rule="evenodd" clip-rule="evenodd" d="M45.8612 86.0924C45.8612 86.0924 49.0993 86.5201 49.4048 87.4365C49.6491 88.3529 47.1442 90.4302 47.1442 90.4302C47.1442 90.4302 47.7552 93.6682 46.9609 94.2181C46.1667 94.768 43.4174 92.9962 43.4174 92.9962C43.4174 92.9962 40.5459 94.5847 39.8127 93.9737C39.0796 93.4239 39.8738 90.1858 39.8738 90.1858C39.8738 90.1858 37.4911 87.9253 37.7966 87.0699C38.1021 86.1535 41.4012 85.9702 41.4012 85.9702C41.4012 85.9702 42.8064 82.9765 43.7229 83.0376C44.6393 83.0376 45.8612 86.0924 45.8612 86.0924Z" fill="#0B4C53"/>
<path fill-rule="evenodd" clip-rule="evenodd" d="M45.7415 86.2145C45.7415 86.2145 48.8574 86.5811 49.1018 87.4975C49.3461 88.3528 46.9634 90.369 46.9634 90.369C46.9634 90.369 47.5744 93.4849 46.7801 93.9736C46.047 94.4624 43.3588 92.8128 43.3588 92.8128C43.3588 92.8128 40.6095 94.3402 39.8763 93.7904C39.1432 93.2405 39.9374 90.1857 39.9374 90.1857C39.9374 90.1857 37.6158 88.0474 37.9213 87.192C38.2267 86.3367 41.3426 86.1534 41.3426 86.1534C41.3426 86.1534 42.6867 83.2819 43.6031 83.343C44.5807 83.343 45.7415 86.2145 45.7415 86.2145Z" fill="url(#paint20_radial_2193_4745)"/>
<path fill-rule="evenodd" clip-rule="evenodd" d="M31.255 85.3592C31.255 85.3592 35.2262 85.8479 35.5317 86.9477C35.8372 88.0474 32.7824 90.6134 32.7824 90.6134C32.7824 90.6134 33.5155 94.5235 32.5991 95.1956C31.6827 95.8676 28.2613 93.7293 28.2613 93.7293C28.2613 93.7293 24.7788 95.6843 23.8624 94.9512C22.946 94.2791 23.9235 90.369 23.9235 90.369C23.9235 90.369 20.9909 87.6197 21.4186 86.52C21.7852 85.4203 25.8175 85.1759 25.8175 85.1759C25.8175 85.1759 27.5282 81.5712 28.689 81.5712C29.7276 81.6323 31.255 85.3592 31.255 85.3592Z" fill="url(#paint21_linear_2193_4745)"/>
<path fill-rule="evenodd" clip-rule="evenodd" d="M30.6415 86.0924C30.6415 86.0924 33.8796 86.5201 34.185 87.4365C34.4294 88.3529 31.9245 90.4302 31.9245 90.4302C31.9245 90.4302 32.5354 93.6682 31.7412 94.2181C30.947 94.768 28.1977 92.9962 28.1977 92.9962C28.1977 92.9962 25.3262 94.5847 24.593 93.9737C23.8599 93.4239 24.6541 90.1858 24.6541 90.1858C24.6541 90.1858 22.2714 87.9253 22.5769 87.0699C22.8823 86.1535 26.1815 85.9702 26.1815 85.9702C26.1815 85.9702 27.5867 82.9765 28.5031 83.0376C29.4196 83.0376 30.6415 86.0924 30.6415 86.0924Z" fill="#0B4C53"/>
<path fill-rule="evenodd" clip-rule="evenodd" d="M30.5218 86.2145C30.5218 86.2145 33.6377 86.5811 33.882 87.4975C34.1264 88.3528 31.7437 90.369 31.7437 90.369C31.7437 90.369 32.3547 93.4849 31.5604 93.9736C30.8273 94.4624 28.139 92.8128 28.139 92.8128C28.139 92.8128 25.3897 94.3402 24.6566 93.7904C23.9235 93.2405 24.7177 90.1857 24.7177 90.1857C24.7177 90.1857 22.3961 88.0474 22.7015 87.192C23.007 86.3367 26.1229 86.1534 26.1229 86.1534C26.1229 86.1534 27.467 83.2819 28.3834 83.343C29.361 83.343 30.5218 86.2145 30.5218 86.2145Z" fill="url(#paint22_radial_2193_4745)"/>
<path fill-rule="evenodd" clip-rule="evenodd" d="M16.0353 85.3592C16.0353 85.3592 20.0065 85.8479 20.312 86.9477C20.6174 88.0474 17.5627 90.6134 17.5627 90.6134C17.5627 90.6134 18.2958 94.5235 17.3794 95.1956C16.4629 95.8676 13.0416 93.7293 13.0416 93.7293C13.0416 93.7293 9.55912 95.6843 8.64269 94.9512C7.72625 94.2791 8.70379 90.369 8.70379 90.369C8.70379 90.369 5.77119 87.6197 6.19886 86.52C6.56543 85.4203 10.5978 85.1759 10.5978 85.1759C10.5978 85.1759 12.3084 81.5712 13.4692 81.5712C14.5079 81.6323 16.0353 85.3592 16.0353 85.3592Z" fill="url(#paint23_linear_2193_4745)"/>
<path fill-rule="evenodd" clip-rule="evenodd" d="M15.4218 86.0924C15.4218 86.0924 18.6598 86.5201 18.9653 87.4365C19.2097 88.3529 16.7048 90.4302 16.7048 90.4302C16.7048 90.4302 17.3157 93.6682 16.5215 94.2181C15.7272 94.768 12.9779 92.9962 12.9779 92.9962C12.9779 92.9962 10.1064 94.5847 9.3733 93.9737C8.64015 93.4239 9.4344 90.1858 9.4344 90.1858C9.4344 90.1858 7.05165 87.9253 7.35713 87.0699C7.66261 86.1535 10.9618 85.9702 10.9618 85.9702C10.9618 85.9702 12.367 82.9765 13.2834 83.0376C14.1999 83.0376 15.4218 86.0924 15.4218 86.0924Z" fill="#0B4C53"/>
<path fill-rule="evenodd" clip-rule="evenodd" d="M15.302 86.2145C15.302 86.2145 18.4179 86.5811 18.6623 87.4975C18.9067 88.3528 16.524 90.369 16.524 90.369C16.524 90.369 17.1349 93.4849 16.3407 93.9736C15.6075 94.4624 12.9193 92.8128 12.9193 92.8128C12.9193 92.8128 10.17 94.3402 9.43687 93.7904C8.70373 93.2405 9.49796 90.1857 9.49796 90.1857C9.49796 90.1857 7.17633 88.0474 7.4818 87.192C7.78728 86.3367 10.9032 86.1534 10.9032 86.1534C10.9032 86.1534 12.2473 83.2819 13.1637 83.343C14.1412 83.343 15.302 86.2145 15.302 86.2145Z" fill="url(#paint24_radial_2193_4745)"/>
<defs>
<filter id="filter0_d_2193_4745" x="14.0869" y="17.1508" width="57.3916" height="35.905" filterUnits="userSpaceOnUse" color-interpolation-filters="sRGB">
<feFlood flood-opacity="0" result="BackgroundImageFix"/>
<feColorMatrix in="SourceAlpha" type="matrix" values="0 0 0 0 0 0 0 0 0 0 0 0 0 0 0 0 0 0 127 0" result="hardAlpha"/>
<feOffset dy="4"/>
<feGaussianBlur stdDeviation="2"/>
<feComposite in2="hardAlpha" operator="out"/>
<feColorMatrix type="matrix" values="0 0 0 0 0 0 0 0 0 0 0 0 0 0 0 0 0 0 0.38 0"/>
<feBlend mode="normal" in2="BackgroundImageFix" result="effect1_dropShadow_2193_4745"/>
<feBlend mode="normal" in="SourceGraphic" in2="effect1_dropShadow_2193_4745" result="shape"/>
</filter>
<linearGradient id="paint0_linear_2193_4745" x1="43.8703" y1="75.0124" x2="43.8703" y2="2.42189" gradientUnits="userSpaceOnUse">
<stop stop-color="white"/>
<stop offset="1" stop-color="white"/>
</linearGradient>
<linearGradient id="paint1_linear_2193_4745" x1="43.8711" y1="72.6568" x2="43.8711" y2="0.0640453" gradientUnits="userSpaceOnUse">
<stop stop-color="white"/>
<stop offset="1" stop-color="white"/>
</linearGradient>
<radialGradient id="paint2_radial_2193_4745" cx="0" cy="0" r="1" gradientUnits="userSpaceOnUse" gradientTransform="translate(44.4062 63.2626) scale(31.2938 55.9461)">
<stop stop-color="#0D6C76"/>
<stop offset="1" stop-color="#45C3D2"/>
</radialGradient>
<linearGradient id="paint3_linear_2193_4745" x1="43.0966" y1="64.4225" x2="43.0966" y2="4.51388" gradientUnits="userSpaceOnUse">
<stop stop-color="#5DCFDC"/>
<stop offset="1" stop-color="#11737E"/>
</linearGradient>
<linearGradient id="paint4_linear_2193_4745" x1="43.0952" y1="63.2979" x2="43.0952" y2="5.16123" gradientUnits="userSpaceOnUse">
<stop stop-color="#45C2D1"/>
<stop offset="0.958333" stop-color="#0E6E79"/>
</linearGradient>
<linearGradient id="paint5_linear_2193_4745" x1="8.37866" y1="16.8373" x2="81.4294" y2="16.8373" gradientUnits="userSpaceOnUse">
<stop stop-color="#FF9840"/>
<stop offset="0.0972342" stop-color="#EF8E3C"/>
<stop offset="0.2877" stop-color="#C57531"/>
<stop offset="0.5527" stop-color="#814D20"/>
<stop offset="0.879" stop-color="#241609"/>
<stop offset="1"/>
</linearGradient>
<linearGradient id="paint6_linear_2193_4745" x1="78.1416" y1="56.1078" x2="8.50007" y2="56.1078" gradientUnits="userSpaceOnUse">
<stop stop-color="#FF6140"/>
<stop offset="0.0972342" stop-color="#EF5B3C"/>
<stop offset="0.2877" stop-color="#C54B31"/>
<stop offset="0.5527" stop-color="#813120"/>
<stop offset="0.879" stop-color="#240E09"/>
<stop offset="1"/>
</linearGradient>
<linearGradient id="paint7_linear_2193_4745" x1="43.8703" y1="75.0124" x2="43.8703" y2="2.42195" gradientUnits="userSpaceOnUse">
<stop stop-color="white"/>
<stop offset="1" stop-color="white"/>
</linearGradient>
<linearGradient id="paint8_linear_2193_4745" x1="43.8711" y1="72.6568" x2="43.8711" y2="0.0641064" gradientUnits="userSpaceOnUse">
<stop stop-color="white"/>
<stop offset="1" stop-color="white"/>
</linearGradient>
<radialGradient id="paint9_radial_2193_4745" cx="0" cy="0" r="1" gradientUnits="userSpaceOnUse" gradientTransform="translate(44.4062 63.2627) scale(31.2938 55.9461)">
<stop stop-color="#0D6C76"/>
<stop offset="1" stop-color="#45C3D2"/>
</radialGradient>
<linearGradient id="paint10_linear_2193_4745" x1="43.0966" y1="64.4226" x2="43.0966" y2="4.51394" gradientUnits="userSpaceOnUse">
<stop stop-color="#5DCFDC"/>
<stop offset="1" stop-color="#11737E"/>
</linearGradient>
<linearGradient id="paint11_linear_2193_4745" x1="43.0952" y1="63.298" x2="43.0952" y2="5.1613" gradientUnits="userSpaceOnUse">
<stop stop-color="#45C2D1"/>
<stop offset="0.958333" stop-color="#0E6E79"/>
</linearGradient>
<linearGradient id="paint12_linear_2193_4745" x1="8.37866" y1="16.8373" x2="81.4294" y2="16.8373" gradientUnits="userSpaceOnUse">
<stop stop-color="#FF9840"/>
<stop offset="0.0972342" stop-color="#EF8E3C"/>
<stop offset="0.2877" stop-color="#C57531"/>
<stop offset="0.5527" stop-color="#814D20"/>
<stop offset="0.879" stop-color="#241609"/>
<stop offset="1"/>
</linearGradient>
<linearGradient id="paint13_linear_2193_4745" x1="78.1416" y1="56.1079" x2="8.50007" y2="56.1079" gradientUnits="userSpaceOnUse">
<stop stop-color="#FF6140"/>
<stop offset="0.0972342" stop-color="#EF5B3C"/>
<stop offset="0.2877" stop-color="#C54B31"/>
<stop offset="0.5527" stop-color="#813120"/>
<stop offset="0.879" stop-color="#240E09"/>
<stop offset="1"/>
</linearGradient>
<linearGradient id="paint14_linear_2193_4745" x1="42.4045" y1="15.3907" x2="42.4045" y2="52.9743" gradientUnits="userSpaceOnUse">
<stop stop-color="#42BFCD"/>
<stop offset="1" stop-color="#11727D"/>
</linearGradient>
<linearGradient id="paint15_linear_2193_4745" x1="62.6829" y1="95.3952" x2="55.7451" y2="83.3787" gradientUnits="userSpaceOnUse">
<stop stop-color="#F4F3F1"/>
<stop offset="1" stop-color="#FBF9FE"/>
</linearGradient>
<radialGradient id="paint16_radial_2193_4745" cx="0" cy="0" r="1" gradientUnits="userSpaceOnUse" gradientTransform="translate(57.5214 86.5468) scale(5.49378 5.49378)">
<stop stop-color="#56C7D4"/>
<stop offset="0.9973" stop-color="#19727C"/>
</radialGradient>
<linearGradient id="paint17_linear_2193_4745" x1="77.9036" y1="95.3952" x2="70.9658" y2="83.3787" gradientUnits="userSpaceOnUse">
<stop stop-color="#F4F3F1"/>
<stop offset="1" stop-color="#FBF9FE"/>
</linearGradient>
<radialGradient id="paint18_radial_2193_4745" cx="0" cy="0" r="1" gradientUnits="userSpaceOnUse" gradientTransform="translate(72.7421 86.5468) scale(5.49378 5.49378)">
<stop stop-color="#56C7D4"/>
<stop offset="0.9973" stop-color="#19727C"/>
</radialGradient>
<linearGradient id="paint19_linear_2193_4745" x1="47.4631" y1="95.3952" x2="40.5253" y2="83.3787" gradientUnits="userSpaceOnUse">
<stop stop-color="#F4F3F1"/>
<stop offset="1" stop-color="#FBF9FE"/>
</linearGradient>
<radialGradient id="paint20_radial_2193_4745" cx="0" cy="0" r="1" gradientUnits="userSpaceOnUse" gradientTransform="translate(42.3007 86.5468) scale(5.49378 5.49378)">
<stop stop-color="#56C7D4"/>
<stop offset="0.9973" stop-color="#19727C"/>
</radialGradient>
<linearGradient id="paint21_linear_2193_4745" x1="32.2434" y1="95.3952" x2="25.3056" y2="83.3787" gradientUnits="userSpaceOnUse">
<stop stop-color="#F4F3F1"/>
<stop offset="1" stop-color="#FBF9FE"/>
</linearGradient>
<radialGradient id="paint22_radial_2193_4745" cx="0" cy="0" r="1" gradientUnits="userSpaceOnUse" gradientTransform="translate(27.081 86.5468) scale(5.49378 5.49378)">
<stop stop-color="#56C7D4"/>
<stop offset="0.9973" stop-color="#19727C"/>
</radialGradient>
<linearGradient id="paint23_linear_2193_4745" x1="17.0237" y1="95.3952" x2="10.0859" y2="83.3787" gradientUnits="userSpaceOnUse">
<stop stop-color="#F4F3F1"/>
<stop offset="1" stop-color="#FBF9FE"/>
</linearGradient>
<radialGradient id="paint24_radial_2193_4745" cx="0" cy="0" r="1" gradientUnits="userSpaceOnUse" gradientTransform="translate(11.8613 86.5468) scale(5.49378 5.49378)">
<stop stop-color="#56C7D4"/>
<stop offset="0.9973" stop-color="#19727C"/>
</radialGradient>
</defs>
</svg>
