<svg width="89" height="97" viewBox="0 0 89 97" fill="none" xmlns="http://www.w3.org/2000/svg">
<path d="M85.2137 67.2008C85.1505 67.3138 85.024 67.5398 84.9608 67.6529C77.5 78.6173 12.566 78.1651 3.52458 68.3311C3.01876 67.7659 2.70263 67.3138 2.57617 66.7486C-0.648395 54.8799 1.12196 18.9348 6.18011 11.1354C11.6176 2.77083 76.931 -0.95931 83.633 9.66597C88.6912 17.4654 91.0306 56.3494 85.2137 67.2008Z" fill="url(#paint0_linear_2193_3067)"/>
<path d="M2.64005 64.3745C5.73816 75.9041 78.8917 76.8083 85.2776 64.8266C91.0944 53.9753 88.6918 15.0913 83.7601 7.29186C76.9948 -3.33343 11.7447 0.509746 6.3072 8.7613C1.18582 16.5607 -0.584524 52.5058 2.64005 64.3745Z" fill="url(#paint1_linear_2193_3067)"/>
<path d="M5.6084 60.5323C5.6084 60.5323 15.4718 70.0272 45.8839 70.0272C76.296 70.0272 81.1645 60.5323 81.1645 60.5323H5.6084Z" fill="white"/>
<path d="M84.9597 60.5311V67.7654C77.4989 78.7298 12.5649 78.2776 3.52344 68.4436L3.71313 66.2959L5.54671 60.5311L83.5687 54.0881L84.9597 60.5311Z" fill="#F4F3F1"/>
<path d="M4.9158 59.1739C7.69779 69.5731 75.6667 72.5121 81.4835 61.6607C86.7314 51.8267 84.5816 16.4467 80.0925 9.43855C73.9595 -0.169421 13.5779 6.61269 8.64619 14.186C3.9674 21.1942 2.00737 48.3226 4.9158 59.1739Z" fill="url(#paint2_radial_2193_3067)"/>
<path d="M5.10582 57.3674C7.8878 67.4276 75.4773 68.1058 81.231 57.7066C86.4788 48.2116 84.3923 16.6749 79.9032 9.89277C73.7702 0.623905 13.6415 7.17993 8.70976 14.4142C4.15743 21.1963 2.26061 46.9682 5.10582 57.3674Z" fill="url(#paint3_linear_2193_3067)"/>
<path d="M5.98965 56.4628C8.70841 66.1839 74.7805 66.9751 80.4709 56.8019C85.5923 47.5331 83.569 17.0136 79.2064 10.4576C73.2631 1.52785 14.3988 7.74477 9.53036 14.866C4.97803 21.422 3.14444 46.2897 5.98965 56.4628Z" fill="url(#paint4_linear_2193_3067)"/>
<path d="M9.33789 14.8643C9.33789 14.8643 55.4303 -1.86481 79.33 10.569C79.33 10.569 81.4165 15.3165 82.3649 22.6638C82.3649 22.6638 73.6396 28.2025 61.3736 29.2198C49.1076 30.2371 36.2093 17.8033 25.8401 15.9947C15.4709 14.1861 9.33789 14.8643 9.33789 14.8643Z" fill="url(#paint5_linear_2193_3067)" fill-opacity="0.1"/>
<path d="M79.0825 56.9152C79.0825 56.9152 48.2278 66.6362 9.46973 58.0455C9.46973 58.0455 34.6973 62.0017 45.8884 58.0455C64.9197 51.4895 74.0876 49.5679 79.0825 56.9152Z" fill="url(#paint6_linear_2193_3067)" fill-opacity="0.1"/>
<path d="M7.63574 19.0484C7.63574 19.0484 8.58415 15.5444 10.8603 13.6228C13.0733 11.7012 19.4592 9.77955 19.8385 10.3447C20.2179 10.7969 16.7404 13.0576 14.9068 14.3009C13.0733 15.4313 8.52092 19.9527 7.63574 19.0484Z" fill="black" fill-opacity="0.14"/>
<path d="M7.37925 20.0649C6.93666 20.178 5.73536 26.621 5.86181 27.6383C5.92504 28.6556 7.31603 25.3776 7.50571 23.569C7.75862 21.7605 7.37925 20.0649 7.37925 20.0649Z" fill="black" fill-opacity="0.14"/>
<path d="M78.2568 59.7384C77.9407 58.7211 80.7859 53.9736 81.4814 54.0866C82.1769 54.0866 81.5446 57.1386 81.1021 57.9298C80.7227 58.495 78.4465 60.1905 78.2568 59.7384Z" fill="white"/>
<g filter="url(#filter0_d_2193_3067)">
<mask id="path-13-outside-1_2193_3067" maskUnits="userSpaceOnUse" x="18.1689" y="17.2018" width="50" height="29" fill="black">
<rect fill="white" x="18.1689" y="17.2018" width="50" height="29"/>
<path d="M27.0137 29.3668C26.6137 29.3668 26.1937 29.3368 25.7537 29.2768C25.3237 29.2268 24.9137 29.1468 24.5237 29.0368C24.1337 28.9268 23.7837 28.7968 23.4737 28.6468C23.2037 28.5168 23.0137 28.3468 22.9037 28.1368C22.7937 27.9168 22.7537 27.6868 22.7837 27.4468C22.8137 27.2068 22.8987 26.9968 23.0387 26.8168C23.1787 26.6268 23.3637 26.5018 23.5937 26.4418C23.8237 26.3718 24.0837 26.4018 24.3737 26.5318C24.7537 26.7118 25.1837 26.8518 25.6637 26.9518C26.1437 27.0518 26.5937 27.1018 27.0137 27.1018C27.6737 27.1018 28.1337 27.0168 28.3937 26.8468C28.6637 26.6668 28.7987 26.4468 28.7987 26.1868C28.7987 25.9568 28.7037 25.7718 28.5137 25.6318C28.3337 25.4918 28.0087 25.3718 27.5387 25.2718L25.7837 24.8968C24.8237 24.6968 24.1087 24.3468 23.6387 23.8468C23.1687 23.3468 22.9337 22.7018 22.9337 21.9118C22.9337 21.3918 23.0387 20.9218 23.2487 20.5018C23.4687 20.0718 23.7737 19.7068 24.1637 19.4068C24.5637 19.1068 25.0337 18.8768 25.5737 18.7168C26.1237 18.5468 26.7337 18.4618 27.4037 18.4618C27.9237 18.4618 28.4487 18.5218 28.9787 18.6418C29.5187 18.7518 29.9837 18.9218 30.3737 19.1518C30.6037 19.2718 30.7687 19.4368 30.8687 19.6468C30.9687 19.8568 31.0087 20.0768 30.9887 20.3068C30.9687 20.5268 30.8887 20.7218 30.7487 20.8918C30.6187 21.0618 30.4387 21.1768 30.2087 21.2368C29.9887 21.2868 29.7237 21.2468 29.4137 21.1168C29.1237 20.9868 28.7937 20.8918 28.4237 20.8318C28.0637 20.7618 27.7137 20.7268 27.3737 20.7268C27.0037 20.7268 26.6887 20.7718 26.4287 20.8618C26.1687 20.9418 25.9687 21.0618 25.8287 21.2218C25.6987 21.3818 25.6337 21.5668 25.6337 21.7768C25.6337 21.9868 25.7187 22.1668 25.8887 22.3168C26.0687 22.4568 26.3937 22.5768 26.8637 22.6768L28.6037 23.0518C29.5737 23.2618 30.2987 23.6068 30.7787 24.0868C31.2587 24.5668 31.4987 25.1918 31.4987 25.9618C31.4987 26.4818 31.3937 26.9518 31.1837 27.3718C30.9737 27.7918 30.6737 28.1518 30.2837 28.4518C29.8937 28.7418 29.4237 28.9668 28.8737 29.1268C28.3237 29.2868 27.7037 29.3668 27.0137 29.3668ZM36.4271 29.3668C35.6771 29.3668 35.0571 29.2518 34.5671 29.0218C34.0871 28.7918 33.7271 28.4468 33.4871 27.9868C33.2471 27.5168 33.1271 26.9318 33.1271 26.2318V23.7868H32.6171C32.2971 23.7868 32.0471 23.7018 31.8671 23.5318C31.6971 23.3618 31.6121 23.1168 31.6121 22.7968C31.6121 22.4768 31.6971 22.2368 31.8671 22.0768C32.0471 21.9068 32.2971 21.8218 32.6171 21.8218H33.1271V20.8918C33.1271 20.4518 33.2421 20.1168 33.4721 19.8868C33.7021 19.6568 34.0321 19.5418 34.4621 19.5418C34.8921 19.5418 35.2221 19.6568 35.4521 19.8868C35.6821 20.1168 35.7971 20.4518 35.7971 20.8918V21.8218H37.0271C37.3571 21.8218 37.6071 21.9068 37.7771 22.0768C37.9571 22.2368 38.0471 22.4768 38.0471 22.7968C38.0471 23.1168 37.9571 23.3618 37.7771 23.5318C37.6071 23.7018 37.3571 23.7868 37.0271 23.7868H35.7971V26.1418C35.7971 26.5118 35.8821 26.7868 36.0521 26.9668C36.2321 27.1368 36.5121 27.2218 36.8921 27.2218C37.0321 27.2218 37.1671 27.2068 37.2971 27.1768C37.4271 27.1468 37.5471 27.1318 37.6571 27.1318C37.8171 27.1218 37.9471 27.1718 38.0471 27.2818C38.1471 27.3818 38.1971 27.6168 38.1971 27.9868C38.1971 28.2868 38.1521 28.5418 38.0621 28.7518C37.9721 28.9518 37.8121 29.0968 37.5821 29.1868C37.4421 29.2368 37.2521 29.2768 37.0121 29.3068C36.7721 29.3468 36.5771 29.3668 36.4271 29.3668ZM41.7038 29.3668C41.0638 29.3668 40.5388 29.2518 40.1288 29.0218C39.7188 28.7818 39.4088 28.4268 39.1988 27.9568C38.9988 27.4868 38.8988 26.8918 38.8988 26.1718V23.0218C38.8988 22.5818 39.0138 22.2518 39.2438 22.0318C39.4738 21.8018 39.8038 21.6868 40.2338 21.6868C40.6638 21.6868 40.9938 21.8018 41.2238 22.0318C41.4538 22.2518 41.5688 22.5818 41.5688 23.0218V26.2468C41.5688 26.6068 41.6438 26.8768 41.7938 27.0568C41.9438 27.2368 42.1788 27.3268 42.4988 27.3268C42.8588 27.3268 43.1538 27.1968 43.3838 26.9368C43.6138 26.6768 43.7288 26.3318 43.7288 25.9018V23.0218C43.7288 22.5818 43.8438 22.2518 44.0738 22.0318C44.3038 21.8018 44.6338 21.6868 45.0638 21.6868C45.4938 21.6868 45.8238 21.8018 46.0538 22.0318C46.2838 22.2518 46.3988 22.5818 46.3988 23.0218V27.9868C46.3988 28.8868 45.9688 29.3368 45.1088 29.3368C44.6888 29.3368 44.3638 29.2218 44.1338 28.9918C43.9038 28.7618 43.7888 28.4268 43.7888 27.9868V27.1168L44.0288 27.8518C43.8088 28.3418 43.4988 28.7168 43.0988 28.9768C42.7088 29.2368 42.2438 29.3668 41.7038 29.3668ZM50.8326 29.3668C50.2026 29.3668 49.6426 29.2118 49.1526 28.9018C48.6726 28.5918 48.2926 28.1468 48.0126 27.5668C47.7426 26.9868 47.6076 26.3018 47.6076 25.5118C47.6076 24.7018 47.7426 24.0118 48.0126 23.4418C48.2926 22.8718 48.6726 22.4318 49.1526 22.1218C49.6426 21.8118 50.2026 21.6568 50.8326 21.6568C51.3826 21.6568 51.8776 21.7868 52.3176 22.0468C52.7576 22.3068 53.0526 22.6418 53.2026 23.0518H53.0376V19.8418C53.0376 19.4018 53.1526 19.0668 53.3826 18.8368C53.6126 18.6068 53.9426 18.4918 54.3726 18.4918C54.7926 18.4918 55.1176 18.6068 55.3476 18.8368C55.5876 19.0668 55.7076 19.4018 55.7076 19.8418V27.9868C55.7076 28.4268 55.5926 28.7618 55.3626 28.9918C55.1426 29.2218 54.8176 29.3368 54.3876 29.3368C53.9676 29.3368 53.6426 29.2218 53.4126 28.9918C53.1826 28.7618 53.0676 28.4268 53.0676 27.9868V27.1318L53.2326 27.8668C53.0926 28.3168 52.7976 28.6818 52.3476 28.9618C51.9076 29.2318 51.4026 29.3668 50.8326 29.3668ZM51.6876 27.4018C51.9576 27.4018 52.1976 27.3368 52.4076 27.2068C52.6176 27.0668 52.7776 26.8618 52.8876 26.5918C53.0076 26.3118 53.0676 25.9518 53.0676 25.5118C53.0676 24.8418 52.9376 24.3618 52.6776 24.0718C52.4176 23.7718 52.0876 23.6218 51.6876 23.6218C51.4176 23.6218 51.1776 23.6868 50.9676 23.8168C50.7576 23.9468 50.5926 24.1518 50.4726 24.4318C50.3526 24.7018 50.2926 25.0618 50.2926 25.5118C50.2926 26.1718 50.4226 26.6518 50.6826 26.9518C50.9426 27.2518 51.2776 27.4018 51.6876 27.4018ZM59.3993 32.0368C59.0893 32.0368 58.8393 31.9568 58.6493 31.7968C58.4593 31.6368 58.3393 31.4268 58.2893 31.1668C58.2493 30.9068 58.2943 30.6318 58.4243 30.3418L59.4293 28.1668V29.2468L56.8643 23.3818C56.7343 23.0818 56.6893 22.8018 56.7293 22.5418C56.7793 22.2818 56.9143 22.0768 57.1343 21.9268C57.3543 21.7668 57.6543 21.6868 58.0343 21.6868C58.3543 21.6868 58.6093 21.7618 58.7993 21.9118C58.9993 22.0518 59.1793 22.3318 59.3393 22.7518L60.8393 26.6518H60.3293L61.9193 22.7368C62.0793 22.3268 62.2593 22.0518 62.4593 21.9118C62.6693 21.7618 62.9493 21.6868 63.2993 21.6868C63.5993 21.6868 63.8393 21.7668 64.0193 21.9268C64.1993 22.0768 64.3093 22.2818 64.3493 22.5418C64.3893 22.8018 64.3443 23.0818 64.2143 23.3818L60.8093 31.0318C60.6293 31.4318 60.4293 31.6968 60.2093 31.8268C59.9993 31.9668 59.7293 32.0368 59.3993 32.0368ZM20.9338 45.3368C20.4938 45.3368 20.1488 45.2168 19.8988 44.9768C19.6588 44.7268 19.5388 44.3718 19.5388 43.9118V36.0518C19.5388 35.5918 19.6588 35.2418 19.8988 35.0018C20.1488 34.7518 20.5088 34.6268 20.9788 34.6268H25.9738C26.3338 34.6268 26.6038 34.7168 26.7838 34.8968C26.9638 35.0768 27.0538 35.3368 27.0538 35.6768C27.0538 36.0268 26.9638 36.2968 26.7838 36.4868C26.6038 36.6668 26.3338 36.7568 25.9738 36.7568H22.2988V38.8868H25.6438C25.9938 38.8868 26.2588 38.9768 26.4388 39.1568C26.6288 39.3368 26.7238 39.5968 26.7238 39.9368C26.7238 40.2868 26.6288 40.5518 26.4388 40.7318C26.2588 40.9118 25.9938 41.0018 25.6438 41.0018H22.2988V43.9118C22.2988 44.8618 21.8438 45.3368 20.9338 45.3368ZM29.9659 45.3368C29.5459 45.3368 29.2209 45.2118 28.9909 44.9618C28.7609 44.7118 28.6459 44.3518 28.6459 43.8818V39.1418C28.6459 38.6718 28.7609 38.3118 28.9909 38.0618C29.2209 37.8118 29.5459 37.6868 29.9659 37.6868C30.3959 37.6868 30.7259 37.8118 30.9559 38.0618C31.1959 38.3118 31.3159 38.6718 31.3159 39.1418V43.8818C31.3159 44.3518 31.2009 44.7118 30.9709 44.9618C30.7409 45.2118 30.4059 45.3368 29.9659 45.3368ZM29.9659 36.6218C29.4959 36.6218 29.1309 36.5118 28.8709 36.2918C28.6209 36.0718 28.4959 35.7518 28.4959 35.3318C28.4959 34.9218 28.6209 34.6068 28.8709 34.3868C29.1309 34.1668 29.4959 34.0568 29.9659 34.0568C30.4559 34.0568 30.8259 34.1668 31.0759 34.3868C31.3259 34.6068 31.4509 34.9218 31.4509 35.3318C31.4509 35.7518 31.3259 36.0718 31.0759 36.2918C30.8259 36.5118 30.4559 36.6218 29.9659 36.6218ZM36.8847 45.3668C35.9847 45.3668 35.2047 45.2118 34.5447 44.9018C33.8947 44.5818 33.3947 44.1318 33.0447 43.5518C32.6947 42.9718 32.5197 42.2868 32.5197 41.4968C32.5197 40.7368 32.6847 40.0718 33.0147 39.5018C33.3547 38.9218 33.8147 38.4718 34.3947 38.1518C34.9847 37.8218 35.6547 37.6568 36.4047 37.6568C36.9547 37.6568 37.4547 37.7468 37.9047 37.9268C38.3547 38.0968 38.7397 38.3518 39.0597 38.6918C39.3797 39.0218 39.6197 39.4218 39.7797 39.8918C39.9497 40.3618 40.0347 40.8868 40.0347 41.4668C40.0347 41.6668 39.9797 41.8168 39.8697 41.9168C39.7597 42.0068 39.5847 42.0518 39.3447 42.0518H34.7547V40.7918H38.0847L37.8447 40.9868C37.8447 40.6168 37.7947 40.3168 37.6947 40.0868C37.5947 39.8568 37.4447 39.6818 37.2447 39.5618C37.0547 39.4418 36.8147 39.3818 36.5247 39.3818C36.2147 39.3818 35.9447 39.4568 35.7147 39.6068C35.4947 39.7468 35.3247 39.9568 35.2047 40.2368C35.0847 40.5168 35.0247 40.8668 35.0247 41.2868V41.4218C35.0247 42.1318 35.1797 42.6418 35.4897 42.9518C35.8097 43.2518 36.2997 43.4018 36.9597 43.4018C37.1797 43.4018 37.4297 43.3768 37.7097 43.3268C37.9997 43.2668 38.2747 43.1868 38.5347 43.0868C38.7947 42.9868 39.0197 42.9718 39.2097 43.0418C39.3997 43.1018 39.5447 43.2118 39.6447 43.3718C39.7547 43.5218 39.8147 43.6968 39.8247 43.8968C39.8347 44.0868 39.7897 44.2768 39.6897 44.4668C39.5897 44.6468 39.4247 44.7868 39.1947 44.8868C38.8447 45.0468 38.4697 45.1668 38.0697 45.2468C37.6797 45.3268 37.2847 45.3668 36.8847 45.3668ZM43.99 45.3668C43.03 45.3668 42.32 45.1118 41.86 44.6018C41.41 44.0818 41.185 43.3018 41.185 42.2618V35.8418C41.185 35.4018 41.3 35.0668 41.53 34.8368C41.76 34.6068 42.085 34.4918 42.505 34.4918C42.935 34.4918 43.265 34.6068 43.495 34.8368C43.735 35.0668 43.855 35.4018 43.855 35.8418V42.1718C43.855 42.5418 43.925 42.8118 44.065 42.9818C44.215 43.1518 44.405 43.2368 44.635 43.2368C44.705 43.2368 44.775 43.2318 44.845 43.2218C44.925 43.2018 45.01 43.1868 45.1 43.1768C45.27 43.1768 45.395 43.2418 45.475 43.3718C45.565 43.5018 45.61 43.7668 45.61 44.1668C45.61 44.5168 45.54 44.7818 45.4 44.9618C45.26 45.1318 45.045 45.2418 44.755 45.2918C44.675 45.3018 44.56 45.3168 44.41 45.3368C44.26 45.3568 44.12 45.3668 43.99 45.3668ZM49.2066 45.3668C48.5766 45.3668 48.0166 45.2118 47.5266 44.9018C47.0466 44.5918 46.6666 44.1468 46.3866 43.5668C46.1166 42.9868 45.9816 42.3018 45.9816 41.5118C45.9816 40.7018 46.1166 40.0118 46.3866 39.4418C46.6666 38.8718 47.0466 38.4318 47.5266 38.1218C48.0166 37.8118 48.5766 37.6568 49.2066 37.6568C49.7566 37.6568 50.2516 37.7868 50.6916 38.0468C51.1316 38.3068 51.4266 38.6418 51.5766 39.0518H51.4116V35.8418C51.4116 35.4018 51.5266 35.0668 51.7566 34.8368C51.9866 34.6068 52.3166 34.4918 52.7466 34.4918C53.1666 34.4918 53.4916 34.6068 53.7216 34.8368C53.9616 35.0668 54.0816 35.4018 54.0816 35.8418V43.9868C54.0816 44.4268 53.9666 44.7618 53.7366 44.9918C53.5166 45.2218 53.1916 45.3368 52.7616 45.3368C52.3416 45.3368 52.0166 45.2218 51.7866 44.9918C51.5566 44.7618 51.4416 44.4268 51.4416 43.9868V43.1318L51.6066 43.8668C51.4666 44.3168 51.1716 44.6818 50.7216 44.9618C50.2816 45.2318 49.7766 45.3668 49.2066 45.3668ZM50.0616 43.4018C50.3316 43.4018 50.5716 43.3368 50.7816 43.2068C50.9916 43.0668 51.1516 42.8618 51.2616 42.5918C51.3816 42.3118 51.4416 41.9518 51.4416 41.5118C51.4416 40.8418 51.3116 40.3618 51.0516 40.0718C50.7916 39.7718 50.4616 39.6218 50.0616 39.6218C49.7916 39.6218 49.5516 39.6868 49.3416 39.8168C49.1316 39.9468 48.9666 40.1518 48.8466 40.4318C48.7266 40.7018 48.6666 41.0618 48.6666 41.5118C48.6666 42.1718 48.7966 42.6518 49.0566 42.9518C49.3166 43.2518 49.6516 43.4018 50.0616 43.4018ZM63.3253 45.3668C62.8153 45.3668 62.3053 45.3168 61.7953 45.2168C61.2853 45.1168 60.8453 44.9768 60.4753 44.7968C60.1553 44.6468 59.9303 44.4618 59.8003 44.2418C59.6803 44.0218 59.6303 43.7968 59.6503 43.5668C59.6703 43.3368 59.7503 43.1318 59.8903 42.9518C60.0403 42.7718 60.2303 42.6518 60.4603 42.5918C60.7003 42.5218 60.9703 42.5518 61.2703 42.6818C61.6403 42.8418 61.9803 42.9518 62.2903 43.0118C62.6003 43.0718 62.9103 43.1018 63.2203 43.1018C63.5803 43.1018 63.8803 43.0618 64.1203 42.9818C64.3603 42.9018 64.5403 42.7818 64.6603 42.6218C64.7803 42.4518 64.8403 42.2418 64.8403 41.9918C64.8403 41.6418 64.7153 41.3868 64.4653 41.2268C64.2253 41.0568 63.8703 40.9718 63.4003 40.9718H62.5903C62.2103 40.9718 61.9203 40.8768 61.7203 40.6868C61.5203 40.4968 61.4203 40.2268 61.4203 39.8768C61.4203 39.5268 61.5203 39.2568 61.7203 39.0668C61.9203 38.8768 62.2103 38.7818 62.5903 38.7818H63.1303C63.4203 38.7818 63.6653 38.7418 63.8653 38.6618C64.0753 38.5818 64.2353 38.4668 64.3453 38.3168C64.4553 38.1568 64.5103 37.9618 64.5103 37.7318C64.5103 37.4018 64.3903 37.1518 64.1503 36.9818C63.9203 36.8118 63.5753 36.7268 63.1153 36.7268C62.8353 36.7268 62.5503 36.7568 62.2603 36.8168C61.9703 36.8768 61.6603 36.9818 61.3303 37.1318C61.0703 37.2418 60.8303 37.2668 60.6103 37.2068C60.4003 37.1468 60.2253 37.0318 60.0853 36.8618C59.9553 36.6818 59.8753 36.4868 59.8453 36.2768C59.8153 36.0568 59.8503 35.8418 59.9503 35.6318C60.0503 35.4218 60.2403 35.2468 60.5203 35.1068C60.9403 34.8968 61.3953 34.7368 61.8853 34.6268C62.3853 34.5168 62.8853 34.4618 63.3853 34.4618C64.1753 34.4618 64.8503 34.5768 65.4103 34.8068C65.9703 35.0368 66.3953 35.3718 66.6853 35.8118C66.9853 36.2418 67.1353 36.7618 67.1353 37.3718C67.1353 37.7718 67.0603 38.1418 66.9103 38.4818C66.7603 38.8218 66.5403 39.1068 66.2503 39.3368C65.9603 39.5568 65.6203 39.7168 65.2303 39.8168V39.6068C65.9303 39.7168 66.4753 40.0118 66.8653 40.4918C67.2653 40.9618 67.4653 41.5518 67.4653 42.2618C67.4653 42.9018 67.3003 43.4568 66.9703 43.9268C66.6403 44.3968 66.1653 44.7568 65.5453 45.0068C64.9253 45.2468 64.1853 45.3668 63.3253 45.3668Z"/>
</mask>
<path d="M27.0137 29.3668C26.6137 29.3668 26.1937 29.3368 25.7537 29.2768C25.3237 29.2268 24.9137 29.1468 24.5237 29.0368C24.1337 28.9268 23.7837 28.7968 23.4737 28.6468C23.2037 28.5168 23.0137 28.3468 22.9037 28.1368C22.7937 27.9168 22.7537 27.6868 22.7837 27.4468C22.8137 27.2068 22.8987 26.9968 23.0387 26.8168C23.1787 26.6268 23.3637 26.5018 23.5937 26.4418C23.8237 26.3718 24.0837 26.4018 24.3737 26.5318C24.7537 26.7118 25.1837 26.8518 25.6637 26.9518C26.1437 27.0518 26.5937 27.1018 27.0137 27.1018C27.6737 27.1018 28.1337 27.0168 28.3937 26.8468C28.6637 26.6668 28.7987 26.4468 28.7987 26.1868C28.7987 25.9568 28.7037 25.7718 28.5137 25.6318C28.3337 25.4918 28.0087 25.3718 27.5387 25.2718L25.7837 24.8968C24.8237 24.6968 24.1087 24.3468 23.6387 23.8468C23.1687 23.3468 22.9337 22.7018 22.9337 21.9118C22.9337 21.3918 23.0387 20.9218 23.2487 20.5018C23.4687 20.0718 23.7737 19.7068 24.1637 19.4068C24.5637 19.1068 25.0337 18.8768 25.5737 18.7168C26.1237 18.5468 26.7337 18.4618 27.4037 18.4618C27.9237 18.4618 28.4487 18.5218 28.9787 18.6418C29.5187 18.7518 29.9837 18.9218 30.3737 19.1518C30.6037 19.2718 30.7687 19.4368 30.8687 19.6468C30.9687 19.8568 31.0087 20.0768 30.9887 20.3068C30.9687 20.5268 30.8887 20.7218 30.7487 20.8918C30.6187 21.0618 30.4387 21.1768 30.2087 21.2368C29.9887 21.2868 29.7237 21.2468 29.4137 21.1168C29.1237 20.9868 28.7937 20.8918 28.4237 20.8318C28.0637 20.7618 27.7137 20.7268 27.3737 20.7268C27.0037 20.7268 26.6887 20.7718 26.4287 20.8618C26.1687 20.9418 25.9687 21.0618 25.8287 21.2218C25.6987 21.3818 25.6337 21.5668 25.6337 21.7768C25.6337 21.9868 25.7187 22.1668 25.8887 22.3168C26.0687 22.4568 26.3937 22.5768 26.8637 22.6768L28.6037 23.0518C29.5737 23.2618 30.2987 23.6068 30.7787 24.0868C31.2587 24.5668 31.4987 25.1918 31.4987 25.9618C31.4987 26.4818 31.3937 26.9518 31.1837 27.3718C30.9737 27.7918 30.6737 28.1518 30.2837 28.4518C29.8937 28.7418 29.4237 28.9668 28.8737 29.1268C28.3237 29.2868 27.7037 29.3668 27.0137 29.3668ZM36.4271 29.3668C35.6771 29.3668 35.0571 29.2518 34.5671 29.0218C34.0871 28.7918 33.7271 28.4468 33.4871 27.9868C33.2471 27.5168 33.1271 26.9318 33.1271 26.2318V23.7868H32.6171C32.2971 23.7868 32.0471 23.7018 31.8671 23.5318C31.6971 23.3618 31.6121 23.1168 31.6121 22.7968C31.6121 22.4768 31.6971 22.2368 31.8671 22.0768C32.0471 21.9068 32.2971 21.8218 32.6171 21.8218H33.1271V20.8918C33.1271 20.4518 33.2421 20.1168 33.4721 19.8868C33.7021 19.6568 34.0321 19.5418 34.4621 19.5418C34.8921 19.5418 35.2221 19.6568 35.4521 19.8868C35.6821 20.1168 35.7971 20.4518 35.7971 20.8918V21.8218H37.0271C37.3571 21.8218 37.6071 21.9068 37.7771 22.0768C37.9571 22.2368 38.0471 22.4768 38.0471 22.7968C38.0471 23.1168 37.9571 23.3618 37.7771 23.5318C37.6071 23.7018 37.3571 23.7868 37.0271 23.7868H35.7971V26.1418C35.7971 26.5118 35.8821 26.7868 36.0521 26.9668C36.2321 27.1368 36.5121 27.2218 36.8921 27.2218C37.0321 27.2218 37.1671 27.2068 37.2971 27.1768C37.4271 27.1468 37.5471 27.1318 37.6571 27.1318C37.8171 27.1218 37.9471 27.1718 38.0471 27.2818C38.1471 27.3818 38.1971 27.6168 38.1971 27.9868C38.1971 28.2868 38.1521 28.5418 38.0621 28.7518C37.9721 28.9518 37.8121 29.0968 37.5821 29.1868C37.4421 29.2368 37.2521 29.2768 37.0121 29.3068C36.7721 29.3468 36.5771 29.3668 36.4271 29.3668ZM41.7038 29.3668C41.0638 29.3668 40.5388 29.2518 40.1288 29.0218C39.7188 28.7818 39.4088 28.4268 39.1988 27.9568C38.9988 27.4868 38.8988 26.8918 38.8988 26.1718V23.0218C38.8988 22.5818 39.0138 22.2518 39.2438 22.0318C39.4738 21.8018 39.8038 21.6868 40.2338 21.6868C40.6638 21.6868 40.9938 21.8018 41.2238 22.0318C41.4538 22.2518 41.5688 22.5818 41.5688 23.0218V26.2468C41.5688 26.6068 41.6438 26.8768 41.7938 27.0568C41.9438 27.2368 42.1788 27.3268 42.4988 27.3268C42.8588 27.3268 43.1538 27.1968 43.3838 26.9368C43.6138 26.6768 43.7288 26.3318 43.7288 25.9018V23.0218C43.7288 22.5818 43.8438 22.2518 44.0738 22.0318C44.3038 21.8018 44.6338 21.6868 45.0638 21.6868C45.4938 21.6868 45.8238 21.8018 46.0538 22.0318C46.2838 22.2518 46.3988 22.5818 46.3988 23.0218V27.9868C46.3988 28.8868 45.9688 29.3368 45.1088 29.3368C44.6888 29.3368 44.3638 29.2218 44.1338 28.9918C43.9038 28.7618 43.7888 28.4268 43.7888 27.9868V27.1168L44.0288 27.8518C43.8088 28.3418 43.4988 28.7168 43.0988 28.9768C42.7088 29.2368 42.2438 29.3668 41.7038 29.3668ZM50.8326 29.3668C50.2026 29.3668 49.6426 29.2118 49.1526 28.9018C48.6726 28.5918 48.2926 28.1468 48.0126 27.5668C47.7426 26.9868 47.6076 26.3018 47.6076 25.5118C47.6076 24.7018 47.7426 24.0118 48.0126 23.4418C48.2926 22.8718 48.6726 22.4318 49.1526 22.1218C49.6426 21.8118 50.2026 21.6568 50.8326 21.6568C51.3826 21.6568 51.8776 21.7868 52.3176 22.0468C52.7576 22.3068 53.0526 22.6418 53.2026 23.0518H53.0376V19.8418C53.0376 19.4018 53.1526 19.0668 53.3826 18.8368C53.6126 18.6068 53.9426 18.4918 54.3726 18.4918C54.7926 18.4918 55.1176 18.6068 55.3476 18.8368C55.5876 19.0668 55.7076 19.4018 55.7076 19.8418V27.9868C55.7076 28.4268 55.5926 28.7618 55.3626 28.9918C55.1426 29.2218 54.8176 29.3368 54.3876 29.3368C53.9676 29.3368 53.6426 29.2218 53.4126 28.9918C53.1826 28.7618 53.0676 28.4268 53.0676 27.9868V27.1318L53.2326 27.8668C53.0926 28.3168 52.7976 28.6818 52.3476 28.9618C51.9076 29.2318 51.4026 29.3668 50.8326 29.3668ZM51.6876 27.4018C51.9576 27.4018 52.1976 27.3368 52.4076 27.2068C52.6176 27.0668 52.7776 26.8618 52.8876 26.5918C53.0076 26.3118 53.0676 25.9518 53.0676 25.5118C53.0676 24.8418 52.9376 24.3618 52.6776 24.0718C52.4176 23.7718 52.0876 23.6218 51.6876 23.6218C51.4176 23.6218 51.1776 23.6868 50.9676 23.8168C50.7576 23.9468 50.5926 24.1518 50.4726 24.4318C50.3526 24.7018 50.2926 25.0618 50.2926 25.5118C50.2926 26.1718 50.4226 26.6518 50.6826 26.9518C50.9426 27.2518 51.2776 27.4018 51.6876 27.4018ZM59.3993 32.0368C59.0893 32.0368 58.8393 31.9568 58.6493 31.7968C58.4593 31.6368 58.3393 31.4268 58.2893 31.1668C58.2493 30.9068 58.2943 30.6318 58.4243 30.3418L59.4293 28.1668V29.2468L56.8643 23.3818C56.7343 23.0818 56.6893 22.8018 56.7293 22.5418C56.7793 22.2818 56.9143 22.0768 57.1343 21.9268C57.3543 21.7668 57.6543 21.6868 58.0343 21.6868C58.3543 21.6868 58.6093 21.7618 58.7993 21.9118C58.9993 22.0518 59.1793 22.3318 59.3393 22.7518L60.8393 26.6518H60.3293L61.9193 22.7368C62.0793 22.3268 62.2593 22.0518 62.4593 21.9118C62.6693 21.7618 62.9493 21.6868 63.2993 21.6868C63.5993 21.6868 63.8393 21.7668 64.0193 21.9268C64.1993 22.0768 64.3093 22.2818 64.3493 22.5418C64.3893 22.8018 64.3443 23.0818 64.2143 23.3818L60.8093 31.0318C60.6293 31.4318 60.4293 31.6968 60.2093 31.8268C59.9993 31.9668 59.7293 32.0368 59.3993 32.0368ZM20.9338 45.3368C20.4938 45.3368 20.1488 45.2168 19.8988 44.9768C19.6588 44.7268 19.5388 44.3718 19.5388 43.9118V36.0518C19.5388 35.5918 19.6588 35.2418 19.8988 35.0018C20.1488 34.7518 20.5088 34.6268 20.9788 34.6268H25.9738C26.3338 34.6268 26.6038 34.7168 26.7838 34.8968C26.9638 35.0768 27.0538 35.3368 27.0538 35.6768C27.0538 36.0268 26.9638 36.2968 26.7838 36.4868C26.6038 36.6668 26.3338 36.7568 25.9738 36.7568H22.2988V38.8868H25.6438C25.9938 38.8868 26.2588 38.9768 26.4388 39.1568C26.6288 39.3368 26.7238 39.5968 26.7238 39.9368C26.7238 40.2868 26.6288 40.5518 26.4388 40.7318C26.2588 40.9118 25.9938 41.0018 25.6438 41.0018H22.2988V43.9118C22.2988 44.8618 21.8438 45.3368 20.9338 45.3368ZM29.9659 45.3368C29.5459 45.3368 29.2209 45.2118 28.9909 44.9618C28.7609 44.7118 28.6459 44.3518 28.6459 43.8818V39.1418C28.6459 38.6718 28.7609 38.3118 28.9909 38.0618C29.2209 37.8118 29.5459 37.6868 29.9659 37.6868C30.3959 37.6868 30.7259 37.8118 30.9559 38.0618C31.1959 38.3118 31.3159 38.6718 31.3159 39.1418V43.8818C31.3159 44.3518 31.2009 44.7118 30.9709 44.9618C30.7409 45.2118 30.4059 45.3368 29.9659 45.3368ZM29.9659 36.6218C29.4959 36.6218 29.1309 36.5118 28.8709 36.2918C28.6209 36.0718 28.4959 35.7518 28.4959 35.3318C28.4959 34.9218 28.6209 34.6068 28.8709 34.3868C29.1309 34.1668 29.4959 34.0568 29.9659 34.0568C30.4559 34.0568 30.8259 34.1668 31.0759 34.3868C31.3259 34.6068 31.4509 34.9218 31.4509 35.3318C31.4509 35.7518 31.3259 36.0718 31.0759 36.2918C30.8259 36.5118 30.4559 36.6218 29.9659 36.6218ZM36.8847 45.3668C35.9847 45.3668 35.2047 45.2118 34.5447 44.9018C33.8947 44.5818 33.3947 44.1318 33.0447 43.5518C32.6947 42.9718 32.5197 42.2868 32.5197 41.4968C32.5197 40.7368 32.6847 40.0718 33.0147 39.5018C33.3547 38.9218 33.8147 38.4718 34.3947 38.1518C34.9847 37.8218 35.6547 37.6568 36.4047 37.6568C36.9547 37.6568 37.4547 37.7468 37.9047 37.9268C38.3547 38.0968 38.7397 38.3518 39.0597 38.6918C39.3797 39.0218 39.6197 39.4218 39.7797 39.8918C39.9497 40.3618 40.0347 40.8868 40.0347 41.4668C40.0347 41.6668 39.9797 41.8168 39.8697 41.9168C39.7597 42.0068 39.5847 42.0518 39.3447 42.0518H34.7547V40.7918H38.0847L37.8447 40.9868C37.8447 40.6168 37.7947 40.3168 37.6947 40.0868C37.5947 39.8568 37.4447 39.6818 37.2447 39.5618C37.0547 39.4418 36.8147 39.3818 36.5247 39.3818C36.2147 39.3818 35.9447 39.4568 35.7147 39.6068C35.4947 39.7468 35.3247 39.9568 35.2047 40.2368C35.0847 40.5168 35.0247 40.8668 35.0247 41.2868V41.4218C35.0247 42.1318 35.1797 42.6418 35.4897 42.9518C35.8097 43.2518 36.2997 43.4018 36.9597 43.4018C37.1797 43.4018 37.4297 43.3768 37.7097 43.3268C37.9997 43.2668 38.2747 43.1868 38.5347 43.0868C38.7947 42.9868 39.0197 42.9718 39.2097 43.0418C39.3997 43.1018 39.5447 43.2118 39.6447 43.3718C39.7547 43.5218 39.8147 43.6968 39.8247 43.8968C39.8347 44.0868 39.7897 44.2768 39.6897 44.4668C39.5897 44.6468 39.4247 44.7868 39.1947 44.8868C38.8447 45.0468 38.4697 45.1668 38.0697 45.2468C37.6797 45.3268 37.2847 45.3668 36.8847 45.3668ZM43.99 45.3668C43.03 45.3668 42.32 45.1118 41.86 44.6018C41.41 44.0818 41.185 43.3018 41.185 42.2618V35.8418C41.185 35.4018 41.3 35.0668 41.53 34.8368C41.76 34.6068 42.085 34.4918 42.505 34.4918C42.935 34.4918 43.265 34.6068 43.495 34.8368C43.735 35.0668 43.855 35.4018 43.855 35.8418V42.1718C43.855 42.5418 43.925 42.8118 44.065 42.9818C44.215 43.1518 44.405 43.2368 44.635 43.2368C44.705 43.2368 44.775 43.2318 44.845 43.2218C44.925 43.2018 45.01 43.1868 45.1 43.1768C45.27 43.1768 45.395 43.2418 45.475 43.3718C45.565 43.5018 45.61 43.7668 45.61 44.1668C45.61 44.5168 45.54 44.7818 45.4 44.9618C45.26 45.1318 45.045 45.2418 44.755 45.2918C44.675 45.3018 44.56 45.3168 44.41 45.3368C44.26 45.3568 44.12 45.3668 43.99 45.3668ZM49.2066 45.3668C48.5766 45.3668 48.0166 45.2118 47.5266 44.9018C47.0466 44.5918 46.6666 44.1468 46.3866 43.5668C46.1166 42.9868 45.9816 42.3018 45.9816 41.5118C45.9816 40.7018 46.1166 40.0118 46.3866 39.4418C46.6666 38.8718 47.0466 38.4318 47.5266 38.1218C48.0166 37.8118 48.5766 37.6568 49.2066 37.6568C49.7566 37.6568 50.2516 37.7868 50.6916 38.0468C51.1316 38.3068 51.4266 38.6418 51.5766 39.0518H51.4116V35.8418C51.4116 35.4018 51.5266 35.0668 51.7566 34.8368C51.9866 34.6068 52.3166 34.4918 52.7466 34.4918C53.1666 34.4918 53.4916 34.6068 53.7216 34.8368C53.9616 35.0668 54.0816 35.4018 54.0816 35.8418V43.9868C54.0816 44.4268 53.9666 44.7618 53.7366 44.9918C53.5166 45.2218 53.1916 45.3368 52.7616 45.3368C52.3416 45.3368 52.0166 45.2218 51.7866 44.9918C51.5566 44.7618 51.4416 44.4268 51.4416 43.9868V43.1318L51.6066 43.8668C51.4666 44.3168 51.1716 44.6818 50.7216 44.9618C50.2816 45.2318 49.7766 45.3668 49.2066 45.3668ZM50.0616 43.4018C50.3316 43.4018 50.5716 43.3368 50.7816 43.2068C50.9916 43.0668 51.1516 42.8618 51.2616 42.5918C51.3816 42.3118 51.4416 41.9518 51.4416 41.5118C51.4416 40.8418 51.3116 40.3618 51.0516 40.0718C50.7916 39.7718 50.4616 39.6218 50.0616 39.6218C49.7916 39.6218 49.5516 39.6868 49.3416 39.8168C49.1316 39.9468 48.9666 40.1518 48.8466 40.4318C48.7266 40.7018 48.6666 41.0618 48.6666 41.5118C48.6666 42.1718 48.7966 42.6518 49.0566 42.9518C49.3166 43.2518 49.6516 43.4018 50.0616 43.4018ZM63.3253 45.3668C62.8153 45.3668 62.3053 45.3168 61.7953 45.2168C61.2853 45.1168 60.8453 44.9768 60.4753 44.7968C60.1553 44.6468 59.9303 44.4618 59.8003 44.2418C59.6803 44.0218 59.6303 43.7968 59.6503 43.5668C59.6703 43.3368 59.7503 43.1318 59.8903 42.9518C60.0403 42.7718 60.2303 42.6518 60.4603 42.5918C60.7003 42.5218 60.9703 42.5518 61.2703 42.6818C61.6403 42.8418 61.9803 42.9518 62.2903 43.0118C62.6003 43.0718 62.9103 43.1018 63.2203 43.1018C63.5803 43.1018 63.8803 43.0618 64.1203 42.9818C64.3603 42.9018 64.5403 42.7818 64.6603 42.6218C64.7803 42.4518 64.8403 42.2418 64.8403 41.9918C64.8403 41.6418 64.7153 41.3868 64.4653 41.2268C64.2253 41.0568 63.8703 40.9718 63.4003 40.9718H62.5903C62.2103 40.9718 61.9203 40.8768 61.7203 40.6868C61.5203 40.4968 61.4203 40.2268 61.4203 39.8768C61.4203 39.5268 61.5203 39.2568 61.7203 39.0668C61.9203 38.8768 62.2103 38.7818 62.5903 38.7818H63.1303C63.4203 38.7818 63.6653 38.7418 63.8653 38.6618C64.0753 38.5818 64.2353 38.4668 64.3453 38.3168C64.4553 38.1568 64.5103 37.9618 64.5103 37.7318C64.5103 37.4018 64.3903 37.1518 64.1503 36.9818C63.9203 36.8118 63.5753 36.7268 63.1153 36.7268C62.8353 36.7268 62.5503 36.7568 62.2603 36.8168C61.9703 36.8768 61.6603 36.9818 61.3303 37.1318C61.0703 37.2418 60.8303 37.2668 60.6103 37.2068C60.4003 37.1468 60.2253 37.0318 60.0853 36.8618C59.9553 36.6818 59.8753 36.4868 59.8453 36.2768C59.8153 36.0568 59.8503 35.8418 59.9503 35.6318C60.0503 35.4218 60.2403 35.2468 60.5203 35.1068C60.9403 34.8968 61.3953 34.7368 61.8853 34.6268C62.3853 34.5168 62.8853 34.4618 63.3853 34.4618C64.1753 34.4618 64.8503 34.5768 65.4103 34.8068C65.9703 35.0368 66.3953 35.3718 66.6853 35.8118C66.9853 36.2418 67.1353 36.7618 67.1353 37.3718C67.1353 37.7718 67.0603 38.1418 66.9103 38.4818C66.7603 38.8218 66.5403 39.1068 66.2503 39.3368C65.9603 39.5568 65.6203 39.7168 65.2303 39.8168V39.6068C65.9303 39.7168 66.4753 40.0118 66.8653 40.4918C67.2653 40.9618 67.4653 41.5518 67.4653 42.2618C67.4653 42.9018 67.3003 43.4568 66.9703 43.9268C66.6403 44.3968 66.1653 44.7568 65.5453 45.0068C64.9253 45.2468 64.1853 45.3668 63.3253 45.3668Z" fill="white"/>
<path d="M25.7537 29.2768L25.8213 28.7813L25.8115 28.7801L25.7537 29.2768ZM23.4737 28.6468L23.6915 28.1967L23.6906 28.1963L23.4737 28.6468ZM22.9037 28.1368L22.4564 28.3604L22.4608 28.3688L22.9037 28.1368ZM22.7837 27.4468L23.2799 27.5088L22.7837 27.4468ZM23.0387 26.8168L23.4335 27.1239L23.4413 27.1134L23.0387 26.8168ZM23.5937 26.4418L23.7199 26.9256L23.7297 26.923L23.7393 26.9201L23.5937 26.4418ZM24.3737 26.5318L24.5878 26.0798L24.5783 26.0755L24.3737 26.5318ZM25.6637 26.9518L25.7657 26.4623L25.6637 26.9518ZM28.3937 26.8468L28.6674 27.2653L28.6711 27.2628L28.3937 26.8468ZM28.5137 25.6318L28.2067 26.0266L28.2171 26.0343L28.5137 25.6318ZM27.5387 25.2718L27.4343 25.7607L27.4347 25.7608L27.5387 25.2718ZM25.7837 24.8968L25.8882 24.4078L25.8857 24.4073L25.7837 24.8968ZM23.6387 23.8468L24.003 23.5043L23.6387 23.8468ZM23.2487 20.5018L22.8036 20.274L22.8015 20.2782L23.2487 20.5018ZM24.1637 19.4068L23.8637 19.0068L23.8589 19.0105L24.1637 19.4068ZM25.5737 18.7168L25.7158 19.1962L25.7214 19.1945L25.5737 18.7168ZM28.9787 18.6418L28.8683 19.1296L28.8789 19.1317L28.9787 18.6418ZM30.3737 19.1518L30.1197 19.5825L30.1309 19.5891L30.1425 19.5951L30.3737 19.1518ZM30.8687 19.6468L30.4173 19.8617L30.4173 19.8617L30.8687 19.6468ZM30.9887 20.3068L31.4867 20.352L31.4869 20.3501L30.9887 20.3068ZM30.7487 20.8918L30.3628 20.5739L30.357 20.5809L30.3516 20.5881L30.7487 20.8918ZM30.2087 21.2368L30.3195 21.7243L30.3273 21.7226L30.3349 21.7206L30.2087 21.2368ZM29.4137 21.1168L29.2091 21.5732L29.2204 21.5779L29.4137 21.1168ZM28.4237 20.8318L28.3283 21.3226L28.336 21.3241L28.3437 21.3253L28.4237 20.8318ZM26.4287 20.8618L26.5758 21.3397L26.5841 21.3371L26.5923 21.3343L26.4287 20.8618ZM25.8287 21.2218L25.4524 20.8925L25.4464 20.8994L25.4407 20.9065L25.8287 21.2218ZM25.8887 22.3168L25.5579 22.6917L25.5695 22.7019L25.5818 22.7115L25.8887 22.3168ZM26.8637 22.6768L26.9691 22.188L26.9678 22.1877L26.8637 22.6768ZM28.6037 23.0518L28.7095 22.5631L28.7091 22.563L28.6037 23.0518ZM31.1837 27.3718L31.6309 27.5954V27.5954L31.1837 27.3718ZM30.2837 28.4518L30.5821 28.8531L30.5886 28.8481L30.2837 28.4518ZM28.8737 29.1268L29.0134 29.6069L28.8737 29.1268ZM27.0137 28.8668C26.6386 28.8668 26.2413 28.8386 25.8213 28.7814L25.6862 29.7722C26.1462 29.8349 26.5888 29.8668 27.0137 29.8668V28.8668ZM25.8115 28.7801C25.4061 28.733 25.0223 28.6579 24.6595 28.5556L24.388 29.518C24.8052 29.6357 25.2414 29.7206 25.696 29.7734L25.8115 28.7801ZM24.6595 28.5556C24.2929 28.4522 23.971 28.3319 23.6915 28.1967L23.256 29.0969C23.5965 29.2616 23.9746 29.4014 24.388 29.518L24.6595 28.5556ZM23.6906 28.1963C23.4917 28.1005 23.3949 27.9969 23.3466 27.9048L22.4608 28.3688C22.6325 28.6966 22.9158 28.9331 23.2568 29.0973L23.6906 28.1963ZM23.3509 27.9132C23.2843 27.7799 23.2623 27.6491 23.2799 27.5088L22.2876 27.3848C22.2451 27.7245 22.3032 28.0537 22.4565 28.3604L23.3509 27.9132ZM23.2799 27.5088C23.2994 27.3525 23.352 27.2284 23.4334 27.1238L22.6441 26.5098C22.4454 26.7652 22.3281 27.0611 22.2876 27.3848L23.2799 27.5088ZM23.4413 27.1134C23.5128 27.0163 23.5999 26.9569 23.7199 26.9256L23.4675 25.958C23.1276 26.0467 22.8447 26.2373 22.6362 26.5202L23.4413 27.1134ZM23.7393 26.9201C23.8209 26.8953 23.9534 26.8913 24.1692 26.988L24.5783 26.0755C24.2141 25.9123 23.8266 25.8483 23.4482 25.9634L23.7393 26.9201ZM24.1597 26.9837C24.5808 27.1831 25.0493 27.3345 25.5618 27.4413L25.7657 26.4623C25.3182 26.3691 24.9267 26.2405 24.5878 26.0799L24.1597 26.9837ZM25.5618 27.4413C26.0699 27.5471 26.5543 27.6018 27.0137 27.6018V26.6018C26.6331 26.6018 26.2176 26.5564 25.7657 26.4623L25.5618 27.4413ZM27.0137 27.6018C27.6835 27.6018 28.2751 27.5218 28.6674 27.2653L28.1201 26.4283C27.9924 26.5118 27.664 26.6018 27.0137 26.6018V27.6018ZM28.6711 27.2628C29.041 27.0162 29.2987 26.6561 29.2987 26.1868H28.2987C28.2987 26.2375 28.2864 26.3174 28.1164 26.4308L28.6711 27.2628ZM29.2987 26.1868C29.2987 25.7931 29.1243 25.4606 28.8103 25.2293L28.2171 26.0343C28.2832 26.083 28.2987 26.1205 28.2987 26.1868H29.2987ZM28.8207 25.2371C28.5449 25.0226 28.1224 24.8848 27.6428 24.7827L27.4347 25.7608C27.895 25.8588 28.1226 25.961 28.2068 26.0265L28.8207 25.2371ZM27.6432 24.7828L25.8882 24.4078L25.6793 25.3857L27.4343 25.7607L27.6432 24.7828ZM25.8857 24.4073C24.9848 24.2196 24.3785 23.9037 24.003 23.5043L23.2744 24.1892C23.839 24.7898 24.6627 25.174 25.6818 25.3863L25.8857 24.4073ZM24.003 23.5043C23.6334 23.1111 23.4337 22.5952 23.4337 21.9118H22.4337C22.4337 22.8084 22.7041 23.5825 23.2744 24.1892L24.003 23.5043ZM23.4337 21.9118C23.4337 21.461 23.5243 21.0688 23.6959 20.7254L22.8015 20.2782C22.5532 20.7748 22.4337 21.3226 22.4337 21.9118H23.4337ZM23.6939 20.7295C23.8795 20.3667 24.1361 20.0588 24.4686 19.8031L23.8589 19.0105C23.4114 19.3547 23.058 19.7769 22.8036 20.274L23.6939 20.7295ZM24.4637 19.8068C24.8106 19.5466 25.2256 19.3414 25.7158 19.1962L25.4317 18.2374C24.8419 18.4121 24.3169 18.6669 23.8637 19.0068L24.4637 19.8068ZM25.7214 19.1945C26.2165 19.0415 26.7758 18.9618 27.4037 18.9618V17.9618C26.6917 17.9618 26.031 18.0521 25.4261 18.2391L25.7214 19.1945ZM27.4037 18.9618C27.885 18.9618 28.3729 19.0173 28.8683 19.1294L29.0891 18.1541C28.5245 18.0263 27.9625 17.9618 27.4037 17.9618V18.9618ZM28.8789 19.1317C29.376 19.233 29.7866 19.386 30.1197 19.5825L30.6277 18.7211C30.1809 18.4576 29.6615 18.2706 29.0785 18.1518L28.8789 19.1317ZM30.1425 19.5951C30.2879 19.671 30.3693 19.761 30.4173 19.8617L31.3202 19.4318C31.1681 19.1126 30.9196 18.8726 30.605 18.7085L30.1425 19.5951ZM30.4173 19.8617C30.4793 19.992 30.5028 20.1229 30.4906 20.2635L31.4869 20.3501C31.5146 20.0307 31.4581 19.7216 31.3202 19.4318L30.4173 19.8617ZM30.4908 20.2615C30.4799 20.3818 30.4387 20.4817 30.3628 20.5739L31.1347 21.2096C31.3388 20.9618 31.4576 20.6718 31.4867 20.352L30.4908 20.2615ZM30.3516 20.5881C30.2968 20.6597 30.2173 20.7178 30.0825 20.753L30.3349 21.7206C30.6602 21.6357 30.9407 21.4639 31.1459 21.1955L30.3516 20.5881ZM30.0979 20.7492C30.0184 20.7673 29.8656 20.7641 29.6071 20.6557L29.2204 21.5779C29.5819 21.7295 29.9591 21.8063 30.3195 21.7243L30.0979 20.7492ZM29.6183 20.6605C29.2822 20.5099 28.9093 20.404 28.5038 20.3382L28.3437 21.3253C28.6782 21.3796 28.9653 21.4637 29.2092 21.573L29.6183 20.6605ZM28.5192 20.341C28.1302 20.2653 27.7482 20.2268 27.3737 20.2268V21.2268C27.6793 21.2268 27.9973 21.2582 28.3283 21.3226L28.5192 20.341ZM27.3737 20.2268C26.966 20.2268 26.5924 20.276 26.2652 20.3893L26.5923 21.3343C26.785 21.2676 27.0415 21.2268 27.3737 21.2268V20.2268ZM26.2817 20.3839C25.9574 20.4837 25.6685 20.6456 25.4524 20.8925L26.205 21.551C26.269 21.4779 26.38 21.3999 26.5758 21.3397L26.2817 20.3839ZM25.4407 20.9065C25.2368 21.1574 25.1337 21.4543 25.1337 21.7768H26.1337C26.1337 21.6793 26.1607 21.6062 26.2168 21.5371L25.4407 20.9065ZM25.1337 21.7768C25.1337 22.1426 25.29 22.4553 25.5579 22.6917L26.2195 21.9419C26.1475 21.8783 26.1337 21.8309 26.1337 21.7768H25.1337ZM25.5818 22.7115C25.8576 22.926 26.28 23.0638 26.7597 23.1658L26.9678 22.1877C26.5074 22.0898 26.2799 21.9876 26.1957 21.9221L25.5818 22.7115ZM26.7584 23.1656L28.4984 23.5406L28.7091 22.563L26.9691 22.188L26.7584 23.1656ZM28.4979 23.5405C29.415 23.739 30.0376 24.0528 30.4252 24.4403L31.1323 23.7332C30.5598 23.1608 29.7324 22.7846 28.7095 22.5631L28.4979 23.5405ZM30.4252 24.4403C30.7985 24.8137 30.9987 25.305 30.9987 25.9618H31.9987C31.9987 25.0786 31.7189 24.3199 31.1323 23.7332L30.4252 24.4403ZM30.9987 25.9618C30.9987 26.4126 30.9082 26.8048 30.7365 27.1482L31.6309 27.5954C31.8793 27.0988 31.9987 26.551 31.9987 25.9618H30.9987ZM30.7365 27.1482C30.5619 27.4973 30.3119 27.7993 29.9789 28.0555L30.5886 28.8481C31.0355 28.5043 31.3855 28.0862 31.6309 27.5954L30.7365 27.1482ZM29.9854 28.0506C29.6509 28.2993 29.2369 28.5004 28.7341 28.6467L29.0134 29.6069C29.6106 29.4332 30.1366 29.1843 30.5821 28.853L29.9854 28.0506ZM28.7341 28.6467C28.2376 28.7911 27.6658 28.8668 27.0137 28.8668V29.8668C27.7417 29.8668 28.4099 29.7825 29.0134 29.6069L28.7341 28.6467ZM34.5671 29.0218L34.351 29.4727L34.3546 29.4744L34.5671 29.0218ZM33.4871 27.9868L33.0417 28.2142L33.0438 28.2181L33.4871 27.9868ZM33.1271 23.7868H33.6271V23.2868H33.1271V23.7868ZM31.8671 23.5318L31.5135 23.8853L31.5186 23.8904L31.5237 23.8953L31.8671 23.5318ZM31.8671 22.0768L32.2097 22.4409L32.2104 22.4403L31.8671 22.0768ZM33.1271 21.8218V22.3218H33.6271V21.8218H33.1271ZM35.4521 19.8868L35.0985 20.2403V20.2403L35.4521 19.8868ZM35.7971 21.8218H35.2971V22.3218H35.7971V21.8218ZM37.7771 22.0768L37.4235 22.4303L37.4339 22.4407L37.4449 22.4505L37.7771 22.0768ZM37.7771 23.5318L37.4337 23.1683L37.4286 23.1732L37.4235 23.1782L37.7771 23.5318ZM35.7971 23.7868V23.2868H35.2971V23.7868H35.7971ZM36.0521 26.9668L35.6885 27.3101L35.6984 27.3205L35.7087 27.3303L36.0521 26.9668ZM37.2971 27.1768L37.4095 27.664L37.2971 27.1768ZM37.6571 27.1318V27.6318H37.6727L37.6882 27.6308L37.6571 27.1318ZM38.0471 27.2818L37.6771 27.6181L37.6851 27.6269L37.6935 27.6353L38.0471 27.2818ZM38.0621 28.7518L38.5181 28.957L38.5216 28.9487L38.0621 28.7518ZM37.5821 29.1868L37.7502 29.6577L37.7573 29.6551L37.7643 29.6524L37.5821 29.1868ZM37.0121 29.3068L36.95 28.8106L36.9399 28.8119L36.9299 28.8136L37.0121 29.3068ZM36.4271 28.8668C35.7239 28.8668 35.1826 28.7583 34.7795 28.5692L34.3546 29.4744C34.9316 29.7452 35.6302 29.8668 36.4271 29.8668V28.8668ZM34.7831 28.5709C34.3979 28.3863 34.119 28.117 33.9303 27.7555L33.0438 28.2181C33.3351 28.7765 33.7762 29.1973 34.351 29.4727L34.7831 28.5709ZM33.9324 27.7594C33.7381 27.379 33.6271 26.8775 33.6271 26.2318H32.6271C32.6271 26.9861 32.756 27.6546 33.0418 28.2142L33.9324 27.7594ZM33.6271 26.2318V23.7868H32.6271V26.2318H33.6271ZM33.1271 23.2868H32.6171V24.2868H33.1271V23.2868ZM32.6171 23.2868C32.3861 23.2868 32.2728 23.2273 32.2104 23.1683L31.5237 23.8953C31.8213 24.1763 32.208 24.2868 32.6171 24.2868V23.2868ZM32.2206 23.1782C32.1722 23.1298 32.1121 23.0296 32.1121 22.7968H31.1121C31.1121 23.204 31.2219 23.5937 31.5135 23.8853L32.2206 23.1782ZM32.1121 22.7968C32.1121 22.5619 32.173 22.4755 32.2097 22.4409L31.5244 21.7127C31.2211 21.9981 31.1121 22.3917 31.1121 22.7968H32.1121ZM32.2104 22.4403C32.2728 22.3813 32.3861 22.3218 32.6171 22.3218V21.3218C32.208 21.3218 31.8213 21.4323 31.5237 21.7133L32.2104 22.4403ZM32.6171 22.3218H33.1271V21.3218H32.6171V22.3218ZM33.6271 21.8218V20.8918H32.6271V21.8218H33.6271ZM33.6271 20.8918C33.6271 20.5363 33.7186 20.3473 33.8256 20.2403L33.1185 19.5332C32.7655 19.8863 32.6271 20.3672 32.6271 20.8918H33.6271ZM33.8256 20.2403C33.9346 20.1313 34.1204 20.0418 34.4621 20.0418V19.0418C33.9437 19.0418 33.4695 19.1822 33.1185 19.5332L33.8256 20.2403ZM34.4621 20.0418C34.8037 20.0418 34.9895 20.1313 35.0985 20.2403L35.8056 19.5332C35.4546 19.1822 34.9804 19.0418 34.4621 19.0418V20.0418ZM35.0985 20.2403C35.2055 20.3473 35.2971 20.5363 35.2971 20.8918H36.2971C36.2971 20.3672 36.1586 19.8863 35.8056 19.5332L35.0985 20.2403ZM35.2971 20.8918V21.8218H36.2971V20.8918H35.2971ZM35.7971 22.3218H37.0271V21.3218H35.7971V22.3218ZM37.0271 22.3218C37.275 22.3218 37.3778 22.3846 37.4235 22.4303L38.1306 21.7232C37.8363 21.4289 37.4391 21.3218 37.0271 21.3218V22.3218ZM37.4449 22.4505C37.486 22.4871 37.5471 22.5701 37.5471 22.7968H38.5471C38.5471 22.3835 38.4281 21.9865 38.1092 21.7031L37.4449 22.4505ZM37.5471 22.7968C37.5471 23.0216 37.4866 23.1184 37.4337 23.1683L38.1204 23.8953C38.4275 23.6052 38.5471 23.2119 38.5471 22.7968H37.5471ZM37.4235 23.1782C37.3778 23.2239 37.275 23.2868 37.0271 23.2868V24.2868C37.4391 24.2868 37.8363 24.1796 38.1306 23.8853L37.4235 23.1782ZM37.0271 23.2868H35.7971V24.2868H37.0271V23.2868ZM35.2971 23.7868V26.1418H36.2971V23.7868H35.2971ZM35.2971 26.1418C35.2971 26.5775 35.396 27.0004 35.6885 27.3101L36.4156 26.6235C36.3681 26.5732 36.2971 26.4461 36.2971 26.1418H35.2971ZM35.7087 27.3303C36.0206 27.6248 36.4507 27.7218 36.8921 27.7218V26.7218C36.5734 26.7218 36.4435 26.6488 36.3954 26.6033L35.7087 27.3303ZM36.8921 27.7218C37.068 27.7218 37.2408 27.7029 37.4095 27.664L37.1846 26.6896C37.0933 26.7107 36.9961 26.7218 36.8921 26.7218V27.7218ZM37.4095 27.664C37.5101 27.6408 37.5919 27.6318 37.6571 27.6318V26.6318C37.5022 26.6318 37.344 26.6528 37.1846 26.6896L37.4095 27.664ZM37.6882 27.6308C37.6981 27.6302 37.7028 27.6308 37.7031 27.6308C37.7033 27.6309 37.7002 27.6304 37.6951 27.6285C37.6899 27.6265 37.6849 27.6238 37.6809 27.621C37.677 27.6183 37.6758 27.6167 37.6771 27.6181L38.417 26.9454C38.2061 26.7134 37.9237 26.6141 37.6259 26.6328L37.6882 27.6308ZM37.6935 27.6353C37.6647 27.6066 37.6554 27.5844 37.6563 27.5864C37.657 27.588 37.6632 27.6029 37.6705 27.6371C37.6854 27.7073 37.6971 27.8202 37.6971 27.9868H38.6971C38.6971 27.7834 38.6837 27.5938 38.6486 27.429C38.616 27.2757 38.5517 27.0793 38.4006 26.9282L37.6935 27.6353ZM37.6971 27.9868C37.6971 28.2392 37.6589 28.4233 37.6025 28.5548L38.5216 28.9487C38.6452 28.6603 38.6971 28.3343 38.6971 27.9868H37.6971ZM37.6061 28.5466C37.5767 28.6119 37.5248 28.6723 37.3999 28.7212L37.7643 29.6524C38.0993 29.5213 38.3674 29.2917 38.518 28.957L37.6061 28.5466ZM37.4139 28.7159C37.3228 28.7484 37.1733 28.7827 36.95 28.8106L37.0741 29.8029C37.3308 29.7708 37.5613 29.7251 37.7502 29.6577L37.4139 28.7159ZM36.9299 28.8136C36.7025 28.8515 36.5379 28.8668 36.4271 28.8668V29.8668C36.6162 29.8668 36.8416 29.8421 37.0943 29.8L36.9299 28.8136ZM40.1288 29.0218L39.8761 29.4534L39.8841 29.4579L40.1288 29.0218ZM39.1988 27.9568L38.7386 28.1526L38.7423 28.1608L39.1988 27.9568ZM39.2438 22.0318L39.5895 22.3932L39.5973 22.3853L39.2438 22.0318ZM41.2238 22.0318L40.8701 22.3854L40.8782 22.3931L41.2238 22.0318ZM41.7938 27.0568L42.1779 26.7367V26.7367L41.7938 27.0568ZM43.3838 26.9368L43.0093 26.6055L43.3838 26.9368ZM44.0738 22.0318L44.4195 22.3932L44.4273 22.3853L44.0738 22.0318ZM46.0538 22.0318L45.7001 22.3854L45.7082 22.3931L46.0538 22.0318ZM44.1338 28.9918L44.4873 28.6382L44.1338 28.9918ZM43.7888 27.1168L44.2641 26.9616L43.2888 27.1168H43.7888ZM44.0288 27.8518L44.4849 28.0566L44.5641 27.8803L44.5041 27.6966L44.0288 27.8518ZM43.0988 28.9768L42.8263 28.5575L42.8214 28.5608L43.0988 28.9768ZM41.7038 28.8668C41.1198 28.8668 40.6865 28.7614 40.3734 28.5857L39.8841 29.4579C40.391 29.7422 41.0077 29.8668 41.7038 29.8668V28.8668ZM40.3814 28.5903C40.069 28.4074 39.8265 28.1359 39.6553 27.7528L38.7423 28.1608C38.9911 28.7176 39.3685 29.1561 39.8762 29.4533L40.3814 28.5903ZM39.6588 27.761C39.4936 27.3728 39.3988 26.8501 39.3988 26.1718H38.3988C38.3988 26.9335 38.5039 27.6008 38.7387 28.1526L39.6588 27.761ZM39.3988 26.1718V23.0218H38.3988V26.1718H39.3988ZM39.3988 23.0218C39.3988 22.6647 39.491 22.4872 39.5894 22.3931L38.8982 21.6705C38.5366 22.0163 38.3988 22.4989 38.3988 23.0218H39.3988ZM39.5973 22.3853C39.7063 22.2763 39.8921 22.1868 40.2338 22.1868V21.1868C39.7154 21.1868 39.2412 21.3272 38.8902 21.6782L39.5973 22.3853ZM40.2338 22.1868C40.5754 22.1868 40.7612 22.2763 40.8702 22.3853L41.5773 21.6782C41.2263 21.3272 40.7521 21.1868 40.2338 21.1868V22.1868ZM40.8782 22.3931C40.9766 22.4872 41.0688 22.6647 41.0688 23.0218H42.0688C42.0688 22.4989 41.931 22.0163 41.5694 21.6705L40.8782 22.3931ZM41.0688 23.0218V26.2468H42.0688V23.0218H41.0688ZM41.0688 26.2468C41.0688 26.6639 41.1538 27.0698 41.4097 27.3769L42.1779 26.7367C42.1338 26.6837 42.0688 26.5497 42.0688 26.2468H41.0688ZM41.4097 27.3769C41.6861 27.7086 42.0877 27.8268 42.4988 27.8268V26.8268C42.2699 26.8268 42.2015 26.765 42.1779 26.7367L41.4097 27.3769ZM42.4988 27.8268C42.996 27.8268 43.4294 27.6398 43.7583 27.2681L43.0093 26.6055C42.8781 26.7538 42.7216 26.8268 42.4988 26.8268V27.8268ZM43.7583 27.2681C44.0872 26.8963 44.2288 26.4235 44.2288 25.9018H43.2288C43.2288 26.24 43.1404 26.4573 43.0093 26.6055L43.7583 27.2681ZM44.2288 25.9018V23.0218H43.2288V25.9018H44.2288ZM44.2288 23.0218C44.2288 22.6647 44.321 22.4872 44.4194 22.3931L43.7282 21.6705C43.3666 22.0163 43.2288 22.4989 43.2288 23.0218H44.2288ZM44.4273 22.3853C44.5363 22.2763 44.7221 22.1868 45.0638 22.1868V21.1868C44.5454 21.1868 44.0712 21.3272 43.7202 21.6782L44.4273 22.3853ZM45.0638 22.1868C45.4054 22.1868 45.5912 22.2763 45.7002 22.3853L46.4073 21.6782C46.0563 21.3272 45.5821 21.1868 45.0638 21.1868V22.1868ZM45.7082 22.3931C45.8066 22.4872 45.8988 22.6647 45.8988 23.0218H46.8988C46.8988 22.4989 46.761 22.0163 46.3994 21.6705L45.7082 22.3931ZM45.8988 23.0218V27.9868H46.8988V23.0218H45.8988ZM45.8988 27.9868C45.8988 28.3652 45.808 28.5563 45.7148 28.6539C45.6256 28.7472 45.4558 28.8368 45.1088 28.8368V29.8368C45.6218 29.8368 46.0969 29.7014 46.4378 29.3447C46.7746 28.9923 46.8988 28.5083 46.8988 27.9868H45.8988ZM45.1088 28.8368C44.781 28.8368 44.5984 28.7493 44.4873 28.6382L43.7802 29.3453C44.1291 29.6942 44.5965 29.8368 45.1088 29.8368V28.8368ZM44.4873 28.6382C44.3804 28.5313 44.2888 28.3422 44.2888 27.9868H43.2888C43.2888 28.5113 43.4272 28.9923 43.7802 29.3453L44.4873 28.6382ZM44.2888 27.9868V27.1168H43.2888V27.9868H44.2888ZM43.3135 27.272L43.5535 28.007L44.5041 27.6966L44.2641 26.9616L43.3135 27.272ZM43.5726 27.647C43.3869 28.0607 43.1359 28.3563 42.8263 28.5576L43.3713 29.396C43.8617 29.0773 44.2307 28.6228 44.4849 28.0566L43.5726 27.647ZM42.8214 28.5608C42.5255 28.758 42.1605 28.8668 41.7038 28.8668V29.8668C42.3271 29.8668 42.892 29.7155 43.3761 29.3928L42.8214 28.5608ZM49.1526 28.9018L48.8813 29.3218L48.8852 29.3243L49.1526 28.9018ZM48.0126 27.5668L47.5592 27.7778L47.5623 27.7842L48.0126 27.5668ZM48.0126 23.4418L47.5637 23.2213L47.5607 23.2277L48.0126 23.4418ZM49.1526 22.1218L48.8852 21.6992L48.8813 21.7018L49.1526 22.1218ZM53.2026 23.0518V23.5518H53.9179L53.6721 22.88L53.2026 23.0518ZM53.0376 23.0518H52.5376V23.5518H53.0376V23.0518ZM53.3826 18.8368L53.7361 19.1903V19.1903L53.3826 18.8368ZM55.3476 18.8368L54.9939 19.1904L55.0016 19.1978L55.3476 18.8368ZM55.3626 28.9918L55.0089 28.6381L55.0012 28.6462L55.3626 28.9918ZM53.4126 28.9918L53.7661 28.6382L53.4126 28.9918ZM53.0676 27.1318L53.5554 27.0223L52.5676 27.1318H53.0676ZM53.2326 27.8668L53.71 28.0153L53.7497 27.8877L53.7204 27.7573L53.2326 27.8668ZM52.3476 28.9618L52.6091 29.388L52.6117 29.3863L52.3476 28.9618ZM52.4076 27.2068L52.6707 27.6319L52.6779 27.6275L52.6849 27.6228L52.4076 27.2068ZM52.8876 26.5918L52.4279 26.3948L52.4245 26.4031L52.8876 26.5918ZM52.6776 24.0718L52.2997 24.3993L52.3053 24.4056L52.6776 24.0718ZM50.9676 23.8168L50.7044 23.3916L50.9676 23.8168ZM50.4726 24.4318L50.9295 24.6349L50.9321 24.6287L50.4726 24.4318ZM50.6826 26.9518L50.3047 27.2792L50.6826 26.9518ZM50.8326 28.8668C50.2887 28.8668 49.823 28.7343 49.4199 28.4792L48.8852 29.3243C49.4621 29.6893 50.1164 29.8668 50.8326 29.8668V28.8668ZM49.4238 28.4818C49.0304 28.2277 48.7081 27.8575 48.4628 27.3494L47.5623 27.7842C47.877 28.4361 48.3147 28.9559 48.8813 29.3218L49.4238 28.4818ZM48.4659 27.3558C48.233 26.8555 48.1076 26.2456 48.1076 25.5118H47.1076C47.1076 26.358 47.2522 27.1181 47.5593 27.7778L48.4659 27.3558ZM48.1076 25.5118C48.1076 24.7555 48.2338 24.1427 48.4644 23.6558L47.5607 23.2277C47.2513 23.8808 47.1076 24.6481 47.1076 25.5118H48.1076ZM48.4613 23.6622C48.7059 23.1643 49.0283 22.7973 49.4238 22.5418L48.8813 21.7018C48.3169 22.0663 47.8792 22.5793 47.5638 23.2213L48.4613 23.6622ZM49.4199 22.5443C49.823 22.2893 50.2887 22.1568 50.8326 22.1568V21.1568C50.1164 21.1568 49.4621 21.3343 48.8852 21.6992L49.4199 22.5443ZM50.8326 22.1568C51.3001 22.1568 51.7061 22.2662 52.0632 22.4772L52.5719 21.6163C52.049 21.3073 51.465 21.1568 50.8326 21.1568V22.1568ZM52.0632 22.4772C52.4215 22.689 52.6293 22.94 52.733 23.2236L53.6721 22.88C53.4759 22.3436 53.0936 21.9246 52.5719 21.6163L52.0632 22.4772ZM53.2026 22.5518H53.0376V23.5518H53.2026V22.5518ZM53.5376 23.0518V19.8418H52.5376V23.0518H53.5376ZM53.5376 19.8418C53.5376 19.4863 53.6291 19.2973 53.7361 19.1903L53.029 18.4832C52.676 18.8363 52.5376 19.3172 52.5376 19.8418H53.5376ZM53.7361 19.1903C53.8451 19.0813 54.0309 18.9918 54.3726 18.9918V17.9918C53.8542 17.9918 53.38 18.1322 53.029 18.4832L53.7361 19.1903ZM54.3726 18.9918C54.7003 18.9918 54.8829 19.0792 54.994 19.1903L55.7011 18.4832C55.3522 18.1343 54.8848 17.9918 54.3726 17.9918V18.9918ZM55.0016 19.1978C55.1143 19.3058 55.2076 19.4921 55.2076 19.8418H56.2076C56.2076 19.3115 56.0608 18.8278 55.6935 18.4758L55.0016 19.1978ZM55.2076 19.8418V27.9868H56.2076V19.8418H55.2076ZM55.2076 27.9868C55.2076 28.3422 55.116 28.5313 55.009 28.6382L55.7161 29.3453C56.0691 28.9923 56.2076 28.5113 56.2076 27.9868H55.2076ZM55.0012 28.6462C54.9051 28.7467 54.7307 28.8368 54.3876 28.8368V29.8368C54.9044 29.8368 55.38 29.6969 55.7239 29.3374L55.0012 28.6462ZM54.3876 28.8368C54.0598 28.8368 53.8772 28.7493 53.7661 28.6382L53.059 29.3453C53.4079 29.6942 53.8753 29.8368 54.3876 29.8368V28.8368ZM53.7661 28.6382C53.6591 28.5313 53.5676 28.3422 53.5676 27.9868H52.5676C52.5676 28.5113 52.706 28.9923 53.059 29.3453L53.7661 28.6382ZM53.5676 27.9868V27.1318H52.5676V27.9868H53.5676ZM52.5797 27.2413L52.7447 27.9763L53.7204 27.7573L53.5554 27.0223L52.5797 27.2413ZM52.7551 27.7182C52.6553 28.0392 52.4451 28.3122 52.0834 28.5373L52.6117 29.3863C53.1501 29.0513 53.5299 28.5943 53.71 28.0153L52.7551 27.7182ZM52.0861 28.5356C51.7328 28.7524 51.3202 28.8668 50.8326 28.8668V29.8668C51.485 29.8668 52.0823 29.7112 52.6091 29.3879L52.0861 28.5356ZM51.6876 27.9018C52.0416 27.9018 52.3744 27.8154 52.6707 27.6319L52.1444 26.7816C52.0207 26.8582 51.8736 26.9018 51.6876 26.9018V27.9018ZM52.6849 27.6228C52.9905 27.4191 53.2089 27.1283 53.3506 26.7804L52.4245 26.4031C52.3462 26.5953 52.2446 26.7145 52.1302 26.7908L52.6849 27.6228ZM53.3471 26.7887C53.5029 26.4253 53.5676 25.9918 53.5676 25.5118H52.5676C52.5676 25.9118 52.5122 26.1983 52.428 26.3948L53.3471 26.7887ZM53.5676 25.5118C53.5676 24.8 53.4338 24.1662 53.0498 23.738L52.3053 24.4056C52.4414 24.5573 52.5676 24.8835 52.5676 25.5118H53.5676ZM53.0554 23.7443C52.6996 23.3338 52.2313 23.1218 51.6876 23.1218V24.1218C51.9438 24.1218 52.1355 24.2098 52.2997 24.3992L53.0554 23.7443ZM51.6876 23.1218C51.3336 23.1218 51.0007 23.2082 50.7044 23.3916L51.2307 24.2419C51.3544 24.1654 51.5016 24.1218 51.6876 24.1218V23.1218ZM50.7044 23.3916C50.3885 23.5872 50.1639 23.8827 50.013 24.2348L50.9321 24.6287C51.0212 24.4209 51.1267 24.3063 51.2307 24.2419L50.7044 23.3916ZM50.0157 24.2287C49.8563 24.5872 49.7926 25.0249 49.7926 25.5118H50.7926C50.7926 25.0987 50.8488 24.8164 50.9295 24.6349L50.0157 24.2287ZM49.7926 25.5118C49.7926 26.2181 49.9282 26.8448 50.3047 27.2792L51.0604 26.6243C50.9169 26.4588 50.7926 26.1254 50.7926 25.5118H49.7926ZM50.3047 27.2792C50.6632 27.6929 51.138 27.9018 51.6876 27.9018V26.9018C51.4171 26.9018 51.2219 26.8107 51.0604 26.6243L50.3047 27.2792ZM58.6493 31.7968L58.9714 31.4143L58.6493 31.7968ZM58.2893 31.1668L57.7951 31.2428L57.7966 31.252L57.7983 31.2612L58.2893 31.1668ZM58.4243 30.3418L57.9704 30.132L57.9681 30.1373L58.4243 30.3418ZM59.4293 28.1668H59.9293L58.9754 27.9571L59.4293 28.1668ZM59.4293 29.2468L58.9712 29.4471L59.9293 29.2468H59.4293ZM56.8643 23.3818L56.4055 23.5806L56.4062 23.5821L56.8643 23.3818ZM56.7293 22.5418L56.2383 22.4474L56.2366 22.4565L56.2351 22.4658L56.7293 22.5418ZM57.1343 21.9268L57.416 22.3399L57.4223 22.3356L57.4284 22.3311L57.1343 21.9268ZM58.7993 21.9118L58.4895 22.3042L58.5008 22.3131L58.5126 22.3214L58.7993 21.9118ZM59.3393 22.7518L58.8721 22.9298L58.8726 22.9313L59.3393 22.7518ZM60.8393 26.6518V27.1518H61.5673L61.306 26.4723L60.8393 26.6518ZM60.3293 26.6518L59.8661 26.4636L59.5866 27.1518H60.3293V26.6518ZM61.9193 22.7368L62.3826 22.9249L62.3851 22.9186L61.9193 22.7368ZM62.4593 21.9118L62.7461 22.3214L62.7499 22.3186L62.4593 21.9118ZM64.0193 21.9268L63.6871 22.3005L63.6931 22.3058L63.6992 22.3109L64.0193 21.9268ZM64.3493 22.5418L64.8435 22.4658L64.3493 22.5418ZM64.2143 23.3818L64.6711 23.5851L64.6731 23.5806L64.2143 23.3818ZM60.8093 31.0318L61.2653 31.237L61.2661 31.2351L60.8093 31.0318ZM60.2093 31.8268L59.955 31.3963L59.9433 31.4032L59.932 31.4108L60.2093 31.8268ZM59.3993 31.5368C59.177 31.5368 59.0506 31.481 58.9714 31.4143L58.3273 32.1792C58.628 32.4325 59.0016 32.5368 59.3993 32.5368V31.5368ZM58.9714 31.4143C58.8751 31.3332 58.8102 31.2278 58.7803 31.0724L57.7983 31.2612C57.8684 31.6258 58.0436 31.9404 58.3273 32.1792L58.9714 31.4143ZM58.7835 31.0908C58.761 30.9442 58.7817 30.7669 58.8806 30.5463L57.9681 30.1373C57.8069 30.4967 57.7377 30.8694 57.7951 31.2428L58.7835 31.0908ZM58.8782 30.5515L59.8832 28.3765L58.9754 27.9571L57.9704 30.1321L58.8782 30.5515ZM58.9293 28.1668V29.2468H59.9293V28.1668H58.9293ZM59.8874 29.0464L57.3224 23.1814L56.4062 23.5821L58.9712 29.4471L59.8874 29.0464ZM57.3231 23.183C57.2215 22.9485 57.2009 22.7644 57.2235 22.6178L56.2351 22.4658C56.1777 22.8391 56.2472 23.2151 56.4055 23.5806L57.3231 23.183ZM57.2203 22.6362C57.2452 22.5067 57.3044 22.416 57.416 22.3399L56.8526 21.5137C56.5242 21.7376 56.3134 22.0568 56.2383 22.4474L57.2203 22.6362ZM57.4284 22.3311C57.535 22.2536 57.7192 22.1868 58.0343 22.1868V21.1868C57.5895 21.1868 57.1737 21.2799 56.8402 21.5224L57.4284 22.3311ZM58.0343 22.1868C58.2782 22.1868 58.4125 22.2435 58.4895 22.3042L59.1091 21.5193C58.8061 21.2801 58.4305 21.1868 58.0343 21.1868V22.1868ZM58.5126 22.3214C58.5865 22.3731 58.7219 22.5356 58.8721 22.9298L59.8066 22.5738C59.6367 22.128 59.4121 21.7304 59.0861 21.5022L58.5126 22.3214ZM58.8726 22.9313L60.3726 26.8313L61.306 26.4723L59.806 22.5723L58.8726 22.9313ZM60.8393 26.1518H60.3293V27.1518H60.8393V26.1518ZM60.7926 26.8399L62.3826 22.9249L61.4561 22.5486L59.8661 26.4636L60.7926 26.8399ZM62.3851 22.9186C62.5342 22.5364 62.6692 22.3752 62.7461 22.3214L62.1726 21.5022C61.8495 21.7284 61.6244 22.1171 61.4535 22.555L62.3851 22.9186ZM62.7499 22.3186C62.8497 22.2474 63.0171 22.1868 63.2993 22.1868V21.1868C62.8815 21.1868 62.489 21.2761 62.1687 21.5049L62.7499 22.3186ZM63.2993 22.1868C63.5081 22.1868 63.6196 22.2405 63.6871 22.3005L64.3515 21.5531C64.059 21.2931 63.6905 21.1868 63.2993 21.1868V22.1868ZM63.6992 22.3109C63.774 22.3732 63.8312 22.4624 63.8551 22.6178L64.8435 22.4658C64.7874 22.1011 64.6247 21.7804 64.3394 21.5427L63.6992 22.3109ZM63.8551 22.6178C63.8777 22.7644 63.8572 22.9485 63.7555 23.183L64.6731 23.5806C64.8315 23.2151 64.9009 22.8391 64.8435 22.4658L63.8551 22.6178ZM63.7575 23.1785L60.3525 30.8285L61.2661 31.2351L64.6711 23.5851L63.7575 23.1785ZM60.3534 30.8266C60.1886 31.1927 60.0425 31.3446 59.955 31.3963L60.4637 32.2572C60.8161 32.049 61.07 31.6709 61.2653 31.237L60.3534 30.8266ZM59.932 31.4108C59.8259 31.4815 59.6606 31.5368 59.3993 31.5368V32.5368C59.7981 32.5368 60.1727 32.4521 60.4867 32.2428L59.932 31.4108ZM19.8988 44.9768L19.5381 45.323L19.5452 45.3304L19.5525 45.3375L19.8988 44.9768ZM19.8988 35.0018L20.2524 35.3553H20.2524L19.8988 35.0018ZM26.7838 34.8968L27.1374 34.5432H27.1374L26.7838 34.8968ZM26.7838 36.4868L27.1375 36.8405L27.1468 36.8307L26.7838 36.4868ZM22.2988 36.7568V36.2568H21.7988V36.7568H22.2988ZM22.2988 38.8868H21.7988V39.3868H22.2988V38.8868ZM26.4388 39.1568L26.0851 39.5105L26.0949 39.5198L26.4388 39.1568ZM26.4388 40.7318L26.0948 40.3687L26.0853 40.3782L26.4388 40.7318ZM22.2988 41.0018V40.5018H21.7988V41.0018H22.2988ZM20.9338 44.8368C20.5865 44.8368 20.3787 44.7444 20.2451 44.6161L19.5525 45.3375C19.9189 45.6892 20.4011 45.8368 20.9338 45.8368V44.8368ZM20.2595 44.6305C20.135 44.5009 20.0388 44.2862 20.0388 43.9118H19.0388C19.0388 44.4574 19.1826 44.9527 19.5381 45.323L20.2595 44.6305ZM20.0388 43.9118V36.0518H19.0388V43.9118H20.0388ZM20.0388 36.0518C20.0388 35.676 20.1356 35.4721 20.2524 35.3553L19.5453 34.6482C19.1821 35.0114 19.0388 35.5076 19.0388 36.0518H20.0388ZM20.2524 35.3553C20.3809 35.2268 20.5963 35.1268 20.9788 35.1268V34.1268C20.4214 34.1268 19.9168 34.2767 19.5453 34.6482L20.2524 35.3553ZM20.9788 35.1268H25.9738V34.1268H20.9788V35.1268ZM25.9738 35.1268C26.2567 35.1268 26.3771 35.1972 26.4303 35.2503L27.1374 34.5432C26.8305 34.2364 26.4109 34.1268 25.9738 34.1268V35.1268ZM26.4303 35.2503C26.4883 35.3084 26.5538 35.4234 26.5538 35.6768H27.5538C27.5538 35.2501 27.4393 34.8451 27.1374 34.5432L26.4303 35.2503ZM26.5538 35.6768C26.5538 35.943 26.4866 36.0735 26.4208 36.1429L27.1468 36.8307C27.4411 36.52 27.5538 36.1105 27.5538 35.6768H26.5538ZM26.4303 36.1332C26.3771 36.1864 26.2567 36.2568 25.9738 36.2568V37.2568C26.4109 37.2568 26.8305 37.1472 27.1374 36.8403L26.4303 36.1332ZM25.9738 36.2568H22.2988V37.2568H25.9738V36.2568ZM21.7988 36.7568V38.8868H22.7988V36.7568H21.7988ZM22.2988 39.3868H25.6438V38.3868H22.2988V39.3868ZM25.6438 39.3868C25.912 39.3868 26.0297 39.4548 26.0853 39.5103L26.7924 38.8032C26.4879 38.4988 26.0756 38.3868 25.6438 38.3868V39.3868ZM26.0949 39.5198C26.1578 39.5793 26.2238 39.6909 26.2238 39.9368H27.2238C27.2238 39.5027 27.0999 39.0943 26.7827 38.7938L26.0949 39.5198ZM26.2238 39.9368C26.2238 40.1977 26.155 40.3119 26.0949 40.3688L26.7827 41.0948C27.1026 40.7916 27.2238 40.3759 27.2238 39.9368H26.2238ZM26.0853 40.3782C26.0297 40.4338 25.912 40.5018 25.6438 40.5018V41.5018C26.0756 41.5018 26.4879 41.3898 26.7924 41.0853L26.0853 40.3782ZM25.6438 40.5018H22.2988V41.5018H25.6438V40.5018ZM21.7988 41.0018V43.9118H22.7988V41.0018H21.7988ZM21.7988 43.9118C21.7988 44.315 21.7019 44.5246 21.5965 44.6347C21.4949 44.7407 21.3061 44.8368 20.9338 44.8368V45.8368C21.4715 45.8368 21.9652 45.6953 22.3186 45.3264C22.6682 44.9615 22.7988 44.4586 22.7988 43.9118H21.7988ZM28.9909 44.9618L29.3589 44.6233L28.9909 44.9618ZM28.9909 38.0618L29.3589 38.4003L28.9909 38.0618ZM30.9559 38.0618L30.5879 38.4004L30.5952 38.408L30.9559 38.0618ZM30.9709 44.9618L31.3389 45.3003L30.9709 44.9618ZM28.8709 36.2918L28.5405 36.6672L28.5479 36.6735L28.8709 36.2918ZM28.8709 34.3868L28.5479 34.005L28.5406 34.0114L28.8709 34.3868ZM31.0759 34.3868L30.7456 34.7621L31.0759 34.3868ZM31.0759 36.2918L31.4062 36.6671L31.0759 36.2918ZM29.9659 44.8368C29.6502 44.8368 29.4726 44.7468 29.3589 44.6233L28.623 45.3003C28.9693 45.6767 29.4416 45.8368 29.9659 45.8368V44.8368ZM29.3589 44.6233C29.2417 44.4959 29.1459 44.2748 29.1459 43.8818H28.1459C28.1459 44.4288 28.2801 44.9277 28.623 45.3003L29.3589 44.6233ZM29.1459 43.8818V39.1418H28.1459V43.8818H29.1459ZM29.1459 39.1418C29.1459 38.7488 29.2417 38.5277 29.3589 38.4003L28.623 37.7233C28.2801 38.0959 28.1459 38.5948 28.1459 39.1418H29.1459ZM29.3589 38.4003C29.4726 38.2767 29.6502 38.1868 29.9659 38.1868V37.1868C29.4416 37.1868 28.9693 37.3468 28.623 37.7233L29.3589 38.4003ZM29.9659 38.1868C30.2957 38.1868 30.4765 38.2792 30.588 38.4003L31.3239 37.7233C30.9754 37.3444 30.4961 37.1868 29.9659 37.1868V38.1868ZM30.5952 38.408C30.7179 38.5358 30.8159 38.7539 30.8159 39.1418H31.8159C31.8159 38.5896 31.6739 38.0877 31.3166 37.7155L30.5952 38.408ZM30.8159 39.1418V43.8818H31.8159V39.1418H30.8159ZM30.8159 43.8818C30.8159 44.2748 30.7201 44.4959 30.603 44.6233L31.3389 45.3003C31.6817 44.9277 31.8159 44.4288 31.8159 43.8818H30.8159ZM30.603 44.6233C30.4936 44.7421 30.3097 44.8368 29.9659 44.8368V45.8368C30.5021 45.8368 30.9882 45.6815 31.3389 45.3003L30.603 44.6233ZM29.9659 36.1218C29.5694 36.1218 29.3345 36.0291 29.1939 35.9101L28.5479 36.6735C28.9273 36.9945 29.4224 37.1218 29.9659 37.1218V36.1218ZM29.2012 35.9164C29.0861 35.8151 28.9959 35.6484 28.9959 35.3318H27.9959C27.9959 35.8551 28.1557 36.3285 28.5406 36.6671L29.2012 35.9164ZM28.9959 35.3318C28.9959 35.0295 29.0835 34.8658 29.2012 34.7621L28.5406 34.0114C28.1584 34.3478 27.9959 34.8141 27.9959 35.3318H28.9959ZM29.1939 34.7685C29.3345 34.6495 29.5694 34.5568 29.9659 34.5568V33.5568C29.4224 33.5568 28.9273 33.6841 28.5479 34.0051L29.1939 34.7685ZM29.9659 34.5568C30.3903 34.5568 30.6216 34.653 30.7456 34.7621L31.4062 34.0114C31.0302 33.6805 30.5215 33.5568 29.9659 33.5568V34.5568ZM30.7456 34.7621C30.8634 34.8658 30.9509 35.0295 30.9509 35.3318H31.9509C31.9509 34.8141 31.7885 34.3478 31.4062 34.0114L30.7456 34.7621ZM30.9509 35.3318C30.9509 35.6484 30.8607 35.8151 30.7456 35.9164L31.4062 36.6671C31.7911 36.3285 31.9509 35.8551 31.9509 35.3318H30.9509ZM30.7456 35.9164C30.6216 36.0255 30.3903 36.1218 29.9659 36.1218V37.1218C30.5215 37.1218 31.0302 36.998 31.4062 36.6671L30.7456 35.9164ZM34.5447 44.9018L34.3238 45.3504L34.3321 45.3543L34.5447 44.9018ZM33.0447 43.5518L32.6166 43.8101L33.0447 43.5518ZM33.0147 39.5018L32.5833 39.2489L32.582 39.2513L33.0147 39.5018ZM34.3947 38.1518L34.6362 38.5896L34.6387 38.5882L34.3947 38.1518ZM37.9047 37.9268L37.7189 38.3911L37.728 38.3945L37.9047 37.9268ZM39.0597 38.6918L38.6955 39.0345L38.7007 39.0399L39.0597 38.6918ZM39.7797 39.8918L39.3063 40.0529L39.3095 40.0618L39.7797 39.8918ZM39.8697 41.9168L40.1863 42.3038L40.1964 42.2955L40.206 42.2868L39.8697 41.9168ZM34.7547 42.0518H34.2547V42.5518H34.7547V42.0518ZM34.7547 40.7918V40.2918H34.2547V40.7918H34.7547ZM38.0847 40.7918L38.4 41.1798L39.493 40.2918H38.0847V40.7918ZM37.8447 40.9868H37.3447V42.0373L38.16 41.3748L37.8447 40.9868ZM37.2447 39.5618L36.9776 39.9846L36.9874 39.9905L37.2447 39.5618ZM35.7147 39.6068L35.9831 40.0286L35.9878 40.0256L35.7147 39.6068ZM35.2047 40.2368L34.7451 40.0398L35.2047 40.2368ZM35.4897 42.9518L35.1361 43.3053L35.1418 43.311L35.1477 43.3166L35.4897 42.9518ZM37.7097 43.3268L37.7976 43.8192L37.811 43.8164L37.7097 43.3268ZM38.5347 43.0868L38.7142 43.5535L38.5347 43.0868ZM39.2097 43.0418L39.0368 43.511L39.0479 43.515L39.0591 43.5186L39.2097 43.0418ZM39.6447 43.3718L39.2207 43.6368L39.2305 43.6525L39.2415 43.6675L39.6447 43.3718ZM39.8247 43.8968L39.3253 43.9218L39.3254 43.9231L39.8247 43.8968ZM39.6897 44.4668L40.1269 44.7097L40.1321 44.6997L39.6897 44.4668ZM39.1947 44.8868L38.9953 44.4282L38.9868 44.432L39.1947 44.8868ZM38.0697 45.2468L37.9716 44.7565L37.9692 44.757L38.0697 45.2468ZM36.8847 44.8668C36.0413 44.8668 35.337 44.7215 34.7572 44.4492L34.3321 45.3543C35.0723 45.702 35.928 45.8668 36.8847 45.8668V44.8668ZM34.7655 44.4532C34.1951 44.1724 33.7698 43.7857 33.4728 43.2934L32.6166 43.8101C33.0195 44.4778 33.5942 44.9912 34.3238 45.3504L34.7655 44.4532ZM33.4728 43.2934C33.1771 42.8036 33.0197 42.2111 33.0197 41.4968H32.0197C32.0197 42.3625 32.2122 43.14 32.6166 43.8101L33.4728 43.2934ZM33.0197 41.4968C33.0197 40.811 33.1679 40.2351 33.4474 39.7523L32.582 39.2513C32.2015 39.9084 32.0197 40.6625 32.0197 41.4968H33.0197ZM33.446 39.7546C33.7412 39.251 34.1362 38.8654 34.6362 38.5896L34.1531 37.714C33.4932 38.0781 32.9681 38.5925 32.5833 39.2489L33.446 39.7546ZM34.6387 38.5882C35.1462 38.3043 35.7306 38.1568 36.4047 38.1568V37.1568C35.5788 37.1568 34.8231 37.3393 34.1506 37.7154L34.6387 38.5882ZM36.4047 38.1568C36.8996 38.1568 37.3355 38.2376 37.719 38.391L38.0904 37.4625C37.5739 37.256 37.0098 37.1568 36.4047 37.1568V38.1568ZM37.728 38.3945C38.109 38.5385 38.4293 38.7516 38.6956 39.0345L39.4238 38.3491C39.05 37.952 38.6003 37.6551 38.0814 37.459L37.728 38.3945ZM38.7007 39.0399C38.9652 39.3126 39.1682 39.6472 39.3063 40.0529L40.253 39.7306C40.0711 39.1963 39.7941 38.731 39.4186 38.3437L38.7007 39.0399ZM39.3095 40.0618C39.4569 40.4693 39.5347 40.9356 39.5347 41.4668H40.5347C40.5347 40.8379 40.4425 40.2542 40.2499 39.7217L39.3095 40.0618ZM39.5347 41.4668C39.5347 41.5223 39.5269 41.5492 39.524 41.5572C39.5227 41.5607 39.5225 41.5601 39.5246 41.557C39.5267 41.5537 39.5298 41.55 39.5333 41.5468L40.206 42.2868C40.4527 42.0625 40.5347 41.7568 40.5347 41.4668H39.5347ZM39.5531 41.5298C39.5673 41.5181 39.567 41.5246 39.5314 41.5338C39.4954 41.5431 39.4355 41.5518 39.3447 41.5518V42.5518C39.6274 42.5518 39.9435 42.5024 40.1863 42.3038L39.5531 41.5298ZM39.3447 41.5518H34.7547V42.5518H39.3447V41.5518ZM35.2547 42.0518V40.7918H34.2547V42.0518H35.2547ZM34.7547 41.2918H38.0847V40.2918H34.7547V41.2918ZM37.7694 40.4037L37.5294 40.5987L38.16 41.3748L38.4 41.1798L37.7694 40.4037ZM38.3447 40.9868C38.3447 40.578 38.2904 40.2029 38.1532 39.8874L37.2361 40.2861C37.299 40.4307 37.3447 40.6556 37.3447 40.9868H38.3447ZM38.1532 39.8874C38.015 39.5694 37.7981 39.3108 37.5019 39.133L36.9874 39.9905C37.0912 40.0528 37.1744 40.1441 37.2361 40.2861L38.1532 39.8874ZM37.5117 39.139C37.2216 38.9558 36.8821 38.8818 36.5247 38.8818V39.8818C36.7472 39.8818 36.8877 39.9277 36.9777 39.9845L37.5117 39.139ZM36.5247 38.8818C36.1306 38.8818 35.7629 38.9784 35.4415 39.188L35.9878 40.0256C36.1264 39.9352 36.2988 39.8818 36.5247 39.8818V38.8818ZM35.4462 39.185C35.1278 39.3876 34.8979 39.6833 34.7451 40.0398L35.6642 40.4337C35.7514 40.2303 35.8615 40.106 35.9831 40.0286L35.4462 39.185ZM34.7451 40.0398C34.5904 40.4009 34.5247 40.8231 34.5247 41.2868H35.5247C35.5247 40.9105 35.579 40.6327 35.6642 40.4337L34.7451 40.0398ZM34.5247 41.2868V41.4218H35.5247V41.2868H34.5247ZM34.5247 41.4218C34.5247 42.1857 34.6885 42.8577 35.1361 43.3053L35.8432 42.5982C35.6709 42.4259 35.5247 42.0778 35.5247 41.4218H34.5247ZM35.1477 43.3166C35.5977 43.7385 36.2353 43.9018 36.9597 43.9018V42.9018C36.364 42.9018 36.0216 42.7651 35.8316 42.587L35.1477 43.3166ZM36.9597 43.9018C37.2162 43.9018 37.4965 43.8728 37.7976 43.819L37.6218 42.8346C37.3629 42.8808 37.1431 42.9018 36.9597 42.9018V43.9018ZM37.811 43.8164C38.126 43.7512 38.4272 43.6638 38.7142 43.5535L38.3552 42.6201C38.1221 42.7098 37.8734 42.7823 37.6084 42.8372L37.811 43.8164ZM38.7142 43.5535C38.9036 43.4806 38.9973 43.4964 39.0368 43.511L39.3825 42.5726C39.0421 42.4472 38.6858 42.493 38.3552 42.6201L38.7142 43.5535ZM39.0591 43.5186C39.1426 43.5449 39.1875 43.5836 39.2207 43.6368L40.0687 43.1068C39.9019 42.8399 39.6568 42.6586 39.3602 42.565L39.0591 43.5186ZM39.2415 43.6675C39.2892 43.7325 39.3198 43.8116 39.3253 43.9218L40.324 43.8718C40.3096 43.5819 40.2202 43.3111 40.0479 43.0761L39.2415 43.6675ZM39.3254 43.9231C39.33 44.012 39.3108 44.1131 39.2472 44.2339L40.1321 44.6997C40.2686 44.4404 40.3393 44.1616 40.324 43.8705L39.3254 43.9231ZM39.2526 44.224C39.2168 44.2884 39.1471 44.3623 38.9953 44.4282L39.394 45.3453C39.7023 45.2113 39.9626 45.0052 40.1267 44.7096L39.2526 44.224ZM38.9868 44.432C38.6739 44.5751 38.336 44.6836 37.9716 44.7565L38.1677 45.7371C38.6033 45.65 39.0154 45.5185 39.4026 45.3415L38.9868 44.432ZM37.9692 44.757C37.6124 44.8302 37.2511 44.8668 36.8847 44.8668V45.8668C37.3183 45.8668 37.7469 45.8234 38.1701 45.7366L37.9692 44.757ZM41.86 44.6018L41.4818 44.929L41.4887 44.9367L41.86 44.6018ZM43.495 34.8368L43.1413 35.1904L43.149 35.1978L43.495 34.8368ZM44.065 42.9818L43.679 43.2996L43.6844 43.3062L43.6901 43.3126L44.065 42.9818ZM44.845 43.2218L44.9157 43.7168L44.9412 43.7131L44.9663 43.7069L44.845 43.2218ZM45.1 43.1768V42.6768H45.0723L45.0448 42.6798L45.1 43.1768ZM45.475 43.3718L45.0492 43.6338L45.0562 43.6453L45.0639 43.6564L45.475 43.3718ZM45.4 44.9618L45.7861 45.2798L45.7947 45.2688L45.4 44.9618ZM44.755 45.2918L44.817 45.7879L44.8285 45.7865L44.8399 45.7845L44.755 45.2918ZM44.41 45.3368L44.4761 45.8324H44.4761L44.41 45.3368ZM43.99 44.8668C43.1134 44.8668 42.5635 44.6352 42.2313 44.2669L41.4887 44.9367C42.0765 45.5883 42.9466 45.8668 43.99 45.8668V44.8668ZM42.2381 44.2746C41.8984 43.8821 41.685 43.241 41.685 42.2618H40.685C40.685 43.3626 40.9216 44.2815 41.4819 44.929L42.2381 44.2746ZM41.685 42.2618V35.8418H40.685V42.2618H41.685ZM41.685 35.8418C41.685 35.4863 41.7766 35.2973 41.8835 35.1903L41.1764 34.4832C40.8234 34.8363 40.685 35.3172 40.685 35.8418H41.685ZM41.8835 35.1903C41.9946 35.0792 42.1772 34.9918 42.505 34.9918V33.9918C41.9927 33.9918 41.5253 34.1343 41.1764 34.4832L41.8835 35.1903ZM42.505 34.9918C42.8466 34.9918 43.0324 35.0813 43.1414 35.1903L43.8485 34.4832C43.4975 34.1322 43.0233 33.9918 42.505 33.9918V34.9918ZM43.149 35.1978C43.2617 35.3058 43.355 35.4921 43.355 35.8418H44.355C44.355 35.3115 44.2082 34.8278 43.8409 34.4758L43.149 35.1978ZM43.355 35.8418V42.1718H44.355V35.8418H43.355ZM43.355 42.1718C43.355 42.5854 43.4296 42.9968 43.679 43.2996L44.4509 42.6639C44.4203 42.6267 44.355 42.4982 44.355 42.1718H43.355ZM43.6901 43.3126C43.9365 43.5919 44.2639 43.7368 44.635 43.7368V42.7368C44.5461 42.7368 44.4934 42.7116 44.4399 42.651L43.6901 43.3126ZM44.635 43.7368C44.7289 43.7368 44.8225 43.7301 44.9157 43.7168L44.7743 42.7268C44.7275 42.7335 44.6811 42.7368 44.635 42.7368V43.7368ZM44.9663 43.7069C45.0225 43.6928 45.0853 43.6815 45.1552 43.6737L45.0448 42.6798C44.9346 42.6921 44.8274 42.7108 44.7237 42.7367L44.9663 43.7069ZM45.1 43.6768C45.1211 43.6768 45.1126 43.6806 45.0906 43.6691C45.08 43.6637 45.0701 43.6566 45.0619 43.6487C45.0539 43.6411 45.05 43.6352 45.0492 43.6338L45.9008 43.1097C45.7181 42.8128 45.4201 42.6768 45.1 42.6768V43.6768ZM45.0639 43.6564C45.0478 43.6331 45.0656 43.6476 45.0833 43.7517C45.0994 43.8467 45.11 43.9827 45.11 44.1668H46.11C46.11 43.9509 46.098 43.7543 46.0692 43.5843C46.0419 43.4234 45.9922 43.2405 45.8861 43.0872L45.0639 43.6564ZM45.11 44.1668C45.11 44.4618 45.0491 44.5985 45.0053 44.6548L45.7947 45.2688C46.0309 44.965 46.11 44.5717 46.11 44.1668H45.11ZM45.014 44.6439C44.9726 44.6943 44.8821 44.7625 44.67 44.7991L44.8399 45.7845C45.2079 45.7211 45.5474 45.5693 45.7859 45.2796L45.014 44.6439ZM44.693 44.7956C44.6109 44.8059 44.4943 44.8211 44.3439 44.8412L44.4761 45.8324C44.6257 45.8125 44.7391 45.7977 44.817 45.7879L44.693 44.7956ZM44.3439 44.8412C44.2123 44.8587 44.0946 44.8668 43.99 44.8668V45.8668C44.1453 45.8668 44.3076 45.8549 44.4761 45.8324L44.3439 44.8412ZM47.5266 44.9018L47.2553 45.3218L47.2593 45.3243L47.5266 44.9018ZM46.3866 43.5668L45.9332 43.7778L45.9363 43.7842L46.3866 43.5668ZM46.3866 39.4418L45.9378 39.2213L45.9347 39.2277L46.3866 39.4418ZM47.5266 38.1218L47.2593 37.6992L47.2553 37.7018L47.5266 38.1218ZM51.5766 39.0518V39.5518H52.2919L52.0461 38.88L51.5766 39.0518ZM51.4116 39.0518H50.9116V39.5518H51.4116V39.0518ZM51.7566 34.8368L52.1101 35.1903L51.7566 34.8368ZM53.7216 34.8368L53.368 35.1904L53.3756 35.1978L53.7216 34.8368ZM53.7366 44.9918L53.3829 44.6381L53.3753 44.6462L53.7366 44.9918ZM51.7866 44.9918L52.1401 44.6382L51.7866 44.9918ZM51.4416 43.1318L51.9294 43.0223L50.9416 43.1318H51.4416ZM51.6066 43.8668L52.084 44.0153L52.1237 43.8877L52.0944 43.7573L51.6066 43.8668ZM50.7216 44.9618L50.9831 45.388L50.9857 45.3863L50.7216 44.9618ZM50.7816 43.2068L51.0448 43.6319L51.0519 43.6275L51.0589 43.6228L50.7816 43.2068ZM51.2616 42.5918L50.8019 42.3948L50.7985 42.4031L51.2616 42.5918ZM51.0516 40.0718L50.6737 40.3993L50.6793 40.4056L51.0516 40.0718ZM49.3416 39.8168L49.0784 39.3916L49.3416 39.8168ZM48.8466 40.4318L49.3035 40.6349L49.3062 40.6287L48.8466 40.4318ZM49.0566 42.9518L48.6787 43.2792L49.0566 42.9518ZM49.2066 44.8668C48.6627 44.8668 48.197 44.7343 47.7939 44.4792L47.2593 45.3243C47.8361 45.6893 48.4905 45.8668 49.2066 45.8668V44.8668ZM47.7978 44.4818C47.4045 44.2277 47.0821 43.8575 46.8369 43.3494L45.9363 43.7842C46.251 44.4361 46.6887 44.9559 47.2553 45.3218L47.7978 44.4818ZM46.8399 43.3558C46.607 42.8555 46.4816 42.2456 46.4816 41.5118H45.4816C45.4816 42.358 45.6262 43.1181 45.9333 43.7778L46.8399 43.3558ZM46.4816 41.5118C46.4816 40.7555 46.6078 40.1427 46.8385 39.6558L45.9347 39.2277C45.6254 39.8808 45.4816 40.6481 45.4816 41.5118H46.4816ZM46.8354 39.6622C47.08 39.1643 47.4023 38.7973 47.7978 38.5418L47.2553 37.7018C46.6909 38.0663 46.2532 38.5793 45.9378 39.2213L46.8354 39.6622ZM47.7939 38.5443C48.197 38.2893 48.6627 38.1568 49.2066 38.1568V37.1568C48.4905 37.1568 47.8361 37.3343 47.2593 37.6992L47.7939 38.5443ZM49.2066 38.1568C49.6742 38.1568 50.0801 38.2662 50.4372 38.4772L50.9459 37.6163C50.4231 37.3073 49.839 37.1568 49.2066 37.1568V38.1568ZM50.4372 38.4772C50.7955 38.689 51.0033 38.94 51.107 39.2236L52.0461 38.88C51.8499 38.3436 51.4676 37.9246 50.9459 37.6163L50.4372 38.4772ZM51.5766 38.5518H51.4116V39.5518H51.5766V38.5518ZM51.9116 39.0518V35.8418H50.9116V39.0518H51.9116ZM51.9116 35.8418C51.9116 35.4863 52.0032 35.2973 52.1101 35.1903L51.403 34.4832C51.05 34.8363 50.9116 35.3172 50.9116 35.8418H51.9116ZM52.1101 35.1903C52.2191 35.0813 52.4049 34.9918 52.7466 34.9918V33.9918C52.2282 33.9918 51.754 34.1322 51.403 34.4832L52.1101 35.1903ZM52.7466 34.9918C53.0743 34.9918 53.2569 35.0792 53.368 35.1903L54.0751 34.4832C53.7262 34.1343 53.2588 33.9918 52.7466 33.9918V34.9918ZM53.3756 35.1978C53.4883 35.3058 53.5816 35.4921 53.5816 35.8418H54.5816C54.5816 35.3115 54.4348 34.8278 54.0675 34.4758L53.3756 35.1978ZM53.5816 35.8418V43.9868H54.5816V35.8418H53.5816ZM53.5816 43.9868C53.5816 44.3422 53.49 44.5313 53.383 44.6382L54.0901 45.3453C54.4432 44.9923 54.5816 44.5113 54.5816 43.9868H53.5816ZM53.3753 44.6462C53.2791 44.7467 53.1047 44.8368 52.7616 44.8368V45.8368C53.2784 45.8368 53.7541 45.6969 54.0979 45.3374L53.3753 44.6462ZM52.7616 44.8368C52.4338 44.8368 52.2512 44.7493 52.1401 44.6382L51.433 45.3453C51.7819 45.6942 52.2493 45.8368 52.7616 45.8368V44.8368ZM52.1401 44.6382C52.0332 44.5313 51.9416 44.3422 51.9416 43.9868H50.9416C50.9416 44.5113 51.08 44.9923 51.433 45.3453L52.1401 44.6382ZM51.9416 43.9868V43.1318H50.9416V43.9868H51.9416ZM50.9537 43.2413L51.1187 43.9763L52.0944 43.7573L51.9294 43.0223L50.9537 43.2413ZM51.1292 43.7182C51.0293 44.0392 50.8191 44.3122 50.4574 44.5373L50.9857 45.3863C51.5241 45.0513 51.9039 44.5943 52.084 44.0153L51.1292 43.7182ZM50.4601 44.5356C50.1068 44.7524 49.6942 44.8668 49.2066 44.8668V45.8668C49.859 45.8668 50.4564 45.7112 50.9831 45.3879L50.4601 44.5356ZM50.0616 43.9018C50.4156 43.9018 50.7484 43.8154 51.0448 43.6319L50.5184 42.7817C50.3948 42.8582 50.2476 42.9018 50.0616 42.9018V43.9018ZM51.0589 43.6228C51.3646 43.4191 51.5829 43.1283 51.7246 42.7804L50.7985 42.4031C50.7203 42.5953 50.6186 42.7145 50.5042 42.7908L51.0589 43.6228ZM51.7212 42.7887C51.8769 42.4253 51.9416 41.9918 51.9416 41.5118H50.9416C50.9416 41.9118 50.8862 42.1983 50.802 42.3948L51.7212 42.7887ZM51.9416 41.5118C51.9416 40.8 51.8078 40.1662 51.4239 39.738L50.6793 40.4056C50.8154 40.5573 50.9416 40.8835 50.9416 41.5118H51.9416ZM51.4294 39.7443C51.0736 39.3338 50.6053 39.1218 50.0616 39.1218V40.1218C50.3178 40.1218 50.5095 40.2098 50.6737 40.3992L51.4294 39.7443ZM50.0616 39.1218C49.7076 39.1218 49.3748 39.2082 49.0784 39.3916L49.6048 40.2419C49.7284 40.1654 49.8756 40.1218 50.0616 40.1218V39.1218ZM49.0784 39.3916C48.7625 39.5872 48.5379 39.8827 48.387 40.2348L49.3062 40.6287C49.3952 40.4209 49.5007 40.3063 49.6048 40.2419L49.0784 39.3916ZM48.3897 40.2287C48.2304 40.5872 48.1666 41.0249 48.1666 41.5118H49.1666C49.1666 41.0987 49.2228 40.8164 49.3035 40.6349L48.3897 40.2287ZM48.1666 41.5118C48.1666 42.2181 48.3022 42.8448 48.6787 43.2792L49.4344 42.6243C49.2909 42.4587 49.1666 42.1254 49.1666 41.5118H48.1666ZM48.6787 43.2792C49.0372 43.6929 49.512 43.9018 50.0616 43.9018V42.9018C49.7912 42.9018 49.596 42.8107 49.4344 42.6243L48.6787 43.2792ZM61.7953 45.2168L61.6991 45.7074L61.7953 45.2168ZM60.4753 44.7968L60.6941 44.3471L60.6876 44.3441L60.4753 44.7968ZM59.8003 44.2418L59.3614 44.4812L59.3655 44.4888L59.3699 44.4961L59.8003 44.2418ZM59.6503 43.5668L59.1522 43.5235L59.6503 43.5668ZM59.8903 42.9518L59.5062 42.6317L59.5008 42.6382L59.4957 42.6448L59.8903 42.9518ZM60.4603 42.5918L60.5865 43.0756L60.5935 43.0738L60.6003 43.0718L60.4603 42.5918ZM61.2703 42.6818L61.0715 43.1406L61.0719 43.1407L61.2703 42.6818ZM62.2903 43.0118L62.3853 42.5209V42.5209L62.2903 43.0118ZM64.6603 42.6218L65.0603 42.9218L65.0647 42.916L65.0688 42.9101L64.6603 42.6218ZM64.4653 41.2268L64.1763 41.6348L64.1859 41.6416L64.1958 41.6479L64.4653 41.2268ZM61.7203 40.6868L62.0647 40.3243L61.7203 40.6868ZM61.7203 39.0668L62.0647 39.4293L61.7203 39.0668ZM63.8653 38.6618L63.6873 38.1945L63.6796 38.1975L63.8653 38.6618ZM64.3453 38.3168L64.7485 38.6125L64.753 38.6063L64.7574 38.6L64.3453 38.3168ZM64.1503 36.9818L63.8531 37.384L63.8613 37.3898L64.1503 36.9818ZM62.2603 36.8168L62.159 36.3272L62.2603 36.8168ZM61.3303 37.1318L61.5252 37.5924L61.5372 37.587L61.3303 37.1318ZM60.6103 37.2068L60.473 37.6876L60.4788 37.6892L60.6103 37.2068ZM60.0853 36.8618L59.68 37.1545L59.6893 37.1674L59.6994 37.1796L60.0853 36.8618ZM59.8453 36.2768L59.3499 36.3443L59.3504 36.3475L59.8453 36.2768ZM59.9503 35.6318L60.4018 35.8467L59.9503 35.6318ZM60.5203 35.1068L60.2967 34.6596L60.5203 35.1068ZM61.8853 34.6268L61.7779 34.1385L61.7758 34.1389L61.8853 34.6268ZM65.4103 34.8068L65.2204 35.2693V35.2693L65.4103 34.8068ZM66.6853 35.8118L66.2677 36.087L66.2753 36.0979L66.6853 35.8118ZM66.9103 38.4818L66.4529 38.28V38.28L66.9103 38.4818ZM66.2503 39.3368L66.5526 39.7352L66.561 39.7285L66.2503 39.3368ZM65.2303 39.8168H64.7303V40.4612L65.3545 40.3011L65.2303 39.8168ZM65.2303 39.6068L65.308 39.1128L64.7303 39.0221V39.6068H65.2303ZM66.8653 40.4918L66.4772 40.8072L66.4846 40.8158L66.8653 40.4918ZM66.9703 43.9268L66.5611 43.6395L66.9703 43.9268ZM65.5453 45.0068L65.7258 45.4731L65.7323 45.4705L65.5453 45.0068ZM63.3253 44.8668C62.8482 44.8668 62.3705 44.82 61.8915 44.7261L61.6991 45.7074C62.2402 45.8135 62.7824 45.8668 63.3253 45.8668V44.8668ZM61.8915 44.7261C61.4134 44.6324 61.0165 44.504 60.6941 44.3472L60.2566 45.2464C60.6741 45.4495 61.1573 45.6012 61.6991 45.7074L61.8915 44.7261ZM60.6876 44.3441C60.4248 44.2209 60.2935 44.0935 60.2308 43.9874L59.3699 44.4961C59.5672 44.8301 59.8859 45.0727 60.2631 45.2495L60.6876 44.3441ZM60.2393 44.0024C60.1622 43.861 60.1377 43.7337 60.1485 43.6101L59.1522 43.5235C59.123 43.8599 59.1985 44.1825 59.3614 44.4812L60.2393 44.0024ZM60.1485 43.6101C60.1602 43.4748 60.205 43.3617 60.285 43.2588L59.4957 42.6448C59.2957 42.9019 59.1805 43.1987 59.1522 43.5235L60.1485 43.6101ZM60.2744 43.2719C60.3566 43.1732 60.4559 43.1097 60.5865 43.0756L60.3341 42.108C60.0047 42.1939 59.724 42.3703 59.5062 42.6317L60.2744 43.2719ZM60.6003 43.0718C60.6978 43.0433 60.8452 43.0425 61.0715 43.1406L61.4691 42.223C61.0955 42.0611 60.7028 42.0002 60.3203 42.1118L60.6003 43.0718ZM61.0719 43.1407C61.4665 43.3113 61.8416 43.4342 62.1953 43.5027L62.3853 42.5209C62.1191 42.4694 61.8142 42.3722 61.4688 42.2229L61.0719 43.1407ZM62.1953 43.5027C62.536 43.5686 62.8779 43.6018 63.2203 43.6018V42.6018C62.9428 42.6018 62.6646 42.5749 62.3853 42.5209L62.1953 43.5027ZM63.2203 43.6018C63.6133 43.6018 63.9709 43.5586 64.2785 43.4561L63.9622 42.5074C63.7898 42.5649 63.5474 42.6018 63.2203 42.6018V43.6018ZM64.2785 43.4561C64.5893 43.3525 64.8649 43.1824 65.0603 42.9218L64.2603 42.3218C64.2158 42.3812 64.1313 42.4511 63.9622 42.5074L64.2785 43.4561ZM65.0688 42.9101C65.2595 42.6399 65.3403 42.3238 65.3403 41.9918H64.3403C64.3403 42.1598 64.3011 42.2636 64.2519 42.3334L65.0688 42.9101ZM65.3403 41.9918C65.3403 41.5069 65.1561 41.0752 64.7349 40.8056L64.1958 41.6479C64.2746 41.6984 64.3403 41.7767 64.3403 41.9918H65.3403ZM64.7543 40.8188C64.3929 40.5628 63.9169 40.4718 63.4003 40.4718V41.4718C63.8238 41.4718 64.0577 41.5508 64.1763 41.6348L64.7543 40.8188ZM63.4003 40.4718H62.5903V41.4718H63.4003V40.4718ZM62.5903 40.4718C62.2895 40.4718 62.1415 40.3972 62.0647 40.3243L61.376 41.0493C61.6992 41.3564 62.1312 41.4718 62.5903 41.4718V40.4718ZM62.0647 40.3243C61.9892 40.2526 61.9203 40.1288 61.9203 39.8768H60.9203C60.9203 40.3248 61.0515 40.741 61.376 41.0493L62.0647 40.3243ZM61.9203 39.8768C61.9203 39.6248 61.9892 39.501 62.0647 39.4293L61.376 38.7043C61.0515 39.0126 60.9203 39.4288 60.9203 39.8768H61.9203ZM62.0647 39.4293C62.1415 39.3564 62.2895 39.2818 62.5903 39.2818V38.2818C62.1312 38.2818 61.6992 38.3972 61.376 38.7043L62.0647 39.4293ZM62.5903 39.2818H63.1303V38.2818H62.5903V39.2818ZM63.1303 39.2818C63.4632 39.2818 63.7754 39.2363 64.051 39.126L63.6796 38.1975C63.5553 38.2473 63.3774 38.2818 63.1303 38.2818V39.2818ZM64.0433 39.129C64.3244 39.0219 64.5707 38.855 64.7485 38.6125L63.9421 38.0211C63.9 38.0786 63.8262 38.1416 63.6873 38.1945L64.0433 39.129ZM64.7574 38.6C64.9346 38.3422 65.0103 38.0438 65.0103 37.7318H64.0103C64.0103 37.8797 63.9761 37.9713 63.9333 38.0335L64.7574 38.6ZM65.0103 37.7318C65.0103 37.2626 64.8294 36.85 64.4393 36.5738L63.8613 37.3898C63.9513 37.4535 64.0103 37.541 64.0103 37.7318H65.0103ZM64.4475 36.5797C64.0933 36.3179 63.6223 36.2268 63.1153 36.2268V37.2268C63.5284 37.2268 63.7474 37.3057 63.8531 37.3839L64.4475 36.5797ZM63.1153 36.2268C62.7994 36.2268 62.4804 36.2607 62.159 36.3272L62.3616 37.3064C62.6202 37.2529 62.8713 37.2268 63.1153 37.2268V36.2268ZM62.159 36.3272C61.8256 36.3961 61.48 36.5145 61.1234 36.6766L61.5372 37.587C61.8406 37.4491 62.115 37.3574 62.3616 37.3064L62.159 36.3272ZM61.1355 36.6713C60.9536 36.7483 60.83 36.7484 60.7419 36.7244L60.4788 37.6892C60.8307 37.7851 61.1871 37.7353 61.5252 37.5923L61.1355 36.6713ZM60.7477 36.726C60.636 36.6941 60.5474 36.6364 60.4713 36.5439L59.6994 37.1796C59.9032 37.4272 60.1646 37.5994 60.473 37.6875L60.7477 36.726ZM60.4907 36.569C60.4058 36.4515 60.3583 36.3321 60.3403 36.2061L59.3504 36.3475C59.3924 36.6415 59.5049 36.912 59.68 37.1545L60.4907 36.569ZM60.3408 36.2092C60.3245 36.0904 60.3415 35.9733 60.4018 35.8467L59.4989 35.4168C59.3591 35.7103 59.3061 36.0232 59.3499 36.3443L60.3408 36.2092ZM60.4018 35.8467C60.4396 35.7673 60.5293 35.6613 60.7439 35.554L60.2967 34.6596C59.9513 34.8323 59.6611 35.0763 59.4989 35.4168L60.4018 35.8467ZM60.7439 35.554C61.1253 35.3633 61.5417 35.2164 61.9949 35.1146L61.7758 34.1389C61.249 34.2572 60.7554 34.4302 60.2967 34.6596L60.7439 35.554ZM61.9928 35.1151C62.4583 35.0127 62.9223 34.9618 63.3853 34.9618V33.9618C62.8484 33.9618 62.3123 34.0209 61.7779 34.1385L61.9928 35.1151ZM63.3853 34.9618C64.1291 34.9618 64.736 35.0703 65.2204 35.2693L65.6003 34.3443C64.9647 34.0832 64.2216 33.9618 63.3853 33.9618V34.9618ZM65.2204 35.2693C65.7017 35.467 66.0411 35.7428 66.2679 36.0869L67.1028 35.5366C66.7496 35.0007 66.239 34.6066 65.6003 34.3443L65.2204 35.2693ZM66.2753 36.0979C66.5076 36.4309 66.6353 36.8469 66.6353 37.3718H67.6353C67.6353 36.6767 67.4631 36.0527 67.0954 35.5257L66.2753 36.0979ZM66.6353 37.3718C66.6353 37.7077 66.5727 38.0083 66.4529 38.28L67.3678 38.6836C67.5479 38.2753 67.6353 37.8359 67.6353 37.3718H66.6353ZM66.4529 38.28C66.3355 38.546 66.1658 38.7657 65.9396 38.945L66.561 39.7285C66.9149 39.4479 67.1852 39.0976 67.3678 38.6836L66.4529 38.28ZM65.9481 38.9384C65.7165 39.1141 65.4385 39.2472 65.1061 39.3324L65.3545 40.3011C65.8021 40.1863 66.2041 39.9994 66.5525 39.7351L65.9481 38.9384ZM65.7303 39.8168V39.6068H64.7303V39.8168H65.7303ZM65.1527 40.1007C65.7497 40.1945 66.1765 40.4369 66.4773 40.8071L67.2534 40.1765C66.7742 39.5867 66.1109 39.239 65.308 39.1128L65.1527 40.1007ZM66.4846 40.8158C66.7962 41.182 66.9653 41.6516 66.9653 42.2618H67.9653C67.9653 41.4519 67.7345 40.7416 67.2461 40.1677L66.4846 40.8158ZM66.9653 42.2618C66.9653 42.8112 66.8254 43.2631 66.5611 43.6395L67.3795 44.2141C67.7753 43.6504 67.9653 42.9923 67.9653 42.2618H66.9653ZM66.5611 43.6395C66.2952 44.0182 65.9038 44.3231 65.3584 44.5431L65.7323 45.4705C66.4269 45.1904 66.9854 44.7754 67.3795 44.2141L66.5611 43.6395ZM65.3648 44.5405C64.8166 44.7527 64.1409 44.8668 63.3253 44.8668V45.8668C64.2298 45.8668 65.0341 45.7408 65.7258 45.4731L65.3648 44.5405Z" fill="url(#paint7_linear_2193_3067)" mask="url(#path-13-outside-1_2193_3067)"/>
</g>
<path fill-rule="evenodd" clip-rule="evenodd" d="M62.6466 86.1702C62.6466 86.1702 66.6178 86.659 66.9233 87.7587C67.2288 88.8584 64.174 91.4244 64.174 91.4244C64.174 91.4244 64.9071 95.3346 63.9907 96.0066C63.0743 96.6787 59.6529 94.5403 59.6529 94.5403C59.6529 94.5403 56.1705 96.4954 55.254 95.7622C54.3376 95.0902 55.3151 91.18 55.3151 91.18C55.3151 91.18 52.3825 88.4307 52.8102 87.331C53.1768 86.2313 57.2091 85.9869 57.2091 85.9869C57.2091 85.9869 58.9198 82.3823 60.0806 82.3823C61.1192 82.4434 62.6466 86.1702 62.6466 86.1702Z" fill="url(#paint8_linear_2193_3067)"/>
<path fill-rule="evenodd" clip-rule="evenodd" d="M62.0331 86.9034C62.0331 86.9034 65.2712 87.3311 65.5766 88.2475C65.821 89.164 63.3161 91.2412 63.3161 91.2412C63.3161 91.2412 63.9271 94.4793 63.1328 95.0291C62.3386 95.579 59.5893 93.8072 59.5893 93.8072C59.5893 93.8072 56.7178 95.3957 55.9846 94.7848C55.2515 94.2349 56.0457 90.9968 56.0457 90.9968C56.0457 90.9968 53.663 88.7363 53.9685 87.881C54.2739 86.9645 57.5731 86.7812 57.5731 86.7812C57.5731 86.7812 58.9783 83.7875 59.8947 83.8486C60.8112 83.8486 62.0331 86.9034 62.0331 86.9034Z" fill="#0B4C53"/>
<path fill-rule="evenodd" clip-rule="evenodd" d="M61.9144 87.0255C61.9144 87.0255 65.0302 87.3921 65.2746 88.3085C65.519 89.1639 63.1363 91.18 63.1363 91.18C63.1363 91.18 63.7472 94.2959 62.953 94.7847C62.2198 95.2734 59.5316 93.6239 59.5316 93.6239C59.5316 93.6239 56.7823 95.1513 56.0492 94.6014C55.316 94.0515 56.1103 90.9968 56.1103 90.9968C56.1103 90.9968 53.7886 88.8584 54.0941 88.0031C54.3996 87.1477 57.5155 86.9644 57.5155 86.9644C57.5155 86.9644 58.8596 84.0929 59.776 84.154C60.7535 84.154 61.9144 87.0255 61.9144 87.0255Z" fill="url(#paint9_radial_2193_3067)"/>
<path fill-rule="evenodd" clip-rule="evenodd" d="M77.8673 86.1702C77.8673 86.1702 81.8385 86.659 82.144 87.7587C82.4495 88.8584 79.3947 91.4244 79.3947 91.4244C79.3947 91.4244 80.1278 95.3346 79.2114 96.0066C78.295 96.6787 74.8736 94.5403 74.8736 94.5403C74.8736 94.5403 71.3912 96.4954 70.4747 95.7622C69.5583 95.0902 70.5358 91.18 70.5358 91.18C70.5358 91.18 67.6032 88.4307 68.0309 87.331C68.3975 86.2313 72.4298 85.9869 72.4298 85.9869C72.4298 85.9869 74.1405 82.3823 75.3013 82.3823C76.3399 82.4434 77.8673 86.1702 77.8673 86.1702Z" fill="url(#paint10_linear_2193_3067)"/>
<path fill-rule="evenodd" clip-rule="evenodd" d="M77.2538 86.9034C77.2538 86.9034 80.4919 87.3311 80.7973 88.2475C81.0417 89.164 78.5368 91.2412 78.5368 91.2412C78.5368 91.2412 79.1478 94.4793 78.3535 95.0291C77.5593 95.579 74.81 93.8072 74.81 93.8072C74.81 93.8072 71.9385 95.3957 71.2053 94.7848C70.4722 94.2349 71.2664 90.9968 71.2664 90.9968C71.2664 90.9968 68.8837 88.7363 69.1892 87.881C69.4946 86.9645 72.7938 86.7812 72.7938 86.7812C72.7938 86.7812 74.199 83.7875 75.1154 83.8486C76.0319 83.8486 77.2538 86.9034 77.2538 86.9034Z" fill="#0B4C53"/>
<path fill-rule="evenodd" clip-rule="evenodd" d="M77.1351 87.0255C77.1351 87.0255 80.2509 87.3921 80.4953 88.3085C80.7397 89.1639 78.357 91.18 78.357 91.18C78.357 91.18 78.9679 94.2959 78.1737 94.7847C77.4405 95.2734 74.7523 93.6239 74.7523 93.6239C74.7523 93.6239 72.003 95.1513 71.2699 94.6014C70.5367 94.0515 71.331 90.9968 71.331 90.9968C71.331 90.9968 69.0093 88.8584 69.3148 88.0031C69.6203 87.1477 72.7362 86.9644 72.7362 86.9644C72.7362 86.9644 74.0803 84.0929 74.9967 84.154C75.9742 84.154 77.1351 87.0255 77.1351 87.0255Z" fill="url(#paint11_radial_2193_3067)"/>
<path fill-rule="evenodd" clip-rule="evenodd" d="M47.4269 86.1702C47.4269 86.1702 51.3981 86.659 51.7036 87.7587C52.009 88.8584 48.9543 91.4244 48.9543 91.4244C48.9543 91.4244 49.6874 95.3346 48.771 96.0066C47.8545 96.6787 44.4332 94.5403 44.4332 94.5403C44.4332 94.5403 40.9507 96.4954 40.0343 95.7622C39.1179 95.0902 40.0954 91.18 40.0954 91.18C40.0954 91.18 37.1628 88.4307 37.5905 87.331C37.957 86.2313 41.9894 85.9869 41.9894 85.9869C41.9894 85.9869 43.7 82.3823 44.8608 82.3823C45.8995 82.4434 47.4269 86.1702 47.4269 86.1702Z" fill="url(#paint12_linear_2193_3067)"/>
<path fill-rule="evenodd" clip-rule="evenodd" d="M46.8134 86.9034C46.8134 86.9034 50.0514 87.3311 50.3569 88.2475C50.6013 89.164 48.0964 91.2412 48.0964 91.2412C48.0964 91.2412 48.7073 94.4793 47.9131 95.0291C47.1188 95.579 44.3695 93.8072 44.3695 93.8072C44.3695 93.8072 41.498 95.3957 40.7649 94.7848C40.0317 94.2349 40.826 90.9968 40.826 90.9968C40.826 90.9968 38.4433 88.7363 38.7487 87.881C39.0542 86.9645 42.3534 86.7812 42.3534 86.7812C42.3534 86.7812 43.7586 83.7875 44.675 83.8486C45.5915 83.8486 46.8134 86.9034 46.8134 86.9034Z" fill="#0B4C53"/>
<path fill-rule="evenodd" clip-rule="evenodd" d="M46.6936 87.0255C46.6936 87.0255 49.8095 87.3921 50.0539 88.3085C50.2983 89.1639 47.9156 91.18 47.9156 91.18C47.9156 91.18 48.5265 94.2959 47.7323 94.7847C46.9991 95.2734 44.3109 93.6239 44.3109 93.6239C44.3109 93.6239 41.5616 95.1513 40.8285 94.6014C40.0953 94.0515 40.8896 90.9968 40.8896 90.9968C40.8896 90.9968 38.5679 88.8584 38.8734 88.0031C39.1789 87.1477 42.2948 86.9644 42.2948 86.9644C42.2948 86.9644 43.6389 84.0929 44.5553 84.154C45.5328 84.154 46.6936 87.0255 46.6936 87.0255Z" fill="url(#paint13_radial_2193_3067)"/>
<path fill-rule="evenodd" clip-rule="evenodd" d="M32.2071 86.1702C32.2071 86.1702 36.1784 86.659 36.4838 87.7587C36.7893 88.8584 33.7345 91.4244 33.7345 91.4244C33.7345 91.4244 34.4677 95.3346 33.5513 96.0066C32.6348 96.6787 29.2135 94.5403 29.2135 94.5403C29.2135 94.5403 25.731 96.4954 24.8146 95.7622C23.8981 95.0902 24.8757 91.18 24.8757 91.18C24.8757 91.18 21.9431 88.4307 22.3707 87.331C22.7373 86.2313 26.7696 85.9869 26.7696 85.9869C26.7696 85.9869 28.4803 82.3823 29.6411 82.3823C30.6797 82.4434 32.2071 86.1702 32.2071 86.1702Z" fill="url(#paint14_linear_2193_3067)"/>
<path fill-rule="evenodd" clip-rule="evenodd" d="M31.5936 86.9034C31.5936 86.9034 34.8317 87.3311 35.1372 88.2475C35.3816 89.164 32.8767 91.2412 32.8767 91.2412C32.8767 91.2412 33.4876 94.4793 32.6934 95.0291C31.8991 95.579 29.1498 93.8072 29.1498 93.8072C29.1498 93.8072 26.2783 95.3957 25.5452 94.7848C24.812 94.2349 25.6063 90.9968 25.6063 90.9968C25.6063 90.9968 23.2235 88.7363 23.529 87.881C23.8345 86.9645 27.1337 86.7812 27.1337 86.7812C27.1337 86.7812 28.5389 83.7875 29.4553 83.8486C30.3717 83.8486 31.5936 86.9034 31.5936 86.9034Z" fill="#0B4C53"/>
<path fill-rule="evenodd" clip-rule="evenodd" d="M31.4739 87.0255C31.4739 87.0255 34.5898 87.3921 34.8342 88.3085C35.0786 89.1639 32.6958 91.18 32.6958 91.18C32.6958 91.18 33.3068 94.2959 32.5126 94.7847C31.7794 95.2734 29.0912 93.6239 29.0912 93.6239C29.0912 93.6239 26.3419 95.1513 25.6087 94.6014C24.8756 94.0515 25.6698 90.9968 25.6698 90.9968C25.6698 90.9968 23.3482 88.8584 23.6537 88.0031C23.9592 87.1477 27.075 86.9644 27.075 86.9644C27.075 86.9644 28.4191 84.0929 29.3356 84.154C30.3131 84.154 31.4739 87.0255 31.4739 87.0255Z" fill="url(#paint15_radial_2193_3067)"/>
<path fill-rule="evenodd" clip-rule="evenodd" d="M16.9874 86.1702C16.9874 86.1702 20.9586 86.659 21.2641 87.7587C21.5696 88.8584 18.5148 91.4244 18.5148 91.4244C18.5148 91.4244 19.248 95.3346 18.3315 96.0066C17.4151 96.6787 13.9937 94.5403 13.9937 94.5403C13.9937 94.5403 10.5113 96.4954 9.59484 95.7622C8.6784 95.0902 9.65594 91.18 9.65594 91.18C9.65594 91.18 6.72334 88.4307 7.15101 87.331C7.51758 86.2313 11.5499 85.9869 11.5499 85.9869C11.5499 85.9869 13.2606 82.3823 14.4214 82.3823C15.46 82.4434 16.9874 86.1702 16.9874 86.1702Z" fill="url(#paint16_linear_2193_3067)"/>
<path fill-rule="evenodd" clip-rule="evenodd" d="M16.3739 86.9034C16.3739 86.9034 19.612 87.3311 19.9175 88.2475C20.1618 89.164 17.6569 91.2412 17.6569 91.2412C17.6569 91.2412 18.2679 94.4793 17.4736 95.0291C16.6794 95.579 13.9301 93.8072 13.9301 93.8072C13.9301 93.8072 11.0586 95.3957 10.3254 94.7848C9.5923 94.2349 10.3865 90.9968 10.3865 90.9968C10.3865 90.9968 8.0038 88.7363 8.30928 87.881C8.61475 86.9645 11.9139 86.7812 11.9139 86.7812C11.9139 86.7812 13.3191 83.7875 14.2356 83.8486C15.152 83.8486 16.3739 86.9034 16.3739 86.9034Z" fill="#0B4C53"/>
<path fill-rule="evenodd" clip-rule="evenodd" d="M16.2542 87.0255C16.2542 87.0255 19.3701 87.3921 19.6145 88.3085C19.8588 89.1639 17.4761 91.18 17.4761 91.18C17.4761 91.18 18.0871 94.2959 17.2928 94.7847C16.5597 95.2734 13.8715 93.6239 13.8715 93.6239C13.8715 93.6239 11.1222 95.1513 10.389 94.6014C9.65587 94.0515 10.4501 90.9968 10.4501 90.9968C10.4501 90.9968 8.12847 88.8584 8.43395 88.0031C8.73943 87.1477 11.8553 86.9644 11.8553 86.9644C11.8553 86.9644 13.1994 84.0929 14.1158 84.154C15.0934 84.154 16.2542 87.0255 16.2542 87.0255Z" fill="url(#paint17_radial_2193_3067)"/>
<defs>
<filter id="filter0_d_2193_3067" x="15.0391" y="17.9618" width="56.9268" height="35.905" filterUnits="userSpaceOnUse" color-interpolation-filters="sRGB">
<feFlood flood-opacity="0" result="BackgroundImageFix"/>
<feColorMatrix in="SourceAlpha" type="matrix" values="0 0 0 0 0 0 0 0 0 0 0 0 0 0 0 0 0 0 127 0" result="hardAlpha"/>
<feOffset dy="4"/>
<feGaussianBlur stdDeviation="2"/>
<feComposite in2="hardAlpha" operator="out"/>
<feColorMatrix type="matrix" values="0 0 0 0 0 0 0 0 0 0 0 0 0 0 0 0 0 0 0.38 0"/>
<feBlend mode="normal" in2="BackgroundImageFix" result="effect1_dropShadow_2193_3067"/>
<feBlend mode="normal" in="SourceGraphic" in2="effect1_dropShadow_2193_3067" result="shape"/>
</filter>
<linearGradient id="paint0_linear_2193_3067" x1="44.8224" y1="75.8234" x2="44.8224" y2="3.23293" gradientUnits="userSpaceOnUse">
<stop stop-color="white"/>
<stop offset="1" stop-color="white"/>
</linearGradient>
<linearGradient id="paint1_linear_2193_3067" x1="44.8232" y1="73.4678" x2="44.8232" y2="0.87508" gradientUnits="userSpaceOnUse">
<stop stop-color="white"/>
<stop offset="1" stop-color="white"/>
</linearGradient>
<radialGradient id="paint2_radial_2193_3067" cx="0" cy="0" r="1" gradientUnits="userSpaceOnUse" gradientTransform="translate(45.3584 64.0736) scale(31.2938 55.9461)">
<stop stop-color="#0D6C76"/>
<stop offset="1" stop-color="#45C3D2"/>
</radialGradient>
<linearGradient id="paint3_linear_2193_3067" x1="44.0487" y1="65.2336" x2="44.0487" y2="5.32491" gradientUnits="userSpaceOnUse">
<stop stop-color="#5DCFDC"/>
<stop offset="1" stop-color="#11737E"/>
</linearGradient>
<linearGradient id="paint4_linear_2193_3067" x1="44.0474" y1="64.109" x2="44.0474" y2="5.97227" gradientUnits="userSpaceOnUse">
<stop stop-color="#45C2D1"/>
<stop offset="0.958333" stop-color="#0E6E79"/>
</linearGradient>
<linearGradient id="paint5_linear_2193_3067" x1="9.33081" y1="17.6483" x2="82.3815" y2="17.6483" gradientUnits="userSpaceOnUse">
<stop stop-color="#FF9840"/>
<stop offset="0.0972342" stop-color="#EF8E3C"/>
<stop offset="0.2877" stop-color="#C57531"/>
<stop offset="0.5527" stop-color="#814D20"/>
<stop offset="0.879" stop-color="#241609"/>
<stop offset="1"/>
</linearGradient>
<linearGradient id="paint6_linear_2193_3067" x1="79.0937" y1="56.9189" x2="9.45221" y2="56.9189" gradientUnits="userSpaceOnUse">
<stop stop-color="#FF6140"/>
<stop offset="0.0972342" stop-color="#EF5B3C"/>
<stop offset="0.2877" stop-color="#C54B31"/>
<stop offset="0.5527" stop-color="#813120"/>
<stop offset="0.879" stop-color="#240E09"/>
<stop offset="1"/>
</linearGradient>
<linearGradient id="paint7_linear_2193_3067" x1="43.3566" y1="16.2018" x2="43.3566" y2="53.7854" gradientUnits="userSpaceOnUse">
<stop stop-color="#42BFCD"/>
<stop offset="1" stop-color="#11727D"/>
</linearGradient>
<linearGradient id="paint8_linear_2193_3067" x1="63.635" y1="96.2063" x2="56.6972" y2="84.1897" gradientUnits="userSpaceOnUse">
<stop stop-color="#F4F3F1"/>
<stop offset="1" stop-color="#FBF9FE"/>
</linearGradient>
<radialGradient id="paint9_radial_2193_3067" cx="0" cy="0" r="1" gradientUnits="userSpaceOnUse" gradientTransform="translate(58.4736 87.3578) scale(5.49378 5.49378)">
<stop stop-color="#56C7D4"/>
<stop offset="0.9973" stop-color="#19727C"/>
</radialGradient>
<linearGradient id="paint10_linear_2193_3067" x1="78.8557" y1="96.2063" x2="71.9179" y2="84.1897" gradientUnits="userSpaceOnUse">
<stop stop-color="#F4F3F1"/>
<stop offset="1" stop-color="#FBF9FE"/>
</linearGradient>
<radialGradient id="paint11_radial_2193_3067" cx="0" cy="0" r="1" gradientUnits="userSpaceOnUse" gradientTransform="translate(73.6943 87.3578) scale(5.49378 5.49378)">
<stop stop-color="#56C7D4"/>
<stop offset="0.9973" stop-color="#19727C"/>
</radialGradient>
<linearGradient id="paint12_linear_2193_3067" x1="48.4153" y1="96.2063" x2="41.4775" y2="84.1897" gradientUnits="userSpaceOnUse">
<stop stop-color="#F4F3F1"/>
<stop offset="1" stop-color="#FBF9FE"/>
</linearGradient>
<radialGradient id="paint13_radial_2193_3067" cx="0" cy="0" r="1" gradientUnits="userSpaceOnUse" gradientTransform="translate(43.2529 87.3578) scale(5.49378 5.49378)">
<stop stop-color="#56C7D4"/>
<stop offset="0.9973" stop-color="#19727C"/>
</radialGradient>
<linearGradient id="paint14_linear_2193_3067" x1="33.1956" y1="96.2063" x2="26.2578" y2="84.1897" gradientUnits="userSpaceOnUse">
<stop stop-color="#F4F3F1"/>
<stop offset="1" stop-color="#FBF9FE"/>
</linearGradient>
<radialGradient id="paint15_radial_2193_3067" cx="0" cy="0" r="1" gradientUnits="userSpaceOnUse" gradientTransform="translate(28.0331 87.3578) scale(5.49378 5.49378)">
<stop stop-color="#56C7D4"/>
<stop offset="0.9973" stop-color="#19727C"/>
</radialGradient>
<linearGradient id="paint16_linear_2193_3067" x1="17.9758" y1="96.2063" x2="11.038" y2="84.1897" gradientUnits="userSpaceOnUse">
<stop stop-color="#F4F3F1"/>
<stop offset="1" stop-color="#FBF9FE"/>
</linearGradient>
<radialGradient id="paint17_radial_2193_3067" cx="0" cy="0" r="1" gradientUnits="userSpaceOnUse" gradientTransform="translate(12.8134 87.3578) scale(5.49378 5.49378)">
<stop stop-color="#56C7D4"/>
<stop offset="0.9973" stop-color="#19727C"/>
</radialGradient>
</defs>
</svg>
