<svg width="88" height="96" viewBox="0 0 88 96" fill="none" xmlns="http://www.w3.org/2000/svg">
<path d="M84.2616 66.7158C84.1983 66.8288 84.0719 67.0549 84.0086 67.1679C76.5479 78.1323 11.6139 77.6802 2.57243 67.8461C2.06661 67.2809 1.75048 66.8288 1.62403 66.2636C-1.60054 54.395 0.169816 18.4498 5.22797 10.6504C10.6655 2.28584 75.9788 -1.4443 82.6809 9.18099C87.739 16.9804 90.0784 55.8644 84.2616 66.7158Z" fill="url(#paint0_linear_2193_4798)"/>
<path d="M1.6879 63.8895C4.78601 75.4191 77.9395 76.3234 84.3254 64.3417C90.1423 53.4903 87.7397 14.6063 82.808 6.80687C76.0427 -3.81841 10.7926 0.0247608 5.35505 8.27631C0.233672 16.0757 -1.53667 52.0209 1.6879 63.8895Z" fill="url(#paint1_linear_2193_4798)"/>
<path d="M4.65625 60.0473C4.65625 60.0473 14.5196 69.5422 44.9318 69.5422C75.3439 69.5422 80.2124 60.0473 80.2124 60.0473H4.65625Z" fill="white"/>
<path d="M84.0075 60.0462V67.2804C76.5467 78.2448 11.6127 77.7926 2.57129 67.9586L2.76098 65.8109L4.59456 60.0462L82.6165 53.6031L84.0075 60.0462Z" fill="#F4F3F1"/>
<path d="M3.96366 58.6889C6.74564 69.0881 74.7145 72.0271 80.5314 61.1757C85.7792 51.3417 83.6295 15.9617 79.1404 8.95356C73.0074 -0.654407 12.6257 6.1277 7.69404 13.701C3.01525 20.7092 1.05522 47.8376 3.96366 58.6889Z" fill="url(#paint2_radial_2193_4798)"/>
<path d="M4.15367 56.8825C6.93566 66.9426 74.5252 67.6208 80.2788 57.2216C85.5266 47.7267 83.4402 16.1899 78.9511 9.40778C72.8181 0.138919 12.6893 6.69495 7.75761 13.9292C3.20528 20.7113 1.30847 46.4832 4.15367 56.8825Z" fill="url(#paint3_linear_2193_4798)"/>
<path d="M5.0375 55.9779C7.75626 65.6989 73.8283 66.4901 79.5188 56.317C84.6401 47.0481 82.6169 16.5287 78.2542 9.97263C72.3109 1.04287 13.4467 7.25978 8.57821 14.381C4.02588 20.937 2.1923 45.8047 5.0375 55.9779Z" fill="url(#paint4_linear_2193_4798)"/>
<path d="M8.38574 14.3794C8.38574 14.3794 54.4781 -2.3498 78.3779 10.084C78.3779 10.084 80.4644 14.8315 81.4128 22.1788C81.4128 22.1788 72.6875 27.7175 60.4214 28.7348C48.1554 29.7521 35.2572 17.3183 24.888 15.5097C14.5188 13.7012 8.38574 14.3794 8.38574 14.3794Z" fill="url(#paint5_linear_2193_4798)" fill-opacity="0.1"/>
<path d="M78.1304 56.4302C78.1304 56.4302 47.2757 66.1512 8.51758 57.5605C8.51758 57.5605 33.7451 61.5167 44.9363 57.5605C63.9675 51.0045 73.1354 49.0829 78.1304 56.4302Z" fill="url(#paint6_linear_2193_4798)" fill-opacity="0.1"/>
<path d="M6.68359 18.5634C6.68359 18.5634 7.632 15.0594 9.90817 13.1378C12.1211 11.2162 18.507 9.29456 18.8864 9.85974C19.2658 10.3119 15.7883 12.5726 13.9547 13.816C12.1211 14.9463 7.56877 19.4677 6.68359 18.5634Z" fill="black" fill-opacity="0.14"/>
<path d="M6.4271 19.58C5.98451 19.693 4.78321 26.136 4.90966 27.1533C4.97289 28.1706 6.36388 24.8926 6.55356 23.084C6.80647 21.2755 6.4271 19.58 6.4271 19.58Z" fill="black" fill-opacity="0.14"/>
<path d="M77.3047 59.2534C76.9886 58.2361 79.8338 53.4886 80.5293 53.6017C81.2248 53.6017 80.5925 56.6536 80.1499 57.4448C79.7705 58.01 77.4944 59.7055 77.3047 59.2534Z" fill="white"/>
<path d="M84.2616 66.7158C84.1983 66.8289 84.0719 67.0549 84.0086 67.168C76.5479 78.1323 11.6139 77.6802 2.57243 67.8462C2.06661 67.281 1.75048 66.8289 1.62403 66.2637C-1.60054 54.395 0.169816 18.4499 5.22797 10.6505C10.6655 2.2859 75.9788 -1.44423 82.6809 9.18105C87.739 16.9805 90.0784 55.8645 84.2616 66.7158Z" fill="url(#paint7_linear_2193_4798)"/>
<path d="M1.6879 63.8896C4.78601 75.4191 77.9395 76.3234 84.3254 64.3417C90.1423 53.4904 87.7397 14.6063 82.808 6.80693C76.0427 -3.81835 10.7926 0.0248218 5.35505 8.27637C0.233672 16.0758 -1.53667 52.0209 1.6879 63.8896Z" fill="url(#paint8_linear_2193_4798)"/>
<path d="M4.65625 60.0474C4.65625 60.0474 14.5196 69.5423 44.9318 69.5423C75.3439 69.5423 80.2124 60.0474 80.2124 60.0474H4.65625Z" fill="white"/>
<path d="M84.0075 60.0462V67.2804C76.5467 78.2448 11.6127 77.7926 2.57129 67.9586L2.76098 65.8109L4.59456 60.0462L82.6165 53.6031L84.0075 60.0462Z" fill="#F4F3F1"/>
<path d="M3.96366 58.689C6.74564 69.0882 74.7145 72.0271 80.5314 61.1758C85.7792 51.3417 83.6295 15.9618 79.1404 8.95362C73.0074 -0.654346 12.6257 6.12776 7.69404 13.7011C3.01525 20.7093 1.05522 47.8376 3.96366 58.689Z" fill="url(#paint9_radial_2193_4798)"/>
<path d="M4.15367 56.8825C6.93566 66.9426 74.5252 67.6209 80.2788 57.2216C85.5266 47.7267 83.4402 16.1899 78.9511 9.40785C72.8181 0.13898 12.6893 6.69501 7.75761 13.9292C3.20528 20.7113 1.30847 46.4833 4.15367 56.8825Z" fill="url(#paint10_linear_2193_4798)"/>
<path d="M5.0375 55.9779C7.75626 65.6989 73.8283 66.4902 79.5188 56.317C84.6401 47.0481 82.6169 16.5287 78.2542 9.97269C72.3109 1.04293 13.4467 7.25984 8.57821 14.381C4.02588 20.9371 2.1923 45.8048 5.0375 55.9779Z" fill="url(#paint11_linear_2193_4798)"/>
<path d="M8.38574 14.3794C8.38574 14.3794 54.4781 -2.34974 78.3779 10.0841C78.3779 10.0841 80.4644 14.8316 81.4128 22.1789C81.4128 22.1789 72.6875 27.7176 60.4214 28.7349C48.1554 29.7522 35.2572 17.3183 24.888 15.5098C14.5188 13.7012 8.38574 14.3794 8.38574 14.3794Z" fill="url(#paint12_linear_2193_4798)" fill-opacity="0.1"/>
<path d="M78.1304 56.4302C78.1304 56.4302 47.2757 66.1512 8.51758 57.5606C8.51758 57.5606 33.7451 61.5168 44.9363 57.5606C63.9675 51.0046 73.1354 49.083 78.1304 56.4302Z" fill="url(#paint13_linear_2193_4798)" fill-opacity="0.1"/>
<path d="M6.68359 18.5635C6.68359 18.5635 7.632 15.0594 9.90817 13.1378C12.1211 11.2162 18.507 9.29462 18.8864 9.8598C19.2658 10.3119 15.7883 12.5726 13.9547 13.816C12.1211 14.9464 7.56877 19.4678 6.68359 18.5635Z" fill="black" fill-opacity="0.14"/>
<path d="M6.4271 19.58C5.98451 19.6931 4.78321 26.1361 4.90966 27.1534C4.97289 28.1707 6.36388 24.8927 6.55356 23.0841C6.80647 21.2755 6.4271 19.58 6.4271 19.58Z" fill="black" fill-opacity="0.14"/>
<path d="M77.3047 59.2535C76.9886 58.2361 79.8338 53.4887 80.5293 53.6017C81.2248 53.6017 80.5925 56.6537 80.1499 57.4449C79.7705 58.0101 77.4944 59.7056 77.3047 59.2535Z" fill="white"/>
<g filter="url(#filter0_d_2193_4798)">
<mask id="path-25-outside-1_2193_4798" maskUnits="userSpaceOnUse" x="17.2168" y="16.7168" width="50" height="29" fill="black">
<rect fill="white" x="17.2168" y="16.7168" width="50" height="29"/>
<path d="M26.0616 28.8818C25.6616 28.8818 25.2416 28.8518 24.8016 28.7918C24.3716 28.7418 23.9616 28.6618 23.5716 28.5518C23.1816 28.4418 22.8316 28.3118 22.5216 28.1618C22.2516 28.0318 22.0616 27.8618 21.9516 27.6518C21.8416 27.4318 21.8016 27.2018 21.8316 26.9618C21.8616 26.7218 21.9466 26.5118 22.0866 26.3318C22.2266 26.1418 22.4116 26.0168 22.6416 25.9568C22.8716 25.8868 23.1316 25.9168 23.4216 26.0468C23.8016 26.2268 24.2316 26.3668 24.7116 26.4668C25.1916 26.5668 25.6416 26.6168 26.0616 26.6168C26.7216 26.6168 27.1816 26.5318 27.4416 26.3618C27.7116 26.1818 27.8466 25.9618 27.8466 25.7018C27.8466 25.4718 27.7516 25.2868 27.5616 25.1468C27.3816 25.0068 27.0566 24.8868 26.5866 24.7868L24.8316 24.4118C23.8716 24.2118 23.1566 23.8618 22.6866 23.3618C22.2166 22.8618 21.9816 22.2168 21.9816 21.4268C21.9816 20.9068 22.0866 20.4368 22.2966 20.0168C22.5166 19.5868 22.8216 19.2218 23.2116 18.9218C23.6116 18.6218 24.0816 18.3918 24.6216 18.2318C25.1716 18.0618 25.7816 17.9768 26.4516 17.9768C26.9716 17.9768 27.4966 18.0368 28.0266 18.1568C28.5666 18.2668 29.0316 18.4368 29.4216 18.6668C29.6516 18.7868 29.8166 18.9518 29.9166 19.1618C30.0166 19.3718 30.0566 19.5918 30.0366 19.8218C30.0166 20.0418 29.9366 20.2368 29.7966 20.4068C29.6666 20.5768 29.4866 20.6918 29.2566 20.7518C29.0366 20.8018 28.7716 20.7618 28.4616 20.6318C28.1716 20.5018 27.8416 20.4068 27.4716 20.3468C27.1116 20.2768 26.7616 20.2418 26.4216 20.2418C26.0516 20.2418 25.7366 20.2868 25.4766 20.3768C25.2166 20.4568 25.0166 20.5768 24.8766 20.7368C24.7466 20.8968 24.6816 21.0818 24.6816 21.2918C24.6816 21.5018 24.7666 21.6818 24.9366 21.8318C25.1166 21.9718 25.4416 22.0918 25.9116 22.1918L27.6516 22.5668C28.6216 22.7768 29.3466 23.1218 29.8266 23.6018C30.3066 24.0818 30.5466 24.7068 30.5466 25.4768C30.5466 25.9968 30.4416 26.4668 30.2316 26.8868C30.0216 27.3068 29.7216 27.6668 29.3316 27.9668C28.9416 28.2568 28.4716 28.4818 27.9216 28.6418C27.3716 28.8018 26.7516 28.8818 26.0616 28.8818ZM35.4749 28.8818C34.7249 28.8818 34.1049 28.7668 33.6149 28.5368C33.1349 28.3068 32.7749 27.9618 32.5349 27.5018C32.2949 27.0318 32.1749 26.4468 32.1749 25.7468V23.3018H31.6649C31.3449 23.3018 31.0949 23.2168 30.9149 23.0468C30.7449 22.8768 30.6599 22.6318 30.6599 22.3118C30.6599 21.9918 30.7449 21.7518 30.9149 21.5918C31.0949 21.4218 31.3449 21.3368 31.6649 21.3368H32.1749V20.4068C32.1749 19.9668 32.2899 19.6318 32.5199 19.4018C32.7499 19.1718 33.0799 19.0568 33.5099 19.0568C33.9399 19.0568 34.2699 19.1718 34.4999 19.4018C34.7299 19.6318 34.8449 19.9668 34.8449 20.4068V21.3368H36.0749C36.4049 21.3368 36.6549 21.4218 36.8249 21.5918C37.0049 21.7518 37.0949 21.9918 37.0949 22.3118C37.0949 22.6318 37.0049 22.8768 36.8249 23.0468C36.6549 23.2168 36.4049 23.3018 36.0749 23.3018H34.8449V25.6568C34.8449 26.0268 34.9299 26.3018 35.0999 26.4818C35.2799 26.6518 35.5599 26.7368 35.9399 26.7368C36.0799 26.7368 36.2149 26.7218 36.3449 26.6918C36.4749 26.6618 36.5949 26.6468 36.7049 26.6468C36.8649 26.6368 36.9949 26.6868 37.0949 26.7968C37.1949 26.8968 37.2449 27.1318 37.2449 27.5018C37.2449 27.8018 37.1999 28.0568 37.1099 28.2668C37.0199 28.4668 36.8599 28.6118 36.6299 28.7018C36.4899 28.7518 36.2999 28.7918 36.0599 28.8218C35.8199 28.8618 35.6249 28.8818 35.4749 28.8818ZM40.7516 28.8818C40.1116 28.8818 39.5866 28.7668 39.1766 28.5368C38.7666 28.2968 38.4566 27.9418 38.2466 27.4718C38.0466 27.0018 37.9466 26.4068 37.9466 25.6868V22.5368C37.9466 22.0968 38.0616 21.7668 38.2916 21.5468C38.5216 21.3168 38.8516 21.2018 39.2816 21.2018C39.7116 21.2018 40.0416 21.3168 40.2716 21.5468C40.5016 21.7668 40.6166 22.0968 40.6166 22.5368V25.7618C40.6166 26.1218 40.6916 26.3918 40.8416 26.5718C40.9916 26.7518 41.2266 26.8418 41.5466 26.8418C41.9066 26.8418 42.2016 26.7118 42.4316 26.4518C42.6616 26.1918 42.7766 25.8468 42.7766 25.4168V22.5368C42.7766 22.0968 42.8916 21.7668 43.1216 21.5468C43.3516 21.3168 43.6816 21.2018 44.1116 21.2018C44.5416 21.2018 44.8716 21.3168 45.1016 21.5468C45.3316 21.7668 45.4466 22.0968 45.4466 22.5368V27.5018C45.4466 28.4018 45.0166 28.8518 44.1566 28.8518C43.7366 28.8518 43.4116 28.7368 43.1816 28.5068C42.9516 28.2768 42.8366 27.9418 42.8366 27.5018V26.6318L43.0766 27.3668C42.8566 27.8568 42.5466 28.2318 42.1466 28.4918C41.7566 28.7518 41.2916 28.8818 40.7516 28.8818ZM49.8804 28.8818C49.2504 28.8818 48.6904 28.7268 48.2004 28.4168C47.7204 28.1068 47.3404 27.6618 47.0604 27.0818C46.7904 26.5018 46.6554 25.8168 46.6554 25.0268C46.6554 24.2168 46.7904 23.5268 47.0604 22.9568C47.3404 22.3868 47.7204 21.9468 48.2004 21.6368C48.6904 21.3268 49.2504 21.1718 49.8804 21.1718C50.4304 21.1718 50.9254 21.3018 51.3654 21.5618C51.8054 21.8218 52.1004 22.1568 52.2504 22.5668H52.0854V19.3568C52.0854 18.9168 52.2004 18.5818 52.4304 18.3518C52.6604 18.1218 52.9904 18.0068 53.4204 18.0068C53.8404 18.0068 54.1654 18.1218 54.3954 18.3518C54.6354 18.5818 54.7554 18.9168 54.7554 19.3568V27.5018C54.7554 27.9418 54.6404 28.2768 54.4104 28.5068C54.1904 28.7368 53.8654 28.8518 53.4354 28.8518C53.0154 28.8518 52.6904 28.7368 52.4604 28.5068C52.2304 28.2768 52.1154 27.9418 52.1154 27.5018V26.6468L52.2804 27.3818C52.1404 27.8318 51.8454 28.1968 51.3954 28.4768C50.9554 28.7468 50.4504 28.8818 49.8804 28.8818ZM50.7354 26.9168C51.0054 26.9168 51.2454 26.8518 51.4554 26.7218C51.6654 26.5818 51.8254 26.3768 51.9354 26.1068C52.0554 25.8268 52.1154 25.4668 52.1154 25.0268C52.1154 24.3568 51.9854 23.8768 51.7254 23.5868C51.4654 23.2868 51.1354 23.1368 50.7354 23.1368C50.4654 23.1368 50.2254 23.2018 50.0154 23.3318C49.8054 23.4618 49.6404 23.6668 49.5204 23.9468C49.4004 24.2168 49.3404 24.5768 49.3404 25.0268C49.3404 25.6868 49.4704 26.1668 49.7304 26.4668C49.9904 26.7668 50.3254 26.9168 50.7354 26.9168ZM58.4472 31.5518C58.1372 31.5518 57.8872 31.4718 57.6972 31.3118C57.5072 31.1518 57.3872 30.9418 57.3372 30.6818C57.2972 30.4218 57.3422 30.1468 57.4722 29.8568L58.4772 27.6818V28.7618L55.9122 22.8968C55.7822 22.5968 55.7372 22.3168 55.7772 22.0568C55.8272 21.7968 55.9622 21.5918 56.1822 21.4418C56.4022 21.2818 56.7022 21.2018 57.0822 21.2018C57.4022 21.2018 57.6572 21.2768 57.8472 21.4268C58.0472 21.5668 58.2272 21.8468 58.3872 22.2668L59.8872 26.1668H59.3772L60.9672 22.2518C61.1272 21.8418 61.3072 21.5668 61.5072 21.4268C61.7172 21.2768 61.9972 21.2018 62.3472 21.2018C62.6472 21.2018 62.8872 21.2818 63.0672 21.4418C63.2472 21.5918 63.3572 21.7968 63.3972 22.0568C63.4372 22.3168 63.3922 22.5968 63.2622 22.8968L59.8572 30.5468C59.6772 30.9468 59.4772 31.2118 59.2572 31.3418C59.0472 31.4818 58.7772 31.5518 58.4472 31.5518ZM19.9817 44.8518C19.5417 44.8518 19.1967 44.7318 18.9467 44.4918C18.7067 44.2418 18.5867 43.8868 18.5867 43.4268V35.5668C18.5867 35.1068 18.7067 34.7568 18.9467 34.5168C19.1967 34.2668 19.5567 34.1418 20.0267 34.1418H25.0217C25.3817 34.1418 25.6517 34.2318 25.8317 34.4118C26.0117 34.5918 26.1017 34.8518 26.1017 35.1918C26.1017 35.5418 26.0117 35.8118 25.8317 36.0018C25.6517 36.1818 25.3817 36.2718 25.0217 36.2718H21.3467V38.4018H24.6917C25.0417 38.4018 25.3067 38.4918 25.4867 38.6718C25.6767 38.8518 25.7717 39.1118 25.7717 39.4518C25.7717 39.8018 25.6767 40.0668 25.4867 40.2468C25.3067 40.4268 25.0417 40.5168 24.6917 40.5168H21.3467V43.4268C21.3467 44.3768 20.8917 44.8518 19.9817 44.8518ZM29.0138 44.8518C28.5938 44.8518 28.2688 44.7268 28.0388 44.4768C27.8088 44.2268 27.6938 43.8668 27.6938 43.3968V38.6568C27.6938 38.1868 27.8088 37.8268 28.0388 37.5768C28.2688 37.3268 28.5938 37.2018 29.0138 37.2018C29.4438 37.2018 29.7738 37.3268 30.0038 37.5768C30.2438 37.8268 30.3638 38.1868 30.3638 38.6568V43.3968C30.3638 43.8668 30.2488 44.2268 30.0188 44.4768C29.7888 44.7268 29.4538 44.8518 29.0138 44.8518ZM29.0138 36.1368C28.5438 36.1368 28.1788 36.0268 27.9188 35.8068C27.6688 35.5868 27.5438 35.2668 27.5438 34.8468C27.5438 34.4368 27.6688 34.1218 27.9188 33.9018C28.1788 33.6818 28.5438 33.5718 29.0138 33.5718C29.5038 33.5718 29.8738 33.6818 30.1238 33.9018C30.3738 34.1218 30.4988 34.4368 30.4988 34.8468C30.4988 35.2668 30.3738 35.5868 30.1238 35.8068C29.8738 36.0268 29.5038 36.1368 29.0138 36.1368ZM35.9325 44.8818C35.0325 44.8818 34.2525 44.7268 33.5925 44.4168C32.9425 44.0968 32.4425 43.6468 32.0925 43.0668C31.7425 42.4868 31.5675 41.8018 31.5675 41.0118C31.5675 40.2518 31.7325 39.5868 32.0625 39.0168C32.4025 38.4368 32.8625 37.9868 33.4425 37.6668C34.0325 37.3368 34.7025 37.1718 35.4525 37.1718C36.0025 37.1718 36.5025 37.2618 36.9525 37.4418C37.4025 37.6118 37.7875 37.8668 38.1075 38.2068C38.4275 38.5368 38.6675 38.9368 38.8275 39.4068C38.9975 39.8768 39.0825 40.4018 39.0825 40.9818C39.0825 41.1818 39.0275 41.3318 38.9175 41.4318C38.8075 41.5218 38.6325 41.5668 38.3925 41.5668H33.8025V40.3068H37.1325L36.8925 40.5018C36.8925 40.1318 36.8425 39.8318 36.7425 39.6018C36.6425 39.3718 36.4925 39.1968 36.2925 39.0768C36.1025 38.9568 35.8625 38.8968 35.5725 38.8968C35.2625 38.8968 34.9925 38.9718 34.7625 39.1218C34.5425 39.2618 34.3725 39.4718 34.2525 39.7518C34.1325 40.0318 34.0725 40.3818 34.0725 40.8018V40.9368C34.0725 41.6468 34.2275 42.1568 34.5375 42.4668C34.8575 42.7668 35.3475 42.9168 36.0075 42.9168C36.2275 42.9168 36.4775 42.8918 36.7575 42.8418C37.0475 42.7818 37.3225 42.7018 37.5825 42.6018C37.8425 42.5018 38.0675 42.4868 38.2575 42.5568C38.4475 42.6168 38.5925 42.7268 38.6925 42.8868C38.8025 43.0368 38.8625 43.2118 38.8725 43.4118C38.8825 43.6018 38.8375 43.7918 38.7375 43.9818C38.6375 44.1618 38.4725 44.3018 38.2425 44.4018C37.8925 44.5618 37.5175 44.6818 37.1175 44.7618C36.7275 44.8418 36.3325 44.8818 35.9325 44.8818ZM43.0378 44.8818C42.0778 44.8818 41.3678 44.6268 40.9078 44.1168C40.4578 43.5968 40.2328 42.8168 40.2328 41.7768V35.3568C40.2328 34.9168 40.3478 34.5818 40.5778 34.3518C40.8078 34.1218 41.1328 34.0068 41.5528 34.0068C41.9828 34.0068 42.3128 34.1218 42.5428 34.3518C42.7828 34.5818 42.9028 34.9168 42.9028 35.3568V41.6868C42.9028 42.0568 42.9728 42.3268 43.1128 42.4968C43.2628 42.6668 43.4528 42.7518 43.6828 42.7518C43.7528 42.7518 43.8228 42.7468 43.8928 42.7368C43.9728 42.7168 44.0578 42.7018 44.1478 42.6918C44.3178 42.6918 44.4428 42.7568 44.5228 42.8868C44.6128 43.0168 44.6578 43.2818 44.6578 43.6818C44.6578 44.0318 44.5878 44.2968 44.4478 44.4768C44.3078 44.6468 44.0928 44.7568 43.8028 44.8068C43.7228 44.8168 43.6078 44.8318 43.4578 44.8518C43.3078 44.8718 43.1678 44.8818 43.0378 44.8818ZM48.2544 44.8818C47.6244 44.8818 47.0644 44.7268 46.5744 44.4168C46.0944 44.1068 45.7144 43.6618 45.4344 43.0818C45.1644 42.5018 45.0294 41.8168 45.0294 41.0268C45.0294 40.2168 45.1644 39.5268 45.4344 38.9568C45.7144 38.3868 46.0944 37.9468 46.5744 37.6368C47.0644 37.3268 47.6244 37.1718 48.2544 37.1718C48.8044 37.1718 49.2994 37.3018 49.7394 37.5618C50.1794 37.8218 50.4744 38.1568 50.6244 38.5668H50.4594V35.3568C50.4594 34.9168 50.5744 34.5818 50.8044 34.3518C51.0344 34.1218 51.3644 34.0068 51.7944 34.0068C52.2144 34.0068 52.5394 34.1218 52.7694 34.3518C53.0094 34.5818 53.1294 34.9168 53.1294 35.3568V43.5018C53.1294 43.9418 53.0144 44.2768 52.7844 44.5068C52.5644 44.7368 52.2394 44.8518 51.8094 44.8518C51.3894 44.8518 51.0644 44.7368 50.8344 44.5068C50.6044 44.2768 50.4894 43.9418 50.4894 43.5018V42.6468L50.6544 43.3818C50.5144 43.8318 50.2194 44.1968 49.7694 44.4768C49.3294 44.7468 48.8244 44.8818 48.2544 44.8818ZM49.1094 42.9168C49.3794 42.9168 49.6194 42.8518 49.8294 42.7218C50.0394 42.5818 50.1994 42.3768 50.3094 42.1068C50.4294 41.8268 50.4894 41.4668 50.4894 41.0268C50.4894 40.3568 50.3594 39.8768 50.0994 39.5868C49.8394 39.2868 49.5094 39.1368 49.1094 39.1368C48.8394 39.1368 48.5994 39.2018 48.3894 39.3318C48.1794 39.4618 48.0144 39.6668 47.8944 39.9468C47.7744 40.2168 47.7144 40.5768 47.7144 41.0268C47.7144 41.6868 47.8444 42.1668 48.1044 42.4668C48.3644 42.7668 48.6994 42.9168 49.1094 42.9168ZM60.3482 44.7168C59.9082 44.7168 59.5882 44.6168 59.3882 44.4168C59.1982 44.2068 59.1032 43.9018 59.1032 43.5018C59.1032 43.2218 59.1632 42.9718 59.2832 42.7518C59.4132 42.5318 59.5782 42.3168 59.7782 42.1068L62.4032 39.3618C62.7932 38.9418 63.0682 38.5818 63.2282 38.2818C63.3982 37.9818 63.4832 37.6818 63.4832 37.3818C63.4832 37.0018 63.3582 36.7168 63.1082 36.5268C62.8582 36.3368 62.4982 36.2418 62.0282 36.2418C61.7882 36.2418 61.5332 36.2768 61.2632 36.3468C60.9932 36.4068 60.7032 36.5168 60.3932 36.6768C60.1232 36.7968 59.8782 36.8318 59.6582 36.7818C59.4482 36.7318 59.2682 36.6218 59.1182 36.4518C58.9782 36.2818 58.8882 36.0868 58.8482 35.8668C58.8182 35.6468 58.8532 35.4318 58.9532 35.2218C59.0532 35.0018 59.2332 34.8218 59.4932 34.6818C59.9532 34.4318 60.4282 34.2518 60.9182 34.1418C61.4182 34.0318 61.9182 33.9768 62.4182 33.9768C63.2382 33.9768 63.9232 34.0968 64.4732 34.3368C65.0332 34.5768 65.4582 34.9268 65.7482 35.3868C66.0382 35.8368 66.1832 36.3968 66.1832 37.0668C66.1832 37.4868 66.1182 37.8968 65.9882 38.2968C65.8682 38.6968 65.6682 39.0968 65.3882 39.4968C65.1182 39.8968 64.7532 40.3218 64.2932 40.7718L61.8632 43.1718V42.4818H65.5682C65.9382 42.4818 66.2182 42.5768 66.4082 42.7668C66.6082 42.9568 66.7082 43.2318 66.7082 43.5918C66.7082 43.9518 66.6082 44.2318 66.4082 44.4318C66.2182 44.6218 65.9382 44.7168 65.5682 44.7168H60.3482Z"/>
</mask>
<path d="M26.0616 28.8818C25.6616 28.8818 25.2416 28.8518 24.8016 28.7918C24.3716 28.7418 23.9616 28.6618 23.5716 28.5518C23.1816 28.4418 22.8316 28.3118 22.5216 28.1618C22.2516 28.0318 22.0616 27.8618 21.9516 27.6518C21.8416 27.4318 21.8016 27.2018 21.8316 26.9618C21.8616 26.7218 21.9466 26.5118 22.0866 26.3318C22.2266 26.1418 22.4116 26.0168 22.6416 25.9568C22.8716 25.8868 23.1316 25.9168 23.4216 26.0468C23.8016 26.2268 24.2316 26.3668 24.7116 26.4668C25.1916 26.5668 25.6416 26.6168 26.0616 26.6168C26.7216 26.6168 27.1816 26.5318 27.4416 26.3618C27.7116 26.1818 27.8466 25.9618 27.8466 25.7018C27.8466 25.4718 27.7516 25.2868 27.5616 25.1468C27.3816 25.0068 27.0566 24.8868 26.5866 24.7868L24.8316 24.4118C23.8716 24.2118 23.1566 23.8618 22.6866 23.3618C22.2166 22.8618 21.9816 22.2168 21.9816 21.4268C21.9816 20.9068 22.0866 20.4368 22.2966 20.0168C22.5166 19.5868 22.8216 19.2218 23.2116 18.9218C23.6116 18.6218 24.0816 18.3918 24.6216 18.2318C25.1716 18.0618 25.7816 17.9768 26.4516 17.9768C26.9716 17.9768 27.4966 18.0368 28.0266 18.1568C28.5666 18.2668 29.0316 18.4368 29.4216 18.6668C29.6516 18.7868 29.8166 18.9518 29.9166 19.1618C30.0166 19.3718 30.0566 19.5918 30.0366 19.8218C30.0166 20.0418 29.9366 20.2368 29.7966 20.4068C29.6666 20.5768 29.4866 20.6918 29.2566 20.7518C29.0366 20.8018 28.7716 20.7618 28.4616 20.6318C28.1716 20.5018 27.8416 20.4068 27.4716 20.3468C27.1116 20.2768 26.7616 20.2418 26.4216 20.2418C26.0516 20.2418 25.7366 20.2868 25.4766 20.3768C25.2166 20.4568 25.0166 20.5768 24.8766 20.7368C24.7466 20.8968 24.6816 21.0818 24.6816 21.2918C24.6816 21.5018 24.7666 21.6818 24.9366 21.8318C25.1166 21.9718 25.4416 22.0918 25.9116 22.1918L27.6516 22.5668C28.6216 22.7768 29.3466 23.1218 29.8266 23.6018C30.3066 24.0818 30.5466 24.7068 30.5466 25.4768C30.5466 25.9968 30.4416 26.4668 30.2316 26.8868C30.0216 27.3068 29.7216 27.6668 29.3316 27.9668C28.9416 28.2568 28.4716 28.4818 27.9216 28.6418C27.3716 28.8018 26.7516 28.8818 26.0616 28.8818ZM35.4749 28.8818C34.7249 28.8818 34.1049 28.7668 33.6149 28.5368C33.1349 28.3068 32.7749 27.9618 32.5349 27.5018C32.2949 27.0318 32.1749 26.4468 32.1749 25.7468V23.3018H31.6649C31.3449 23.3018 31.0949 23.2168 30.9149 23.0468C30.7449 22.8768 30.6599 22.6318 30.6599 22.3118C30.6599 21.9918 30.7449 21.7518 30.9149 21.5918C31.0949 21.4218 31.3449 21.3368 31.6649 21.3368H32.1749V20.4068C32.1749 19.9668 32.2899 19.6318 32.5199 19.4018C32.7499 19.1718 33.0799 19.0568 33.5099 19.0568C33.9399 19.0568 34.2699 19.1718 34.4999 19.4018C34.7299 19.6318 34.8449 19.9668 34.8449 20.4068V21.3368H36.0749C36.4049 21.3368 36.6549 21.4218 36.8249 21.5918C37.0049 21.7518 37.0949 21.9918 37.0949 22.3118C37.0949 22.6318 37.0049 22.8768 36.8249 23.0468C36.6549 23.2168 36.4049 23.3018 36.0749 23.3018H34.8449V25.6568C34.8449 26.0268 34.9299 26.3018 35.0999 26.4818C35.2799 26.6518 35.5599 26.7368 35.9399 26.7368C36.0799 26.7368 36.2149 26.7218 36.3449 26.6918C36.4749 26.6618 36.5949 26.6468 36.7049 26.6468C36.8649 26.6368 36.9949 26.6868 37.0949 26.7968C37.1949 26.8968 37.2449 27.1318 37.2449 27.5018C37.2449 27.8018 37.1999 28.0568 37.1099 28.2668C37.0199 28.4668 36.8599 28.6118 36.6299 28.7018C36.4899 28.7518 36.2999 28.7918 36.0599 28.8218C35.8199 28.8618 35.6249 28.8818 35.4749 28.8818ZM40.7516 28.8818C40.1116 28.8818 39.5866 28.7668 39.1766 28.5368C38.7666 28.2968 38.4566 27.9418 38.2466 27.4718C38.0466 27.0018 37.9466 26.4068 37.9466 25.6868V22.5368C37.9466 22.0968 38.0616 21.7668 38.2916 21.5468C38.5216 21.3168 38.8516 21.2018 39.2816 21.2018C39.7116 21.2018 40.0416 21.3168 40.2716 21.5468C40.5016 21.7668 40.6166 22.0968 40.6166 22.5368V25.7618C40.6166 26.1218 40.6916 26.3918 40.8416 26.5718C40.9916 26.7518 41.2266 26.8418 41.5466 26.8418C41.9066 26.8418 42.2016 26.7118 42.4316 26.4518C42.6616 26.1918 42.7766 25.8468 42.7766 25.4168V22.5368C42.7766 22.0968 42.8916 21.7668 43.1216 21.5468C43.3516 21.3168 43.6816 21.2018 44.1116 21.2018C44.5416 21.2018 44.8716 21.3168 45.1016 21.5468C45.3316 21.7668 45.4466 22.0968 45.4466 22.5368V27.5018C45.4466 28.4018 45.0166 28.8518 44.1566 28.8518C43.7366 28.8518 43.4116 28.7368 43.1816 28.5068C42.9516 28.2768 42.8366 27.9418 42.8366 27.5018V26.6318L43.0766 27.3668C42.8566 27.8568 42.5466 28.2318 42.1466 28.4918C41.7566 28.7518 41.2916 28.8818 40.7516 28.8818ZM49.8804 28.8818C49.2504 28.8818 48.6904 28.7268 48.2004 28.4168C47.7204 28.1068 47.3404 27.6618 47.0604 27.0818C46.7904 26.5018 46.6554 25.8168 46.6554 25.0268C46.6554 24.2168 46.7904 23.5268 47.0604 22.9568C47.3404 22.3868 47.7204 21.9468 48.2004 21.6368C48.6904 21.3268 49.2504 21.1718 49.8804 21.1718C50.4304 21.1718 50.9254 21.3018 51.3654 21.5618C51.8054 21.8218 52.1004 22.1568 52.2504 22.5668H52.0854V19.3568C52.0854 18.9168 52.2004 18.5818 52.4304 18.3518C52.6604 18.1218 52.9904 18.0068 53.4204 18.0068C53.8404 18.0068 54.1654 18.1218 54.3954 18.3518C54.6354 18.5818 54.7554 18.9168 54.7554 19.3568V27.5018C54.7554 27.9418 54.6404 28.2768 54.4104 28.5068C54.1904 28.7368 53.8654 28.8518 53.4354 28.8518C53.0154 28.8518 52.6904 28.7368 52.4604 28.5068C52.2304 28.2768 52.1154 27.9418 52.1154 27.5018V26.6468L52.2804 27.3818C52.1404 27.8318 51.8454 28.1968 51.3954 28.4768C50.9554 28.7468 50.4504 28.8818 49.8804 28.8818ZM50.7354 26.9168C51.0054 26.9168 51.2454 26.8518 51.4554 26.7218C51.6654 26.5818 51.8254 26.3768 51.9354 26.1068C52.0554 25.8268 52.1154 25.4668 52.1154 25.0268C52.1154 24.3568 51.9854 23.8768 51.7254 23.5868C51.4654 23.2868 51.1354 23.1368 50.7354 23.1368C50.4654 23.1368 50.2254 23.2018 50.0154 23.3318C49.8054 23.4618 49.6404 23.6668 49.5204 23.9468C49.4004 24.2168 49.3404 24.5768 49.3404 25.0268C49.3404 25.6868 49.4704 26.1668 49.7304 26.4668C49.9904 26.7668 50.3254 26.9168 50.7354 26.9168ZM58.4472 31.5518C58.1372 31.5518 57.8872 31.4718 57.6972 31.3118C57.5072 31.1518 57.3872 30.9418 57.3372 30.6818C57.2972 30.4218 57.3422 30.1468 57.4722 29.8568L58.4772 27.6818V28.7618L55.9122 22.8968C55.7822 22.5968 55.7372 22.3168 55.7772 22.0568C55.8272 21.7968 55.9622 21.5918 56.1822 21.4418C56.4022 21.2818 56.7022 21.2018 57.0822 21.2018C57.4022 21.2018 57.6572 21.2768 57.8472 21.4268C58.0472 21.5668 58.2272 21.8468 58.3872 22.2668L59.8872 26.1668H59.3772L60.9672 22.2518C61.1272 21.8418 61.3072 21.5668 61.5072 21.4268C61.7172 21.2768 61.9972 21.2018 62.3472 21.2018C62.6472 21.2018 62.8872 21.2818 63.0672 21.4418C63.2472 21.5918 63.3572 21.7968 63.3972 22.0568C63.4372 22.3168 63.3922 22.5968 63.2622 22.8968L59.8572 30.5468C59.6772 30.9468 59.4772 31.2118 59.2572 31.3418C59.0472 31.4818 58.7772 31.5518 58.4472 31.5518ZM19.9817 44.8518C19.5417 44.8518 19.1967 44.7318 18.9467 44.4918C18.7067 44.2418 18.5867 43.8868 18.5867 43.4268V35.5668C18.5867 35.1068 18.7067 34.7568 18.9467 34.5168C19.1967 34.2668 19.5567 34.1418 20.0267 34.1418H25.0217C25.3817 34.1418 25.6517 34.2318 25.8317 34.4118C26.0117 34.5918 26.1017 34.8518 26.1017 35.1918C26.1017 35.5418 26.0117 35.8118 25.8317 36.0018C25.6517 36.1818 25.3817 36.2718 25.0217 36.2718H21.3467V38.4018H24.6917C25.0417 38.4018 25.3067 38.4918 25.4867 38.6718C25.6767 38.8518 25.7717 39.1118 25.7717 39.4518C25.7717 39.8018 25.6767 40.0668 25.4867 40.2468C25.3067 40.4268 25.0417 40.5168 24.6917 40.5168H21.3467V43.4268C21.3467 44.3768 20.8917 44.8518 19.9817 44.8518ZM29.0138 44.8518C28.5938 44.8518 28.2688 44.7268 28.0388 44.4768C27.8088 44.2268 27.6938 43.8668 27.6938 43.3968V38.6568C27.6938 38.1868 27.8088 37.8268 28.0388 37.5768C28.2688 37.3268 28.5938 37.2018 29.0138 37.2018C29.4438 37.2018 29.7738 37.3268 30.0038 37.5768C30.2438 37.8268 30.3638 38.1868 30.3638 38.6568V43.3968C30.3638 43.8668 30.2488 44.2268 30.0188 44.4768C29.7888 44.7268 29.4538 44.8518 29.0138 44.8518ZM29.0138 36.1368C28.5438 36.1368 28.1788 36.0268 27.9188 35.8068C27.6688 35.5868 27.5438 35.2668 27.5438 34.8468C27.5438 34.4368 27.6688 34.1218 27.9188 33.9018C28.1788 33.6818 28.5438 33.5718 29.0138 33.5718C29.5038 33.5718 29.8738 33.6818 30.1238 33.9018C30.3738 34.1218 30.4988 34.4368 30.4988 34.8468C30.4988 35.2668 30.3738 35.5868 30.1238 35.8068C29.8738 36.0268 29.5038 36.1368 29.0138 36.1368ZM35.9325 44.8818C35.0325 44.8818 34.2525 44.7268 33.5925 44.4168C32.9425 44.0968 32.4425 43.6468 32.0925 43.0668C31.7425 42.4868 31.5675 41.8018 31.5675 41.0118C31.5675 40.2518 31.7325 39.5868 32.0625 39.0168C32.4025 38.4368 32.8625 37.9868 33.4425 37.6668C34.0325 37.3368 34.7025 37.1718 35.4525 37.1718C36.0025 37.1718 36.5025 37.2618 36.9525 37.4418C37.4025 37.6118 37.7875 37.8668 38.1075 38.2068C38.4275 38.5368 38.6675 38.9368 38.8275 39.4068C38.9975 39.8768 39.0825 40.4018 39.0825 40.9818C39.0825 41.1818 39.0275 41.3318 38.9175 41.4318C38.8075 41.5218 38.6325 41.5668 38.3925 41.5668H33.8025V40.3068H37.1325L36.8925 40.5018C36.8925 40.1318 36.8425 39.8318 36.7425 39.6018C36.6425 39.3718 36.4925 39.1968 36.2925 39.0768C36.1025 38.9568 35.8625 38.8968 35.5725 38.8968C35.2625 38.8968 34.9925 38.9718 34.7625 39.1218C34.5425 39.2618 34.3725 39.4718 34.2525 39.7518C34.1325 40.0318 34.0725 40.3818 34.0725 40.8018V40.9368C34.0725 41.6468 34.2275 42.1568 34.5375 42.4668C34.8575 42.7668 35.3475 42.9168 36.0075 42.9168C36.2275 42.9168 36.4775 42.8918 36.7575 42.8418C37.0475 42.7818 37.3225 42.7018 37.5825 42.6018C37.8425 42.5018 38.0675 42.4868 38.2575 42.5568C38.4475 42.6168 38.5925 42.7268 38.6925 42.8868C38.8025 43.0368 38.8625 43.2118 38.8725 43.4118C38.8825 43.6018 38.8375 43.7918 38.7375 43.9818C38.6375 44.1618 38.4725 44.3018 38.2425 44.4018C37.8925 44.5618 37.5175 44.6818 37.1175 44.7618C36.7275 44.8418 36.3325 44.8818 35.9325 44.8818ZM43.0378 44.8818C42.0778 44.8818 41.3678 44.6268 40.9078 44.1168C40.4578 43.5968 40.2328 42.8168 40.2328 41.7768V35.3568C40.2328 34.9168 40.3478 34.5818 40.5778 34.3518C40.8078 34.1218 41.1328 34.0068 41.5528 34.0068C41.9828 34.0068 42.3128 34.1218 42.5428 34.3518C42.7828 34.5818 42.9028 34.9168 42.9028 35.3568V41.6868C42.9028 42.0568 42.9728 42.3268 43.1128 42.4968C43.2628 42.6668 43.4528 42.7518 43.6828 42.7518C43.7528 42.7518 43.8228 42.7468 43.8928 42.7368C43.9728 42.7168 44.0578 42.7018 44.1478 42.6918C44.3178 42.6918 44.4428 42.7568 44.5228 42.8868C44.6128 43.0168 44.6578 43.2818 44.6578 43.6818C44.6578 44.0318 44.5878 44.2968 44.4478 44.4768C44.3078 44.6468 44.0928 44.7568 43.8028 44.8068C43.7228 44.8168 43.6078 44.8318 43.4578 44.8518C43.3078 44.8718 43.1678 44.8818 43.0378 44.8818ZM48.2544 44.8818C47.6244 44.8818 47.0644 44.7268 46.5744 44.4168C46.0944 44.1068 45.7144 43.6618 45.4344 43.0818C45.1644 42.5018 45.0294 41.8168 45.0294 41.0268C45.0294 40.2168 45.1644 39.5268 45.4344 38.9568C45.7144 38.3868 46.0944 37.9468 46.5744 37.6368C47.0644 37.3268 47.6244 37.1718 48.2544 37.1718C48.8044 37.1718 49.2994 37.3018 49.7394 37.5618C50.1794 37.8218 50.4744 38.1568 50.6244 38.5668H50.4594V35.3568C50.4594 34.9168 50.5744 34.5818 50.8044 34.3518C51.0344 34.1218 51.3644 34.0068 51.7944 34.0068C52.2144 34.0068 52.5394 34.1218 52.7694 34.3518C53.0094 34.5818 53.1294 34.9168 53.1294 35.3568V43.5018C53.1294 43.9418 53.0144 44.2768 52.7844 44.5068C52.5644 44.7368 52.2394 44.8518 51.8094 44.8518C51.3894 44.8518 51.0644 44.7368 50.8344 44.5068C50.6044 44.2768 50.4894 43.9418 50.4894 43.5018V42.6468L50.6544 43.3818C50.5144 43.8318 50.2194 44.1968 49.7694 44.4768C49.3294 44.7468 48.8244 44.8818 48.2544 44.8818ZM49.1094 42.9168C49.3794 42.9168 49.6194 42.8518 49.8294 42.7218C50.0394 42.5818 50.1994 42.3768 50.3094 42.1068C50.4294 41.8268 50.4894 41.4668 50.4894 41.0268C50.4894 40.3568 50.3594 39.8768 50.0994 39.5868C49.8394 39.2868 49.5094 39.1368 49.1094 39.1368C48.8394 39.1368 48.5994 39.2018 48.3894 39.3318C48.1794 39.4618 48.0144 39.6668 47.8944 39.9468C47.7744 40.2168 47.7144 40.5768 47.7144 41.0268C47.7144 41.6868 47.8444 42.1668 48.1044 42.4668C48.3644 42.7668 48.6994 42.9168 49.1094 42.9168ZM60.3482 44.7168C59.9082 44.7168 59.5882 44.6168 59.3882 44.4168C59.1982 44.2068 59.1032 43.9018 59.1032 43.5018C59.1032 43.2218 59.1632 42.9718 59.2832 42.7518C59.4132 42.5318 59.5782 42.3168 59.7782 42.1068L62.4032 39.3618C62.7932 38.9418 63.0682 38.5818 63.2282 38.2818C63.3982 37.9818 63.4832 37.6818 63.4832 37.3818C63.4832 37.0018 63.3582 36.7168 63.1082 36.5268C62.8582 36.3368 62.4982 36.2418 62.0282 36.2418C61.7882 36.2418 61.5332 36.2768 61.2632 36.3468C60.9932 36.4068 60.7032 36.5168 60.3932 36.6768C60.1232 36.7968 59.8782 36.8318 59.6582 36.7818C59.4482 36.7318 59.2682 36.6218 59.1182 36.4518C58.9782 36.2818 58.8882 36.0868 58.8482 35.8668C58.8182 35.6468 58.8532 35.4318 58.9532 35.2218C59.0532 35.0018 59.2332 34.8218 59.4932 34.6818C59.9532 34.4318 60.4282 34.2518 60.9182 34.1418C61.4182 34.0318 61.9182 33.9768 62.4182 33.9768C63.2382 33.9768 63.9232 34.0968 64.4732 34.3368C65.0332 34.5768 65.4582 34.9268 65.7482 35.3868C66.0382 35.8368 66.1832 36.3968 66.1832 37.0668C66.1832 37.4868 66.1182 37.8968 65.9882 38.2968C65.8682 38.6968 65.6682 39.0968 65.3882 39.4968C65.1182 39.8968 64.7532 40.3218 64.2932 40.7718L61.8632 43.1718V42.4818H65.5682C65.9382 42.4818 66.2182 42.5768 66.4082 42.7668C66.6082 42.9568 66.7082 43.2318 66.7082 43.5918C66.7082 43.9518 66.6082 44.2318 66.4082 44.4318C66.2182 44.6218 65.9382 44.7168 65.5682 44.7168H60.3482Z" fill="white"/>
<path d="M24.8016 28.7918L24.8692 28.2963L24.8593 28.2951L24.8016 28.7918ZM22.5216 28.1618L22.7394 27.7117L22.7385 27.7113L22.5216 28.1618ZM21.9516 27.6518L21.5043 27.8754L21.5087 27.8838L21.9516 27.6518ZM21.8316 26.9618L22.3277 27.0238L21.8316 26.9618ZM22.0866 26.3318L22.4814 26.6389L22.4891 26.6284L22.0866 26.3318ZM22.6416 25.9568L22.7678 26.4406L22.7775 26.4381L22.7872 26.4351L22.6416 25.9568ZM23.4216 26.0468L23.6357 25.5948L23.6261 25.5905L23.4216 26.0468ZM24.7116 26.4668L24.8136 25.9773L24.7116 26.4668ZM27.4416 26.3618L27.7152 26.7803L27.7189 26.7778L27.4416 26.3618ZM27.5616 25.1468L27.2545 25.5416L27.265 25.5493L27.5616 25.1468ZM26.5866 24.7868L26.4821 25.2758L26.4825 25.2758L26.5866 24.7868ZM24.8316 24.4118L24.9361 23.9228L24.9336 23.9223L24.8316 24.4118ZM22.6866 23.3618L23.0509 23.0193L22.6866 23.3618ZM22.2966 20.0168L21.8514 19.789L21.8494 19.7932L22.2966 20.0168ZM23.2116 18.9218L22.9116 18.5218L22.9067 18.5255L23.2116 18.9218ZM24.6216 18.2318L24.7636 18.7112L24.7692 18.7095L24.6216 18.2318ZM28.0266 18.1568L27.9161 18.6446L27.9268 18.6467L28.0266 18.1568ZM29.4216 18.6668L29.1676 19.0975L29.1788 19.1041L29.1903 19.1101L29.4216 18.6668ZM29.9166 19.1618L29.4652 19.3768L29.4652 19.3768L29.9166 19.1618ZM30.0366 19.8218L30.5345 19.8671L30.5347 19.8651L30.0366 19.8218ZM29.7966 20.4068L29.4106 20.0889L29.4049 20.0959L29.3994 20.1031L29.7966 20.4068ZM29.2566 20.7518L29.3674 21.2394L29.3751 21.2376L29.3828 21.2356L29.2566 20.7518ZM28.4616 20.6318L28.257 21.0882L28.2682 21.0929L28.4616 20.6318ZM27.4716 20.3468L27.3762 20.8376L27.3838 20.8391L27.3916 20.8403L27.4716 20.3468ZM25.4766 20.3768L25.6236 20.8547L25.6319 20.8521L25.6401 20.8493L25.4766 20.3768ZM24.8766 20.7368L24.5003 20.4075L24.4943 20.4144L24.4885 20.4215L24.8766 20.7368ZM24.9366 21.8318L24.6058 22.2067L24.6174 22.217L24.6296 22.2265L24.9366 21.8318ZM25.9116 22.1918L26.0169 21.703L26.0156 21.7027L25.9116 22.1918ZM27.6516 22.5668L27.7574 22.0781L27.7569 22.078L27.6516 22.5668ZM30.2316 26.8868L30.6788 27.1104V27.1104L30.2316 26.8868ZM29.3316 27.9668L29.63 28.3681L29.6364 28.3631L29.3316 27.9668ZM27.9216 28.6418L28.0612 29.1219L27.9216 28.6418ZM26.0616 28.3818C25.6865 28.3818 25.2892 28.3537 24.8691 28.2964L24.734 29.2872C25.194 29.3499 25.6367 29.3818 26.0616 29.3818V28.3818ZM24.8593 28.2951C24.4539 28.248 24.0701 28.1729 23.7073 28.0706L23.4359 29.033C23.8531 29.1507 24.2893 29.2356 24.7438 29.2885L24.8593 28.2951ZM23.7073 28.0706C23.3407 27.9672 23.0188 27.847 22.7394 27.7117L22.3038 28.6119C22.6443 28.7766 23.0224 28.9164 23.4359 29.033L23.7073 28.0706ZM22.7385 27.7113C22.5395 27.6155 22.4428 27.5119 22.3945 27.4198L21.5087 27.8838C21.6804 28.2116 21.9637 28.4481 22.3047 28.6123L22.7385 27.7113ZM22.3988 27.4282C22.3321 27.2949 22.3102 27.1641 22.3277 27.0238L21.3354 26.8998C21.293 27.2395 21.351 27.5687 21.5044 27.8754L22.3988 27.4282ZM22.3277 27.0238C22.3473 26.8675 22.3999 26.7434 22.4813 26.6388L21.6919 26.0248C21.4933 26.2802 21.3759 26.5761 21.3354 26.8998L22.3277 27.0238ZM22.4891 26.6284C22.5606 26.5313 22.6478 26.4719 22.7678 26.4406L22.5154 25.473C22.1754 25.5617 21.8925 25.7523 21.6841 26.0352L22.4891 26.6284ZM22.7872 26.4351C22.8687 26.4103 23.0012 26.4063 23.2171 26.5031L23.6261 25.5905C23.2619 25.4273 22.8744 25.3633 22.496 25.4785L22.7872 26.4351ZM23.2075 26.4987C23.6286 26.6981 24.0971 26.8495 24.6096 26.9563L24.8136 25.9773C24.366 25.8841 23.9746 25.7555 23.6356 25.5949L23.2075 26.4987ZM24.6096 26.9563C25.1177 27.0621 25.6022 27.1168 26.0616 27.1168V26.1168C25.681 26.1168 25.2654 26.0714 24.8136 25.9773L24.6096 26.9563ZM26.0616 27.1168C26.7313 27.1168 27.3229 27.0368 27.7152 26.7803L27.168 25.9433C27.0402 26.0268 26.7119 26.1168 26.0616 26.1168V27.1168ZM27.7189 26.7778C28.0889 26.5312 28.3466 26.1711 28.3466 25.7018H27.3466C27.3466 25.7525 27.3343 25.8324 27.1642 25.9458L27.7189 26.7778ZM28.3466 25.7018C28.3466 25.3081 28.1721 24.9756 27.8582 24.7443L27.265 25.5493C27.331 25.598 27.3466 25.6355 27.3466 25.7018H28.3466ZM27.8686 24.7521C27.5927 24.5376 27.1703 24.3998 26.6906 24.2977L26.4825 25.2758C26.9429 25.3738 27.1705 25.476 27.2546 25.5415L27.8686 24.7521ZM26.6911 24.2978L24.9361 23.9228L24.7271 24.9008L26.4821 25.2758L26.6911 24.2978ZM24.9336 23.9223C24.0326 23.7346 23.4263 23.4187 23.0509 23.0193L22.3223 23.7043C22.8868 24.3048 23.7106 24.689 24.7296 24.9013L24.9336 23.9223ZM23.0509 23.0193C22.6813 22.6261 22.4816 22.1102 22.4816 21.4268H21.4816C21.4816 22.3234 21.7519 23.0975 22.3223 23.7043L23.0509 23.0193ZM22.4816 21.4268C22.4816 20.976 22.5721 20.5838 22.7438 20.2404L21.8494 19.7932C21.6011 20.2898 21.4816 20.8376 21.4816 21.4268H22.4816ZM22.7417 20.2445C22.9274 19.8817 23.184 19.5739 23.5164 19.3181L22.9067 18.5255C22.4592 18.8697 22.1058 19.2919 21.8515 19.7891L22.7417 20.2445ZM23.5116 19.3218C23.8585 19.0616 24.2734 18.8564 24.7636 18.7112L24.4795 17.7524C23.8897 17.9272 23.3647 18.1819 22.9116 18.5218L23.5116 19.3218ZM24.7692 18.7095C25.2643 18.5565 25.8236 18.4768 26.4516 18.4768V17.4768C25.7395 17.4768 25.0788 17.5671 24.4739 17.7541L24.7692 18.7095ZM26.4516 18.4768C26.9328 18.4768 27.4208 18.5323 27.9162 18.6445L28.137 17.6691C27.5724 17.5413 27.0104 17.4768 26.4516 17.4768V18.4768ZM27.9268 18.6467C28.4239 18.748 28.8344 18.901 29.1676 19.0975L29.6756 18.2361C29.2287 17.9726 28.7093 17.7856 28.1264 17.6669L27.9268 18.6467ZM29.1903 19.1101C29.3358 19.186 29.4172 19.276 29.4652 19.3768L30.368 18.9468C30.216 18.6276 29.9674 18.3876 29.6529 18.2235L29.1903 19.1101ZM29.4652 19.3768C29.5272 19.507 29.5507 19.6379 29.5385 19.7785L30.5347 19.8651C30.5625 19.5457 30.506 19.2366 30.368 18.9468L29.4652 19.3768ZM29.5386 19.7765C29.5277 19.8968 29.4865 19.9967 29.4106 20.0889L30.1826 20.7246C30.3866 20.4768 30.5055 20.1868 30.5345 19.8671L29.5386 19.7765ZM29.3994 20.1031C29.3447 20.1747 29.2651 20.2328 29.1304 20.268L29.3828 21.2356C29.708 21.1508 29.9885 20.9789 30.1938 20.7105L29.3994 20.1031ZM29.1458 20.2642C29.0662 20.2823 28.9134 20.2791 28.6549 20.1707L28.2682 21.0929C28.6297 21.2445 29.007 21.3213 29.3674 21.2394L29.1458 20.2642ZM28.6661 20.1755C28.3301 20.0249 27.9571 19.919 27.5516 19.8532L27.3916 20.8403C27.7261 20.8946 28.0131 20.9787 28.2571 21.0881L28.6661 20.1755ZM27.567 19.856C27.178 19.7803 26.796 19.7418 26.4216 19.7418V20.7418C26.7272 20.7418 27.0452 20.7732 27.3762 20.8376L27.567 19.856ZM26.4216 19.7418C26.0139 19.7418 25.6403 19.791 25.313 19.9043L25.6401 20.8493C25.8329 20.7826 26.0893 20.7418 26.4216 20.7418V19.7418ZM25.3295 19.8989C25.0053 19.9987 24.7163 20.1606 24.5003 20.4075L25.2529 21.066C25.3168 20.993 25.4279 20.9149 25.6236 20.8547L25.3295 19.8989ZM24.4885 20.4215C24.2847 20.6724 24.1816 20.9693 24.1816 21.2918H25.1816C25.1816 21.1943 25.2085 21.1212 25.2646 21.0521L24.4885 20.4215ZM24.1816 21.2918C24.1816 21.6576 24.3379 21.9703 24.6058 22.2067L25.2674 21.4569C25.1953 21.3933 25.1816 21.3459 25.1816 21.2918H24.1816ZM24.6296 22.2265C24.9055 22.441 25.3279 22.5788 25.8075 22.6808L26.0156 21.7027C25.5553 21.6048 25.3277 21.5026 25.2436 21.4371L24.6296 22.2265ZM25.8062 22.6806L27.5462 23.0556L27.7569 22.078L26.0169 21.703L25.8062 22.6806ZM27.5458 23.0555C28.4629 23.254 29.0855 23.5678 29.473 23.9553L30.1801 23.2482C29.6077 22.6758 28.7803 22.2996 27.7574 22.0781L27.5458 23.0555ZM29.473 23.9553C29.8464 24.3287 30.0466 24.82 30.0466 25.4768H31.0466C31.0466 24.5936 30.7668 23.8349 30.1801 23.2482L29.473 23.9553ZM30.0466 25.4768C30.0466 25.9276 29.9561 26.3198 29.7844 26.6632L30.6788 27.1104C30.9271 26.6138 31.0466 26.066 31.0466 25.4768H30.0466ZM29.7844 26.6632C29.6098 27.0124 29.3598 27.3143 29.0267 27.5705L29.6364 28.3631C30.0834 28.0193 30.4334 27.6012 30.6788 27.1104L29.7844 26.6632ZM29.0332 27.5656C28.6987 27.8143 28.2847 28.0154 27.7819 28.1617L28.0612 29.1219C28.6584 28.9482 29.1845 28.6993 29.6299 28.368L29.0332 27.5656ZM27.7819 28.1617C27.2855 28.3061 26.7136 28.3818 26.0616 28.3818V29.3818C26.7895 29.3818 27.4577 29.2975 28.0612 29.1219L27.7819 28.1617ZM33.6149 28.5368L33.3988 28.9877L33.4025 28.9894L33.6149 28.5368ZM32.5349 27.5018L32.0896 27.7292L32.0916 27.7331L32.5349 27.5018ZM32.1749 23.3018H32.6749V22.8018H32.1749V23.3018ZM30.9149 23.0468L30.5614 23.4004L30.5664 23.4054L30.5716 23.4103L30.9149 23.0468ZM30.9149 21.5918L31.2576 21.9559L31.2582 21.9553L30.9149 21.5918ZM32.1749 21.3368V21.8368H32.6749V21.3368H32.1749ZM34.4999 19.4018L34.1464 19.7553V19.7553L34.4999 19.4018ZM34.8449 21.3368H34.3449V21.8368H34.8449V21.3368ZM36.8249 21.5918L36.4714 21.9453L36.4817 21.9557L36.4927 21.9655L36.8249 21.5918ZM36.8249 23.0468L36.4816 22.6833L36.4764 22.6882L36.4714 22.6932L36.8249 23.0468ZM34.8449 23.3018V22.8018H34.3449V23.3018H34.8449ZM35.0999 26.4818L34.7364 26.8251L34.7462 26.8355L34.7566 26.8453L35.0999 26.4818ZM36.3449 26.6918L36.4573 27.179L36.3449 26.6918ZM36.7049 26.6468V27.1468H36.7205L36.7361 27.1458L36.7049 26.6468ZM37.0949 26.7968L36.7249 27.1331L36.7329 27.1419L36.7414 27.1504L37.0949 26.7968ZM37.1099 28.2668L37.5659 28.472L37.5695 28.4638L37.1099 28.2668ZM36.6299 28.7018L36.7981 29.1727L36.8051 29.1701L36.8121 29.1674L36.6299 28.7018ZM36.0599 28.8218L35.9979 28.3257L35.9878 28.3269L35.9777 28.3286L36.0599 28.8218ZM35.4749 28.3818C34.7718 28.3818 34.2304 28.2734 33.8274 28.0842L33.4025 28.9894C33.9794 29.2602 34.6781 29.3818 35.4749 29.3818V28.3818ZM33.831 28.0859C33.4458 27.9013 33.1668 27.632 32.9782 27.2705L32.0916 27.7331C32.383 28.2916 32.8241 28.7123 33.3988 28.9877L33.831 28.0859ZM32.9802 27.2744C32.7859 26.894 32.6749 26.3925 32.6749 25.7468H31.6749C31.6749 26.5011 31.8039 27.1696 32.0896 27.7292L32.9802 27.2744ZM32.6749 25.7468V23.3018H31.6749V25.7468H32.6749ZM32.1749 22.8018H31.6649V23.8018H32.1749V22.8018ZM31.6649 22.8018C31.4339 22.8018 31.3207 22.7423 31.2582 22.6833L30.5716 23.4103C30.8691 23.6913 31.2559 23.8018 31.6649 23.8018V22.8018ZM31.2685 22.6932C31.2201 22.6448 31.1599 22.5446 31.1599 22.3118H30.1599C30.1599 22.719 30.2697 23.1087 30.5614 23.4004L31.2685 22.6932ZM31.1599 22.3118C31.1599 22.0769 31.2208 21.9905 31.2576 21.9559L30.5722 21.2277C30.269 21.5131 30.1599 21.9067 30.1599 22.3118H31.1599ZM31.2582 21.9553C31.3207 21.8963 31.4339 21.8368 31.6649 21.8368V20.8368C31.2559 20.8368 30.8691 20.9473 30.5716 21.2283L31.2582 21.9553ZM31.6649 21.8368H32.1749V20.8368H31.6649V21.8368ZM32.6749 21.3368V20.4068H31.6749V21.3368H32.6749ZM32.6749 20.4068C32.6749 20.0513 32.7665 19.8623 32.8735 19.7553L32.1664 19.0482C31.8133 19.4013 31.6749 19.8823 31.6749 20.4068H32.6749ZM32.8735 19.7553C32.9825 19.6463 33.1683 19.5568 33.5099 19.5568V18.5568C32.9915 18.5568 32.5174 18.6972 32.1664 19.0482L32.8735 19.7553ZM33.5099 19.5568C33.8515 19.5568 34.0374 19.6463 34.1464 19.7553L34.8535 19.0482C34.5025 18.6972 34.0283 18.5568 33.5099 18.5568V19.5568ZM34.1464 19.7553C34.2533 19.8623 34.3449 20.0513 34.3449 20.4068H35.3449C35.3449 19.8823 35.2065 19.4013 34.8535 19.0482L34.1464 19.7553ZM34.3449 20.4068V21.3368H35.3449V20.4068H34.3449ZM34.8449 21.8368H36.0749V20.8368H34.8449V21.8368ZM36.0749 21.8368C36.3228 21.8368 36.4256 21.8996 36.4714 21.9453L37.1785 21.2382C36.8842 20.944 36.487 20.8368 36.0749 20.8368V21.8368ZM36.4927 21.9655C36.5339 22.0021 36.5949 22.0851 36.5949 22.3118H37.5949C37.5949 21.8985 37.476 21.5015 37.1571 21.2181L36.4927 21.9655ZM36.5949 22.3118C36.5949 22.5366 36.5345 22.6334 36.4816 22.6833L37.1682 23.4103C37.4754 23.1202 37.5949 22.727 37.5949 22.3118H36.5949ZM36.4714 22.6932C36.4256 22.739 36.3228 22.8018 36.0749 22.8018V23.8018C36.487 23.8018 36.8842 23.6946 37.1785 23.4004L36.4714 22.6932ZM36.0749 22.8018H34.8449V23.8018H36.0749V22.8018ZM34.3449 23.3018V25.6568H35.3449V23.3018H34.3449ZM34.3449 25.6568C34.3449 26.0925 34.4439 26.5154 34.7364 26.8251L35.4634 26.1385C35.4159 26.0882 35.3449 25.9611 35.3449 25.6568H34.3449ZM34.7566 26.8453C35.0684 27.1398 35.4985 27.2368 35.9399 27.2368V26.2368C35.6213 26.2368 35.4914 26.1638 35.4432 26.1183L34.7566 26.8453ZM35.9399 27.2368C36.1159 27.2368 36.2887 27.2179 36.4573 27.179L36.2325 26.2046C36.1411 26.2257 36.0439 26.2368 35.9399 26.2368V27.2368ZM36.4573 27.179C36.558 27.1558 36.6397 27.1468 36.7049 27.1468V26.1468C36.5501 26.1468 36.3918 26.1678 36.2325 26.2046L36.4573 27.179ZM36.7361 27.1458C36.746 27.1452 36.7506 27.1458 36.751 27.1459C36.7511 27.1459 36.748 27.1454 36.7429 27.1435C36.7377 27.1415 36.7328 27.1388 36.7287 27.136C36.7248 27.1333 36.7237 27.1317 36.7249 27.1331L37.4649 26.4605C37.2539 26.2284 36.9716 26.1292 36.6737 26.1478L36.7361 27.1458ZM36.7414 27.1504C36.7126 27.1216 36.7033 27.0994 36.7042 27.1014C36.7049 27.103 36.7111 27.1179 36.7184 27.1521C36.7333 27.2223 36.7449 27.3352 36.7449 27.5018H37.7449C37.7449 27.2984 37.7315 27.1088 37.6965 26.944C37.6638 26.7907 37.5995 26.5943 37.4485 26.4432L36.7414 27.1504ZM36.7449 27.5018C36.7449 27.7543 36.7067 27.9383 36.6503 28.0698L37.5695 28.4638C37.6931 28.1753 37.7449 27.8493 37.7449 27.5018H36.7449ZM36.6539 28.0616C36.6246 28.1269 36.5726 28.1873 36.4477 28.2362L36.8121 29.1674C37.1472 29.0363 37.4153 28.8067 37.5659 28.472L36.6539 28.0616ZM36.4617 28.2309C36.3707 28.2635 36.2212 28.2977 35.9979 28.3257L36.1219 29.3179C36.3786 29.2858 36.6091 29.2401 36.7981 29.1727L36.4617 28.2309ZM35.9777 28.3286C35.7504 28.3665 35.5858 28.3818 35.4749 28.3818V29.3818C35.664 29.3818 35.8894 29.3571 36.1421 29.315L35.9777 28.3286ZM39.1766 28.5368L38.924 28.9684L38.932 28.9729L39.1766 28.5368ZM38.2466 27.4718L37.7865 27.6676L37.7901 27.6758L38.2466 27.4718ZM38.2916 21.5468L38.6373 21.9082L38.6452 21.9003L38.2916 21.5468ZM40.2716 21.5468L39.918 21.9004L39.926 21.9081L40.2716 21.5468ZM40.8416 26.5718L41.2257 26.2517V26.2517L40.8416 26.5718ZM42.4316 26.4518L42.0571 26.1205L42.4316 26.4518ZM43.1216 21.5468L43.4673 21.9082L43.4752 21.9003L43.1216 21.5468ZM45.1016 21.5468L44.748 21.9004L44.756 21.9081L45.1016 21.5468ZM43.1816 28.5068L43.5352 28.1532L43.1816 28.5068ZM42.8366 26.6318L43.3119 26.4766L42.3366 26.6318H42.8366ZM43.0766 27.3668L43.5328 27.5716L43.6119 27.3953L43.5519 27.2116L43.0766 27.3668ZM42.1466 28.4918L41.8741 28.0725L41.8693 28.0758L42.1466 28.4918ZM40.7516 28.3818C40.1677 28.3818 39.7344 28.2764 39.4212 28.1007L38.932 28.9729C39.4389 29.2572 40.0556 29.3818 40.7516 29.3818V28.3818ZM39.4292 28.1053C39.1169 27.9225 38.8743 27.651 38.7031 27.2678L37.7901 27.6758C38.0389 28.2326 38.4164 28.6711 38.924 28.9683L39.4292 28.1053ZM38.7067 27.276C38.5415 26.8878 38.4466 26.3651 38.4466 25.6868H37.4466C37.4466 26.4485 37.5518 27.1158 37.7865 27.6676L38.7067 27.276ZM38.4466 25.6868V22.5368H37.4466V25.6868H38.4466ZM38.4466 22.5368C38.4466 22.1797 38.5388 22.0022 38.6372 21.9081L37.946 21.1855C37.5844 21.5313 37.4466 22.0139 37.4466 22.5368H38.4466ZM38.6452 21.9003C38.7542 21.7913 38.94 21.7018 39.2816 21.7018V20.7018C38.7633 20.7018 38.2891 20.8422 37.9381 21.1932L38.6452 21.9003ZM39.2816 21.7018C39.6233 21.7018 39.8091 21.7913 39.9181 21.9003L40.6252 21.1932C40.2742 20.8422 39.8 20.7018 39.2816 20.7018V21.7018ZM39.926 21.9081C40.0244 22.0022 40.1166 22.1797 40.1166 22.5368H41.1166C41.1166 22.0139 40.9788 21.5313 40.6172 21.1855L39.926 21.9081ZM40.1166 22.5368V25.7618H41.1166V22.5368H40.1166ZM40.1166 25.7618C40.1166 26.1789 40.2016 26.5848 40.4575 26.8919L41.2257 26.2517C41.1816 26.1988 41.1166 26.0647 41.1166 25.7618H40.1166ZM40.4575 26.8919C40.7339 27.2236 41.1355 27.3418 41.5466 27.3418V26.3418C41.3177 26.3418 41.2493 26.28 41.2257 26.2517L40.4575 26.8919ZM41.5466 27.3418C42.0438 27.3418 42.4773 27.1548 42.8061 26.7831L42.0571 26.1205C41.926 26.2688 41.7694 26.3418 41.5466 26.3418V27.3418ZM42.8061 26.7831C43.135 26.4113 43.2766 25.9385 43.2766 25.4168H42.2766C42.2766 25.7551 42.1882 25.9723 42.0571 26.1205L42.8061 26.7831ZM43.2766 25.4168V22.5368H42.2766V25.4168H43.2766ZM43.2766 22.5368C43.2766 22.1797 43.3688 22.0022 43.4672 21.9081L42.776 21.1855C42.4144 21.5313 42.2766 22.0139 42.2766 22.5368H43.2766ZM43.4752 21.9003C43.5842 21.7913 43.77 21.7018 44.1116 21.7018V20.7018C43.5933 20.7018 43.1191 20.8422 42.7681 21.1932L43.4752 21.9003ZM44.1116 21.7018C44.4533 21.7018 44.6391 21.7913 44.7481 21.9003L45.4552 21.1932C45.1042 20.8422 44.63 20.7018 44.1116 20.7018V21.7018ZM44.756 21.9081C44.8544 22.0022 44.9466 22.1797 44.9466 22.5368H45.9466C45.9466 22.0139 45.8088 21.5313 45.4472 21.1855L44.756 21.9081ZM44.9466 22.5368V27.5018H45.9466V22.5368H44.9466ZM44.9466 27.5018C44.9466 27.8803 44.8558 28.0713 44.7626 28.1689C44.6735 28.2622 44.5036 28.3518 44.1566 28.3518V29.3518C44.6696 29.3518 45.1448 29.2164 45.4856 28.8597C45.8224 28.5073 45.9466 28.0233 45.9466 27.5018H44.9466ZM44.1566 28.3518C43.8289 28.3518 43.6463 28.2644 43.5352 28.1532L42.8281 28.8604C43.177 29.2092 43.6444 29.3518 44.1566 29.3518V28.3518ZM43.5352 28.1532C43.4282 28.0463 43.3366 27.8573 43.3366 27.5018H42.3366C42.3366 28.0263 42.475 28.5073 42.8281 28.8604L43.5352 28.1532ZM43.3366 27.5018V26.6318H42.3366V27.5018H43.3366ZM42.3613 26.787L42.6013 27.522L43.5519 27.2116L43.3119 26.4766L42.3613 26.787ZM42.6205 27.162C42.4347 27.5757 42.1837 27.8713 41.8741 28.0726L42.4191 28.911C42.9095 28.5923 43.2785 28.1379 43.5328 27.5716L42.6205 27.162ZM41.8693 28.0758C41.5734 28.273 41.2083 28.3818 40.7516 28.3818V29.3818C41.3749 29.3818 41.9399 29.2306 42.424 28.9078L41.8693 28.0758ZM48.2004 28.4168L47.9291 28.8368L47.9331 28.8393L48.2004 28.4168ZM47.0604 27.0818L46.6071 27.2928L46.6101 27.2992L47.0604 27.0818ZM47.0604 22.9568L46.6116 22.7363L46.6085 22.7428L47.0604 22.9568ZM48.2004 21.6368L47.9331 21.2142L47.9291 21.2168L48.2004 21.6368ZM52.2504 22.5668V23.0668H52.9658L52.72 22.395L52.2504 22.5668ZM52.0854 22.5668H51.5854V23.0668H52.0854V22.5668ZM52.4304 18.3518L52.784 18.7053V18.7053L52.4304 18.3518ZM54.3954 18.3518L54.0418 18.7054L54.0495 18.7128L54.3954 18.3518ZM54.4104 28.5068L54.0568 28.1532L54.0491 28.1612L54.4104 28.5068ZM52.4604 28.5068L52.814 28.1532L52.4604 28.5068ZM52.1154 26.6468L52.6033 26.5373L51.6154 26.6468H52.1154ZM52.2804 27.3818L52.7578 27.5303L52.7976 27.4027L52.7683 27.2723L52.2804 27.3818ZM51.3954 28.4768L51.6569 28.903L51.6596 28.9013L51.3954 28.4768ZM51.4554 26.7218L51.7186 27.1469L51.7258 27.1425L51.7328 27.1378L51.4554 26.7218ZM51.9354 26.1068L51.4758 25.9098L51.4724 25.9181L51.9354 26.1068ZM51.7254 23.5868L51.3475 23.9143L51.3531 23.9206L51.7254 23.5868ZM50.0154 23.3318L49.7522 22.9067L50.0154 23.3318ZM49.5204 23.9468L49.9774 24.1499L49.98 24.1438L49.5204 23.9468ZM49.7304 26.4668L49.3526 26.7943L49.7304 26.4668ZM49.8804 28.3818C49.3365 28.3818 48.8709 28.2493 48.4677 27.9943L47.9331 28.8393C48.51 29.2043 49.1643 29.3818 49.8804 29.3818V28.3818ZM48.4717 27.9968C48.0783 27.7427 47.756 27.3725 47.5107 26.8644L46.6101 27.2992C46.9249 27.9511 47.3625 28.4709 47.9291 28.8368L48.4717 27.9968ZM47.5137 26.8708C47.2808 26.3705 47.1554 25.7606 47.1554 25.0268H46.1554C46.1554 25.873 46.3 26.6331 46.6071 27.2928L47.5137 26.8708ZM47.1554 25.0268C47.1554 24.2705 47.2816 23.6577 47.5123 23.1708L46.6085 22.7428C46.2992 23.3959 46.1554 24.1631 46.1554 25.0268H47.1554ZM47.5092 23.1772C47.7538 22.6793 48.0761 22.3123 48.4717 22.0568L47.9291 21.2168C47.3647 21.5813 46.927 22.0943 46.6116 22.7363L47.5092 23.1772ZM48.4677 22.0593C48.8709 21.8043 49.3365 21.6718 49.8804 21.6718V20.6718C49.1643 20.6718 48.51 20.8493 47.9331 21.2143L48.4677 22.0593ZM49.8804 21.6718C50.348 21.6718 50.7539 21.7812 51.111 21.9923L51.6198 21.1313C51.0969 20.8223 50.5128 20.6718 49.8804 20.6718V21.6718ZM51.111 21.9923C51.4694 22.204 51.6771 22.455 51.7809 22.7386L52.72 22.395C52.5237 21.8586 52.1415 21.4396 51.6198 21.1313L51.111 21.9923ZM52.2504 22.0668H52.0854V23.0668H52.2504V22.0668ZM52.5854 22.5668V19.3568H51.5854V22.5668H52.5854ZM52.5854 19.3568C52.5854 19.0013 52.677 18.8123 52.784 18.7053L52.0769 17.9982C51.7238 18.3513 51.5854 18.8323 51.5854 19.3568H52.5854ZM52.784 18.7053C52.893 18.5963 53.0788 18.5068 53.4204 18.5068V17.5068C52.9021 17.5068 52.4279 17.6472 52.0769 17.9982L52.784 18.7053ZM53.4204 18.5068C53.7482 18.5068 53.9308 18.5942 54.0419 18.7053L54.749 17.9982C54.4001 17.6494 53.9327 17.5068 53.4204 17.5068V18.5068ZM54.0495 18.7128C54.1622 18.8208 54.2554 19.0071 54.2554 19.3568H55.2554C55.2554 18.8265 55.1087 18.3428 54.7414 17.9908L54.0495 18.7128ZM54.2554 19.3568V27.5018H55.2554V19.3568H54.2554ZM54.2554 27.5018C54.2554 27.8573 54.1638 28.0463 54.0569 28.1532L54.764 28.8604C55.117 28.5073 55.2554 28.0263 55.2554 27.5018H54.2554ZM54.0491 28.1612C53.9529 28.2617 53.7786 28.3518 53.4354 28.3518V29.3518C53.9523 29.3518 54.4279 29.2119 54.7717 28.8524L54.0491 28.1612ZM53.4354 28.3518C53.1077 28.3518 52.9251 28.2644 52.814 28.1532L52.1069 28.8604C52.4558 29.2092 52.9232 29.3518 53.4354 29.3518V28.3518ZM52.814 28.1532C52.707 28.0463 52.6154 27.8573 52.6154 27.5018H51.6154C51.6154 28.0263 51.7538 28.5073 52.1069 28.8604L52.814 28.1532ZM52.6154 27.5018V26.6468H51.6154V27.5018H52.6154ZM51.6276 26.7563L51.7926 27.4913L52.7683 27.2723L52.6033 26.5373L51.6276 26.7563ZM51.803 27.2333C51.7031 27.5543 51.4929 27.8272 51.1313 28.0523L51.6596 28.9013C52.1979 28.5664 52.5777 28.1093 52.7578 27.5303L51.803 27.2333ZM51.1339 28.0506C50.7806 28.2674 50.368 28.3818 49.8804 28.3818V29.3818C50.5328 29.3818 51.1302 29.2262 51.6569 28.903L51.1339 28.0506ZM50.7354 27.4168C51.0894 27.4168 51.4222 27.3304 51.7186 27.1469L51.1922 26.2967C51.0686 26.3732 50.9214 26.4168 50.7354 26.4168V27.4168ZM51.7328 27.1378C52.0384 26.9341 52.2567 26.6433 52.3985 26.2954L51.4724 25.9181C51.3941 26.1103 51.2924 26.2295 51.1781 26.3058L51.7328 27.1378ZM52.395 26.3038C52.5507 25.9403 52.6154 25.5068 52.6154 25.0268H51.6154C51.6154 25.4268 51.5601 25.7133 51.4758 25.9098L52.395 26.3038ZM52.6154 25.0268C52.6154 24.3151 52.4816 23.6812 52.0977 23.253L51.3531 23.9206C51.4892 24.0723 51.6154 24.3985 51.6154 25.0268H52.6154ZM52.1033 23.2593C51.7475 22.8488 51.2792 22.6368 50.7354 22.6368V23.6368C50.9917 23.6368 51.1834 23.7248 51.3476 23.9143L52.1033 23.2593ZM50.7354 22.6368C50.3814 22.6368 50.0486 22.7232 49.7522 22.9067L50.2786 23.7569C50.4022 23.6804 50.5494 23.6368 50.7354 23.6368V22.6368ZM49.7522 22.9067C49.4363 23.1022 49.2118 23.3977 49.0608 23.7498L49.98 24.1438C50.0691 23.9359 50.1745 23.8214 50.2786 23.7569L49.7522 22.9067ZM49.0635 23.7437C48.9042 24.1022 48.8404 24.5399 48.8404 25.0268H49.8404C49.8404 24.6137 49.8966 24.3314 49.9773 24.1499L49.0635 23.7437ZM48.8404 25.0268C48.8404 25.7332 48.9761 26.3598 49.3526 26.7943L50.1083 26.1393C49.9648 25.9738 49.8404 25.6404 49.8404 25.0268H48.8404ZM49.3526 26.7943C49.711 27.2079 50.1858 27.4168 50.7354 27.4168V26.4168C50.465 26.4168 50.2698 26.3257 50.1083 26.1393L49.3526 26.7943ZM57.6972 31.3118L58.0192 30.9293L57.6972 31.3118ZM57.3372 30.6818L56.843 30.7578L56.8444 30.7671L56.8462 30.7762L57.3372 30.6818ZM57.4722 29.8568L57.0183 29.6471L57.0159 29.6523L57.4722 29.8568ZM58.4772 27.6818H58.9772L58.0233 27.4721L58.4772 27.6818ZM58.4772 28.7618L58.0191 28.9621L58.9772 28.7618H58.4772ZM55.9122 22.8968L55.4534 23.0956L55.4541 23.0971L55.9122 22.8968ZM55.7772 22.0568L55.2862 21.9624L55.2844 21.9715L55.283 21.9808L55.7772 22.0568ZM56.1822 21.4418L56.4638 21.8549L56.4701 21.8506L56.4763 21.8462L56.1822 21.4418ZM57.8472 21.4268L57.5373 21.8192L57.5486 21.8282L57.5604 21.8364L57.8472 21.4268ZM58.3872 22.2668L57.9199 22.4448L57.9205 22.4463L58.3872 22.2668ZM59.8872 26.1668V26.6668H60.6152L60.3538 25.9873L59.8872 26.1668ZM59.3772 26.1668L58.9139 25.9787L58.6344 26.6668H59.3772V26.1668ZM60.9672 22.2518L61.4305 22.44L61.433 22.4336L60.9672 22.2518ZM61.5072 21.4268L61.7939 21.8364L61.7978 21.8337L61.5072 21.4268ZM63.0672 21.4418L62.735 21.8155L62.741 21.8208L62.7471 21.8259L63.0672 21.4418ZM63.3972 22.0568L63.8914 21.9808L63.3972 22.0568ZM63.2622 22.8968L63.719 23.1001L63.721 23.0956L63.2622 22.8968ZM59.8572 30.5468L60.3131 30.752L60.314 30.7501L59.8572 30.5468ZM59.2572 31.3418L59.0028 30.9113L58.9911 30.9182L58.9798 30.9258L59.2572 31.3418ZM58.4472 31.0518C58.2249 31.0518 58.0985 30.996 58.0192 30.9293L57.3751 31.6943C57.6759 31.9475 58.0494 32.0518 58.4472 32.0518V31.0518ZM58.0192 30.9293C57.9229 30.8482 57.8581 30.7428 57.8282 30.5874L56.8462 30.7762C56.9163 31.1408 57.0914 31.4554 57.3751 31.6943L58.0192 30.9293ZM57.8314 30.6058C57.8088 30.4592 57.8296 30.2819 57.9284 30.0613L57.0159 29.6523C56.8548 30.0117 56.7855 30.3844 56.843 30.7578L57.8314 30.6058ZM57.9261 30.0665L58.9311 27.8915L58.0233 27.4721L57.0183 29.6471L57.9261 30.0665ZM57.9772 27.6818V28.7618H58.9772V27.6818H57.9772ZM58.9353 28.5614L56.3703 22.6964L55.4541 23.0971L58.0191 28.9621L58.9353 28.5614ZM56.3709 22.698C56.2693 22.4635 56.2488 22.2795 56.2714 22.1328L55.283 21.9808C55.2255 22.3541 55.295 22.7301 55.4534 23.0956L56.3709 22.698ZM56.2682 22.1512C56.2931 22.0218 56.3523 21.931 56.4638 21.8549L55.9005 21.0287C55.5721 21.2526 55.3613 21.5718 55.2862 21.9624L56.2682 22.1512ZM56.4763 21.8462C56.5828 21.7687 56.767 21.7018 57.0822 21.7018V20.7018C56.6373 20.7018 56.2215 20.7949 55.8881 21.0374L56.4763 21.8462ZM57.0822 21.7018C57.326 21.7018 57.4604 21.7585 57.5373 21.8192L58.157 21.0344C57.854 20.7951 57.4783 20.7018 57.0822 20.7018V21.7018ZM57.5604 21.8364C57.6343 21.8881 57.7698 22.0506 57.9199 22.4448L58.8544 22.0888C58.6846 21.643 58.46 21.2454 58.1339 21.0172L57.5604 21.8364ZM57.9205 22.4463L59.4205 26.3463L60.3538 25.9873L58.8538 22.0873L57.9205 22.4463ZM59.8872 25.6668H59.3772V26.6668H59.8872V25.6668ZM59.8404 26.3549L61.4304 22.4399L60.5039 22.0637L58.9139 25.9787L59.8404 26.3549ZM61.433 22.4336C61.5821 22.0514 61.717 21.8902 61.7939 21.8364L61.2204 21.0172C60.8973 21.2434 60.6723 21.6321 60.5014 22.07L61.433 22.4336ZM61.7978 21.8337C61.8975 21.7624 62.0649 21.7018 62.3472 21.7018V20.7018C61.9294 20.7018 61.5368 20.7912 61.2166 21.0199L61.7978 21.8337ZM62.3472 21.7018C62.556 21.7018 62.6675 21.7555 62.735 21.8155L63.3994 21.0681C63.1069 20.8081 62.7384 20.7018 62.3472 20.7018V21.7018ZM62.7471 21.8259C62.8218 21.8882 62.8791 21.9775 62.903 22.1328L63.8914 21.9808C63.8353 21.6161 63.6725 21.2954 63.3873 21.0577L62.7471 21.8259ZM62.903 22.1328C62.9255 22.2795 62.905 22.4635 62.8034 22.698L63.721 23.0956C63.8793 22.7301 63.9488 22.3541 63.8914 21.9808L62.903 22.1328ZM62.8054 22.6935L59.4004 30.3435L60.314 30.7501L63.719 23.1001L62.8054 22.6935ZM59.4012 30.3416C59.2365 30.7077 59.0904 30.8596 59.0028 30.9113L59.5115 31.7723C59.864 31.564 60.1179 31.1859 60.3131 30.752L59.4012 30.3416ZM58.9798 30.9258C58.8738 30.9965 58.7084 31.0518 58.4472 31.0518V32.0518C58.8459 32.0518 59.2206 31.9671 59.5345 31.7578L58.9798 30.9258ZM18.9467 44.4918L18.586 44.8381L18.593 44.8454L18.6004 44.8525L18.9467 44.4918ZM18.9467 34.5168L19.3002 34.8703H19.3002L18.9467 34.5168ZM25.8317 34.4118L26.1852 34.0582H26.1852L25.8317 34.4118ZM25.8317 36.0018L26.1853 36.3555L26.1946 36.3457L25.8317 36.0018ZM21.3467 36.2718V35.7718H20.8467V36.2718H21.3467ZM21.3467 38.4018H20.8467V38.9018H21.3467V38.4018ZM25.4867 38.6718L25.133 39.0255L25.1428 39.0348L25.4867 38.6718ZM25.4867 40.2468L25.1427 39.8837L25.1331 39.8932L25.4867 40.2468ZM21.3467 40.5168V40.0168H20.8467V40.5168H21.3467ZM19.9817 44.3518C19.6344 44.3518 19.4265 44.2594 19.2929 44.1311L18.6004 44.8525C18.9668 45.2042 19.4489 45.3518 19.9817 45.3518V44.3518ZM19.3074 44.1455C19.1829 44.0159 19.0867 43.8012 19.0867 43.4268H18.0867C18.0867 43.9724 18.2304 44.4677 18.586 44.8381L19.3074 44.1455ZM19.0867 43.4268V35.5668H18.0867V43.4268H19.0867ZM19.0867 35.5668C19.0867 35.191 19.1834 34.9872 19.3002 34.8703L18.5931 34.1632C18.2299 34.5264 18.0867 35.0226 18.0867 35.5668H19.0867ZM19.3002 34.8703C19.4287 34.7418 19.6441 34.6418 20.0267 34.6418V33.6418C19.4692 33.6418 18.9646 33.7917 18.5931 34.1632L19.3002 34.8703ZM20.0267 34.6418H25.0217V33.6418H20.0267V34.6418ZM25.0217 34.6418C25.3046 34.6418 25.425 34.7122 25.4781 34.7654L26.1852 34.0582C25.8784 33.7514 25.4587 33.6418 25.0217 33.6418V34.6418ZM25.4781 34.7653C25.5362 34.8234 25.6017 34.9384 25.6017 35.1918H26.6017C26.6017 34.7651 26.4871 34.3602 26.1852 34.0582L25.4781 34.7653ZM25.6017 35.1918C25.6017 35.458 25.5344 35.5885 25.4687 35.6579L26.1946 36.3457C26.4889 36.035 26.6017 35.6256 26.6017 35.1918H25.6017ZM25.4781 35.6482C25.425 35.7014 25.3046 35.7718 25.0217 35.7718V36.7718C25.4587 36.7718 25.8784 36.6622 26.1852 36.3554L25.4781 35.6482ZM25.0217 35.7718H21.3467V36.7718H25.0217V35.7718ZM20.8467 36.2718V38.4018H21.8467V36.2718H20.8467ZM21.3467 38.9018H24.6917V37.9018H21.3467V38.9018ZM24.6917 38.9018C24.9599 38.9018 25.0775 38.9698 25.1331 39.0254L25.8402 38.3182C25.5358 38.0138 25.1235 37.9018 24.6917 37.9018V38.9018ZM25.1428 39.0348C25.2056 39.0943 25.2717 39.2059 25.2717 39.4518H26.2717C26.2717 39.0177 26.1477 38.6093 25.8305 38.3088L25.1428 39.0348ZM25.2717 39.4518C25.2717 39.7127 25.2028 39.8269 25.1428 39.8838L25.8305 40.6098C26.1505 40.3067 26.2717 39.8909 26.2717 39.4518H25.2717ZM25.1331 39.8932C25.0775 39.9488 24.9599 40.0168 24.6917 40.0168V41.0168C25.1235 41.0168 25.5358 40.9048 25.8402 40.6003L25.1331 39.8932ZM24.6917 40.0168H21.3467V41.0168H24.6917V40.0168ZM20.8467 40.5168V43.4268H21.8467V40.5168H20.8467ZM20.8467 43.4268C20.8467 43.83 20.7498 44.0396 20.6443 44.1497C20.5427 44.2557 20.354 44.3518 19.9817 44.3518V45.3518C20.5193 45.3518 21.0131 45.2104 21.3665 44.8414C21.716 44.4765 21.8467 43.9736 21.8467 43.4268H20.8467ZM28.0388 44.4768L28.4067 44.1383L28.0388 44.4768ZM28.0388 37.5768L28.4067 37.9153L28.0388 37.5768ZM30.0038 37.5768L29.6357 37.9154L29.6431 37.9231L30.0038 37.5768ZM30.0188 44.4768L30.3867 44.8153L30.0188 44.4768ZM27.9188 35.8068L27.5884 36.1822L27.5958 36.1885L27.9188 35.8068ZM27.9188 33.9018L27.5957 33.52L27.5885 33.5264L27.9188 33.9018ZM30.1238 33.9018L29.7935 34.2772L30.1238 33.9018ZM30.1238 35.8068L30.4541 36.1822L30.1238 35.8068ZM29.0138 44.3518C28.6981 44.3518 28.5204 44.2618 28.4067 44.1383L27.6708 44.8153C28.0171 45.1917 28.4894 45.3518 29.0138 45.3518V44.3518ZM28.4067 44.1383C28.2896 44.0109 28.1938 43.7898 28.1938 43.3968H27.1938C27.1938 43.9438 27.328 44.4427 27.6708 44.8153L28.4067 44.1383ZM28.1938 43.3968V38.6568H27.1938V43.3968H28.1938ZM28.1938 38.6568C28.1938 38.2638 28.2896 38.0427 28.4067 37.9153L27.6708 37.2383C27.328 37.6109 27.1938 38.1098 27.1938 38.6568H28.1938ZM28.4067 37.9153C28.5204 37.7917 28.6981 37.7018 29.0138 37.7018V36.7018C28.4894 36.7018 28.0171 36.8618 27.6708 37.2383L28.4067 37.9153ZM29.0138 37.7018C29.3436 37.7018 29.5243 37.7942 29.6358 37.9153L30.3717 37.2383C30.0232 36.8594 29.544 36.7018 29.0138 36.7018V37.7018ZM29.6431 37.9231C29.7658 38.0509 29.8638 38.269 29.8638 38.6568H30.8638C30.8638 38.1046 30.7218 37.6027 30.3645 37.2305L29.6431 37.9231ZM29.8638 38.6568V43.3968H30.8638V38.6568H29.8638ZM29.8638 43.3968C29.8638 43.7898 29.768 44.0109 29.6508 44.1383L30.3867 44.8153C30.7296 44.4427 30.8638 43.9438 30.8638 43.3968H29.8638ZM29.6508 44.1383C29.5415 44.2571 29.3576 44.3518 29.0138 44.3518V45.3518C29.5499 45.3518 30.0361 45.1965 30.3867 44.8153L29.6508 44.1383ZM29.0138 35.6368C28.6173 35.6368 28.3823 35.5441 28.2417 35.4251L27.5958 36.1885C27.9752 36.5095 28.4703 36.6368 29.0138 36.6368V35.6368ZM28.2491 35.4314C28.1339 35.3301 28.0438 35.1635 28.0438 34.8468H27.0438C27.0438 35.3701 27.2036 35.8435 27.5885 36.1822L28.2491 35.4314ZM28.0438 34.8468C28.0438 34.5445 28.1313 34.3808 28.2491 34.2772L27.5885 33.5264C27.2062 33.8628 27.0438 34.3291 27.0438 34.8468H28.0438ZM28.2417 34.2835C28.3823 34.1645 28.6173 34.0718 29.0138 34.0718V33.0718C28.4703 33.0718 27.9752 33.1991 27.5958 33.5201L28.2417 34.2835ZM29.0138 34.0718C29.4382 34.0718 29.6695 34.1681 29.7935 34.2772L30.4541 33.5264C30.0781 33.1955 29.5693 33.0718 29.0138 33.0718V34.0718ZM29.7935 34.2772C29.9112 34.3808 29.9988 34.5445 29.9988 34.8468H30.9988C30.9988 34.3291 30.8363 33.8628 30.4541 33.5264L29.7935 34.2772ZM29.9988 34.8468C29.9988 35.1635 29.9086 35.3301 29.7935 35.4314L30.4541 36.1822C30.8389 35.8435 30.9988 35.3701 30.9988 34.8468H29.9988ZM29.7935 35.4314C29.6695 35.5405 29.4382 35.6368 29.0138 35.6368V36.6368C29.5693 36.6368 30.0781 36.5131 30.4541 36.1822L29.7935 35.4314ZM33.5925 44.4168L33.3716 44.8655L33.38 44.8694L33.5925 44.4168ZM32.0925 43.0668L31.6644 43.3251L32.0925 43.0668ZM32.0625 39.0168L31.6312 38.7639L31.6298 38.7663L32.0625 39.0168ZM33.4425 37.6668L33.6841 38.1046L33.6866 38.1032L33.4425 37.6668ZM36.9525 37.4418L36.7668 37.9061L36.7758 37.9095L36.9525 37.4418ZM38.1075 38.2068L37.7434 38.5495L37.7486 38.5549L38.1075 38.2068ZM38.8275 39.4068L38.3541 39.568L38.3573 39.5769L38.8275 39.4068ZM38.9175 41.4318L39.2341 41.8188L39.2442 41.8105L39.2539 41.8018L38.9175 41.4318ZM33.8025 41.5668H33.3025V42.0668H33.8025V41.5668ZM33.8025 40.3068V39.8068H33.3025V40.3068H33.8025ZM37.1325 40.3068L37.4478 40.6949L38.5408 39.8068H37.1325V40.3068ZM36.8925 40.5018H36.3925V41.5523L37.2078 40.8899L36.8925 40.5018ZM36.2925 39.0768L36.0255 39.4997L36.0353 39.5055L36.2925 39.0768ZM34.7625 39.1218L35.031 39.5437L35.0357 39.5406L34.7625 39.1218ZM34.2525 39.7518L33.7929 39.5548L34.2525 39.7518ZM34.5375 42.4668L34.184 42.8204L34.1897 42.8261L34.1956 42.8316L34.5375 42.4668ZM36.7575 42.8418L36.8455 43.3342L36.8588 43.3314L36.7575 42.8418ZM37.5825 42.6018L37.762 43.0685L37.5825 42.6018ZM38.2575 42.5568L38.0847 43.026L38.0957 43.03L38.107 43.0336L38.2575 42.5568ZM38.6925 42.8868L38.2685 43.1518L38.2784 43.1675L38.2893 43.1825L38.6925 42.8868ZM38.8725 43.4118L38.3731 43.4368L38.3732 43.4381L38.8725 43.4118ZM38.7375 43.9818L39.1747 44.2247L39.18 44.2147L38.7375 43.9818ZM38.2425 44.4018L38.0431 43.9432L38.0346 43.9471L38.2425 44.4018ZM37.1175 44.7618L37.0195 44.2715L37.0171 44.272L37.1175 44.7618ZM35.9325 44.3818C35.0892 44.3818 34.3849 44.2366 33.8051 43.9642L33.38 44.8694C34.1202 45.217 34.9759 45.3818 35.9325 45.3818V44.3818ZM33.8134 43.9682C33.243 43.6874 32.8177 43.3008 32.5206 42.8085L31.6644 43.3251C32.0674 43.9928 32.642 44.5062 33.3717 44.8654L33.8134 43.9682ZM32.5206 42.8085C32.225 42.3186 32.0675 41.7261 32.0675 41.0118H31.0675C31.0675 41.8775 31.26 42.655 31.6644 43.3251L32.5206 42.8085ZM32.0675 41.0118C32.0675 40.326 32.2157 39.7501 32.4952 39.2673L31.6298 38.7663C31.2493 39.4235 31.0675 40.1775 31.0675 41.0118H32.0675ZM32.4939 39.2697C32.7891 38.766 33.184 38.3805 33.6841 38.1046L33.201 37.229C32.541 37.5931 32.0159 38.1076 31.6312 38.7639L32.4939 39.2697ZM33.6866 38.1032C34.1941 37.8193 34.7784 37.6718 35.4525 37.6718V36.6718C34.6266 36.6718 33.871 36.8543 33.1984 37.2304L33.6866 38.1032ZM35.4525 37.6718C35.9474 37.6718 36.3833 37.7526 36.7668 37.906L37.1382 36.9776C36.6217 36.771 36.0576 36.6718 35.4525 36.6718V37.6718ZM36.7758 37.9095C37.1569 38.0535 37.4772 38.2666 37.7434 38.5495L38.4716 37.8641C38.0979 37.467 37.6482 37.1701 37.1292 36.9741L36.7758 37.9095ZM37.7486 38.5549C38.0131 38.8276 38.2161 39.1622 38.3542 39.5679L39.3008 39.2457C39.119 38.7114 38.842 38.246 38.4665 37.8587L37.7486 38.5549ZM38.3573 39.5769C38.5047 39.9844 38.5825 40.4506 38.5825 40.9818H39.5825C39.5825 40.3529 39.4903 39.7692 39.2977 39.2367L38.3573 39.5769ZM38.5825 40.9818C38.5825 41.0373 38.5747 41.0642 38.5718 41.0722C38.5705 41.0757 38.5703 41.0751 38.5724 41.072C38.5746 41.0687 38.5776 41.0651 38.5812 41.0618L39.2539 41.8018C39.5006 41.5775 39.5825 41.2718 39.5825 40.9818H38.5825ZM38.6009 41.0448C38.6152 41.0331 38.6149 41.0396 38.5793 41.0488C38.5432 41.0581 38.4833 41.0668 38.3925 41.0668V42.0668C38.6753 42.0668 38.9913 42.0175 39.2341 41.8188L38.6009 41.0448ZM38.3925 41.0668H33.8025V42.0668H38.3925V41.0668ZM34.3025 41.5668V40.3068H33.3025V41.5668H34.3025ZM33.8025 40.8068H37.1325V39.8068H33.8025V40.8068ZM36.8172 39.9187L36.5772 40.1137L37.2078 40.8899L37.4478 40.6949L36.8172 39.9187ZM37.3925 40.5018C37.3925 40.093 37.3382 39.7179 37.2011 39.4024L36.284 39.8012C36.3468 39.9457 36.3925 40.1706 36.3925 40.5018H37.3925ZM37.2011 39.4024C37.0628 39.0845 36.846 38.8258 36.5498 38.6481L36.0353 39.5055C36.1391 39.5678 36.2222 39.6591 36.284 39.8012L37.2011 39.4024ZM36.5595 38.6541C36.2695 38.4709 35.93 38.3968 35.5725 38.3968V39.3968C35.7951 39.3968 35.9356 39.4427 36.0255 39.4995L36.5595 38.6541ZM35.5725 38.3968C35.1784 38.3968 34.8108 38.4934 34.4894 38.703L35.0357 39.5406C35.1742 39.4502 35.3466 39.3968 35.5725 39.3968V38.3968ZM34.4941 38.7C34.1756 38.9026 33.9457 39.1983 33.7929 39.5548L34.7121 39.9488C34.7993 39.7453 34.9094 39.621 35.031 39.5436L34.4941 38.7ZM33.7929 39.5548C33.6382 39.9159 33.5725 40.3381 33.5725 40.8018H34.5725C34.5725 40.4255 34.6268 40.1477 34.7121 39.9488L33.7929 39.5548ZM33.5725 40.8018V40.9368H34.5725V40.8018H33.5725ZM33.5725 40.9368C33.5725 41.7008 33.7363 42.3727 34.184 42.8204L34.8911 42.1132C34.7187 41.9409 34.5725 41.5928 34.5725 40.9368H33.5725ZM34.1956 42.8316C34.6456 43.2535 35.2832 43.4168 36.0075 43.4168V42.4168C35.4119 42.4168 35.0695 42.2801 34.8795 42.102L34.1956 42.8316ZM36.0075 43.4168C36.2641 43.4168 36.5443 43.3878 36.8454 43.334L36.6696 42.3496C36.4107 42.3958 36.191 42.4168 36.0075 42.4168V43.4168ZM36.8588 43.3314C37.1738 43.2663 37.4751 43.1788 37.762 43.0685L37.403 42.1351C37.17 42.2248 36.9212 42.2973 36.6562 42.3522L36.8588 43.3314ZM37.762 43.0685C37.9514 42.9956 38.0451 43.0114 38.0847 43.026L38.4304 42.0876C38.0899 41.9622 37.7336 42.008 37.403 42.1351L37.762 43.0685ZM38.107 43.0336C38.1904 43.0599 38.2353 43.0986 38.2685 43.1518L39.1165 42.6218C38.9497 42.355 38.7046 42.1736 38.4081 42.08L38.107 43.0336ZM38.2893 43.1825C38.337 43.2475 38.3676 43.3266 38.3731 43.4368L39.3719 43.3868C39.3574 43.097 39.268 42.8261 39.0957 42.5911L38.2893 43.1825ZM38.3732 43.4381C38.3779 43.527 38.3586 43.6281 38.2951 43.7489L39.18 44.2147C39.3164 43.9555 39.3871 43.6766 39.3718 43.3855L38.3732 43.4381ZM38.3004 43.739C38.2646 43.8034 38.1949 43.8773 38.0432 43.9433L38.4419 44.8603C38.7501 44.7263 39.0104 44.5202 39.1746 44.2246L38.3004 43.739ZM38.0346 43.9471C37.7218 44.0901 37.3839 44.1986 37.0195 44.2715L37.2156 45.2521C37.6512 45.165 38.0633 45.0335 38.4504 44.8565L38.0346 43.9471ZM37.0171 44.272C36.6603 44.3452 36.2989 44.3818 35.9325 44.3818V45.3818C36.3661 45.3818 36.7948 45.3384 37.218 45.2516L37.0171 44.272ZM40.9078 44.1168L40.5297 44.4441L40.5366 44.4517L40.9078 44.1168ZM42.5428 34.3518L42.1892 34.7054L42.1969 34.7128L42.5428 34.3518ZM43.1128 42.4968L42.7269 42.8147L42.7323 42.8212L42.7379 42.8276L43.1128 42.4968ZM43.8928 42.7368L43.9635 43.2318L43.9891 43.2281L44.0141 43.2219L43.8928 42.7368ZM44.1478 42.6918V42.1918H44.1201L44.0926 42.1949L44.1478 42.6918ZM44.5228 42.8868L44.097 43.1488L44.1041 43.1603L44.1117 43.1714L44.5228 42.8868ZM44.4478 44.4768L44.834 44.7948L44.8425 44.7838L44.4478 44.4768ZM43.8028 44.8068L43.8649 45.3029L43.8764 45.3015L43.8878 45.2995L43.8028 44.8068ZM43.4578 44.8518L43.5239 45.3474H43.5239L43.4578 44.8518ZM43.0378 44.3818C42.1613 44.3818 41.6113 44.1502 41.2791 43.7819L40.5366 44.4517C41.1243 45.1034 41.9944 45.3818 43.0378 45.3818V44.3818ZM41.2859 43.7896C40.9462 43.3971 40.7328 42.756 40.7328 41.7768H39.7328C39.7328 42.8776 39.9694 43.7965 40.5298 44.444L41.2859 43.7896ZM40.7328 41.7768V35.3568H39.7328V41.7768H40.7328ZM40.7328 35.3568C40.7328 35.0013 40.8244 34.8123 40.9314 34.7053L40.2243 33.9982C39.8713 34.3513 39.7328 34.8323 39.7328 35.3568H40.7328ZM40.9314 34.7053C41.0425 34.5942 41.2251 34.5068 41.5528 34.5068V33.5068C41.0406 33.5068 40.5732 33.6494 40.2243 33.9982L40.9314 34.7053ZM41.5528 34.5068C41.8945 34.5068 42.0803 34.5963 42.1893 34.7053L42.8964 33.9982C42.5454 33.6472 42.0712 33.5068 41.5528 33.5068V34.5068ZM42.1969 34.7128C42.3096 34.8208 42.4028 35.0071 42.4028 35.3568H43.4028C43.4028 34.8265 43.2561 34.3428 42.8888 33.9908L42.1969 34.7128ZM42.4028 35.3568V41.6868H43.4028V35.3568H42.4028ZM42.4028 41.6868C42.4028 42.1004 42.4775 42.5118 42.7269 42.8147L43.4988 42.1789C43.4682 42.1418 43.4028 42.0132 43.4028 41.6868H42.4028ZM42.7379 42.8276C42.9844 43.107 43.3118 43.2518 43.6828 43.2518V42.2518C43.5939 42.2518 43.5413 42.2266 43.4878 42.166L42.7379 42.8276ZM43.6828 43.2518C43.7767 43.2518 43.8704 43.2451 43.9635 43.2318L43.8221 42.2418C43.7753 42.2485 43.7289 42.2518 43.6828 42.2518V43.2518ZM44.0141 43.2219C44.0704 43.2078 44.1332 43.1965 44.2031 43.1887L44.0926 42.1949C43.9825 42.2071 43.8753 42.2258 43.7716 42.2517L44.0141 43.2219ZM44.1478 43.1918C44.169 43.1918 44.1604 43.1956 44.1384 43.1842C44.1279 43.1787 44.118 43.1716 44.1098 43.1638C44.1018 43.1561 44.0979 43.1502 44.097 43.1488L44.9487 42.6247C44.766 42.3279 44.4679 42.1918 44.1478 42.1918V43.1918ZM44.1117 43.1714C44.0956 43.1481 44.1135 43.1627 44.1311 43.2668C44.1473 43.3618 44.1578 43.4977 44.1578 43.6818H45.1578C45.1578 43.4659 45.1459 43.2693 45.117 43.0993C45.0897 42.9384 45.0401 42.7555 44.9339 42.6022L44.1117 43.1714ZM44.1578 43.6818C44.1578 43.9769 44.0969 44.1135 44.0532 44.1698L44.8425 44.7838C45.0787 44.4801 45.1578 44.0867 45.1578 43.6818H44.1578ZM44.0619 44.1589C44.0204 44.2093 43.9299 44.2775 43.7179 44.3141L43.8878 45.2995C44.2557 45.2361 44.5953 45.0843 44.8338 44.7947L44.0619 44.1589ZM43.7408 44.3107C43.6588 44.3209 43.5422 44.3361 43.3918 44.3562L43.5239 45.3474C43.6735 45.3275 43.7869 45.3127 43.8649 45.3029L43.7408 44.3107ZM43.3918 44.3562C43.2602 44.3737 43.1425 44.3818 43.0378 44.3818V45.3818C43.1932 45.3818 43.3555 45.3699 43.5239 45.3474L43.3918 44.3562ZM46.5744 44.4168L46.3032 44.8368L46.3071 44.8393L46.5744 44.4168ZM45.4344 43.0818L44.9811 43.2928L44.9842 43.2992L45.4344 43.0818ZM45.4344 38.9568L44.9856 38.7363L44.9826 38.7428L45.4344 38.9568ZM46.5744 37.6368L46.3071 37.2142L46.3032 37.2168L46.5744 37.6368ZM50.6244 38.5668V39.0668H51.3398L51.094 38.395L50.6244 38.5668ZM50.4594 38.5668H49.9594V39.0668H50.4594V38.5668ZM50.8044 34.3518L51.158 34.7053L50.8044 34.3518ZM52.7694 34.3518L52.4158 34.7054L52.4235 34.7128L52.7694 34.3518ZM52.7844 44.5068L52.4308 44.1532L52.4231 44.1612L52.7844 44.5068ZM50.8344 44.5068L51.188 44.1532L50.8344 44.5068ZM50.4894 42.6468L50.9773 42.5373L49.9894 42.6468H50.4894ZM50.6544 43.3818L51.1319 43.5303L51.1716 43.4027L51.1423 43.2723L50.6544 43.3818ZM49.7694 44.4768L50.0309 44.903L50.0336 44.9013L49.7694 44.4768ZM49.8294 42.7218L50.0926 43.1469L50.0998 43.1425L50.1068 43.1378L49.8294 42.7218ZM50.3094 42.1068L49.8498 41.9098L49.8464 41.9181L50.3094 42.1068ZM50.0994 39.5868L49.7215 39.9143L49.7272 39.9206L50.0994 39.5868ZM48.3894 39.3318L48.1263 38.9067L48.3894 39.3318ZM47.8944 39.9468L48.3514 40.1499L48.354 40.1438L47.8944 39.9468ZM48.1044 42.4668L47.7266 42.7943L48.1044 42.4668ZM48.2544 44.3818C47.7106 44.3818 47.2449 44.2493 46.8418 43.9943L46.3071 44.8393C46.884 45.2043 47.5383 45.3818 48.2544 45.3818V44.3818ZM46.8457 43.9968C46.4523 43.7427 46.13 43.3725 45.8847 42.8644L44.9842 43.2992C45.2989 43.9511 45.7366 44.4709 46.3032 44.8368L46.8457 43.9968ZM45.8877 42.8708C45.6548 42.3705 45.5294 41.7606 45.5294 41.0268H44.5294C44.5294 41.873 44.674 42.6331 44.9811 43.2928L45.8877 42.8708ZM45.5294 41.0268C45.5294 40.2705 45.6557 39.6577 45.8863 39.1708L44.9826 38.7428C44.6732 39.3959 44.5294 40.1631 44.5294 41.0268H45.5294ZM45.8832 39.1772C46.1278 38.6793 46.4501 38.3123 46.8457 38.0568L46.3032 37.2168C45.7387 37.5813 45.3011 38.0943 44.9857 38.7363L45.8832 39.1772ZM46.8418 38.0593C47.2449 37.8043 47.7106 37.6718 48.2544 37.6718V36.6718C47.5383 36.6718 46.884 36.8493 46.3071 37.2143L46.8418 38.0593ZM48.2544 37.6718C48.722 37.6718 49.128 37.7812 49.4851 37.9923L49.9938 37.1313C49.4709 36.8223 48.8869 36.6718 48.2544 36.6718V37.6718ZM49.4851 37.9923C49.8434 38.204 50.0511 38.455 50.1549 38.7386L51.094 38.395C50.8977 37.8586 50.5155 37.4396 49.9938 37.1313L49.4851 37.9923ZM50.6244 38.0668H50.4594V39.0668H50.6244V38.0668ZM50.9594 38.5668V35.3568H49.9594V38.5668H50.9594ZM50.9594 35.3568C50.9594 35.0013 51.051 34.8123 51.158 34.7053L50.4509 33.9982C50.0979 34.3513 49.9594 34.8323 49.9594 35.3568H50.9594ZM51.158 34.7053C51.267 34.5963 51.4528 34.5068 51.7944 34.5068V33.5068C51.2761 33.5068 50.8019 33.6472 50.4509 33.9982L51.158 34.7053ZM51.7944 34.5068C52.1222 34.5068 52.3048 34.5942 52.4159 34.7053L53.123 33.9982C52.7741 33.6494 52.3067 33.5068 51.7944 33.5068V34.5068ZM52.4235 34.7128C52.5362 34.8208 52.6294 35.0071 52.6294 35.3568H53.6294C53.6294 34.8265 53.4827 34.3428 53.1154 33.9908L52.4235 34.7128ZM52.6294 35.3568V43.5018H53.6294V35.3568H52.6294ZM52.6294 43.5018C52.6294 43.8573 52.5379 44.0463 52.4309 44.1532L53.138 44.8603C53.491 44.5073 53.6294 44.0263 53.6294 43.5018H52.6294ZM52.4231 44.1612C52.327 44.2617 52.1526 44.3518 51.8094 44.3518V45.3518C52.3263 45.3518 52.8019 45.2119 53.1458 44.8524L52.4231 44.1612ZM51.8094 44.3518C51.4817 44.3518 51.2991 44.2644 51.188 44.1532L50.4809 44.8603C50.8298 45.2092 51.2972 45.3518 51.8094 45.3518V44.3518ZM51.188 44.1532C51.081 44.0463 50.9894 43.8573 50.9894 43.5018H49.9894C49.9894 44.0263 50.1279 44.5073 50.4809 44.8603L51.188 44.1532ZM50.9894 43.5018V42.6468H49.9894V43.5018H50.9894ZM50.0016 42.7563L50.1666 43.4913L51.1423 43.2723L50.9773 42.5373L50.0016 42.7563ZM50.177 43.2333C50.0771 43.5543 49.8669 43.8272 49.5053 44.0523L50.0336 44.9013C50.5719 44.5664 50.9517 44.1093 51.1319 43.5303L50.177 43.2333ZM49.5079 44.0506C49.1547 44.2674 48.742 44.3818 48.2544 44.3818V45.3818C48.9068 45.3818 49.5042 45.2262 50.0309 44.903L49.5079 44.0506ZM49.1094 43.4168C49.4634 43.4168 49.7963 43.3304 50.0926 43.1469L49.5663 42.2967C49.4426 42.3732 49.2954 42.4168 49.1094 42.4168V43.4168ZM50.1068 43.1378C50.4124 42.9341 50.6308 42.6433 50.7725 42.2954L49.8464 41.9181C49.7681 42.1103 49.6665 42.2295 49.5521 42.3058L50.1068 43.1378ZM50.769 42.3038C50.9248 41.9403 50.9894 41.5068 50.9894 41.0268H49.9894C49.9894 41.4268 49.9341 41.7133 49.8499 41.9098L50.769 42.3038ZM50.9894 41.0268C50.9894 40.3151 50.8556 39.6812 50.4717 39.253L49.7272 39.9206C49.8632 40.0723 49.9894 40.3985 49.9894 41.0268H50.9894ZM50.4773 39.2593C50.1215 38.8488 49.6532 38.6368 49.1094 38.6368V39.6368C49.3657 39.6368 49.5574 39.7248 49.7216 39.9143L50.4773 39.2593ZM49.1094 38.6368C48.7554 38.6368 48.4226 38.7232 48.1263 38.9067L48.6526 39.7569C48.7763 39.6804 48.9234 39.6368 49.1094 39.6368V38.6368ZM48.1263 38.9067C47.8103 39.1022 47.5858 39.3977 47.4349 39.7498L48.354 40.1438C48.4431 39.9359 48.5485 39.8214 48.6526 39.7569L48.1263 38.9067ZM47.4375 39.7437C47.2782 40.1022 47.2144 40.5399 47.2144 41.0268H48.2144C48.2144 40.6137 48.2707 40.3314 48.3513 40.1499L47.4375 39.7437ZM47.2144 41.0268C47.2144 41.7332 47.3501 42.3598 47.7266 42.7943L48.4823 42.1393C48.3388 41.9738 48.2144 41.6404 48.2144 41.0268H47.2144ZM47.7266 42.7943C48.0851 43.2079 48.5599 43.4168 49.1094 43.4168V42.4168C48.839 42.4168 48.6438 42.3257 48.4823 42.1393L47.7266 42.7943ZM59.3882 44.4168L59.0174 44.7523L59.0258 44.7615L59.0346 44.7703L59.3882 44.4168ZM59.2832 42.7518L58.8527 42.4974L58.8484 42.5048L58.8442 42.5124L59.2832 42.7518ZM59.7782 42.1068L59.4168 41.7612L59.4161 41.762L59.7782 42.1068ZM62.4032 39.3618L62.7646 39.7074L62.7696 39.702L62.4032 39.3618ZM63.2282 38.2818L62.793 38.0352L62.787 38.0465L63.2282 38.2818ZM61.2632 36.3468L61.3717 36.8349L61.3802 36.833L61.3887 36.8308L61.2632 36.3468ZM60.3932 36.6768L60.5963 37.1337L60.6096 37.1278L60.6225 37.1211L60.3932 36.6768ZM59.6582 36.7818L59.5424 37.2682L59.5474 37.2694L59.6582 36.7818ZM59.1182 36.4518L58.7322 36.7696L58.7376 36.7762L58.7433 36.7826L59.1182 36.4518ZM58.8482 35.8668L58.3528 35.9344L58.3543 35.9453L58.3563 35.9562L58.8482 35.8668ZM58.9532 35.2218L59.4047 35.4368L59.4084 35.4287L58.9532 35.2218ZM59.4932 34.6818L59.7302 35.122L59.7319 35.1211L59.4932 34.6818ZM60.9182 34.1418L60.8108 33.6535L60.8087 33.6539L60.9182 34.1418ZM64.4732 34.3368L64.2732 34.7951L64.2762 34.7964L64.4732 34.3368ZM65.7482 35.3868L65.3252 35.6535L65.3279 35.6576L65.7482 35.3868ZM65.9882 38.2968L65.5125 38.1422L65.5093 38.1531L65.9882 38.2968ZM65.3882 39.4968L64.9785 39.21L64.9738 39.2171L65.3882 39.4968ZM64.2932 40.7718L63.9435 40.4144L63.9418 40.4161L64.2932 40.7718ZM61.8632 43.1718H61.3632V44.3684L62.2145 43.5275L61.8632 43.1718ZM61.8632 42.4818V41.9818H61.3632V42.4818H61.8632ZM66.4082 42.7668L66.0545 43.1205L66.0638 43.1293L66.4082 42.7668ZM66.4082 44.4318L66.7617 44.7854L66.4082 44.4318ZM60.3482 44.2168C59.9691 44.2168 59.8072 44.1287 59.7417 44.0632L59.0346 44.7703C59.3692 45.1049 59.8473 45.2168 60.3482 45.2168V44.2168ZM59.759 44.0813C59.6809 43.9951 59.6032 43.8288 59.6032 43.5018H58.6032C58.6032 43.9748 58.7154 44.4185 59.0174 44.7523L59.759 44.0813ZM59.6032 43.5018C59.6032 43.2955 59.6467 43.1295 59.7221 42.9912L58.8442 42.5124C58.6797 42.8141 58.6032 43.1481 58.6032 43.5018H59.6032ZM59.7136 43.0062C59.822 42.8228 59.963 42.6378 60.1403 42.4516L59.4161 41.762C59.1934 41.9958 59.0044 42.2407 58.8527 42.4974L59.7136 43.0062ZM60.1395 42.4524L62.7645 39.7074L62.0418 39.0162L59.4168 41.7612L60.1395 42.4524ZM62.7696 39.702C63.1718 39.2688 63.4799 38.8723 63.6694 38.5171L62.787 38.0465C62.6565 38.2913 62.4145 38.6148 62.0368 39.0216L62.7696 39.702ZM63.6632 38.5283C63.8694 38.1645 63.9832 37.7804 63.9832 37.3818H62.9832C62.9832 37.5832 62.927 37.7991 62.7932 38.0353L63.6632 38.5283ZM63.9832 37.3818C63.9832 36.8823 63.8117 36.4335 63.4107 36.1287L62.8056 36.9249C62.9047 37.0001 62.9832 37.1213 62.9832 37.3818H63.9832ZM63.4107 36.1287C63.04 35.847 62.5557 35.7418 62.0282 35.7418V36.7418C62.4406 36.7418 62.6764 36.8266 62.8056 36.9249L63.4107 36.1287ZM62.0282 35.7418C61.7397 35.7418 61.4422 35.7838 61.1377 35.8628L61.3887 36.8308C61.6241 36.7697 61.8367 36.7418 62.0282 36.7418V35.7418ZM61.1547 35.8587C60.8335 35.9301 60.5026 36.0576 60.1639 36.2325L60.6225 37.1211C60.9037 36.976 61.1529 36.8835 61.3717 36.8349L61.1547 35.8587ZM60.1901 36.2199C59.9882 36.3096 59.8554 36.3139 59.769 36.2942L59.5474 37.2694C59.901 37.3497 60.2582 37.284 60.5963 37.1337L60.1901 36.2199ZM59.774 36.2954C59.6696 36.2705 59.5785 36.2178 59.4931 36.121L58.7433 36.7826C58.9579 37.0258 59.2268 37.1931 59.5424 37.2682L59.774 36.2954ZM59.5042 36.1339C59.4192 36.0308 59.3651 35.9148 59.3401 35.7774L58.3563 35.9562C58.4113 36.2588 58.5371 36.5328 58.7322 36.7696L59.5042 36.1339ZM59.3436 35.7992C59.3274 35.6804 59.3444 35.5633 59.4046 35.4368L58.5018 35.0068C58.362 35.3003 58.309 35.6132 58.3528 35.9344L59.3436 35.7992ZM59.4084 35.4287C59.4538 35.3287 59.5446 35.222 59.7302 35.122L59.2561 34.2416C58.9218 34.4216 58.6526 34.6749 58.498 35.0149L59.4084 35.4287ZM59.7319 35.1211C60.153 34.8922 60.5847 34.7291 61.0277 34.6297L60.8087 33.6539C60.2717 33.7745 59.7533 33.9713 59.2544 34.2425L59.7319 35.1211ZM61.0256 34.6301C61.4912 34.5277 61.9552 34.4768 62.4182 34.4768V33.4768C61.8812 33.4768 61.3452 33.5359 60.8108 33.6535L61.0256 34.6301ZM62.4182 34.4768C63.1931 34.4768 63.8049 34.5907 64.2732 34.7951L64.6732 33.8785C64.0415 33.6029 63.2833 33.4768 62.4182 33.4768V34.4768ZM64.2762 34.7964C64.7547 35.0014 65.0957 35.2893 65.3252 35.6534L66.1712 35.1201C65.8207 34.5643 65.3116 34.1521 64.6701 33.8772L64.2762 34.7964ZM65.3279 35.6576C65.5542 36.0088 65.6832 36.4688 65.6832 37.0668H66.6832C66.6832 36.3248 66.5222 35.6648 66.1685 35.1159L65.3279 35.6576ZM65.6832 37.0668C65.6832 37.4342 65.6265 37.7921 65.5127 38.1423L66.4637 38.4513C66.6099 38.0015 66.6832 37.5394 66.6832 37.0668H65.6832ZM65.5093 38.1531C65.4069 38.4942 65.233 38.8465 64.9786 39.2101L65.7978 39.7835C66.1033 39.3471 66.3294 38.8994 66.4671 38.4405L65.5093 38.1531ZM64.9738 39.2171C64.7277 39.5816 64.3868 39.9807 63.9435 40.4144L64.6428 41.1292C65.1195 40.6629 65.5086 40.212 65.8026 39.7765L64.9738 39.2171ZM63.9418 40.4161L61.5118 42.8161L62.2145 43.5275L64.6445 41.1275L63.9418 40.4161ZM62.3632 43.1718V42.4818H61.3632V43.1718H62.3632ZM61.8632 42.9818H65.5682V41.9818H61.8632V42.9818ZM65.5682 42.9818C65.8566 42.9818 65.9892 43.0549 66.0546 43.1203L66.7617 42.4132C66.4472 42.0987 66.0197 41.9818 65.5682 41.9818V42.9818ZM66.0638 43.1293C66.1366 43.1984 66.2082 43.325 66.2082 43.5918H67.2082C67.2082 43.1386 67.0798 42.7152 66.7526 42.4043L66.0638 43.1293ZM66.2082 43.5918C66.2082 43.8572 66.1371 43.9958 66.0546 44.0782L66.7617 44.7854C67.0793 44.4678 67.2082 44.0464 67.2082 43.5918H66.2082ZM66.0546 44.0782C65.9892 44.1437 65.8566 44.2168 65.5682 44.2168V45.2168C66.0197 45.2168 66.4472 45.0999 66.7617 44.7854L66.0546 44.0782ZM65.5682 44.2168H60.3482V45.2168H65.5682V44.2168Z" fill="url(#paint14_linear_2193_4798)" mask="url(#path-25-outside-1_2193_4798)"/>
</g>
<path fill-rule="evenodd" clip-rule="evenodd" d="M61.6944 85.6852C61.6944 85.6852 65.6657 86.174 65.9711 87.2737C66.2766 88.3734 63.2218 90.9394 63.2218 90.9394C63.2218 90.9394 63.955 94.8496 63.0386 95.5216C62.1221 96.1937 58.7008 94.0553 58.7008 94.0553C58.7008 94.0553 55.2183 96.0104 54.3019 95.2772C53.3854 94.6052 54.363 90.6951 54.363 90.6951C54.363 90.6951 51.4304 87.9458 51.858 86.846C52.2246 85.7463 56.2569 85.5019 56.2569 85.5019C56.2569 85.5019 57.9676 81.8973 59.1284 81.8973C60.167 81.9584 61.6944 85.6852 61.6944 85.6852Z" fill="url(#paint15_linear_2193_4798)"/>
<path fill-rule="evenodd" clip-rule="evenodd" d="M61.0809 86.4184C61.0809 86.4184 64.319 86.8461 64.6245 87.7625C64.8689 88.679 62.364 90.7562 62.364 90.7562C62.364 90.7562 62.9749 93.9943 62.1807 94.5442C61.3864 95.094 58.6371 93.3222 58.6371 93.3222C58.6371 93.3222 55.7656 94.9107 55.0325 94.2998C54.2993 93.7499 55.0936 90.5118 55.0936 90.5118C55.0936 90.5118 52.7108 88.2513 53.0163 87.396C53.3218 86.4795 56.621 86.2962 56.621 86.2962C56.621 86.2962 58.0262 83.3026 58.9426 83.3637C59.859 83.3637 61.0809 86.4184 61.0809 86.4184Z" fill="#0B4C53"/>
<path fill-rule="evenodd" clip-rule="evenodd" d="M60.9622 86.5405C60.9622 86.5405 64.0781 86.9071 64.3225 87.8236C64.5668 88.6789 62.1841 90.6951 62.1841 90.6951C62.1841 90.6951 62.7951 93.8109 62.0008 94.2997C61.2677 94.7885 58.5795 93.1389 58.5795 93.1389C58.5795 93.1389 55.8302 94.6663 55.097 94.1164C54.3639 93.5665 55.1581 90.5118 55.1581 90.5118C55.1581 90.5118 52.8365 88.3734 53.142 87.5181C53.4474 86.6627 56.5633 86.4794 56.5633 86.4794C56.5633 86.4794 57.9074 83.608 58.8239 83.6691C59.8014 83.6691 60.9622 86.5405 60.9622 86.5405Z" fill="url(#paint16_radial_2193_4798)"/>
<path fill-rule="evenodd" clip-rule="evenodd" d="M76.9152 85.6852C76.9152 85.6852 80.8864 86.174 81.1919 87.2737C81.4973 88.3734 78.4425 90.9394 78.4425 90.9394C78.4425 90.9394 79.1757 94.8496 78.2593 95.5216C77.3428 96.1937 73.9215 94.0553 73.9215 94.0553C73.9215 94.0553 70.439 96.0104 69.5226 95.2772C68.6061 94.6052 69.5837 90.6951 69.5837 90.6951C69.5837 90.6951 66.6511 87.9458 67.0787 86.846C67.4453 85.7463 71.4776 85.5019 71.4776 85.5019C71.4776 85.5019 73.1883 81.8973 74.3491 81.8973C75.3878 81.9584 76.9152 85.6852 76.9152 85.6852Z" fill="url(#paint17_linear_2193_4798)"/>
<path fill-rule="evenodd" clip-rule="evenodd" d="M76.3016 86.4184C76.3016 86.4184 79.5397 86.8461 79.8452 87.7625C80.0896 88.679 77.5847 90.7562 77.5847 90.7562C77.5847 90.7562 78.1956 93.9943 77.4014 94.5442C76.6071 95.094 73.8578 93.3222 73.8578 93.3222C73.8578 93.3222 70.9863 94.9107 70.2532 94.2998C69.52 93.7499 70.3143 90.5118 70.3143 90.5118C70.3143 90.5118 67.9315 88.2513 68.237 87.396C68.5425 86.4795 71.8417 86.2962 71.8417 86.2962C71.8417 86.2962 73.2469 83.3026 74.1633 83.3637C75.0797 83.3637 76.3016 86.4184 76.3016 86.4184Z" fill="#0B4C53"/>
<path fill-rule="evenodd" clip-rule="evenodd" d="M76.1829 86.5405C76.1829 86.5405 79.2988 86.9071 79.5432 87.8236C79.7876 88.6789 77.4048 90.6951 77.4048 90.6951C77.4048 90.6951 78.0158 93.8109 77.2215 94.2997C76.4884 94.7885 73.8002 93.1389 73.8002 93.1389C73.8002 93.1389 71.0509 94.6663 70.3177 94.1164C69.5846 93.5665 70.3788 90.5118 70.3788 90.5118C70.3788 90.5118 68.0572 88.3734 68.3627 87.5181C68.6681 86.6627 71.784 86.4794 71.784 86.4794C71.784 86.4794 73.1281 83.608 74.0446 83.6691C75.0221 83.6691 76.1829 86.5405 76.1829 86.5405Z" fill="url(#paint18_radial_2193_4798)"/>
<path fill-rule="evenodd" clip-rule="evenodd" d="M46.4747 85.6852C46.4747 85.6852 50.4459 86.174 50.7514 87.2737C51.0569 88.3734 48.0021 90.9394 48.0021 90.9394C48.0021 90.9394 48.7353 94.8496 47.8188 95.5216C46.9024 96.1937 43.481 94.0553 43.481 94.0553C43.481 94.0553 39.9986 96.0104 39.0821 95.2772C38.1657 94.6052 39.1432 90.6951 39.1432 90.6951C39.1432 90.6951 36.2106 87.9458 36.6383 86.846C37.0049 85.7463 41.0372 85.5019 41.0372 85.5019C41.0372 85.5019 42.7479 81.8973 43.9087 81.8973C44.9473 81.9584 46.4747 85.6852 46.4747 85.6852Z" fill="url(#paint19_linear_2193_4798)"/>
<path fill-rule="evenodd" clip-rule="evenodd" d="M45.8612 86.4184C45.8612 86.4184 49.0993 86.8461 49.4048 87.7625C49.6491 88.679 47.1442 90.7562 47.1442 90.7562C47.1442 90.7562 47.7552 93.9943 46.9609 94.5442C46.1667 95.094 43.4174 93.3222 43.4174 93.3222C43.4174 93.3222 40.5459 94.9107 39.8127 94.2998C39.0796 93.7499 39.8738 90.5118 39.8738 90.5118C39.8738 90.5118 37.4911 88.2513 37.7966 87.396C38.1021 86.4795 41.4012 86.2962 41.4012 86.2962C41.4012 86.2962 42.8064 83.3026 43.7229 83.3637C44.6393 83.3637 45.8612 86.4184 45.8612 86.4184Z" fill="#0B4C53"/>
<path fill-rule="evenodd" clip-rule="evenodd" d="M45.7415 86.5405C45.7415 86.5405 48.8574 86.9071 49.1018 87.8236C49.3461 88.6789 46.9634 90.6951 46.9634 90.6951C46.9634 90.6951 47.5744 93.8109 46.7801 94.2997C46.047 94.7885 43.3588 93.1389 43.3588 93.1389C43.3588 93.1389 40.6095 94.6663 39.8763 94.1164C39.1432 93.5665 39.9374 90.5118 39.9374 90.5118C39.9374 90.5118 37.6158 88.3734 37.9213 87.5181C38.2267 86.6627 41.3426 86.4794 41.3426 86.4794C41.3426 86.4794 42.6867 83.608 43.6031 83.6691C44.5807 83.6691 45.7415 86.5405 45.7415 86.5405Z" fill="url(#paint20_radial_2193_4798)"/>
<path fill-rule="evenodd" clip-rule="evenodd" d="M31.255 85.6852C31.255 85.6852 35.2262 86.174 35.5317 87.2737C35.8372 88.3734 32.7824 90.9394 32.7824 90.9394C32.7824 90.9394 33.5155 94.8496 32.5991 95.5216C31.6827 96.1937 28.2613 94.0553 28.2613 94.0553C28.2613 94.0553 24.7788 96.0104 23.8624 95.2772C22.946 94.6052 23.9235 90.6951 23.9235 90.6951C23.9235 90.6951 20.9909 87.9458 21.4186 86.846C21.7852 85.7463 25.8175 85.5019 25.8175 85.5019C25.8175 85.5019 27.5282 81.8973 28.689 81.8973C29.7276 81.9584 31.255 85.6852 31.255 85.6852Z" fill="url(#paint21_linear_2193_4798)"/>
<path fill-rule="evenodd" clip-rule="evenodd" d="M30.6415 86.4184C30.6415 86.4184 33.8796 86.8461 34.185 87.7625C34.4294 88.679 31.9245 90.7562 31.9245 90.7562C31.9245 90.7562 32.5354 93.9943 31.7412 94.5442C30.947 95.094 28.1977 93.3222 28.1977 93.3222C28.1977 93.3222 25.3262 94.9107 24.593 94.2998C23.8599 93.7499 24.6541 90.5118 24.6541 90.5118C24.6541 90.5118 22.2714 88.2513 22.5769 87.396C22.8823 86.4795 26.1815 86.2962 26.1815 86.2962C26.1815 86.2962 27.5867 83.3026 28.5031 83.3637C29.4196 83.3637 30.6415 86.4184 30.6415 86.4184Z" fill="#0B4C53"/>
<path fill-rule="evenodd" clip-rule="evenodd" d="M30.5218 86.5405C30.5218 86.5405 33.6377 86.9071 33.882 87.8236C34.1264 88.6789 31.7437 90.6951 31.7437 90.6951C31.7437 90.6951 32.3547 93.8109 31.5604 94.2997C30.8273 94.7885 28.139 93.1389 28.139 93.1389C28.139 93.1389 25.3897 94.6663 24.6566 94.1164C23.9235 93.5665 24.7177 90.5118 24.7177 90.5118C24.7177 90.5118 22.3961 88.3734 22.7015 87.5181C23.007 86.6627 26.1229 86.4794 26.1229 86.4794C26.1229 86.4794 27.467 83.608 28.3834 83.6691C29.361 83.6691 30.5218 86.5405 30.5218 86.5405Z" fill="url(#paint22_radial_2193_4798)"/>
<path fill-rule="evenodd" clip-rule="evenodd" d="M16.0353 85.6852C16.0353 85.6852 20.0065 86.174 20.312 87.2737C20.6174 88.3734 17.5627 90.9394 17.5627 90.9394C17.5627 90.9394 18.2958 94.8496 17.3794 95.5216C16.4629 96.1937 13.0416 94.0553 13.0416 94.0553C13.0416 94.0553 9.55912 96.0104 8.64269 95.2772C7.72625 94.6052 8.70379 90.6951 8.70379 90.6951C8.70379 90.6951 5.77119 87.9458 6.19886 86.846C6.56543 85.7463 10.5978 85.5019 10.5978 85.5019C10.5978 85.5019 12.3084 81.8973 13.4692 81.8973C14.5079 81.9584 16.0353 85.6852 16.0353 85.6852Z" fill="url(#paint23_linear_2193_4798)"/>
<path fill-rule="evenodd" clip-rule="evenodd" d="M15.4218 86.4184C15.4218 86.4184 18.6598 86.8461 18.9653 87.7625C19.2097 88.679 16.7048 90.7562 16.7048 90.7562C16.7048 90.7562 17.3157 93.9943 16.5215 94.5442C15.7272 95.094 12.9779 93.3222 12.9779 93.3222C12.9779 93.3222 10.1064 94.9107 9.3733 94.2998C8.64015 93.7499 9.4344 90.5118 9.4344 90.5118C9.4344 90.5118 7.05165 88.2513 7.35713 87.396C7.66261 86.4795 10.9618 86.2962 10.9618 86.2962C10.9618 86.2962 12.367 83.3026 13.2834 83.3637C14.1999 83.3637 15.4218 86.4184 15.4218 86.4184Z" fill="#0B4C53"/>
<path fill-rule="evenodd" clip-rule="evenodd" d="M15.302 86.5405C15.302 86.5405 18.4179 86.9071 18.6623 87.8236C18.9067 88.6789 16.524 90.6951 16.524 90.6951C16.524 90.6951 17.1349 93.8109 16.3407 94.2997C15.6075 94.7885 12.9193 93.1389 12.9193 93.1389C12.9193 93.1389 10.17 94.6663 9.43687 94.1164C8.70373 93.5665 9.49796 90.5118 9.49796 90.5118C9.49796 90.5118 7.17633 88.3734 7.4818 87.5181C7.78728 86.6627 10.9032 86.4794 10.9032 86.4794C10.9032 86.4794 12.2473 83.608 13.1637 83.6691C14.1412 83.6691 15.302 86.5405 15.302 86.5405Z" fill="url(#paint24_radial_2193_4798)"/>
<defs>
<filter id="filter0_d_2193_4798" x="14.0869" y="17.4768" width="57.1211" height="35.905" filterUnits="userSpaceOnUse" color-interpolation-filters="sRGB">
<feFlood flood-opacity="0" result="BackgroundImageFix"/>
<feColorMatrix in="SourceAlpha" type="matrix" values="0 0 0 0 0 0 0 0 0 0 0 0 0 0 0 0 0 0 127 0" result="hardAlpha"/>
<feOffset dy="4"/>
<feGaussianBlur stdDeviation="2"/>
<feComposite in2="hardAlpha" operator="out"/>
<feColorMatrix type="matrix" values="0 0 0 0 0 0 0 0 0 0 0 0 0 0 0 0 0 0 0.38 0"/>
<feBlend mode="normal" in2="BackgroundImageFix" result="effect1_dropShadow_2193_4798"/>
<feBlend mode="normal" in="SourceGraphic" in2="effect1_dropShadow_2193_4798" result="shape"/>
</filter>
<linearGradient id="paint0_linear_2193_4798" x1="43.8703" y1="75.3384" x2="43.8703" y2="2.74794" gradientUnits="userSpaceOnUse">
<stop stop-color="white"/>
<stop offset="1" stop-color="white"/>
</linearGradient>
<linearGradient id="paint1_linear_2193_4798" x1="43.8711" y1="72.9828" x2="43.8711" y2="0.390095" gradientUnits="userSpaceOnUse">
<stop stop-color="white"/>
<stop offset="1" stop-color="white"/>
</linearGradient>
<radialGradient id="paint2_radial_2193_4798" cx="0" cy="0" r="1" gradientUnits="userSpaceOnUse" gradientTransform="translate(44.4062 63.5887) scale(31.2938 55.9461)">
<stop stop-color="#0D6C76"/>
<stop offset="1" stop-color="#45C3D2"/>
</radialGradient>
<linearGradient id="paint3_linear_2193_4798" x1="43.0966" y1="64.7486" x2="43.0966" y2="4.83993" gradientUnits="userSpaceOnUse">
<stop stop-color="#5DCFDC"/>
<stop offset="1" stop-color="#11737E"/>
</linearGradient>
<linearGradient id="paint4_linear_2193_4798" x1="43.0952" y1="63.624" x2="43.0952" y2="5.48728" gradientUnits="userSpaceOnUse">
<stop stop-color="#45C2D1"/>
<stop offset="0.958333" stop-color="#0E6E79"/>
</linearGradient>
<linearGradient id="paint5_linear_2193_4798" x1="8.37866" y1="17.1633" x2="81.4294" y2="17.1633" gradientUnits="userSpaceOnUse">
<stop stop-color="#FF9840"/>
<stop offset="0.0972342" stop-color="#EF8E3C"/>
<stop offset="0.2877" stop-color="#C57531"/>
<stop offset="0.5527" stop-color="#814D20"/>
<stop offset="0.879" stop-color="#241609"/>
<stop offset="1"/>
</linearGradient>
<linearGradient id="paint6_linear_2193_4798" x1="78.1416" y1="56.4339" x2="8.50007" y2="56.4339" gradientUnits="userSpaceOnUse">
<stop stop-color="#FF6140"/>
<stop offset="0.0972342" stop-color="#EF5B3C"/>
<stop offset="0.2877" stop-color="#C54B31"/>
<stop offset="0.5527" stop-color="#813120"/>
<stop offset="0.879" stop-color="#240E09"/>
<stop offset="1"/>
</linearGradient>
<linearGradient id="paint7_linear_2193_4798" x1="43.8703" y1="75.3385" x2="43.8703" y2="2.748" gradientUnits="userSpaceOnUse">
<stop stop-color="white"/>
<stop offset="1" stop-color="white"/>
</linearGradient>
<linearGradient id="paint8_linear_2193_4798" x1="43.8711" y1="72.9829" x2="43.8711" y2="0.390156" gradientUnits="userSpaceOnUse">
<stop stop-color="white"/>
<stop offset="1" stop-color="white"/>
</linearGradient>
<radialGradient id="paint9_radial_2193_4798" cx="0" cy="0" r="1" gradientUnits="userSpaceOnUse" gradientTransform="translate(44.4062 63.5887) scale(31.2938 55.9461)">
<stop stop-color="#0D6C76"/>
<stop offset="1" stop-color="#45C3D2"/>
</radialGradient>
<linearGradient id="paint10_linear_2193_4798" x1="43.0966" y1="64.7486" x2="43.0966" y2="4.83999" gradientUnits="userSpaceOnUse">
<stop stop-color="#5DCFDC"/>
<stop offset="1" stop-color="#11737E"/>
</linearGradient>
<linearGradient id="paint11_linear_2193_4798" x1="43.0952" y1="63.624" x2="43.0952" y2="5.48735" gradientUnits="userSpaceOnUse">
<stop stop-color="#45C2D1"/>
<stop offset="0.958333" stop-color="#0E6E79"/>
</linearGradient>
<linearGradient id="paint12_linear_2193_4798" x1="8.37866" y1="17.1634" x2="81.4294" y2="17.1634" gradientUnits="userSpaceOnUse">
<stop stop-color="#FF9840"/>
<stop offset="0.0972342" stop-color="#EF8E3C"/>
<stop offset="0.2877" stop-color="#C57531"/>
<stop offset="0.5527" stop-color="#814D20"/>
<stop offset="0.879" stop-color="#241609"/>
<stop offset="1"/>
</linearGradient>
<linearGradient id="paint13_linear_2193_4798" x1="78.1416" y1="56.434" x2="8.50007" y2="56.434" gradientUnits="userSpaceOnUse">
<stop stop-color="#FF6140"/>
<stop offset="0.0972342" stop-color="#EF5B3C"/>
<stop offset="0.2877" stop-color="#C54B31"/>
<stop offset="0.5527" stop-color="#813120"/>
<stop offset="0.879" stop-color="#240E09"/>
<stop offset="1"/>
</linearGradient>
<linearGradient id="paint14_linear_2193_4798" x1="42.4045" y1="15.7168" x2="42.4045" y2="53.3004" gradientUnits="userSpaceOnUse">
<stop stop-color="#42BFCD"/>
<stop offset="1" stop-color="#11727D"/>
</linearGradient>
<linearGradient id="paint15_linear_2193_4798" x1="62.6829" y1="95.7213" x2="55.7451" y2="83.7047" gradientUnits="userSpaceOnUse">
<stop stop-color="#F4F3F1"/>
<stop offset="1" stop-color="#FBF9FE"/>
</linearGradient>
<radialGradient id="paint16_radial_2193_4798" cx="0" cy="0" r="1" gradientUnits="userSpaceOnUse" gradientTransform="translate(57.5214 86.8728) scale(5.49378 5.49378)">
<stop stop-color="#56C7D4"/>
<stop offset="0.9973" stop-color="#19727C"/>
</radialGradient>
<linearGradient id="paint17_linear_2193_4798" x1="77.9036" y1="95.7213" x2="70.9658" y2="83.7047" gradientUnits="userSpaceOnUse">
<stop stop-color="#F4F3F1"/>
<stop offset="1" stop-color="#FBF9FE"/>
</linearGradient>
<radialGradient id="paint18_radial_2193_4798" cx="0" cy="0" r="1" gradientUnits="userSpaceOnUse" gradientTransform="translate(72.7421 86.8728) scale(5.49378 5.49378)">
<stop stop-color="#56C7D4"/>
<stop offset="0.9973" stop-color="#19727C"/>
</radialGradient>
<linearGradient id="paint19_linear_2193_4798" x1="47.4631" y1="95.7213" x2="40.5253" y2="83.7047" gradientUnits="userSpaceOnUse">
<stop stop-color="#F4F3F1"/>
<stop offset="1" stop-color="#FBF9FE"/>
</linearGradient>
<radialGradient id="paint20_radial_2193_4798" cx="0" cy="0" r="1" gradientUnits="userSpaceOnUse" gradientTransform="translate(42.3007 86.8728) scale(5.49378 5.49378)">
<stop stop-color="#56C7D4"/>
<stop offset="0.9973" stop-color="#19727C"/>
</radialGradient>
<linearGradient id="paint21_linear_2193_4798" x1="32.2434" y1="95.7213" x2="25.3056" y2="83.7047" gradientUnits="userSpaceOnUse">
<stop stop-color="#F4F3F1"/>
<stop offset="1" stop-color="#FBF9FE"/>
</linearGradient>
<radialGradient id="paint22_radial_2193_4798" cx="0" cy="0" r="1" gradientUnits="userSpaceOnUse" gradientTransform="translate(27.081 86.8728) scale(5.49378 5.49378)">
<stop stop-color="#56C7D4"/>
<stop offset="0.9973" stop-color="#19727C"/>
</radialGradient>
<linearGradient id="paint23_linear_2193_4798" x1="17.0237" y1="95.7213" x2="10.0859" y2="83.7047" gradientUnits="userSpaceOnUse">
<stop stop-color="#F4F3F1"/>
<stop offset="1" stop-color="#FBF9FE"/>
</linearGradient>
<radialGradient id="paint24_radial_2193_4798" cx="0" cy="0" r="1" gradientUnits="userSpaceOnUse" gradientTransform="translate(11.8613 86.8728) scale(5.49378 5.49378)">
<stop stop-color="#56C7D4"/>
<stop offset="0.9973" stop-color="#19727C"/>
</radialGradient>
</defs>
</svg>
